<?xml version="1.0" standalone="no"?>
<!DOCTYPE svg PUBLIC "-//W3C//DTD SVG 20010904//EN"
 "http://www.w3.org/TR/2001/REC-SVG-20010904/DTD/svg10.dtd">
<svg version="1.0" xmlns="http://www.w3.org/2000/svg"
 width="1906.000000pt" height="823.000000pt" viewBox="0 0 1906.000000 823.000000"
 preserveAspectRatio="xMidYMid meet">

<g transform="translate(0.000000,823.000000) scale(0.100000,-0.100000)"
fill="#000000" stroke="none">
<path d="M9990 6912 c-45 -36 -15 -112 44 -112 38 0 66 28 66 65 0 58 -63 85
-110 47z"/>
<path d="M8537 6853 c-4 -3 -7 -116 -7 -250 l0 -243 140 0 140 0 0 45 0 45
-80 0 -80 0 0 205 0 205 -53 0 c-30 0 -57 -3 -60 -7z"/>
<path d="M8975 6745 c-153 -54 -166 -293 -20 -369 53 -28 145 -28 199 -1 22
11 53 37 70 58 25 31 31 49 34 101 5 82 -10 126 -58 170 -61 54 -144 70 -225
41z m134 -111 c27 -22 31 -32 31 -74 0 -65 -31 -104 -84 -104 -56 0 -81 31
-81 100 0 49 4 59 28 80 36 31 68 30 106 -2z"/>
<path d="M9414 6741 c-49 -22 -79 -61 -95 -125 -23 -92 12 -197 80 -239 49
-30 129 -30 170 1 16 12 33 22 36 22 3 0 5 -20 5 -45 0 -35 -6 -52 -25 -70
-33 -34 -87 -34 -121 0 -20 21 -35 25 -79 25 -64 0 -70 -14 -32 -70 62 -92
243 -106 323 -26 47 47 54 87 54 324 l0 212 -60 0 c-53 0 -60 -2 -60 -20 0
-11 -4 -20 -10 -20 -5 0 -10 4 -10 8 0 14 -69 42 -103 42 -18 0 -50 -9 -73
-19z m167 -110 c23 -23 29 -38 29 -71 0 -52 -13 -76 -50 -95 -38 -20 -73 -11
-105 27 -77 92 42 223 126 139z"/>
<path d="M10376 6750 c-15 -5 -37 -17 -47 -26 -18 -16 -19 -16 -19 4 0 20 -5
22 -60 22 l-60 0 0 -195 0 -195 60 0 60 0 0 128 c0 121 1 130 23 150 31 29 77
29 105 -1 20 -21 22 -34 22 -150 l0 -127 60 0 60 0 0 143 c0 154 -10 191 -61
229 -29 21 -103 31 -143 18z"/>
<path d="M9980 6555 l0 -195 55 0 55 0 0 195 0 195 -55 0 -55 0 0 -195z"/>
<path d="M5404 5056 c-29 -29 -34 -41 -34 -81 0 -40 5 -52 34 -81 24 -24 43
-34 65 -34 39 0 40 16 2 25 -71 15 -98 103 -47 153 51 52 140 20 148 -53 5
-45 -26 -40 -32 5 -5 32 -8 35 -43 38 -48 4 -67 -11 -67 -53 0 -46 17 -55 96
-52 l69 2 3 48 c3 43 0 51 -31 82 -30 30 -42 35 -82 35 -40 0 -52 -5 -81 -34z
m110 -71 c7 -19 -20 -46 -39 -39 -21 8 -26 32 -9 48 16 17 40 12 48 -9z"/>
<path d="M5780 5032 c0 -5 14 -7 30 -4 17 2 30 6 30 8 0 2 -13 4 -30 4 -16 0
-30 -4 -30 -8z"/>
<path d="M5880 4960 c0 -29 2 -51 4 -49 8 8 10 88 3 95 -4 4 -7 -17 -7 -46z"/>
<path d="M5938 5000 c17 -8 22 -18 24 -52 l1 -43 4 38 c5 41 -10 67 -36 66
-11 0 -9 -3 7 -9z"/>
<path d="M5990 5006 c0 -2 11 -6 25 -8 13 -3 22 -1 19 3 -5 9 -44 13 -44 5z"/>
<path d="M6099 4993 c-12 -16 -12 -17 1 -7 8 6 22 14 30 17 13 5 12 6 -1 6 -9
1 -23 -7 -30 -16z"/>
<path d="M6169 5005 c-4 -25 -1 -87 4 -92 4 -3 7 17 7 45 0 29 -2 52 -5 52 -3
0 -5 -2 -6 -5z"/>
<path d="M5780 4975 c0 -8 9 -10 25 -7 14 2 25 6 25 7 0 1 -11 5 -25 7 -16 3
-25 1 -25 -7z"/>
<path d="M6102 4924 c9 -9 21 -15 27 -13 6 2 -2 10 -17 17 -25 11 -25 11 -10
-4z"/>
<path d="M5780 4918 c0 -4 14 -8 30 -8 17 0 30 2 30 4 0 2 -13 6 -30 8 -16 3
-30 1 -30 -4z"/>
<path d="M5433 4262 c-7 -4 -19 -24 -28 -45 -8 -20 -20 -37 -25 -37 -6 0 -10
-31 -10 -70 l0 -70 100 0 100 0 0 70 c0 39 -4 70 -10 70 -5 0 -17 17 -25 37
-18 43 -30 53 -65 53 -14 0 -30 -4 -37 -8z m62 -28 c26 -27 15 -49 -25 -49
-24 0 -36 5 -38 16 -3 17 22 49 38 49 5 0 16 -7 25 -16z"/>
<path d="M5750 4211 c0 -4 11 -6 25 -3 14 2 25 6 25 8 0 2 -11 4 -25 4 -14 0
-25 -4 -25 -9z"/>
<path d="M5817 4189 c4 -13 8 -18 11 -10 2 7 -1 18 -6 23 -8 8 -9 4 -5 -13z"/>
<path d="M5898 4183 c7 -3 16 -2 19 1 4 3 -2 6 -13 5 -11 0 -14 -3 -6 -6z"/>
<path d="M5949 4188 c-6 -15 -3 -90 3 -94 4 -3 8 18 8 45 0 28 -2 51 -5 51 -3
0 -5 -1 -6 -2z"/>
<path d="M6004 4175 c-7 -17 3 -35 19 -34 9 0 9 2 0 6 -21 8 -15 31 10 36 l22
4 -23 2 c-12 0 -25 -6 -28 -14z"/>
<path d="M6116 4181 c-3 -4 6 -6 19 -3 14 2 25 6 25 8 0 8 -39 4 -44 -5z"/>
<path d="M6270 4175 c0 -8 4 -15 10 -15 5 0 7 7 4 15 -4 8 -8 15 -10 15 -2 0
-4 -7 -4 -15z"/>
<path d="M6408 4183 c6 -2 18 -2 25 0 6 3 1 5 -13 5 -14 0 -19 -2 -12 -5z"/>
<path d="M6510 4171 c0 -25 6 -27 13 -6 4 8 2 17 -3 20 -6 4 -10 -3 -10 -14z"/>
<path d="M6596 4181 c-3 -4 6 -6 19 -3 14 2 25 6 25 8 0 8 -39 4 -44 -5z"/>
<path d="M5751 4154 c0 -11 3 -14 6 -6 3 7 2 16 -1 19 -3 4 -6 -2 -5 -13z"/>
<path d="M5862 4140 c0 -14 2 -19 5 -12 2 6 2 18 0 25 -3 6 -5 1 -5 -13z"/>
<path d="M6462 4140 c0 -14 2 -19 5 -12 2 6 2 18 0 25 -3 6 -5 1 -5 -13z"/>
<path d="M6582 4140 c0 -14 2 -19 5 -12 2 6 2 18 0 25 -3 6 -5 1 -5 -13z"/>
<path d="M6118 4098 c6 -6 18 -8 28 -6 14 3 12 5 -9 10 -19 3 -25 2 -19 -4z"/>
<path d="M6235 4100 c3 -5 8 -10 11 -10 2 0 4 5 4 10 0 6 -5 10 -11 10 -5 0
-7 -4 -4 -10z"/>
<path d="M6300 4100 c0 -5 5 -10 10 -10 6 0 10 5 10 10 0 6 -4 10 -10 10 -5 0
-10 -4 -10 -10z"/>
<path d="M5898 4093 c7 -3 16 -2 19 1 4 3 -2 6 -13 5 -11 0 -14 -3 -6 -6z"/>
<path d="M6028 4093 c7 -3 16 -2 19 1 4 3 -2 6 -13 5 -11 0 -14 -3 -6 -6z"/>
<path d="M6408 4093 c6 -2 18 -2 25 0 6 3 1 5 -13 5 -14 0 -19 -2 -12 -5z"/>
<path d="M6618 4093 c7 -3 16 -2 19 1 4 3 -2 6 -13 5 -11 0 -14 -3 -6 -6z"/>
<path d="M10730 1275 c0 -8 9 -15 20 -15 11 0 20 7 20 15 0 8 -9 15 -20 15
-11 0 -20 -7 -20 -15z"/>
<path d="M10592 1258 c-24 -24 -14 -58 22 -73 41 -17 53 -32 37 -48 -8 -8 -14
-8 -23 1 -13 13 -48 16 -48 4 0 -31 87 -45 110 -17 21 25 4 62 -35 75 -33 11
-44 28 -28 43 3 4 12 2 19 -4 7 -6 23 -9 35 -7 22 3 22 4 5 21 -20 20 -76 23
-94 5z"/>
<path d="M10737 1234 c-4 -4 -7 -34 -7 -66 0 -52 2 -58 20 -58 19 0 21 5 18
62 -3 57 -14 79 -31 62z"/>
<path d="M10818 1229 c-26 -14 -33 -65 -13 -95 14 -21 23 -25 51 -22 27 3 34
0 34 -13 0 -26 -18 -32 -51 -19 -38 16 -51 4 -20 -21 30 -25 66 -24 91 1 18
18 20 31 18 97 l-3 77 -45 2 c-25 2 -53 -2 -62 -7z m62 -34 c19 -23 8 -50 -20
-50 -16 0 -26 6 -28 18 -4 18 14 47 28 47 4 0 13 -7 20 -15z"/>
<path d="M10970 1174 c0 -50 3 -64 15 -64 11 0 15 11 15 39 0 46 22 70 45 51
9 -7 15 -29 15 -51 0 -28 4 -39 15 -39 11 0 15 13 15 54 0 32 -5 58 -12 62 -7
4 -34 9 -60 10 l-48 2 0 -64z"/>
<path d="M11180 1186 c0 -31 5 -58 13 -64 6 -6 33 -10 60 -10 l47 1 0 64 c0
76 -22 85 -30 12 -4 -39 -8 -44 -30 -44 -23 0 -25 4 -28 48 -2 33 -7 47 -18
47 -10 0 -14 -14 -14 -54z"/>
<path d="M11340 1139 c0 -79 3 -99 14 -99 10 0 16 13 18 38 3 36 4 37 40 34
41 -4 58 15 58 66 0 40 -22 55 -81 58 l-49 2 0 -99z m90 50 c9 -15 8 -24 -1
-35 -28 -34 -70 -3 -49 37 14 25 36 24 50 -2z"/>
<path d="M18887 1219 c-14 -9 -17 -26 -17 -113 0 -80 3 -106 15 -116 12 -10
15 -9 15 7 0 10 -5 24 -11 30 -18 18 -3 29 37 28 42 -2 76 27 66 54 -4 11 -9
9 -23 -8 -17 -21 -19 -21 -44 -5 -34 22 -32 32 7 36 39 4 49 30 21 60 -26 29
-46 38 -66 27z m53 -67 c0 -5 -13 -9 -30 -9 -33 0 -36 7 -18 37 12 19 13 19
30 0 10 -11 18 -23 18 -28z"/>
<path d="M18810 1210 c0 -5 5 -10 10 -10 6 0 10 5 10 10 0 6 -4 10 -10 10 -5
0 -10 -4 -10 -10z"/>
<path d="M18794 1159 c-3 -6 -14 -9 -24 -6 -12 3 -26 -6 -40 -25 l-21 -29 21
-42 c11 -23 26 -50 34 -59 14 -19 66 -25 66 -8 0 6 -6 10 -13 10 -7 0 -23 7
-36 16 -16 12 -20 19 -12 27 8 8 14 8 23 -1 7 -7 20 -12 30 -12 13 0 18 8 18
31 0 31 0 31 -47 27 -37 -2 -48 0 -48 12 0 11 11 14 48 11 47 -2 47 -2 47 28
0 24 -4 31 -19 31 -11 0 -23 -5 -27 -11z"/>
</g>
</svg>
