<?xml version="1.0" standalone="no"?>
<!DOCTYPE svg PUBLIC "-//W3C//DTD SVG 20010904//EN"
 "http://www.w3.org/TR/2001/REC-SVG-20010904/DTD/svg10.dtd">
<svg version="1.0" xmlns="http://www.w3.org/2000/svg"
 width="1920.000000pt" height="839.000000pt" viewBox="0 0 1920.000000 839.000000"
 preserveAspectRatio="xMidYMid meet">

<g transform="translate(0.000000,839.000000) scale(0.100000,-0.100000)"
fill="#000000" stroke="none">
<path d="M0 4195 l0 -4195 9600 0 9600 0 0 469 0 469 -192 4 c-215 4 -257 14
-326 81 -58 56 -77 102 -77 192 0 90 19 136 77 192 69 67 111 77 326 81 l192
4 0 3449 0 3449 -9600 0 -9600 0 0 -4195z m17675 3420 l25 -24 0 -551 0 -551
-25 -24 -24 -25 -8051 0 -8051 0 -24 25 -25 24 0 551 0 551 25 24 24 25 8051
0 8051 0 24 -25z m-13946 -2362 l36 -38 -27 -3 c-15 -2 -38 4 -50 12 -29 21
-67 20 -90 -1 -27 -24 -25 -97 4 -117 28 -20 62 -20 78 -1 7 8 28 15 47 15 31
0 33 -2 23 -21 -20 -36 -71 -61 -118 -56 -49 5 -79 28 -98 74 -18 42 -18 67 2
109 21 43 56 63 113 64 37 0 48 -5 80 -37z m161 -63 l0 -100 40 0 c36 0 40 -2
40 -25 0 -24 -2 -25 -65 -25 l-65 0 0 125 0 125 25 0 25 0 0 -100z m290 80 c0
-17 -7 -20 -45 -20 -43 0 -45 -1 -45 -30 0 -28 2 -30 40 -30 33 0 40 -3 40
-20 0 -17 -7 -20 -40 -20 -38 0 -40 -2 -40 -30 0 -29 2 -30 45 -30 41 0 45 -2
45 -25 0 -24 -2 -25 -70 -25 l-70 0 0 125 0 125 70 0 c63 0 70 -2 70 -20z
m225 3 c4 -10 24 -66 46 -125 l38 -108 -28 0 c-22 0 -30 6 -35 25 -6 23 -11
25 -56 25 -45 0 -52 -3 -60 -25 -7 -18 -17 -25 -35 -25 -31 0 -32 -9 20 138
39 110 40 112 71 112 21 0 34 -6 39 -17z m309 -4 c35 -28 36 -81 2 -113 l-25
-22 25 -43 c13 -24 24 -45 24 -47 0 -2 -12 -4 -27 -4 -23 0 -33 9 -53 47 -35
66 -50 67 -50 4 0 -48 -2 -51 -25 -51 l-25 0 0 125 0 125 64 0 c49 0 69 -5 90
-21z m4295 -16 l36 -38 -27 -3 c-15 -2 -38 4 -50 12 -29 21 -67 20 -90 -1 -27
-24 -25 -97 4 -117 28 -20 62 -20 78 -1 7 8 28 15 47 15 31 0 33 -2 23 -21
-20 -36 -71 -61 -118 -56 -49 5 -79 28 -98 74 -18 42 -18 67 2 109 21 43 56
63 113 64 37 0 48 -5 80 -37z m288 -83 c23 -63 42 -118 42 -122 1 -5 -10 -8
-24 -8 -18 0 -28 7 -35 25 -8 22 -15 25 -60 25 -45 0 -50 -2 -56 -25 -5 -20
-13 -25 -36 -25 -25 0 -29 3 -23 18 4 9 22 60 41 112 19 52 37 101 39 108 3 8
17 12 37 10 32 -3 34 -6 75 -118z m217 45 c26 -41 52 -75 57 -75 5 0 9 34 9
75 0 73 1 75 25 75 l25 0 0 -125 0 -125 -27 0 c-24 0 -36 12 -77 75 -27 41
-52 75 -57 75 -5 0 -9 -34 -9 -75 0 -73 -1 -75 -25 -75 l-25 0 0 125 0 125 28
0 c25 0 35 -11 76 -75z m395 38 l36 -38 -27 -3 c-15 -2 -38 4 -50 12 -29 21
-67 20 -90 -1 -27 -24 -25 -97 4 -117 28 -20 62 -20 78 -1 7 8 28 15 47 15 31
0 33 -2 23 -21 -20 -36 -71 -61 -118 -56 -49 5 -79 28 -98 74 -18 42 -18 67 2
109 21 43 56 63 113 64 37 0 48 -5 80 -37z m251 17 c0 -17 -7 -20 -45 -20 -43
0 -45 -1 -45 -30 0 -28 2 -30 40 -30 33 0 40 -3 40 -20 0 -17 -7 -20 -40 -20
-38 0 -40 -2 -40 -30 0 -29 2 -30 45 -30 41 0 45 -2 45 -25 0 -24 -2 -25 -70
-25 l-70 0 0 125 0 125 70 0 c63 0 70 -2 70 -20z m130 -79 l0 -100 43 -3 c35
-2 43 -7 45 -25 3 -22 0 -23 -67 -23 l-71 0 0 125 0 125 25 0 c25 0 25 0 25
-99z m3910 84 c26 -13 50 -42 50 -59 0 -13 -58 -5 -70 9 -19 23 -76 19 -94 -7
-51 -72 23 -161 92 -112 12 8 34 14 49 12 l27 -3 -30 -33 c-86 -97 -238 -8
-204 118 21 78 107 113 180 75z m325 -18 c41 -41 52 -90 31 -140 -51 -124
-236 -87 -236 48 0 78 47 125 123 125 42 0 54 -5 82 -33z m220 -42 c26 -41 51
-75 56 -75 5 0 9 34 9 75 0 73 1 75 25 75 l25 0 0 -125 0 -125 -27 0 c-24 0
-36 12 -77 75 -27 41 -52 75 -57 75 -5 0 -9 -34 -9 -75 0 -73 -1 -75 -25 -75
l-25 0 0 125 0 125 29 0 c26 0 35 -9 76 -75z m365 55 c0 -16 -7 -20 -30 -20
l-30 0 0 -105 0 -105 -30 0 -30 0 0 105 0 105 -30 0 c-23 0 -30 4 -30 20 0 19
7 20 90 20 83 0 90 -1 90 -20z m130 -105 l0 -125 -30 0 -30 0 0 125 0 125 30
0 30 0 0 -125z m185 50 c26 -41 51 -75 56 -75 5 0 9 34 9 75 0 73 1 75 25 75
l25 0 0 -125 0 -125 -27 0 c-24 0 -36 12 -77 75 -27 41 -52 75 -57 75 -5 0 -9
-34 -9 -75 0 -73 -1 -75 -25 -75 l-25 0 0 125 0 125 29 0 c26 0 35 -9 76 -75z
m245 -4 c0 -62 4 -84 19 -102 16 -20 23 -22 47 -14 29 10 29 11 32 103 3 90 3
92 27 92 25 0 25 -1 25 -94 0 -86 -2 -98 -24 -123 -21 -24 -32 -28 -75 -28
-39 0 -56 5 -73 23 -20 20 -23 34 -26 122 l-4 100 26 0 c26 0 26 -1 26 -79z
m380 59 c0 -17 -7 -20 -45 -20 -43 0 -45 -1 -45 -30 0 -28 2 -30 40 -30 33 0
40 -3 40 -20 0 -17 -7 -20 -40 -20 -38 0 -40 -2 -40 -30 0 -29 2 -30 45 -30
41 0 45 -2 45 -25 0 -24 -2 -25 -75 -25 l-75 0 0 125 0 125 75 0 c68 0 75 -2
75 -20z"/>
<path d="M10400 7160 l0 -60 -32 20 c-88 53 -176 -13 -165 -124 8 -91 88 -133
165 -86 32 20 32 20 32 0 0 -13 7 -20 20 -20 19 0 20 7 20 165 0 158 -1 165
-20 165 -18 0 -20 -7 -20 -60z m-25 -85 c52 -51 16 -145 -55 -145 -44 0 -80
39 -80 85 0 46 36 85 80 85 19 0 40 -9 55 -25z"/>
<path d="M11870 7055 c0 -158 1 -165 20 -165 11 0 20 7 20 15 0 19 9 19 34 0
33 -25 91 -19 127 13 27 24 33 37 36 83 4 45 1 60 -19 89 -34 50 -86 62 -139
33 l-39 -21 0 59 c0 52 -2 59 -20 59 -19 0 -20 -7 -20 -165z m175 20 c52 -51
16 -145 -55 -145 -44 0 -80 39 -80 85 0 46 36 85 80 85 19 0 40 -9 55 -25z"/>
<path d="M6560 7045 l0 -155 85 0 c78 0 85 2 85 20 0 18 -7 20 -65 20 l-65 0
0 50 0 50 55 0 c48 0 55 2 55 20 0 18 -7 20 -56 20 l-55 0 3 48 3 47 63 3 c46
2 62 7 62 17 0 12 -17 15 -85 15 l-85 0 0 -155z"/>
<path d="M7160 7170 c0 -18 -6 -33 -15 -36 -8 -4 -15 -12 -15 -20 0 -8 7 -14
15 -14 12 0 15 -16 15 -83 0 -96 9 -115 63 -124 33 -5 37 -3 37 15 0 15 -7 22
-27 24 -28 3 -28 4 -31 86 l-3 82 31 0 c39 0 41 27 3 32 -23 2 -29 8 -31 36
-2 24 -8 32 -23 32 -15 0 -19 -7 -19 -30z"/>
<path d="M8031 7108 c43 -82 48 -101 49 -155 0 -56 2 -63 20 -63 17 0 20 7 20
50 0 40 10 70 50 150 28 55 50 102 50 105 0 3 -9 5 -19 5 -14 0 -29 -21 -55
-76 -19 -41 -39 -73 -43 -71 -5 3 -24 37 -43 76 -26 55 -39 71 -55 71 -21 0
-19 -6 26 -92z"/>
<path d="M9350 7178 c-97 -67 -89 -218 14 -267 51 -25 82 -26 135 -5 34 13 71
49 71 69 0 11 -49 4 -57 -9 -23 -39 -105 -48 -146 -16 -52 41 -59 135 -14 178
48 45 123 48 157 6 7 -7 23 -14 37 -14 21 0 22 2 13 21 -32 59 -147 79 -210
37z"/>
<path d="M10690 7045 c0 -148 1 -155 20 -155 19 0 20 7 20 115 0 63 4 115 8
115 5 0 43 -52 86 -115 55 -83 82 -115 96 -115 19 0 20 7 20 155 0 148 -1 155
-20 155 -18 0 -20 -8 -22 -117 l-3 -118 -79 118 c-63 94 -84 117 -103 117
l-23 0 0 -155z"/>
<path d="M6900 7123 c-17 -12 -25 -13 -28 -5 -2 7 -12 12 -23 12 -18 0 -19 -8
-19 -120 0 -113 1 -120 20 -120 18 0 20 7 20 85 0 96 16 125 68 125 49 0 67
-31 71 -126 2 -64 6 -84 17 -84 19 0 20 187 1 211 -31 40 -87 50 -127 22z"/>
<path d="M7394 7125 c-17 -9 -37 -28 -45 -42 -18 -34 -18 -103 1 -137 37 -70
152 -75 195 -9 15 22 14 23 -9 23 -13 0 -29 -7 -36 -15 -30 -36 -120 -8 -120
38 0 15 13 17 89 17 50 0 92 4 95 8 10 16 -14 78 -38 101 -31 29 -92 36 -132
16z m104 -41 c12 -8 22 -24 22 -35 0 -17 -7 -19 -70 -19 -63 0 -70 2 -70 19 0
25 36 51 70 51 14 0 36 -7 48 -16z"/>
<path d="M7726 7119 c-21 -17 -26 -18 -26 -5 0 9 -8 16 -20 16 -19 0 -20 -7
-20 -120 0 -113 1 -120 20 -120 18 0 20 7 20 84 0 90 11 116 51 116 14 0 19 7
19 25 0 30 -9 31 -44 4z"/>
<path d="M8364 7130 c-57 -23 -85 -102 -59 -166 26 -67 99 -93 165 -59 43 22
60 53 60 110 0 30 -6 60 -16 73 -31 44 -98 63 -150 42z m100 -51 c56 -44 22
-149 -49 -149 -63 0 -96 51 -75 116 19 56 75 72 124 33z"/>
<path d="M9016 7119 c-21 -17 -26 -18 -26 -5 0 9 -8 16 -20 16 -19 0 -20 -7
-20 -120 0 -113 1 -120 20 -120 18 0 20 7 20 84 0 90 11 116 51 116 14 0 19 7
19 25 0 30 -9 31 -44 4z"/>
<path d="M9714 7121 c-40 -24 -58 -69 -51 -128 10 -88 90 -129 165 -83 32 20
32 20 32 0 0 -13 7 -20 20 -20 19 0 20 7 20 120 0 113 -1 120 -20 120 -11 0
-20 -7 -20 -15 0 -12 -6 -11 -32 5 -41 25 -74 25 -114 1z m121 -46 c52 -51 16
-145 -55 -145 -44 0 -80 39 -80 85 0 46 36 85 80 85 19 0 40 -9 55 -25z"/>
<path d="M10076 7119 c-21 -17 -26 -18 -26 -5 0 9 -8 16 -20 16 -19 0 -20 -7
-20 -120 0 -113 1 -120 20 -120 18 0 20 7 20 83 0 69 3 87 18 100 10 10 26 17
35 17 11 0 17 8 17 25 0 30 -9 31 -44 4z"/>
<path d="M11445 7124 c-19 -10 -31 -11 -33 -5 -2 6 -12 11 -23 11 -18 0 -19
-8 -19 -120 0 -113 1 -120 20 -120 18 0 20 7 20 76 0 102 17 134 73 134 51 0
67 -29 67 -125 0 -78 2 -85 20 -85 18 0 20 7 20 85 0 96 16 125 68 125 49 0
62 -26 62 -123 0 -80 2 -87 20 -87 19 0 20 7 20 96 0 92 -1 97 -29 125 -18 17
-40 29 -56 29 -30 0 -81 -24 -89 -42 -5 -11 -7 -11 -12 0 -7 16 -58 42 -81 42
-10 0 -31 -7 -48 -16z"/>
<path d="M12242 7120 c-41 -25 -55 -61 -49 -123 6 -66 38 -98 104 -104 42 -5
53 -2 81 22 18 15 32 31 32 36 0 15 -40 10 -56 -6 -34 -34 -124 -5 -124 40 0
12 17 15 95 15 l95 0 0 25 c0 90 -99 143 -178 95z m117 -44 c13 -14 20 -29 16
-35 -3 -6 -37 -11 -76 -11 -76 0 -85 9 -49 48 29 30 80 29 109 -2z"/>
<path d="M12583 7120 c-27 -16 -33 -17 -33 -5 0 8 -9 15 -20 15 -19 0 -20 -7
-20 -120 0 -113 1 -120 20 -120 18 0 20 7 20 78 0 88 16 122 56 122 19 0 24 5
24 25 0 30 -5 31 -47 5z"/>
<path d="M8630 7038 c1 -96 7 -115 47 -136 29 -16 58 -15 93 3 27 14 30 14 30
0 0 -8 9 -15 20 -15 19 0 20 7 20 120 0 113 -1 120 -20 120 -18 0 -20 -7 -20
-78 0 -93 -15 -122 -63 -122 -18 0 -37 4 -44 8 -21 13 -33 61 -33 128 0 50 -3
64 -15 64 -12 0 -15 -17 -15 -92z"/>
<path d="M11050 7039 c0 -87 1 -92 29 -120 33 -32 70 -37 114 -15 23 13 27 13
27 0 0 -8 9 -14 20 -14 19 0 20 7 20 120 0 113 -1 120 -20 120 -18 0 -20 -7
-20 -83 0 -95 -13 -117 -67 -117 -50 0 -63 25 -63 118 0 75 -2 82 -20 82 -19
0 -20 -7 -20 -91z"/>
<path d="M4347 5175 l-16 -45 35 0 c19 0 34 3 34 6 0 18 -24 84 -31 84 -4 0
-14 -20 -22 -45z"/>
<path d="M4610 5210 c0 -30 2 -31 38 -28 32 3 37 6 37 28 0 22 -5 25 -37 28
-36 3 -38 2 -38 -28z"/>
<path d="M9202 5181 c-16 -52 -17 -51 22 -51 l35 0 -16 45 c-8 25 -18 45 -22
45 -4 0 -13 -17 -19 -39z"/>
<path d="M14390 5220 c-43 -43 -6 -130 55 -130 57 0 90 94 47 133 -25 23 -78
21 -102 -3z"/>
<path d="M18921 1326 c-8 -9 -11 -50 -9 -117 3 -93 5 -104 22 -107 13 -3 17 0
14 9 -21 57 -21 57 22 56 35 -1 44 3 58 25 9 15 14 30 11 33 -10 9 -39 -6 -39
-21 0 -8 -4 -14 -10 -14 -5 0 -10 7 -10 15 0 8 -7 15 -15 15 -8 0 -15 7 -15
16 0 8 5 12 11 9 17 -11 59 4 59 21 0 8 -10 28 -22 44 -23 32 -58 39 -77 16z
m49 -36 c27 -27 25 -30 -11 -30 -24 0 -30 3 -25 16 3 9 6 20 6 25 0 14 8 11
30 -11z"/>
<path d="M18855 1320 c3 -5 10 -10 16 -10 5 0 9 5 9 10 0 6 -7 10 -16 10 -8 0
-12 -4 -9 -10z"/>
<path d="M18841 1276 c-7 -8 -20 -12 -29 -9 -11 2 -26 -7 -40 -26 -22 -30 -22
-31 -4 -63 40 -74 54 -89 80 -86 30 4 43 28 15 28 -29 0 -60 26 -47 40 8 8 14
7 24 -5 7 -8 21 -15 31 -15 14 0 19 7 19 29 0 29 -2 30 -50 33 -67 4 -69 22
-2 26 50 3 52 4 52 33 0 22 -5 29 -19 29 -10 0 -24 -6 -30 -14z"/>
</g>
</svg>
