<?xml version="1.0" standalone="no"?>
<!DOCTYPE svg PUBLIC "-//W3C//DTD SVG 20010904//EN"
 "http://www.w3.org/TR/2001/REC-SVG-20010904/DTD/svg10.dtd">
<svg version="1.0" xmlns="http://www.w3.org/2000/svg"
 width="1914.000000pt" height="1034.000000pt" viewBox="0 0 1914.000000 1034.000000"
 preserveAspectRatio="xMidYMid meet">

<g transform="translate(0.000000,1034.000000) scale(0.100000,-0.100000)"
fill="#000000" stroke="none">
<path d="M0 5170 l0 -5170 369 0 370 0 -10 33 c-12 38 -13 40 -11 90 l2 37 49
0 c26 0 69 -3 95 -6 l46 -7 0 -43 c0 -23 5 -46 10 -49 6 -3 7 -17 4 -31 -6
-22 -3 -24 29 -24 32 0 35 3 41 38 12 66 16 72 44 72 15 0 38 -7 50 -16 27
-19 30 -68 5 -83 -12 -7 -13 -10 -5 -11 8 0 27 14 43 31 22 23 34 29 51 24 22
-7 44 -27 51 -48 2 -6 13 -1 25 11 23 23 43 21 74 -6 12 -10 18 -11 18 -4 0 7
7 12 15 12 8 0 15 7 15 16 0 9 6 14 13 11 6 -2 11 -11 9 -19 -1 -9 7 -18 20
-22 13 -3 2907 -5 6433 -4 3526 0 6398 3 6383 5 -14 2 -29 11 -32 19 -3 8 -1
61 5 117 6 56 14 170 18 252 l7 150 111 170 c61 94 144 221 184 284 85 134
131 174 194 169 38 -3 42 -6 72 -63 38 -72 69 -163 90 -265 12 -58 15 -129 14
-310 -2 -199 -6 -253 -26 -355 -13 -66 -28 -132 -34 -147 l-11 -28 2155 0
2155 0 0 469 0 469 -197 4 c-172 3 -203 6 -238 23 l-40 20 238 3 237 2 0 480
0 480 -30 0 -30 0 0 469 0 469 -167 4 c-187 6 -215 13 -284 75 -64 58 -84 104
-84 198 0 94 20 140 84 198 69 62 97 69 284 75 l167 4 0 2969 0 2969 30 0 30
0 0 480 0 480 -9570 0 -9570 0 0 -5170z m2350 4940 c0 -15 -7 -20 -25 -20 -16
0 -25 -6 -25 -15 0 -9 10 -15 26 -15 33 0 30 -33 -4 -38 -20 -3 -22 -9 -22
-73 0 -67 -1 -69 -25 -69 -24 0 -25 2 -25 69 0 52 -4 70 -15 75 -8 3 -15 12
-15 21 0 8 7 15 15 15 8 0 15 6 15 13 0 30 31 57 66 57 27 0 34 -4 34 -20z
m-1259 -29 c45 -56 6 -129 -74 -138 -44 -5 -47 -8 -47 -34 0 -22 -5 -29 -20
-29 -19 0 -20 7 -20 116 l0 116 71 -4 c60 -3 74 -8 90 -27z m509 4 c0 -18 5
-25 20 -25 13 0 20 -7 20 -20 0 -13 -7 -20 -20 -20 -17 0 -20 -7 -20 -50 0
-43 3 -50 20 -50 13 0 20 -7 20 -20 0 -15 -7 -20 -27 -20 -45 0 -56 14 -61 77
-3 34 -10 61 -18 66 -19 11 -18 37 1 37 9 0 15 9 15 25 0 20 5 25 25 25 20 0
25 -5 25 -25z m840 0 c0 -18 5 -25 20 -25 13 0 20 -7 20 -20 0 -13 -7 -20 -20
-20 -17 0 -20 -7 -20 -50 0 -43 3 -50 20 -50 13 0 20 -7 20 -20 0 -15 -7 -20
-29 -20 -38 0 -53 21 -59 83 -3 29 -11 56 -18 60 -19 11 -18 37 1 37 9 0 15 9
15 25 0 20 5 25 25 25 20 0 25 -5 25 -25z m-1159 -38 c47 -36 51 -97 10 -138
-48 -48 -116 -37 -147 22 -31 62 11 129 80 129 23 0 48 -6 57 -13z m190 3 c23
-13 25 -40 4 -40 -8 0 -24 5 -34 12 -21 13 -55 4 -49 -14 3 -7 20 -17 40 -23
65 -19 84 -50 51 -87 -18 -20 -82 -25 -114 -8 -20 11 -27 50 -9 50 6 0 22 -7
35 -16 14 -9 32 -14 40 -10 29 11 15 31 -33 46 -40 13 -47 19 -50 45 -3 19 2
33 14 42 21 16 78 17 105 3z m332 -1 c14 -6 30 -22 36 -35 9 -22 8 -24 -13
-24 -13 0 -29 7 -36 15 -18 22 -57 19 -70 -6 -28 -51 28 -102 70 -64 10 9 29
15 42 13 23 -3 23 -3 -9 -36 -51 -52 -122 -41 -148 21 -35 84 43 155 128 116z
m117 -6 c0 -15 1 -15 18 0 26 23 52 22 52 -3 0 -11 -5 -20 -10 -20 -6 0 -22
-11 -35 -25 -19 -18 -25 -35 -25 -70 0 -38 -3 -45 -20 -45 -19 0 -20 7 -20 90
0 83 1 90 20 90 12 0 20 -7 20 -17z m270 -74 c0 -82 -2 -89 -20 -89 -11 0 -20
5 -20 12 0 9 -3 9 -12 0 -7 -7 -26 -12 -44 -12 -74 0 -113 102 -60 155 21 21
33 24 90 23 l66 -1 0 -88z m455 69 c15 -22 14 -23 -6 -26 -12 -2 -26 1 -32 7
-17 17 -47 13 -47 -6 0 -13 15 -23 48 -33 39 -12 48 -20 50 -41 2 -15 -4 -34
-13 -43 -33 -32 -135 -10 -135 30 0 19 34 18 50 -1 16 -19 55 -16 55 5 0 9
-19 20 -47 28 -56 15 -73 49 -43 82 27 29 99 28 120 -2z m15040 -19 c0 -7 -8
-15 -17 -17 -18 -3 -25 18 -11 32 10 10 28 1 28 -15z m245 0 c0 -12 -29 -24
-37 -16 -3 4 -3 13 0 21 6 16 37 11 37 -5z m-17236 -3 c120 -17 127 -29 95
-158 -9 -34 -13 -38 -42 -38 -45 0 -223 26 -236 34 -14 9 -14 116 -1 150 8 23
15 26 52 25 24 0 83 -6 132 -13z m12936 -1 c0 -11 -12 -15 -50 -15 l-50 0 0
-35 0 -35 50 0 c28 0 50 -4 50 -10 0 -5 -22 -10 -50 -10 l-50 0 0 -50 c0 -38
-4 -50 -15 -50 -12 0 -15 19 -15 110 l0 110 65 0 c51 0 65 -3 65 -15z m3855
-10 c30 -30 31 -54 4 -89 -16 -20 -29 -26 -60 -26 -39 0 -39 0 -39 -40 0 -33
-3 -40 -20 -40 -19 0 -20 7 -20 110 l0 110 55 0 c46 0 60 -4 80 -25z m-3445
-9 c0 -7 9 -16 20 -19 11 -3 20 -10 20 -16 0 -6 -9 -11 -20 -11 -18 0 -20 -7
-20 -56 0 -47 3 -57 20 -61 27 -7 25 -23 -3 -23 -36 0 -47 19 -47 82 0 32 -4
58 -10 58 -5 0 -10 7 -10 15 0 8 5 15 10 15 6 0 10 7 10 15 0 8 7 15 15 15 8
0 15 -6 15 -14z m-265 -41 c14 -13 25 -36 25 -50 0 -24 -2 -25 -61 -25 l-61 0
14 -22 c19 -29 45 -34 66 -14 10 8 23 12 30 7 20 -12 -23 -44 -60 -44 -22 0
-38 8 -55 27 -68 79 29 195 102 121z m163 9 c19 -13 22 -24 22 -84 0 -66 -1
-70 -22 -69 -13 0 -33 -2 -45 -6 -29 -9 -74 34 -66 63 5 21 49 42 85 42 13 0
18 6 16 17 -4 23 -34 28 -64 12 -26 -13 -41 -8 -29 11 18 29 71 36 103 14z
m202 -49 c0 -52 3 -66 19 -74 32 -18 50 7 53 74 2 45 7 60 18 60 12 0 16 -17
18 -81 l3 -82 -60 -1 c-74 -1 -81 9 -81 103 0 52 3 66 15 66 12 0 15 -14 15
-65z m230 49 c0 -7 -10 -14 -22 -16 -21 -3 -23 -9 -26 -70 -3 -60 -5 -68 -22
-68 -18 0 -20 7 -20 78 0 43 2 81 4 83 3 2 23 5 45 5 28 1 41 -3 41 -12z m134
-5 c17 -14 26 -30 26 -50 0 -29 0 -29 -61 -29 l-61 0 14 -22 c19 -29 45 -34
66 -14 10 8 23 12 29 8 31 -20 -41 -57 -81 -42 -85 32 -65 166 25 169 9 1 28
-8 43 -20z m157 11 c10 -6 19 -17 19 -25 0 -17 -16 -20 -25 -5 -11 18 -55 12
-55 -8 0 -12 14 -22 43 -32 34 -12 43 -20 45 -43 3 -23 -2 -30 -32 -42 -25
-10 -42 -12 -60 -6 -31 12 -42 31 -25 42 9 5 17 3 22 -6 10 -19 41 -19 56 -2
13 16 -4 37 -29 37 -22 0 -60 29 -60 46 0 21 37 54 61 54 11 0 29 -5 40 -10z
m1419 -16 c0 -17 -26 -19 -36 -3 -7 12 15 31 28 23 4 -3 8 -12 8 -20z m1490
14 c0 -9 3 -9 12 0 17 17 48 15 48 -3 0 -8 -8 -15 -18 -15 -31 0 -42 -22 -42
-82 0 -45 -3 -58 -15 -58 -12 0 -15 16 -15 85 0 69 3 85 15 85 8 0 15 -5 15
-12z m118 -76 c3 -77 2 -82 -18 -82 -18 0 -20 6 -20 78 0 43 3 82 7 86 19 18
28 -7 31 -82z m160 61 c6 -9 12 -20 12 -25 0 -14 -27 -9 -40 7 -27 33 -70 10
-70 -38 0 -58 40 -88 70 -52 13 16 40 20 40 7 0 -12 -30 -37 -53 -45 -48 -17
-101 46 -90 106 8 40 50 70 88 63 16 -4 36 -14 43 -23z m72 -58 c0 -69 -3 -85
-15 -85 -12 0 -15 16 -15 85 0 69 3 85 15 85 12 0 15 -16 15 -85z m70 75 c0
-7 6 -7 19 0 29 15 49 12 71 -10 16 -16 20 -33 20 -85 0 -50 -3 -65 -15 -65
-10 0 -15 16 -17 61 -3 65 -19 88 -52 76 -12 -5 -16 -20 -16 -72 0 -58 -2 -65
-20 -65 -18 0 -20 7 -20 78 0 43 3 82 7 85 10 10 23 8 23 -3z m241 0 c13 -7
19 -7 19 0 0 5 7 10 15 10 12 0 15 -17 15 -97 0 -54 -4 -103 -8 -109 -23 -35
-96 -40 -122 -9 -14 17 7 32 23 16 27 -27 77 -5 77 33 0 16 -3 17 -12 8 -37
-37 -108 12 -108 73 0 25 8 44 25 60 26 27 46 31 76 15z m-2771 -20 c40 -40
18 -54 -29 -19 -24 17 -32 19 -50 9 -38 -20 -23 -52 29 -67 70 -20 92 -70 49
-109 -40 -36 -139 -13 -139 33 0 19 17 16 40 -7 24 -24 49 -25 76 -6 26 20 10
45 -41 63 -73 25 -94 64 -55 103 13 13 33 20 60 20 27 0 47 -7 60 -20z m268
-93 c3 -102 2 -107 -18 -107 -19 0 -20 6 -20 111 0 100 2 110 18 107 15 -3 17
-18 20 -111z m252 79 c0 -7 9 -16 20 -19 11 -3 20 -10 20 -16 0 -6 -9 -11 -20
-11 -18 0 -20 -7 -20 -56 0 -47 3 -57 20 -61 27 -7 25 -23 -3 -23 -36 0 -47
19 -47 81 0 45 -4 58 -17 64 -17 6 -17 7 0 19 9 7 17 18 17 25 0 6 7 11 15 11
8 0 15 -6 15 -14z m-345 -41 c43 -42 27 -125 -27 -144 -40 -14 -76 2 -93 41
-17 43 -9 83 23 108 33 27 68 25 97 -5z m163 -47 c3 -74 19 -91 52 -58 15 15
20 34 20 76 0 40 3 55 13 52 8 -3 13 -32 15 -85 l3 -79 -55 -2 c-47 -1 -58 2
-71 21 -15 22 -22 127 -8 141 17 17 28 -6 31 -66z m282 -13 c0 -69 -3 -85 -15
-85 -12 0 -15 16 -15 85 0 69 3 85 15 85 12 0 15 -16 15 -85z m156 62 c35 -30
38 -98 6 -130 -30 -30 -79 -27 -109 7 -68 79 24 190 103 123z m90 12 c4 -8 9
-8 17 0 17 17 52 13 72 -9 11 -12 19 -42 22 -85 5 -61 5 -65 -16 -65 -19 0
-21 5 -21 65 0 52 -4 67 -16 72 -33 12 -49 -11 -52 -76 -2 -45 -7 -61 -17 -61
-12 0 -15 17 -15 85 0 78 8 102 26 74z m245 1 c23 -13 26 -40 4 -40 -8 0 -15
5 -15 11 0 6 -12 9 -27 7 -42 -5 -34 -29 14 -45 43 -15 57 -33 48 -64 -12 -37
-99 -44 -120 -9 -12 19 10 33 25 15 15 -18 44 -20 59 -2 13 16 -4 37 -29 37
-25 0 -60 29 -60 50 0 22 36 50 63 50 10 0 27 -5 38 -10z m-9933 -1576 c29
-20 30 -74 2 -99 -44 -40 -120 -10 -120 47 0 57 68 88 118 52z m1880 0 c29
-20 30 -74 2 -99 -44 -40 -120 -10 -120 47 0 57 68 88 118 52z m373 6 c37 0
43 -16 29 -69 -10 -37 -13 -40 -39 -35 -35 7 -71 -24 -71 -61 0 -23 3 -25 50
-25 l50 0 0 -50 0 -50 -50 0 -50 0 0 -195 0 -195 -65 0 -65 0 0 195 0 195 -35
0 -35 0 0 50 0 50 35 0 c34 0 35 1 35 41 0 50 24 103 56 124 27 18 93 35 112
29 8 -2 27 -4 43 -4z m219 -8 c48 -39 14 -115 -51 -115 -36 0 -69 31 -69 66 0
30 39 67 71 67 15 0 37 -8 49 -18z m3550 -2 c41 -41 11 -113 -48 -113 -43 0
-72 28 -72 69 0 58 77 87 120 44z m-6355 -34 c73 -34 115 -88 115 -147 0 -17
-7 -19 -65 -19 -47 0 -65 4 -65 13 0 8 -12 24 -26 38 -21 20 -36 24 -86 24
-53 0 -62 -3 -84 -28 -30 -35 -30 -49 -1 -81 16 -19 48 -33 117 -51 159 -42
220 -96 220 -198 0 -84 -42 -142 -130 -178 -44 -18 -192 -18 -243 -1 -74 27
-137 105 -137 172 l0 30 60 0 c59 0 60 -1 74 -34 19 -44 61 -66 129 -66 70 0
107 26 107 75 0 45 -22 59 -152 97 -102 29 -156 59 -182 101 -50 78 -11 198
78 244 49 25 76 31 151 32 54 1 82 -5 120 -23z m1985 -311 l0 -325 -65 0 -65
0 0 325 0 325 65 0 65 0 0 -325z m1950 0 l0 -325 -70 0 -70 0 0 36 0 36 -28
-29 c-93 -100 -254 -46 -297 99 -54 181 40 358 189 358 33 0 100 -38 118 -67
17 -27 17 -26 18 95 l0 122 70 0 70 0 0 -325z m2190 0 l0 -325 -65 0 -65 0 0
35 c0 19 -2 35 -5 35 -3 0 -21 -15 -40 -34 -80 -80 -219 -46 -274 67 -45 93
-36 240 19 316 67 92 191 105 262 28 l28 -29 0 116 0 116 70 0 70 0 0 -325z
m520 225 l0 -60 45 0 45 0 0 -50 0 -50 -45 0 -45 0 0 -129 c0 -143 8 -165 59
-159 24 3 26 -1 35 -45 4 -26 6 -51 2 -54 -14 -14 -132 -7 -163 10 -55 29 -63
58 -63 227 l0 150 -35 0 -35 0 0 50 0 50 35 0 35 0 0 60 0 60 65 0 65 0 0 -60z
m-5856 -64 c19 -8 44 -28 56 -44 l23 -31 31 34 c76 80 210 64 256 -30 18 -37
20 -62 20 -228 l0 -187 -65 0 -65 0 0 158 c0 170 -7 198 -52 219 -34 17 -81 1
-97 -33 -7 -15 -11 -87 -11 -184 l0 -160 -65 0 -65 0 0 166 c0 91 -4 174 -10
184 -13 25 -65 41 -95 30 -46 -17 -55 -55 -55 -225 l0 -155 -65 0 -65 0 0 245
0 245 65 0 65 0 0 -42 0 -42 17 24 c42 62 112 83 177 56z m880 -24 c23 -16 50
-48 65 -77 21 -43 25 -63 25 -140 0 -109 -25 -171 -86 -215 -72 -53 -173 -48
-222 10 -13 17 -27 30 -30 30 -3 0 -6 -56 -6 -125 l0 -125 -65 0 -65 0 0 335
0 335 65 0 65 0 0 -42 1 -43 27 32 c57 68 150 79 226 25z m1594 9 c73 -37 108
-97 119 -201 l6 -60 -172 0 -171 0 6 -27 c11 -45 23 -62 54 -78 51 -26 106
-16 141 27 14 17 23 19 72 13 35 -5 57 -12 57 -20 0 -26 -48 -81 -90 -105 -61
-34 -184 -36 -245 -3 -106 56 -150 182 -111 317 40 138 203 204 334 137z
m1288 14 c74 -22 120 -72 140 -150 6 -25 5 -25 -59 -25 -63 0 -65 1 -77 30
-15 37 -37 50 -82 50 -63 0 -98 -52 -98 -145 0 -93 35 -145 98 -145 45 0 67
13 82 50 12 29 15 30 76 30 35 0 64 -4 64 -9 0 -18 -24 -78 -42 -104 -61 -87
-240 -101 -332 -25 -62 51 -81 99 -81 203 0 80 3 95 28 137 57 98 166 138 283
103z m522 -47 l3 -58 -45 0 c-36 0 -52 -6 -78 -29 l-33 -29 -3 -161 -3 -161
-65 0 -64 0 0 245 0 245 65 0 65 0 0 -42 0 -43 20 33 c22 37 71 63 110 59 23
-2 25 -6 28 -59z m348 47 c92 -27 154 -119 154 -226 l0 -49 -165 0 -165 0 0
-25 c0 -14 13 -39 29 -57 26 -29 35 -33 81 -33 44 0 55 4 76 28 23 27 27 28
83 21 l59 -6 -10 -29 c-15 -43 -82 -96 -140 -109 -173 -42 -310 61 -312 234
-1 94 22 154 81 205 64 57 140 73 229 46z m-5066 -240 l0 -245 -70 0 -70 0 0
245 0 245 70 0 70 0 0 -245z m1880 0 l0 -245 -70 0 -70 0 0 245 0 245 70 0 70
0 0 -245z m590 0 l0 -245 -65 0 -65 0 0 245 0 245 65 0 65 0 0 -245z m3540 0
l0 -245 -65 0 -65 0 0 245 0 245 65 0 65 0 0 -245z m-4224 -471 c21 -4 21 -6
10 -51 -12 -45 -15 -48 -42 -45 -38 4 -62 -15 -70 -55 l-6 -33 51 0 51 0 0
-49 0 -50 -47 -3 -48 -3 -3 -192 -2 -193 -65 0 -65 0 0 195 0 195 -35 0 -35 0
0 50 0 50 35 0 c33 0 35 2 35 35 0 121 91 178 236 149z m-1096 -349 l0 -325
-65 0 -65 0 0 39 0 39 -38 -38 c-45 -46 -93 -58 -157 -40 -92 26 -145 115
-145 245 0 94 22 155 70 199 76 69 167 71 232 6 l38 -38 0 119 0 119 65 0 65
0 0 -325z m4160 0 l0 -325 -65 0 -65 0 0 40 0 41 -30 -35 c-81 -92 -225 -64
-284 55 -22 46 -26 66 -26 144 0 78 4 99 26 143 58 117 194 147 277 60 l37
-39 0 121 0 120 65 0 65 0 0 -325z m-1200 225 l0 -60 45 0 45 0 0 -50 0 -50
-45 0 -45 0 0 -129 c0 -143 8 -165 59 -159 24 3 26 -1 35 -45 4 -26 6 -51 2
-54 -14 -14 -132 -7 -163 10 -55 29 -63 58 -63 227 l0 150 -35 0 -35 0 0 50 0
50 35 0 35 0 0 60 0 60 65 0 65 0 0 -60z m2580 0 l0 -60 45 0 45 0 0 -50 0
-50 -45 0 -45 0 0 -129 c0 -142 9 -167 56 -158 25 4 28 0 39 -64 l7 -36 -45
-7 c-57 -9 -129 9 -157 39 -31 33 -39 82 -40 228 l0 127 -30 0 c-29 0 -30 1
-30 50 0 49 1 50 30 50 30 0 30 1 30 53 0 30 3 57 7 60 3 4 35 7 70 7 l63 0 0
-60z m-7094 -65 c74 -22 120 -72 140 -150 6 -25 5 -25 -59 -25 -63 0 -65 1
-77 30 -15 37 -37 50 -82 50 -63 0 -98 -52 -98 -145 0 -93 35 -145 98 -145 45
0 67 13 82 50 12 29 15 30 76 30 35 0 64 -4 64 -9 0 -18 -24 -78 -42 -104 -61
-87 -240 -101 -332 -25 -62 51 -81 99 -81 203 0 80 3 95 28 137 57 98 166 138
283 103z m561 -16 c77 -37 83 -58 83 -278 l0 -191 -60 0 -60 0 0 30 c0 32 -14
40 -24 15 -8 -23 -85 -55 -130 -55 -53 0 -123 35 -141 71 -20 37 -19 112 1
150 20 40 81 67 180 79 88 11 110 25 100 65 -13 51 -107 58 -144 10 -18 -23
-24 -24 -80 -19 l-60 7 9 27 c15 43 73 91 126 106 60 17 144 10 200 -17z m491
-31 l3 -58 -43 0 c-106 -1 -128 -42 -128 -237 l0 -143 -65 0 -65 0 0 245 0
245 65 0 65 0 0 -42 0 -43 20 33 c23 38 71 63 115 59 29 -2 30 -4 33 -59z
m936 32 c46 -22 71 -50 81 -93 6 -23 4 -25 -52 -29 -54 -5 -60 -3 -84 23 -20
21 -37 29 -61 29 -41 0 -78 -24 -78 -51 0 -24 40 -43 143 -64 61 -13 84 -23
112 -49 31 -30 35 -39 35 -85 0 -45 -5 -56 -36 -91 -96 -106 -324 -87 -383 32
l-21 43 37 7 c56 10 103 9 103 -2 0 -26 41 -50 85 -50 43 0 85 24 85 48 0 21
-42 43 -109 57 -140 29 -181 63 -181 150 0 76 43 122 135 146 48 13 141 3 189
-21z m1064 1 c74 -38 113 -103 120 -203 7 -96 -11 -152 -68 -209 -123 -123
-337 -75 -396 88 -32 92 -7 220 56 283 69 69 197 87 288 41z m510 -36 l3 -61
-39 4 c-44 4 -96 -18 -112 -47 -6 -11 -10 -88 -10 -175 l0 -156 -70 0 -70 0 0
245 0 245 65 0 65 0 0 -35 c0 -41 11 -45 30 -11 16 32 66 57 105 54 29 -3 30
-4 33 -63z m551 54 c59 -12 118 -60 130 -106 l9 -31 -56 -4 c-52 -4 -59 -2
-84 24 -44 46 -138 35 -138 -16 0 -34 17 -44 106 -62 43 -9 95 -25 115 -35 68
-34 87 -126 41 -189 -65 -88 -255 -106 -350 -33 -32 24 -71 87 -61 98 3 2 31
7 62 11 54 6 58 5 86 -25 23 -24 37 -31 68 -31 65 0 107 48 70 79 -8 6 -49 18
-93 27 -124 25 -171 60 -181 132 -16 118 116 196 276 161z m2051 -22 c66 -34
103 -99 108 -188 l4 -69 -167 0 -167 0 6 -32 c11 -54 48 -83 107 -83 43 0 54
4 75 28 23 27 27 28 84 21 33 -4 60 -8 60 -11 0 -16 -35 -65 -63 -90 -70 -62
-210 -69 -295 -16 -69 43 -102 112 -102 214 0 89 16 138 58 182 73 78 192 95
292 44z m541 22 c41 -14 75 -44 97 -84 13 -24 17 -70 20 -217 l4 -188 -70 0
-71 0 -3 171 c-3 166 -4 171 -27 190 -14 11 -39 19 -61 19 -22 0 -47 -8 -61
-19 -23 -19 -24 -24 -27 -190 l-3 -171 -70 0 -69 0 0 245 0 245 65 0 65 0 0
-42 1 -43 21 29 c24 32 89 65 129 66 14 0 41 -5 60 -11z m890 -21 c40 -22 79
-72 79 -100 0 -12 -15 -17 -57 -20 -53 -5 -60 -3 -84 23 -31 33 -81 39 -117
13 -52 -36 -19 -66 105 -95 81 -18 103 -27 130 -54 28 -28 33 -40 33 -82 0
-76 -40 -122 -129 -149 -120 -36 -246 2 -289 86 l-22 45 37 7 c69 13 101 9
108 -10 11 -36 92 -55 136 -32 22 12 25 52 6 69 -8 6 -46 17 -85 26 -145 30
-182 61 -182 153 0 51 3 58 40 93 24 23 56 42 82 48 65 15 162 6 209 -21z
m-2759 -149 c3 -166 4 -171 27 -190 36 -29 87 -25 122 10 l29 29 0 161 0 161
65 0 65 0 0 -245 0 -245 -60 0 -60 0 0 40 c0 22 -2 40 -5 40 -3 0 -19 -16 -37
-36 -57 -61 -154 -66 -223 -12 -48 38 -55 70 -55 273 l0 185 64 0 65 0 3 -171z
m-2276 -850 c9 -16 -12 -33 -31 -25 -14 5 -15 9 -5 21 15 18 26 19 36 4z
m2554 -4 c10 -12 9 -16 -5 -21 -19 -8 -40 9 -31 25 10 15 21 14 36 -4z m-5228
-71 l53 -75 3 75 c3 68 5 76 22 76 19 0 20 -7 20 -110 0 -99 -2 -110 -18 -110
-11 0 -39 31 -75 82 l-57 83 0 -83 c0 -66 -3 -82 -15 -82 -12 0 -15 19 -15
110 0 136 9 140 82 34z m1238 41 c0 -33 2 -35 21 -25 30 16 68 4 79 -26 6 -14
10 -50 10 -80 0 -47 -2 -54 -20 -54 -18 0 -20 7 -20 65 0 52 -4 67 -16 72 -33
12 -49 -11 -52 -76 -2 -45 -7 -61 -17 -61 -12 0 -15 20 -15 110 0 91 3 110 15
110 11 0 15 -11 15 -35z m660 -75 c0 -91 -3 -110 -15 -110 -12 0 -15 19 -15
110 0 91 3 110 15 110 12 0 15 -19 15 -110z m610 48 l0 -62 38 37 c59 57 87
49 31 -9 l-32 -33 38 -45 c33 -41 35 -46 17 -46 -12 0 -32 15 -48 35 -30 39
-44 38 -44 -6 0 -19 -5 -29 -15 -29 -12 0 -15 19 -15 110 0 91 3 110 15 110
12 0 15 -14 15 -62z m680 -48 c0 -103 -1 -110 -20 -110 -19 0 -20 7 -20 110 0
103 1 110 20 110 19 0 20 -7 20 -110z m1290 0 l0 -109 -27 -1 c-16 0 -41 -1
-58 -1 -43 -1 -67 33 -63 89 2 36 9 49 31 66 23 17 32 19 57 9 30 -11 30 -11
30 23 0 24 5 34 15 34 12 0 15 -19 15 -110z m590 48 l0 -63 35 38 c18 20 42
37 51 37 18 0 14 -8 -30 -57 l-19 -23 31 -39 c37 -46 38 -51 15 -51 -10 0 -29
16 -43 35 -32 44 -40 44 -40 0 0 -28 -4 -35 -20 -35 -19 0 -20 7 -20 110 0
103 1 110 20 110 18 0 20 -7 20 -62z m2360 47 c0 -10 -11 -15 -35 -15 l-35 0
0 -95 c0 -78 -3 -95 -15 -95 -12 0 -15 17 -15 95 l0 95 -35 0 c-24 0 -35 5
-35 15 0 12 16 15 85 15 69 0 85 -3 85 -15z m-5190 -19 c0 -7 9 -16 20 -19 11
-3 20 -10 20 -16 0 -6 -9 -11 -20 -11 -18 0 -20 -7 -20 -56 0 -47 3 -57 20
-61 27 -7 25 -23 -3 -23 -36 0 -47 19 -47 82 0 45 -3 58 -15 58 -8 0 -15 5
-15 10 0 6 7 13 15 16 8 4 15 12 15 20 0 8 7 14 15 14 8 0 15 -6 15 -14z
m4640 0 c0 -7 9 -16 20 -19 11 -3 20 -10 20 -16 0 -6 -9 -11 -20 -11 -18 0
-20 -7 -20 -56 0 -47 3 -57 20 -61 27 -7 25 -23 -3 -23 -36 0 -47 19 -47 82 0
45 -3 58 -15 58 -8 0 -15 5 -15 10 0 6 7 13 15 16 8 4 15 12 15 20 0 8 7 14
15 14 8 0 15 -6 15 -14z m-6636 -27 c31 -14 50 -59 41 -97 -14 -67 -89 -88
-132 -38 -36 42 -26 112 21 134 28 14 40 14 70 1z m186 1 c0 -6 10 -5 26 2 20
9 30 9 45 0 14 -9 25 -10 40 -1 30 15 68 3 79 -27 6 -14 10 -50 10 -80 0 -47
-3 -54 -20 -54 -17 0 -19 8 -22 68 -3 64 -4 67 -28 67 -24 0 -25 -3 -28 -67
-2 -52 -6 -68 -17 -68 -11 0 -15 14 -15 58 0 65 -9 85 -36 80 -16 -3 -19 -14
-22 -71 -3 -59 -5 -67 -22 -67 -18 0 -20 7 -20 78 0 43 3 82 7 85 10 10 23 8
23 -3z m355 -15 c18 -17 25 -35 25 -63 0 -55 -27 -86 -75 -86 -48 0 -75 31
-75 86 0 47 35 88 75 88 14 0 37 -11 50 -25z m85 15 c0 -7 6 -7 19 0 27 14 41
13 41 -4 0 -8 -10 -16 -22 -18 -21 -3 -23 -9 -26 -70 -3 -60 -5 -68 -22 -68
-18 0 -20 7 -20 78 0 43 3 82 7 85 10 10 23 8 23 -3z m194 -11 c17 -14 26 -30
26 -50 0 -29 -1 -29 -55 -29 -38 0 -55 -4 -55 -13 0 -33 48 -49 70 -23 12 15
40 11 40 -6 0 -18 -67 -39 -94 -29 -85 33 -66 167 25 170 9 1 28 -8 43 -20z
m420 10 c29 -13 36 -35 36 -107 0 -50 -2 -53 -22 -51 -13 2 -33 -1 -46 -5 -31
-10 -72 17 -72 48 0 30 19 45 64 53 21 3 36 11 36 20 0 20 -28 27 -55 13 -24
-13 -50 -6 -39 11 7 11 42 27 61 28 7 1 23 -4 37 -10z m167 1 c10 -6 19 -17
19 -25 0 -17 -16 -20 -25 -5 -11 18 -55 12 -55 -8 0 -12 14 -22 43 -32 33 -12
43 -20 45 -41 2 -15 -4 -31 -13 -39 -39 -32 -140 -1 -106 32 10 11 14 10 22
-4 12 -21 42 -23 58 -5 13 16 -4 37 -29 37 -22 0 -60 29 -60 46 0 21 37 54 61
54 11 0 29 -5 40 -10z m160 0 c23 -13 26 -40 4 -40 -8 0 -15 5 -15 11 0 6 -12
9 -27 7 -42 -5 -34 -29 14 -45 43 -15 57 -33 48 -64 -12 -37 -99 -44 -120 -9
-12 19 10 33 25 15 16 -19 44 -19 60 -1 9 12 3 19 -37 38 -56 27 -67 57 -31
82 26 19 51 20 79 6z m243 -11 c17 -14 26 -30 26 -50 0 -29 -1 -29 -55 -29
-38 0 -55 -4 -55 -13 0 -33 48 -49 70 -23 12 15 40 11 40 -6 0 -18 -67 -39
-94 -29 -85 33 -66 167 25 170 9 1 28 -8 43 -20z m366 1 c16 -16 20 -33 20
-84 l0 -65 -32 -1 c-18 0 -43 -1 -56 -1 -30 -1 -52 18 -52 46 0 27 15 41 55
50 51 11 55 14 49 30 -7 18 -37 20 -64 3 -29 -18 -39 1 -11 23 30 25 66 24 91
-1z m250 -65 c0 -69 -3 -85 -15 -85 -12 0 -15 16 -15 85 0 69 3 85 15 85 12 0
15 -16 15 -85z m70 75 c0 -7 6 -7 19 0 29 15 49 12 71 -10 16 -16 20 -33 20
-85 0 -50 -3 -65 -15 -65 -10 0 -15 16 -17 61 -3 65 -19 88 -52 76 -12 -5 -16
-20 -16 -72 0 -58 -2 -65 -20 -65 -18 0 -20 7 -20 78 0 43 3 82 7 85 10 10 23
8 23 -3z m241 0 c13 -7 19 -7 19 0 0 5 7 10 15 10 12 0 15 -18 15 -104 0 -113
-4 -121 -58 -132 -38 -8 -91 21 -73 39 8 8 14 8 23 -1 28 -28 78 -7 78 32 0
16 -3 17 -12 8 -37 -37 -108 12 -108 73 0 25 8 44 25 60 26 27 46 31 76 15z
m364 -15 c18 -17 25 -35 25 -63 0 -55 -27 -86 -75 -86 -48 0 -75 31 -75 86 0
47 35 88 75 88 14 0 37 -11 50 -25z m159 14 c29 -13 36 -35 36 -107 0 -50 -2
-53 -22 -51 -13 2 -33 -1 -46 -5 -31 -10 -72 17 -72 48 0 30 19 45 64 53 21 3
36 11 36 20 0 20 -28 27 -55 13 -24 -13 -50 -6 -39 11 7 11 42 27 61 28 7 1
23 -4 37 -10z m96 1 c0 -7 6 -7 19 0 29 15 49 12 71 -10 16 -16 20 -33 20 -85
0 -50 -3 -65 -15 -65 -10 0 -15 16 -17 61 -3 65 -19 88 -52 76 -12 -5 -16 -20
-16 -72 0 -58 -2 -65 -20 -65 -18 0 -20 7 -20 78 0 43 3 82 7 85 10 10 23 8
23 -3z m251 -9 c29 -24 18 -39 -15 -21 -27 14 -60 7 -54 -12 2 -6 18 -16 36
-22 48 -17 66 -39 52 -65 -22 -42 -98 -46 -122 -8 -11 19 15 27 34 11 20 -19
52 -15 56 8 2 11 -10 20 -40 29 -35 11 -44 19 -46 41 -2 18 4 31 20 42 30 21
51 20 79 -3z m247 3 c19 -13 22 -24 22 -85 0 -61 -2 -70 -17 -68 -10 2 -28 0
-39 -4 -32 -11 -72 8 -80 38 -9 35 9 53 62 61 24 3 44 8 44 9 0 33 -35 45 -70
23 -29 -18 -39 1 -11 23 28 23 59 24 89 3z m92 6 c0 -7 7 -7 21 0 30 16 68 4
79 -26 6 -14 10 -50 10 -80 0 -47 -2 -54 -20 -54 -18 0 -20 7 -20 65 0 52 -4
67 -16 72 -33 12 -49 -11 -52 -76 -2 -45 -7 -61 -17 -61 -12 0 -15 17 -15 85
0 69 3 85 15 85 8 0 15 -5 15 -10z m517 -2 c8 -6 19 -6 32 1 56 31 91 -5 91
-94 0 -58 -2 -65 -20 -65 -17 0 -19 8 -22 67 -3 57 -6 68 -22 71 -27 5 -36
-15 -36 -80 0 -44 -4 -58 -15 -58 -11 0 -15 16 -17 68 -3 64 -4 67 -28 67 -24
0 -25 -3 -28 -67 -3 -60 -5 -68 -22 -68 -18 0 -20 7 -20 78 0 43 2 81 4 83 9
9 91 7 103 -3z m273 -8 c16 -16 20 -33 20 -84 l0 -65 -32 -1 c-18 0 -43 -1
-56 -1 -30 -1 -52 18 -52 46 0 27 15 41 55 50 51 11 55 14 49 30 -7 18 -37 20
-64 3 -29 -18 -39 1 -11 23 30 25 66 24 91 -1z m250 -65 c0 -69 -3 -85 -15
-85 -12 0 -15 16 -15 85 0 69 3 85 15 85 12 0 15 -16 15 -85z m70 75 c0 -7 7
-7 21 0 30 16 68 4 79 -26 6 -14 10 -50 10 -80 0 -47 -2 -54 -20 -54 -18 0
-20 7 -20 65 0 52 -4 67 -16 72 -33 12 -49 -11 -52 -76 -2 -45 -7 -61 -17 -61
-12 0 -15 17 -15 85 0 69 3 85 15 85 8 0 15 -5 15 -10z m241 0 c13 -7 19 -7
19 0 0 5 7 10 15 10 12 0 15 -18 15 -99 0 -96 -1 -100 -26 -120 -32 -25 -55
-26 -96 -5 -23 12 -27 19 -19 27 9 9 16 8 31 -1 29 -18 58 -15 70 7 15 28 14
49 -2 33 -19 -19 -66 -14 -88 8 -31 31 -28 102 6 129 30 23 46 26 75 11z m199
1 c0 -5 13 -4 30 2 25 10 34 8 57 -9 23 -17 29 -30 31 -68 2 -28 -2 -54 -10
-63 -19 -24 -57 -34 -79 -23 -17 10 -19 7 -19 -25 0 -28 -4 -35 -20 -35 -19 0
-20 7 -20 108 0 60 3 112 7 115 9 10 23 9 23 -2z m254 -2 c29 -13 36 -35 36
-107 0 -50 -2 -53 -22 -51 -13 2 -33 -1 -46 -5 -31 -10 -72 17 -72 48 0 30 19
45 64 53 21 3 36 11 36 20 0 20 -28 27 -55 13 -24 -13 -50 -6 -39 11 7 11 42
27 61 28 7 1 23 -4 37 -10z m101 -41 c10 -29 21 -56 24 -61 4 -4 15 18 25 48
16 50 38 77 52 62 3 -2 -14 -54 -38 -113 -39 -99 -46 -109 -70 -112 -32 -4
-38 14 -8 23 27 8 26 37 -5 115 -29 73 -31 90 -11 90 8 0 21 -22 31 -52z m232
40 c8 -6 19 -6 32 1 56 31 91 -5 91 -94 0 -58 -2 -65 -20 -65 -17 0 -19 8 -22
67 -3 57 -6 68 -22 71 -27 5 -36 -15 -36 -80 0 -44 -4 -58 -15 -58 -11 0 -15
16 -17 68 -3 64 -4 67 -28 67 -24 0 -25 -3 -28 -67 -3 -60 -5 -68 -22 -68 -18
0 -20 7 -20 78 0 43 2 81 4 83 9 9 91 7 103 -3z m278 -13 c14 -13 25 -36 25
-50 0 -24 -2 -25 -61 -25 l-61 0 14 -22 c19 -29 45 -34 66 -14 19 16 45 8 34
-11 -14 -22 -59 -33 -90 -22 -80 28 -60 169 23 169 14 0 37 -11 50 -25z m85
15 c0 -7 7 -7 21 0 30 16 68 4 79 -26 6 -14 10 -50 10 -80 0 -47 -2 -54 -20
-54 -18 0 -20 7 -20 65 0 52 -4 67 -16 72 -33 12 -49 -11 -52 -76 -2 -45 -7
-61 -17 -61 -12 0 -15 17 -15 85 0 69 3 85 15 85 8 0 15 -5 15 -10z m351 0
c23 -13 26 -40 4 -40 -8 0 -15 5 -15 11 0 6 -12 9 -27 7 -42 -5 -34 -29 14
-45 43 -15 57 -33 48 -64 -12 -37 -99 -44 -120 -9 -12 19 10 33 25 15 16 -19
44 -19 60 -1 9 12 3 19 -37 38 -56 27 -67 57 -31 82 26 19 51 20 79 6z m429 0
c0 -7 6 -7 19 0 27 14 41 13 41 -4 0 -8 -10 -16 -22 -18 -21 -3 -23 -9 -26
-70 -3 -60 -5 -68 -22 -68 -18 0 -20 7 -20 78 0 43 3 82 7 85 10 10 23 8 23
-3z m131 -51 l23 -62 22 59 c12 34 29 60 38 62 9 2 16 1 16 -2 0 -12 -73 -202
-83 -213 -11 -15 -57 -17 -57 -3 0 6 4 10 9 10 5 0 16 7 25 15 14 14 12 24
-14 96 -34 92 -35 99 -16 99 9 0 24 -25 37 -61z m-463 -92 c2 -12 -3 -17 -17
-17 -12 0 -21 6 -21 13 0 31 32 34 38 4z m-4278 -222 c10 -12 9 -16 -5 -21
-19 -8 -40 9 -31 25 10 15 21 14 36 -4z m2690 0 c10 -12 9 -16 -5 -21 -19 -8
-40 9 -31 25 10 15 21 14 36 -4z m120 0 c0 -8 -9 -15 -20 -15 -11 0 -20 -7
-20 -15 0 -8 9 -15 20 -15 11 0 20 -7 20 -15 0 -8 -9 -15 -20 -15 -18 0 -20
-7 -20 -70 0 -56 -3 -70 -15 -70 -12 0 -15 14 -15 70 0 56 -3 70 -15 70 -8 0
-15 5 -15 10 0 6 7 13 15 16 8 4 15 14 15 23 0 9 5 22 12 29 17 17 58 15 58
-3z m468 -8 c2 -12 -3 -17 -17 -17 -12 0 -21 6 -21 13 0 31 32 34 38 4z
m-5313 -12 c28 -27 31 -45 14 -78 -16 -31 -28 -37 -71 -37 -38 0 -38 0 -38
-40 0 -33 -3 -40 -20 -40 -19 0 -20 7 -20 110 l0 110 55 0 c46 0 60 -4 80 -25z
m1085 -85 l0 -109 -27 -1 c-16 0 -41 -1 -58 -1 -43 -1 -67 33 -63 89 2 36 9
49 31 66 23 17 32 19 57 9 30 -11 30 -11 30 23 0 24 5 34 15 34 12 0 15 -19
15 -110z m880 0 l0 -110 -27 -1 c-16 0 -41 0 -57 0 -69 -2 -97 101 -41 149 21
18 36 22 57 18 26 -5 28 -3 28 24 0 23 4 30 20 30 19 0 20 -7 20 -110z m890 0
l0 -109 -27 -1 c-16 0 -41 -1 -58 -1 -43 -1 -67 33 -63 89 2 36 9 49 31 66 23
17 32 19 57 9 30 -11 30 -11 30 23 0 24 5 34 15 34 12 0 15 -19 15 -110z m670
48 l0 -62 38 37 c58 57 87 49 32 -8 l-31 -32 36 -44 c29 -36 32 -45 18 -48
-10 -2 -29 11 -46 33 -32 40 -47 39 -47 -5 0 -19 -5 -29 -15 -29 -12 0 -15 19
-15 110 0 91 3 110 15 110 12 0 15 -14 15 -62z m1130 -48 c0 -91 -3 -110 -15
-110 -12 0 -15 19 -15 110 0 91 3 110 15 110 12 0 15 -19 15 -110z m1170 0 c0
-91 -3 -110 -15 -110 -12 0 -15 19 -15 110 0 91 3 110 15 110 12 0 15 -19 15
-110z m-5390 75 c0 -8 7 -15 15 -15 8 0 15 -7 15 -15 0 -8 -7 -15 -15 -15 -11
0 -15 -13 -15 -54 0 -44 4 -56 23 -69 22 -16 22 -16 -11 -16 -38 -1 -52 24
-52 95 0 24 -4 44 -10 44 -5 0 -10 7 -10 15 0 8 5 15 10 15 6 0 10 7 10 15 0
8 9 15 20 15 11 0 20 -7 20 -15z m1680 0 c0 -8 9 -15 20 -15 11 0 20 -7 20
-15 0 -8 -9 -15 -20 -15 -18 0 -20 -7 -20 -54 0 -46 3 -56 20 -61 27 -9 25
-25 -3 -25 -36 0 -47 19 -47 82 0 32 -4 58 -10 58 -5 0 -10 7 -10 15 0 8 5 15
10 15 6 0 10 7 10 15 0 8 7 15 15 15 8 0 15 -7 15 -15z m-1956 -26 c31 -14 50
-59 41 -97 -14 -67 -89 -88 -132 -38 -36 42 -26 112 21 134 28 14 40 14 70 1z
m177 -8 c29 -24 18 -39 -15 -21 -27 14 -60 7 -54 -12 2 -6 17 -16 34 -21 41
-14 54 -26 54 -52 0 -31 -25 -49 -66 -49 -42 0 -78 29 -54 44 10 6 20 4 32 -6
20 -19 52 -15 56 8 2 11 -10 20 -40 29 -37 12 -43 18 -46 45 -2 24 2 33 20 42
34 16 53 14 79 -7z m279 -1 c11 -11 20 -24 20 -30 0 -15 -26 -12 -40 5 -29 34
-70 10 -70 -41 0 -52 43 -82 70 -49 13 16 40 21 40 8 -1 -30 -58 -57 -93 -44
-35 14 -50 38 -50 83 0 72 76 115 123 68z m158 4 c19 -13 22 -24 22 -85 0 -61
-2 -70 -17 -68 -10 2 -28 0 -39 -4 -32 -11 -72 8 -80 38 -9 35 9 53 62 61 24
3 44 8 44 9 0 33 -35 45 -70 23 -29 -18 -39 1 -11 23 28 23 59 24 89 3z m92 4
c0 -9 3 -9 12 0 17 17 48 15 48 -3 0 -8 -8 -15 -18 -15 -31 0 -42 -22 -42 -82
0 -45 -3 -58 -15 -58 -12 0 -15 16 -15 85 0 69 3 85 15 85 8 0 15 -5 15 -12z
m361 2 c23 -13 26 -40 4 -40 -8 0 -15 5 -15 11 0 6 -12 9 -27 7 -42 -5 -34
-29 14 -45 43 -15 57 -33 48 -64 -12 -37 -99 -44 -120 -9 -12 19 10 33 25 15
16 -19 44 -19 60 -1 9 12 3 19 -37 38 -56 27 -67 57 -31 82 26 19 51 20 79 6z
m259 -10 c11 -11 20 -24 20 -30 0 -15 -26 -12 -40 5 -29 34 -70 10 -70 -41 0
-52 43 -82 70 -49 13 16 40 21 40 8 -1 -30 -58 -57 -93 -44 -35 14 -50 38 -50
83 0 72 76 115 123 68z m80 8 c0 -9 3 -9 12 0 17 17 48 15 48 -3 0 -8 -8 -15
-18 -15 -31 0 -42 -22 -42 -82 0 -45 -3 -58 -15 -58 -12 0 -15 16 -15 85 0 69
3 85 15 85 8 0 15 -5 15 -12z m195 -13 c14 -13 25 -36 25 -50 0 -24 -2 -25
-61 -25 l-61 0 14 -22 c19 -29 45 -34 66 -14 19 16 45 8 34 -11 -14 -22 -59
-33 -90 -22 -80 28 -60 169 23 169 14 0 37 -11 50 -25z m275 -60 c0 -69 -3
-85 -15 -85 -12 0 -15 16 -15 85 0 69 3 85 15 85 12 0 15 -16 15 -85z m350 65
c11 -11 20 -24 20 -30 0 -15 -26 -12 -40 5 -29 34 -70 10 -70 -41 0 -52 43
-82 70 -49 13 16 40 21 40 8 -1 -30 -58 -57 -93 -44 -35 14 -50 38 -50 83 0
72 76 115 123 68z m158 4 c19 -13 22 -24 22 -85 0 -61 -2 -70 -17 -68 -10 2
-28 0 -39 -4 -32 -11 -72 8 -80 38 -9 35 9 53 62 61 24 3 44 8 44 9 0 33 -35
45 -70 23 -29 -18 -39 1 -11 23 28 23 59 24 89 3z m92 4 c0 -9 3 -9 12 0 17
17 48 15 48 -3 0 -8 -8 -15 -18 -15 -31 0 -42 -22 -42 -82 0 -45 -3 -58 -15
-58 -12 0 -15 16 -15 85 0 69 3 85 15 85 8 0 15 -5 15 -12z m460 2 c0 -6 8 -5
19 2 15 9 25 9 46 0 18 -8 32 -9 45 -2 54 29 80 0 80 -91 0 -54 -3 -69 -15
-69 -11 0 -15 16 -17 68 -3 64 -4 67 -28 67 -24 0 -25 -3 -28 -67 -3 -60 -5
-68 -22 -68 -18 0 -20 7 -20 65 0 49 -4 67 -15 71 -29 12 -45 -16 -45 -77 0
-46 -3 -59 -15 -59 -12 0 -15 16 -15 85 0 69 3 85 15 85 8 0 15 -5 15 -10z
m338 -6 c19 -13 22 -24 22 -84 0 -66 -1 -70 -22 -69 -13 0 -33 -2 -45 -6 -29
-9 -74 34 -66 63 5 21 49 42 84 42 23 0 25 28 3 37 -9 3 -25 1 -35 -5 -23 -14
-49 -16 -49 -3 0 15 42 41 65 41 11 0 31 -7 43 -16z m337 -9 c14 -13 25 -36
25 -50 0 -24 -2 -25 -61 -25 l-61 0 14 -22 c19 -29 45 -34 66 -14 19 16 45 8
34 -11 -14 -22 -59 -33 -90 -22 -80 28 -60 169 23 169 14 0 37 -11 50 -25z
m181 -40 c23 -64 24 -64 48 13 10 30 24 52 32 52 20 0 18 -13 -18 -109 -37
-100 -52 -121 -87 -121 l-26 1 28 20 c15 11 27 26 27 32 0 7 -13 47 -29 89
-16 42 -26 80 -23 83 14 13 28 -5 48 -60z m237 45 c73 -58 16 -179 -70 -149
-55 19 -71 101 -28 144 29 30 64 32 98 5z m95 -47 c3 -71 18 -90 50 -67 18 13
22 25 22 75 0 46 3 59 15 59 12 0 15 -16 15 -83 l0 -83 -55 -2 c-46 -1 -57 2
-70 21 -15 22 -22 127 -8 141 17 17 28 -5 31 -61z m172 55 c0 -9 3 -9 12 0 17
17 48 15 48 -3 0 -8 -8 -15 -18 -15 -31 0 -42 -22 -42 -82 0 -45 -3 -58 -15
-58 -12 0 -15 16 -15 85 0 69 3 85 15 85 8 0 15 -5 15 -12z m270 -73 c0 -69
-3 -85 -15 -85 -12 0 -15 16 -15 85 0 69 3 85 15 85 12 0 15 -16 15 -85z m254
64 c17 -14 26 -30 26 -50 0 -29 -1 -29 -55 -29 -38 0 -55 -4 -55 -13 0 -33 48
-49 70 -23 12 15 40 11 40 -6 0 -18 -67 -39 -94 -29 -85 33 -66 167 25 170 9
1 28 -8 43 -20z m247 2 c29 -24 18 -39 -15 -21 -27 14 -60 7 -54 -12 2 -6 18
-16 36 -22 48 -17 66 -39 52 -65 -22 -42 -98 -46 -122 -8 -11 19 15 27 34 11
20 -19 52 -15 56 8 2 11 -10 20 -40 29 -35 11 -44 19 -46 41 -2 18 4 31 20 42
30 21 51 20 79 -3z m87 -69 c3 -77 2 -82 -18 -82 -18 0 -20 6 -20 78 0 43 3
82 7 86 19 18 28 -7 31 -82z m143 77 c10 -5 29 -3 47 3 27 10 34 9 51 -7 17
-15 21 -30 21 -87 0 -54 -3 -68 -15 -68 -12 0 -15 13 -15 58 0 65 -9 85 -36
80 -16 -3 -19 -14 -22 -71 -3 -59 -5 -67 -22 -67 -18 0 -20 7 -20 65 0 49 -4
67 -15 71 -29 12 -45 -16 -45 -77 0 -46 -3 -59 -15 -59 -12 0 -15 16 -15 84
l0 83 43 0 c23 1 49 -3 58 -8z m189 1 c0 -7 6 -7 19 0 30 16 50 12 76 -15 59
-59 4 -173 -70 -145 -24 9 -25 8 -25 -25 0 -24 -5 -35 -15 -35 -12 0 -15 19
-15 115 0 96 3 115 15 115 8 0 15 -5 15 -10z m318 4 c23 -7 52 -50 52 -79 0
-12 -12 -15 -60 -15 -46 0 -60 -3 -60 -15 0 -25 38 -38 71 -24 36 14 49 5 26
-18 -24 -24 -83 -22 -109 4 -32 32 -29 100 6 130 29 24 37 26 74 17z m120
-147 c2 -12 -3 -17 -17 -17 -12 0 -21 6 -21 13 0 31 32 34 38 4z m-3144 -14
c-9 -39 -23 -63 -36 -63 -6 0 -8 12 -4 31 3 17 6 38 6 45 0 8 9 14 20 14 17 0
19 -4 14 -27z m1173 -1344 c67 -25 111 -99 98 -165 -8 -45 -57 -100 -101 -114
-100 -33 -209 62 -190 165 12 62 82 124 143 125 12 0 34 -5 50 -11z m-1461
-41 c4 -6 -2 -18 -12 -26 -13 -10 -15 -16 -6 -19 14 -6 16 -33 2 -33 -5 0 -10
-22 -10 -50 0 -47 -2 -50 -25 -50 -23 0 -25 3 -25 48 0 26 -6 54 -12 61 -10
11 -10 14 0 18 6 3 12 11 12 18 0 34 60 60 76 33z m382 -11 c2 -10 -3 -17 -12
-17 -9 0 -16 -4 -16 -10 0 -5 7 -10 15 -10 8 0 15 -5 15 -10 0 -6 -7 -13 -15
-16 -11 -4 -15 -21 -15 -55 0 -45 -2 -49 -24 -49 -22 0 -24 5 -28 63 -7 84 16
130 62 124 8 -1 16 -10 18 -20z m-1072 -59 c39 -116 38 -108 11 -108 -16 0
-26 7 -30 20 -3 14 -14 20 -32 20 -18 0 -29 -6 -32 -20 -3 -13 -14 -20 -29
-20 -13 0 -24 1 -24 3 0 3 45 137 55 165 3 8 16 12 32 10 23 -3 29 -12 49 -70z
m384 -18 c0 -83 -1 -90 -20 -90 -19 0 -20 7 -20 90 0 83 1 90 20 90 19 0 20
-7 20 -90z m-225 25 c32 -31 32 -69 -1 -101 -18 -19 -31 -24 -50 -20 -21 6
-24 3 -24 -19 0 -18 -5 -25 -20 -25 -19 0 -20 7 -20 89 l0 90 33 4 c17 2 38 5
45 5 7 1 24 -9 37 -23z m150 0 c32 -31 32 -69 -1 -101 -18 -19 -31 -24 -50
-20 -21 6 -24 3 -24 -19 0 -18 -5 -25 -20 -25 -19 0 -20 7 -20 89 l0 90 33 4
c17 2 38 5 45 5 7 1 24 -9 37 -23z m489 4 c19 -15 26 -30 26 -54 0 -37 -37
-75 -72 -75 -27 0 -68 45 -68 75 0 30 41 75 68 75 11 0 31 -9 46 -21z m126 1
c0 -13 -7 -20 -20 -20 -17 0 -20 -7 -20 -50 0 -47 -2 -50 -25 -50 -24 0 -25 2
-25 64 l0 65 33 4 c17 2 38 5 45 5 6 1 12 -7 12 -18z m246 5 c5 -13 8 -13 27
0 31 21 54 19 82 -10 l25 -24 25 24 c13 14 33 25 43 25 31 0 74 -39 70 -64 -2
-17 -11 -22 -45 -24 -24 -2 -43 -8 -43 -13 0 -6 17 -8 46 -3 44 6 46 6 35 -14
-22 -41 -101 -35 -122 10 -9 20 -16 23 -54 20 -25 -2 -45 -8 -45 -14 0 -5 18
-6 46 -2 44 6 46 6 35 -14 -15 -29 -65 -38 -96 -18 -26 17 -41 56 -31 82 4 12
0 15 -17 12 -19 -3 -22 -10 -25 -50 -3 -40 -6 -48 -23 -48 -17 0 -19 7 -19 64
0 70 -3 66 68 75 7 0 15 -6 18 -14z m-715 -32 l13 -38 9 38 c7 30 14 37 33 37
13 0 24 -1 24 -3 0 -13 -52 -152 -61 -163 -13 -15 -69 -19 -69 -5 0 5 9 15 21
22 l20 14 -25 68 -26 67 24 0 c19 0 27 -8 37 -37z m-3007 -1224 c70 -32 48
-149 -29 -149 -75 0 -99 115 -32 148 29 14 32 14 61 1z m614 -5 c30 -20 28
-39 -9 -85 l-31 -39 31 0 c17 0 31 -4 31 -10 0 -5 -22 -10 -50 -10 -27 0 -50
3 -50 6 0 4 16 26 35 50 19 23 35 49 35 58 0 23 -19 30 -39 12 -22 -20 -31
-20 -31 -1 0 14 26 34 45 35 6 0 21 -7 33 -16z m192 -11 c17 -22 21 -37 17
-66 -7 -48 -22 -67 -57 -67 -38 0 -55 25 -55 77 0 35 5 49 24 64 31 26 46 24
71 -8z m130 7 c25 -25 27 -95 3 -122 -22 -24 -69 -24 -83 1 -17 33 -12 99 10
121 11 11 27 20 35 20 8 0 24 -9 35 -20z m130 0 c25 -25 27 -95 3 -122 -22
-24 -69 -24 -83 1 -17 33 -12 99 10 121 11 11 27 20 35 20 8 0 24 -9 35 -20z
m5001 10 c10 -6 19 -17 19 -25 0 -19 -9 -19 -30 0 -20 18 -52 9 -48 -13 2 -8
18 -20 36 -26 42 -14 57 -38 42 -66 -18 -33 -110 -23 -110 12 0 4 7 8 15 8 8
0 15 -5 15 -11 0 -15 53 -7 58 9 2 8 -12 19 -37 29 -50 20 -63 49 -31 75 25
21 43 22 71 8z m873 -12 c8 -13 8 -23 -2 -38 -8 -13 -9 -26 -4 -37 6 -11 11
-12 16 -4 14 21 24 11 23 -24 -1 -35 -1 -35 -47 -35 -25 0 -51 5 -58 12 -16
16 -15 43 3 58 11 9 12 17 5 30 -13 24 -13 26 6 45 20 19 43 16 58 -7z m406
12 c0 -5 -7 -10 -15 -10 -18 0 -20 -16 -2 -24 10 -5 10 -7 0 -12 -8 -3 -13
-25 -13 -55 0 -37 -4 -49 -15 -49 -11 0 -15 12 -15 50 0 29 -5 50 -11 50 -6 0
-1 14 11 30 20 28 60 42 60 20z m-6850 -75 c0 -43 -4 -75 -10 -75 -6 0 -10 29
-10 66 0 58 -2 65 -15 54 -9 -7 -18 -10 -22 -7 -10 10 18 37 38 37 17 0 19 -8
19 -75z m2474 23 l36 -52 0 52 c0 40 4 52 15 52 12 0 15 -15 15 -75 0 -92 -12
-97 -64 -23 l-36 52 0 -52 c0 -40 -4 -52 -15 -52 -12 0 -15 15 -15 75 0 92 12
97 64 23z m736 -23 c0 -60 -3 -75 -15 -75 -12 0 -15 15 -15 75 0 60 3 75 15
75 12 0 15 -15 15 -75z m340 56 c0 -13 6 -17 23 -14 35 6 49 -11 55 -66 4 -42
2 -51 -12 -51 -12 0 -16 10 -16 44 0 48 -8 60 -34 50 -11 -4 -16 -19 -16 -50
0 -24 -4 -44 -10 -44 -6 0 -10 32 -10 75 0 43 4 75 10 75 6 0 10 -8 10 -19z
m2730 -56 l0 -75 -45 0 c-48 0 -65 16 -65 63 0 31 33 61 60 54 15 -4 20 0 20
14 0 10 7 19 15 19 12 0 15 -15 15 -75z m-6682 4 l18 -42 13 42 c7 23 17 41
22 39 15 -5 14 -7 -5 -66 -27 -79 -44 -70 -80 46 -13 40 14 24 32 -19z m163
31 c11 -6 19 -21 19 -35 0 -23 -4 -25 -41 -25 -28 0 -39 -4 -36 -12 2 -8 19
-12 41 -11 26 2 36 -1 33 -10 -2 -7 -21 -12 -43 -12 -47 0 -69 31 -53 74 16
41 42 51 80 31z m109 1 c0 -5 -9 -11 -20 -14 -16 -4 -20 -14 -20 -51 0 -34 -4
-46 -15 -46 -11 0 -15 13 -15 53 0 30 2 56 4 58 9 8 66 8 66 0z m2782 -8 c20
-18 24 -73 6 -91 -20 -20 -76 -15 -88 7 -16 30 -12 59 10 81 24 24 47 25 72 3z
m130 -24 l12 -42 18 42 c9 22 22 41 28 41 15 0 11 -18 -18 -90 -22 -53 -32
-66 -52 -68 -24 -3 -25 -2 -5 13 20 16 20 16 -1 75 -12 33 -19 62 -16 65 13
12 22 2 34 -36z m160 29 c9 -7 19 -23 23 -35 6 -22 3 -23 -39 -23 -38 0 -44
-3 -39 -16 4 -12 14 -15 40 -11 24 4 33 2 30 -6 -5 -16 -65 -21 -83 -6 -19 16
-18 68 3 91 19 21 43 23 65 6z m119 2 c15 -8 19 -22 19 -61 l0 -50 -47 3 c-44
3 -48 5 -48 28 0 20 7 27 33 35 17 5 32 15 32 22 0 15 -26 17 -35 3 -9 -15
-25 -12 -25 4 0 24 39 33 71 16z m109 1 c0 -5 -9 -11 -20 -14 -16 -4 -20 -14
-20 -51 0 -34 -4 -46 -15 -46 -11 0 -15 13 -15 53 0 30 2 56 4 58 9 8 66 8 66
0z m91 -31 c13 -44 24 -44 34 0 7 30 21 47 32 36 6 -6 -35 -124 -50 -143 -5
-7 -19 -13 -31 -13 -20 1 -20 2 -3 14 21 16 21 33 2 79 -17 42 -19 67 -5 67 5
0 15 -18 21 -40z m234 20 c14 -16 15 -20 4 -20 -8 0 -20 5 -25 10 -20 20 -45
0 -42 -34 3 -33 34 -49 49 -25 10 17 23 4 16 -16 -8 -20 -61 -20 -81 1 -33 33
-4 104 42 104 11 0 27 -9 37 -20z m226 10 c15 -8 19 -22 19 -60 l0 -50 -44 0
c-37 0 -46 4 -51 21 -9 26 4 39 44 48 24 5 28 9 21 21 -8 13 -13 13 -31 2 -25
-16 -37 -8 -19 13 15 18 34 19 61 5z m109 2 c0 -4 -9 -13 -20 -20 -15 -9 -20
-23 -20 -52 0 -22 -4 -40 -10 -40 -6 0 -10 26 -10 58 0 59 0 59 30 60 17 0 30
-2 30 -6z m118 -59 c2 -52 -1 -66 -18 -83 -23 -23 -49 -26 -75 -7 -13 10 -15
16 -6 21 6 4 18 2 26 -4 18 -15 45 -6 45 14 0 9 -7 12 -19 9 -34 -9 -61 14
-61 52 0 45 23 66 68 62 l37 -2 3 -62z m103 57 c11 -6 19 -21 19 -35 0 -23 -4
-25 -41 -25 -28 0 -39 -4 -36 -12 2 -8 19 -12 41 -11 26 2 36 -1 33 -10 -2 -7
-21 -12 -43 -12 -47 0 -69 31 -53 74 16 41 42 51 80 31z m118 -4 c8 -9 8 -16
2 -20 -5 -4 -12 -2 -16 4 -9 14 -35 12 -35 -3 0 -7 14 -18 31 -24 24 -9 30
-17 27 -35 -3 -20 -9 -23 -42 -23 -22 0 -41 5 -43 12 -3 8 6 10 31 6 44 -7 48
11 6 26 -38 13 -50 39 -25 57 24 18 49 18 64 0z m1533 -3 c10 -9 18 -24 18
-35 0 -14 -8 -18 -41 -18 -28 0 -39 -4 -36 -12 2 -8 19 -12 42 -11 32 2 35 1
25 -12 -16 -20 -64 -19 -84 1 -22 21 -20 60 4 84 24 24 47 25 72 3z m123 -3
c14 -16 15 -20 4 -20 -8 0 -20 5 -25 10 -20 20 -45 0 -42 -34 3 -33 34 -49 49
-25 10 17 23 4 16 -16 -8 -20 -61 -20 -81 1 -33 33 -4 104 42 104 11 0 27 -9
37 -20z m57 -27 c3 -40 6 -48 23 -48 17 0 20 8 23 48 4 67 22 58 22 -12 l0
-59 -42 2 -43 1 -3 58 c-2 33 1 57 7 57 5 0 11 -21 13 -47z m158 39 c0 -4 -9
-13 -20 -20 -15 -9 -20 -23 -20 -52 0 -22 -4 -40 -10 -40 -6 0 -10 26 -10 58
0 59 0 59 30 60 17 0 30 -2 30 -6z m92 -4 c9 -7 19 -23 23 -35 6 -22 3 -23
-39 -23 -38 0 -44 -3 -39 -16 4 -12 14 -15 40 -11 24 4 33 2 30 -6 -5 -16 -65
-21 -83 -6 -19 16 -18 68 3 91 19 21 43 23 65 6z m492 6 c9 -3 16 -12 16 -20
0 -17 -12 -18 -28 -2 -9 9 -15 9 -23 1 -9 -9 -2 -16 25 -27 37 -15 45 -33 24
-54 -17 -17 -63 -15 -79 4 -11 14 -9 15 25 8 30 -5 38 -4 34 7 -2 7 -15 16
-29 19 -27 7 -37 34 -19 55 13 16 29 19 54 9z m117 -4 c15 -8 19 -22 19 -60
l0 -50 -44 0 c-37 0 -46 4 -51 21 -9 26 4 39 44 48 24 5 28 9 21 21 -8 13 -13
13 -31 2 -25 -16 -37 -8 -19 13 15 18 34 19 61 5z m201 -7 c10 -9 18 -24 18
-35 0 -14 -8 -18 -41 -18 -28 0 -39 -4 -36 -12 2 -8 19 -12 42 -11 32 2 35 1
25 -12 -16 -20 -64 -19 -84 1 -22 21 -20 60 4 84 24 24 47 25 72 3z m-7995
-23 c51 -31 56 -88 12 -143 -15 -20 -29 -27 -55 -27 -90 0 -122 140 -40 176
41 18 46 17 83 -6z m3241 -6 c21 -14 22 -22 22 -158 0 -97 -4 -146 -12 -154
-8 -8 -57 -12 -154 -12 -181 0 -174 -7 -174 172 0 115 2 130 20 148 18 18 33
20 148 20 99 0 132 -3 150 -16z m3006 -5 c19 -15 26 -29 25 -52 0 -18 -3 -25
-6 -17 -32 99 -113 101 -145 5 -5 -16 -6 -14 -7 9 -2 66 77 99 133 55z m-6050
-21 c22 -31 20 -60 -5 -92 -39 -49 -101 -27 -115 41 -5 24 -1 36 15 52 29 29
85 28 105 -1z m1052 -44 c-3 -9 -6 -22 -6 -30 0 -8 -6 -14 -13 -14 -9 0 -12
10 -9 30 3 18 10 30 19 30 10 0 13 -6 9 -16z m4036 -9 c-4 -25 -19 -41 -28
-32 -3 2 -2 16 2 31 8 34 33 35 26 1z m1038 -65 c26 -26 28 -133 4 -168 -14
-21 -23 -22 -134 -22 -144 0 -150 5 -150 112 0 92 10 98 152 98 95 0 110 -2
128 -20z m-6088 -48 c10 -10 20 -31 21 -47 2 -34 -18 -42 -99 -44 -41 -1 -53
-5 -57 -19 -6 -24 -47 -32 -156 -31 -121 1 -137 7 -133 50 1 23 12 43 32 62
28 25 36 27 118 27 48 0 92 4 98 9 28 27 147 22 176 -7z m1178 -37 c0 -8 -4
-15 -9 -15 -13 0 -22 16 -14 24 11 11 23 6 23 -9z m178 3 c-6 -18 -28 -21 -28
-4 0 9 7 16 16 16 9 0 14 -5 12 -12z m2312 -3 c0 -8 -7 -15 -15 -15 -8 0 -15
7 -15 15 0 8 7 15 15 15 8 0 15 -7 15 -15z m645 6 c7 -12 -12 -24 -25 -16 -11
7 -4 25 10 25 5 0 11 -4 15 -9z m233 -3 c-6 -18 -28 -21 -28 -4 0 9 7 16 16
16 9 0 14 -5 12 -12z m2080 0 c-6 -18 -28 -21 -28 -4 0 9 7 16 16 16 9 0 14
-5 12 -12z m-5988 -73 l0 -75 -45 0 c-48 0 -65 16 -65 63 0 31 33 61 60 54 15
-4 20 0 20 14 0 10 7 19 15 19 12 0 15 -15 15 -75z m1090 0 l0 -75 -45 0 c-48
0 -65 16 -65 63 0 31 33 61 60 54 15 -4 20 0 20 14 0 10 7 19 15 19 12 0 15
-15 15 -75z m2530 0 c0 -43 -4 -75 -10 -75 -6 0 -10 32 -10 75 0 43 4 75 10
75 6 0 10 -32 10 -75z m2320 0 c0 -60 -3 -75 -15 -75 -12 0 -15 15 -15 75 0
60 3 75 15 75 12 0 15 -15 15 -75z m-6198 45 c19 -17 19 -20 5 -20 -24 0 -23
-68 1 -86 16 -12 16 -13 -4 -14 -30 0 -42 18 -44 70 -4 79 3 87 42 50z m558
10 c0 -5 7 -10 15 -10 8 0 15 -4 15 -10 0 -5 -7 -10 -15 -10 -11 0 -15 -11
-15 -40 0 -29 4 -40 15 -40 8 0 15 -5 15 -11 0 -6 -10 -9 -22 -7 -19 2 -24 10
-26 48 -2 24 -8 48 -14 51 -7 5 -6 12 3 23 16 18 29 20 29 6z m3660 0 c0 -5 7
-10 15 -10 8 0 15 -4 15 -10 0 -5 -7 -10 -15 -10 -11 0 -15 -11 -15 -40 0 -29
4 -40 15 -40 8 0 15 -5 15 -11 0 -6 -10 -9 -22 -7 -19 2 -24 10 -26 48 -2 24
-8 48 -14 51 -7 5 -6 12 3 23 16 18 29 20 29 6z m3188 -7 c12 -12 13 -18 4
-21 -14 -4 -17 -82 -2 -82 6 0 10 -5 10 -11 0 -6 -10 -9 -22 -7 -20 3 -23 10
-26 51 -2 26 -7 47 -13 47 -5 0 -4 9 3 20 16 24 24 25 46 3z m-7494 -9 c9 -3
16 -12 16 -20 0 -17 -12 -18 -28 -2 -9 9 -15 9 -23 1 -9 -9 -2 -16 25 -27 37
-15 45 -33 24 -54 -17 -17 -63 -15 -79 4 -11 14 -9 15 25 8 30 -5 38 -4 34 7
-2 7 -15 16 -29 19 -27 7 -37 34 -19 55 13 16 29 19 54 9z m146 -50 c0 -37 3
-44 19 -44 17 0 20 8 23 47 5 73 28 68 28 -6 l0 -61 -38 0 c-21 0 -43 5 -50
12 -12 12 -17 90 -6 101 14 14 24 -6 24 -49z m308 40 c12 -8 22 -24 22 -35 0
-16 -7 -19 -40 -19 -30 0 -40 -4 -40 -16 0 -14 7 -15 42 -10 36 6 40 5 28 -9
-18 -22 -77 -20 -90 4 -16 30 -12 59 10 81 24 24 38 25 68 4z m121 7 c8 -5 16
-32 19 -60 4 -42 2 -51 -12 -51 -12 0 -16 10 -16 44 0 25 -5 48 -10 51 -20 12
-40 -17 -40 -56 0 -22 -4 -39 -10 -39 -6 0 -10 26 -10 58 l0 59 33 1 c17 1 38
-3 46 -7z m185 3 c9 -3 16 -12 16 -20 0 -17 -12 -18 -27 -3 -6 6 -16 8 -22 5
-19 -12 -12 -24 18 -31 33 -7 47 -31 30 -51 -16 -19 -75 -18 -83 1 -5 13 0 15
30 9 29 -5 36 -4 32 7 -3 8 -13 16 -24 18 -22 4 -44 20 -44 32 0 12 30 39 45
39 7 0 20 -3 29 -6z m126 -69 c0 -59 -3 -77 -15 -82 -21 -7 -32 4 -17 19 7 7
12 40 12 75 0 35 4 63 10 63 6 0 10 -32 10 -75z m112 58 c20 -18 24 -73 6 -91
-20 -20 -76 -15 -88 7 -16 30 -12 59 10 81 24 24 47 25 72 3z m66 -46 c2 -46
0 -57 -13 -57 -12 0 -15 13 -15 61 0 81 24 77 28 -4z m110 49 c18 -11 16 -106
-2 -106 -11 0 -16 14 -18 48 -2 34 -7 47 -18 47 -11 0 -16 -13 -18 -47 -2 -34
-7 -48 -18 -48 -11 0 -14 14 -14 59 l0 59 38 -2 c20 -1 43 -5 50 -10z m114 2
c9 -7 19 -23 23 -35 6 -22 3 -23 -39 -23 -38 0 -44 -3 -39 -16 4 -12 14 -15
40 -11 24 4 33 2 30 -6 -5 -16 -65 -21 -83 -6 -19 16 -18 68 3 91 19 21 43 23
65 6z m1799 -8 c15 -25 11 -100 -5 -100 -11 0 -16 14 -18 48 -2 34 -7 47 -18
47 -11 0 -16 -13 -18 -47 -2 -34 -7 -48 -18 -48 -10 0 -14 12 -14 43 0 24 -3
47 -7 50 -14 14 -33 -17 -33 -54 0 -22 -4 -39 -10 -39 -6 0 -10 26 -10 59 l0
59 71 -2 c49 -1 73 -6 80 -16z m107 8 c7 -7 12 -34 12 -61 l0 -48 -42 3 c-37
3 -44 7 -46 27 -4 26 12 41 46 41 12 0 22 5 22 10 0 17 -29 23 -44 11 -9 -8
-16 -8 -20 -2 -7 11 21 30 45 31 8 0 20 -5 27 -12z m70 -9 c13 -20 13 -20 32
3 24 31 36 17 14 -17 -16 -25 -16 -28 0 -56 19 -32 3 -42 -20 -11 -13 16 -15
16 -25 0 -5 -10 -17 -18 -25 -18 -12 0 -12 4 2 26 16 23 16 28 1 60 -19 39 -2
50 21 13z m112 -45 c0 -41 -4 -54 -15 -54 -11 0 -15 13 -15 53 0 30 3 57 6 60
15 15 24 -8 24 -59z m168 53 c18 -12 16 -107 -3 -107 -11 0 -15 12 -15 50 0
36 -4 50 -14 50 -17 0 -26 -22 -26 -66 0 -52 -18 -41 -22 14 -2 34 -7 47 -18
47 -11 0 -16 -13 -18 -47 -2 -34 -7 -48 -18 -48 -10 0 -14 13 -14 53 0 30 2
56 4 58 8 8 131 4 144 -4z m64 -34 c3 -40 6 -48 23 -48 17 0 20 8 23 48 4 67
22 58 22 -12 l0 -59 -42 2 -43 1 -3 58 c-2 33 1 57 7 57 5 0 11 -21 13 -47z
m241 38 c11 -2 9 -111 -2 -111 -6 0 -11 21 -13 48 -2 34 -7 47 -18 47 -11 0
-16 -13 -18 -47 -2 -33 -8 -48 -17 -48 -9 0 -15 15 -17 48 -2 34 -7 47 -18 47
-11 0 -16 -13 -18 -47 -4 -68 -22 -59 -22 11 l0 59 68 -3 c37 -1 70 -3 75 -4z
m167 -51 c0 -33 -4 -60 -10 -60 -6 0 -10 27 -10 60 0 33 4 60 10 60 6 0 10
-27 10 -60z m181 40 c15 -25 11 -100 -5 -100 -11 0 -16 14 -18 48 -2 34 -7 47
-18 47 -11 0 -16 -13 -18 -47 -2 -34 -7 -48 -18 -48 -10 0 -14 12 -14 43 0 24
-3 47 -7 50 -14 14 -33 -17 -33 -54 0 -22 -4 -39 -10 -39 -6 0 -10 26 -10 59
l0 59 71 -2 c49 -1 73 -6 80 -16z m57 -43 c2 -46 0 -57 -13 -57 -12 0 -15 13
-15 61 0 81 24 77 28 -4z m166 57 c9 -3 16 -12 16 -20 0 -17 -12 -18 -27 -3
-6 6 -16 8 -22 5 -19 -12 -12 -24 18 -31 33 -7 47 -31 30 -51 -16 -19 -75 -18
-83 1 -5 13 0 15 30 9 29 -5 36 -4 32 7 -3 8 -13 16 -24 18 -22 4 -44 20 -44
32 0 12 30 39 45 39 7 0 20 -3 29 -6z m1676 -14 c39 -39 16 -100 -39 -100 -35
0 -51 17 -51 54 0 58 51 85 90 46z m119 11 c8 -5 16 -32 19 -60 4 -42 2 -51
-12 -51 -12 0 -16 10 -16 44 0 25 -5 48 -10 51 -20 12 -40 -17 -40 -56 0 -22
-4 -39 -10 -39 -6 0 -10 26 -10 58 l0 59 33 1 c17 1 38 -3 46 -7z m119 -54 c2
-46 0 -57 -13 -57 -12 0 -15 13 -15 61 0 81 24 77 28 -4z m110 49 c18 -11 16
-106 -2 -106 -11 0 -16 14 -18 48 -2 34 -7 47 -18 47 -11 0 -16 -13 -18 -47
-2 -34 -7 -48 -18 -48 -11 0 -14 14 -14 59 l0 59 38 -2 c20 -1 43 -5 50 -10z
m114 2 c9 -7 19 -23 23 -35 6 -22 3 -23 -39 -23 -38 0 -44 -3 -39 -16 4 -12
14 -15 40 -11 24 4 33 2 30 -6 -5 -16 -65 -21 -83 -6 -19 16 -18 68 3 91 19
21 43 23 65 6z m193 -4 c18 -18 20 -75 3 -92 -7 -7 -25 -12 -40 -12 -21 0 -28
-5 -28 -20 0 -11 -4 -20 -10 -20 -6 0 -10 33 -10 78 l0 79 35 1 c19 1 41 -5
50 -14z m119 0 c10 -9 16 -33 16 -60 l0 -45 -47 3 c-44 3 -48 5 -48 28 0 20 7
27 33 35 17 5 32 12 32 16 0 15 -21 20 -35 9 -8 -6 -20 -8 -26 -4 -9 5 -7 11
6 21 25 17 50 17 69 -3z m64 -25 l18 -42 12 42 c12 39 21 48 34 35 3 -3 -7
-37 -22 -77 -21 -55 -32 -73 -49 -75 -25 -4 -27 6 -6 22 14 10 13 18 -5 70
-23 69 -23 66 -10 66 6 0 19 -19 28 -41z m230 28 c18 -12 16 -107 -3 -107 -11
0 -15 12 -15 50 0 36 -4 50 -14 50 -17 0 -26 -22 -26 -66 0 -52 -18 -41 -22
14 -2 34 -7 47 -18 47 -11 0 -16 -13 -18 -47 -2 -34 -7 -48 -18 -48 -10 0 -14
13 -14 53 0 30 2 56 4 58 8 8 131 4 144 -4z m124 -4 c10 -9 18 -24 18 -35 0
-14 -8 -18 -41 -18 -28 0 -39 -4 -36 -12 2 -8 19 -12 42 -11 32 2 35 1 25 -12
-16 -20 -64 -19 -84 1 -22 21 -20 60 4 84 24 24 47 25 72 3z m117 8 c8 -5 16
-32 19 -60 4 -42 2 -51 -12 -51 -12 0 -16 10 -16 44 0 25 -5 48 -10 51 -20 12
-40 -17 -40 -56 0 -22 -4 -39 -10 -39 -6 0 -10 26 -10 58 l0 59 33 1 c17 1 38
-3 46 -7z m1748 -1907 c38 -29 43 -62 13 -89 -19 -17 -22 -18 -55 -2 -32 15
-35 15 -44 -1 -7 -12 -13 -14 -20 -7 -8 8 0 28 25 68 19 31 38 57 41 57 4 0
21 -11 40 -26z m103 -104 c11 -11 20 -29 20 -40 0 -25 -34 -60 -58 -60 -25 0
-62 36 -62 60 0 26 34 60 60 60 11 0 29 -9 40 -20z m88 -56 c12 -8 22 -25 22
-36 0 -21 0 -21 -25 2 -14 13 -25 19 -25 13 0 -6 7 -16 15 -23 23 -19 15 -54
-13 -58 -25 -4 -62 23 -62 45 0 18 26 17 34 -2 3 -8 11 -15 17 -15 8 0 6 7 -4
18 -20 22 -22 43 -5 60 15 15 19 15 46 -4z m97 -44 c-3 -10 -1 -21 5 -25 15
-9 2 -25 -15 -19 -16 7 -37 -28 -29 -49 8 -22 -12 -30 -30 -11 -14 14 -14 18
1 47 9 18 16 39 15 47 -2 15 36 40 51 32 4 -2 5 -12 2 -22z m81 -75 c25 -25
28 -45 8 -52 -6 -2 -16 8 -22 22 -13 29 -24 31 -42 10 -18 -21 -5 -45 25 -45
28 0 34 -17 9 -27 -19 -7 -63 12 -70 32 -10 25 5 65 29 75 33 13 36 12 63 -15z
m87 -51 c26 -9 21 -34 -7 -34 -15 0 -32 -11 -44 -27 -14 -19 -24 -25 -31 -18
-12 13 37 98 53 90 6 -3 19 -8 29 -11z m-1432 -105 c-39 -113 -40 -117 -57
-123 -8 -3 -23 -2 -34 2 -18 7 -14 16 47 109 37 56 69 101 70 99 2 -1 -10 -40
-26 -87z m1527 42 c28 -24 28 -28 -3 -74 -23 -33 -28 -36 -48 -24 -60 33 -69
55 -41 95 19 27 60 28 92 3z m117 -24 c10 -8 15 -19 11 -26 -6 -9 -11 -9 -22
0 -16 13 -18 1 -4 -21 8 -12 13 -13 30 -2 27 17 33 15 27 -8 -3 -11 -1 -23 4
-26 15 -9 10 -27 -5 -21 -21 8 -49 -28 -41 -52 5 -15 2 -21 -10 -21 -24 0 -30
28 -12 66 16 32 16 34 -5 45 -18 10 -24 8 -39 -12 -10 -13 -19 -27 -19 -31 0
-13 -30 -9 -30 3 0 6 9 24 21 40 11 16 18 33 14 38 -3 6 7 17 22 25 35 19 35
19 58 3z m113 -123 c23 -16 30 -44 11 -44 -7 0 -18 8 -25 17 -7 10 -15 15 -18
12 -4 -3 3 -18 15 -33 20 -25 20 -29 6 -43 -20 -20 -64 -10 -72 18 -9 29 4 38
21 15 7 -11 17 -17 21 -13 3 4 -1 15 -10 25 -20 22 -21 34 -5 50 16 16 29 15
56 -4z"/>
<path d="M970 10029 l0 -40 43 3 c36 3 42 6 45 27 5 30 -20 51 -60 51 -26 0
-28 -3 -28 -41z"/>
<path d="M1192 10008 c-28 -28 -3 -88 37 -88 25 0 41 20 41 50 0 31 -17 50
-45 50 -12 0 -26 -5 -33 -12z"/>
<path d="M2064 9995 c-15 -23 -15 -27 0 -50 28 -43 86 -26 86 25 0 51 -58 68
-86 25z"/>
<path d="M17390 9960 l0 -41 38 3 c35 3 37 5 37 38 0 33 -2 35 -37 38 l-38 3
0 -41z"/>
<path d="M13690 9930 c-10 -19 -8 -20 35 -20 46 0 54 7 33 28 -19 19 -56 14
-68 -8z"/>
<path d="M13895 9880 c-21 -4 -30 -11 -30 -25 0 -25 37 -32 54 -11 21 25 10
42 -24 36z"/>
<path d="M14432 9938 c-21 -21 -13 -28 28 -28 22 0 40 4 40 8 0 14 -23 32 -40
32 -9 0 -21 -5 -28 -12z"/>
<path d="M18169 9923 c-14 -38 0 -77 29 -81 45 -7 67 41 42 89 -16 30 -58 25
-71 -8z"/>
<path d="M15552 9878 c-17 -17 -15 -83 3 -98 37 -30 88 25 69 77 -10 31 -50
43 -72 21z"/>
<path d="M16149 9859 c-10 -27 -10 -36 2 -58 29 -52 79 -34 79 28 0 42 -14 61
-46 61 -15 0 -26 -10 -35 -31z"/>
<path d="M9952 8034 c-34 -24 -52 -68 -52 -129 0 -110 64 -170 143 -134 55 25
80 140 48 217 -23 55 -93 79 -139 46z"/>
<path d="M12141 8034 c-31 -22 -51 -73 -51 -129 0 -88 42 -145 108 -145 82 0
127 132 80 235 -23 50 -93 69 -137 39z"/>
<path d="M7782 8040 c-29 -12 -62 -83 -62 -135 0 -49 31 -119 58 -134 77 -41
152 25 152 134 0 109 -64 168 -148 135z"/>
<path d="M9411 8042 c-21 -10 -40 -30 -48 -49 l-13 -33 105 0 c60 0 105 4 105
10 0 25 -26 61 -55 75 -42 19 -52 19 -94 -3z"/>
<path d="M11623 8053 c-25 -5 -73 -57 -73 -79 0 -11 20 -14 100 -14 107 0 114
4 89 52 -10 18 -68 50 -86 47 -4 -1 -18 -4 -30 -6z"/>
<path d="M7074 7139 c-77 -38 -75 -232 2 -268 79 -36 144 25 144 134 0 109
-68 171 -146 134z"/>
<path d="M11229 7135 c-34 -18 -54 -67 -54 -130 0 -64 20 -112 56 -130 80 -42
149 18 149 130 0 112 -71 174 -151 130z"/>
<path d="M6225 6968 c-27 -5 -57 -14 -66 -21 -48 -36 -21 -98 43 -100 68 -2
108 37 108 103 0 33 -2 34 -85 18z"/>
<path d="M8679 7137 c-43 -33 -64 -146 -39 -211 22 -59 87 -84 141 -56 67 36
67 233 1 269 -27 15 -83 13 -103 -2z"/>
<path d="M11804 7146 c-32 -14 -64 -51 -64 -73 0 -10 26 -13 104 -13 l105 0
-11 31 c-18 53 -81 78 -134 55z"/>
<path d="M10051 6131 c-16 -29 -13 -67 5 -86 23 -22 46 -15 63 20 12 25 12 32
0 54 -19 33 -54 39 -68 12z"/>
<path d="M5860 6134 c-29 -34 -9 -104 29 -104 27 0 41 21 41 60 0 55 -40 81
-70 44z"/>
<path d="M6380 6131 c-22 -43 -2 -101 35 -101 22 0 45 29 45 56 0 39 -18 64
-45 64 -14 0 -29 -8 -35 -19z"/>
<path d="M6672 6138 c-21 -21 -13 -28 28 -28 22 0 40 4 40 8 0 14 -23 32 -40
32 -9 0 -21 -5 -28 -12z"/>
<path d="M7125 6080 c-21 -4 -30 -11 -30 -25 0 -25 37 -32 54 -11 21 25 10 42
-24 36z"/>
<path d="M7662 6138 c-21 -21 -13 -28 28 -28 22 0 40 4 40 8 0 14 -23 32 -40
32 -9 0 -21 -5 -28 -12z"/>
<path d="M8075 6085 c-5 -2 -22 -6 -37 -9 -31 -7 -37 -30 -12 -40 25 -9 52 2
59 25 7 22 5 28 -10 24z"/>
<path d="M8613 6142 c-18 -11 -26 -58 -13 -81 21 -40 80 -21 80 27 0 49 -33
76 -67 54z"/>
<path d="M8940 6131 c-22 -43 -2 -101 35 -101 22 0 45 29 45 56 0 39 -18 64
-45 64 -14 0 -29 -8 -35 -19z"/>
<path d="M9145 6080 c-21 -4 -30 -11 -30 -25 0 -25 37 -32 54 -11 21 25 10 42
-24 36z"/>
<path d="M9738 6082 c-36 -4 -53 -25 -34 -41 20 -17 53 -5 61 20 8 25 7 25
-27 21z"/>
<path d="M10635 6085 c-5 -2 -22 -6 -37 -9 -31 -7 -37 -30 -12 -40 25 -9 52 2
59 25 7 22 5 28 -10 24z"/>
<path d="M11160 6131 c-5 -11 -10 -31 -10 -44 0 -53 66 -64 83 -14 18 54 -47
106 -73 58z"/>
<path d="M11442 6138 c-7 -7 -12 -28 -12 -48 0 -55 32 -77 64 -44 19 18 21 75
4 92 -7 7 -19 12 -28 12 -9 0 -21 -5 -28 -12z"/>
<path d="M11635 6080 c-21 -4 -30 -11 -30 -25 0 -25 37 -32 54 -11 21 25 10
42 -24 36z"/>
<path d="M12206 6134 c-23 -22 -21 -24 29 -24 43 0 45 1 35 20 -13 24 -43 26
-64 4z"/>
<path d="M6410 5740 l0 -41 38 3 c35 3 37 5 37 38 0 33 -2 35 -37 38 l-38 3 0
-41z"/>
<path d="M7481 5711 c-16 -29 -13 -67 5 -86 23 -22 46 -15 63 20 12 25 12 32
0 54 -19 33 -54 39 -68 12z"/>
<path d="M8362 5718 c-17 -17 -15 -74 4 -92 32 -33 64 -11 64 44 0 39 -14 60
-40 60 -9 0 -21 -5 -28 -12z"/>
<path d="M9251 5711 c-16 -29 -13 -67 5 -86 23 -22 46 -15 63 20 12 25 12 32
0 54 -19 33 -54 39 -68 12z"/>
<path d="M6600 5714 c-29 -34 -9 -104 29 -104 27 0 41 21 41 60 0 55 -40 81
-70 44z"/>
<path d="M7238 5662 c-36 -4 -53 -25 -34 -41 20 -17 53 -5 61 20 8 25 7 25
-27 21z"/>
<path d="M8186 5714 c-23 -22 -21 -24 29 -24 43 0 45 1 35 20 -13 24 -43 26
-64 4z"/>
<path d="M9008 5662 c-36 -4 -53 -25 -34 -41 20 -17 53 -5 61 20 8 25 7 25
-27 21z"/>
<path d="M9895 5660 c-21 -4 -30 -11 -30 -25 0 -25 37 -32 54 -11 21 25 10 42
-24 36z"/>
<path d="M10196 5714 c-23 -22 -21 -24 29 -24 43 0 45 1 35 20 -13 24 -43 26
-64 4z"/>
<path d="M10614 5704 c-13 -19 -15 -32 -8 -51 22 -62 77 -54 82 11 6 65 -42
90 -74 40z"/>
<path d="M11412 5718 c-21 -21 -13 -28 28 -28 22 0 40 4 40 8 0 14 -23 32 -40
32 -9 0 -21 -5 -28 -12z"/>
<path d="M12161 5711 c-16 -29 -13 -67 5 -86 22 -22 45 -15 64 18 13 24 13 30
0 55 -19 34 -55 41 -69 13z"/>
<path d="M12412 5718 c-21 -21 -13 -28 28 -28 22 0 40 4 40 8 0 14 -23 32 -40
32 -9 0 -21 -5 -28 -12z"/>
<path d="M10514 4214 c-109 -53 -67 -224 56 -224 124 0 165 172 54 225 -40 19
-71 19 -110 -1z m102 -133 c-28 -29 -59 -34 -36 -6 9 11 3 14 -31 17 -64 5
-63 28 2 28 50 0 51 1 36 18 -29 32 -4 34 27 3 l30 -31 -28 -29z"/>
<path d="M8411 4143 c-1 -6 -4 -18 -7 -27 -4 -11 -1 -16 10 -16 18 0 19 6 6
35 -5 11 -9 15 -9 8z"/>
<path d="M8556 4112 c-9 -27 3 -54 23 -50 22 5 22 62 -1 66 -9 2 -19 -5 -22
-16z"/>
<path d="M8706 4112 c-9 -27 3 -54 23 -50 22 5 22 62 -1 66 -9 2 -19 -5 -22
-16z"/>
<path d="M9200 4095 c0 -28 4 -35 19 -35 10 0 21 8 23 18 7 29 -3 52 -23 52
-15 0 -19 -7 -19 -35z"/>
<path d="M9680 4120 c0 -5 9 -10 20 -10 11 0 20 5 20 10 0 6 -9 10 -20 10 -11
0 -20 -4 -20 -10z"/>
<path d="M9820 4120 c0 -5 9 -10 20 -10 11 0 20 5 20 10 0 6 -9 10 -20 10 -11
0 -20 -4 -20 -10z"/>
<path d="M5862 2874 c-39 -27 -23 -104 23 -104 46 0 61 79 20 106 -18 12 -24
11 -43 -2z"/>
<path d="M6660 2871 c-21 -40 -9 -101 20 -101 21 0 30 19 30 64 0 50 -30 73
-50 37z"/>
<path d="M6802 2881 c-20 -12 -26 -73 -9 -95 24 -32 47 -14 47 37 0 46 -17 71
-38 58z"/>
<path d="M6932 2881 c-20 -12 -26 -73 -9 -95 24 -32 47 -14 47 37 0 46 -17 71
-38 58z"/>
<path d="M12814 2876 c-8 -22 3 -33 18 -18 9 9 9 15 0 24 -9 9 -13 7 -18 -6z"/>
<path d="M12800 2790 c0 -13 7 -20 20 -20 23 0 26 10 8 28 -18 18 -28 15 -28
-8z"/>
<path d="M12614 2836 c-11 -28 0 -61 21 -61 16 0 20 7 20 35 0 25 -5 36 -18
38 -9 2 -20 -3 -23 -12z"/>
<path d="M6120 2835 c-11 -13 -8 -15 20 -15 28 0 31 2 20 15 -7 8 -16 15 -20
15 -4 0 -13 -7 -20 -15z"/>
<path d="M9004 2836 c-3 -8 -4 -25 -2 -38 4 -31 44 -37 53 -9 12 40 -36 85
-51 47z"/>
<path d="M9300 2835 c-11 -13 -8 -15 20 -15 28 0 31 2 20 15 -7 8 -16 15 -20
15 -4 0 -13 -7 -20 -15z"/>
<path d="M9420 2785 c0 -8 9 -15 20 -15 11 0 20 7 20 15 0 8 -9 15 -20 15 -11
0 -20 -7 -20 -15z"/>
<path d="M10087 2793 c-13 -12 -7 -23 12 -23 10 0 21 7 25 15 5 15 -24 22 -37
8z"/>
<path d="M10282 2838 c-26 -26 0 -77 33 -64 26 10 13 76 -15 76 -3 0 -11 -5
-18 -12z"/>
<path d="M10410 2835 c-11 -13 -8 -15 20 -15 28 0 31 2 20 15 -7 8 -16 15 -20
15 -4 0 -13 -7 -20 -15z"/>
<path d="M12063 2843 c-22 -8 -14 -23 13 -23 15 0 24 5 22 12 -5 14 -18 18
-35 11z"/>
<path d="M12490 2835 c-11 -13 -8 -15 20 -15 28 0 31 2 20 15 -7 8 -16 15 -20
15 -4 0 -13 -7 -20 -15z"/>
<path d="M13107 2793 c-13 -12 -7 -23 12 -23 10 0 21 7 25 15 5 15 -24 22 -37
8z"/>
<path d="M13303 2843 c-22 -8 -14 -23 13 -23 15 0 24 5 22 12 -5 14 -18 18
-35 11z"/>
<path d="M5267 2802 c-24 -26 -21 -66 6 -98 32 -37 72 -28 93 21 18 44 18 47
-6 73 -25 27 -71 29 -93 4z"/>
<path d="M8312 2668 l3 -143 140 0 140 0 0 140 0 140 -143 3 -143 3 3 -143z
m218 54 c0 -4 -25 -32 -55 -62 -53 -53 -55 -53 -75 -35 -11 10 -20 23 -20 28
0 6 9 2 19 -7 18 -17 21 -15 66 33 45 48 65 61 65 43z"/>
<path d="M5467 2792 c-24 -26 -21 -55 6 -81 26 -24 51 -20 67 10 15 27 12 54
-8 72 -24 22 -45 21 -65 -1z"/>
<path d="M11430 2595 l0 -75 120 0 120 0 0 75 0 75 -120 0 -120 0 0 -75z m155
16 c9 -30 -5 -51 -35 -51 -30 0 -44 21 -35 51 4 13 16 19 35 19 19 0 31 -6 35
-19z"/>
<path d="M11533 2604 c-8 -21 13 -42 28 -27 13 13 5 43 -11 43 -6 0 -13 -7
-17 -16z"/>
<path d="M5437 2629 c-16 -10 -16 -12 3 -40 19 -26 27 -29 75 -29 89 0 109 20
59 59 -29 23 -105 28 -137 10z"/>
<path d="M5216 2589 c-15 -12 -26 -30 -26 -44 0 -21 6 -24 56 -31 53 -6 182 0
191 10 9 8 -9 47 -30 66 -31 29 -153 29 -191 -1z"/>
<path d="M6154 2536 c-11 -28 0 -61 21 -61 16 0 20 7 20 35 0 25 -5 36 -18 38
-9 2 -20 -3 -23 -12z"/>
<path d="M7244 2536 c-11 -28 0 -61 21 -61 16 0 20 7 20 35 0 25 -5 36 -18 38
-9 2 -20 -3 -23 -12z"/>
<path d="M6287 2544 c-14 -14 -6 -24 19 -24 16 0 24 5 22 13 -5 14 -31 21 -41
11z"/>
<path d="M6824 2536 c-3 -8 -4 -25 -2 -38 4 -31 44 -37 53 -9 12 40 -36 85
-51 47z"/>
<path d="M7120 2535 c-11 -13 -8 -15 20 -15 28 0 31 2 20 15 -7 8 -16 15 -20
15 -4 0 -13 -7 -20 -15z"/>
<path d="M9027 2493 c-14 -13 -6 -24 15 -21 27 4 36 28 11 28 -11 0 -23 -3
-26 -7z"/>
<path d="M11920 2530 c-16 -30 -3 -62 23 -58 38 5 33 77 -5 78 -4 0 -12 -9
-18 -20z"/>
<path d="M12390 2535 c-11 -13 -8 -15 20 -15 28 0 31 2 20 15 -7 8 -16 15 -20
15 -4 0 -13 -7 -20 -15z"/>
<path d="M12580 2536 c-18 -23 -8 -61 17 -64 17 -3 24 3 29 22 4 16 1 32 -6
41 -16 19 -24 19 -40 1z"/>
<path d="M12697 2493 c-14 -13 -6 -24 15 -21 27 4 36 28 11 28 -11 0 -23 -3
-26 -7z"/>
<path d="M13123 2543 c-22 -8 -14 -23 13 -23 15 0 24 5 22 12 -5 14 -18 18
-35 11z"/>
<path d="M14990 621 c-8 -16 -7 -22 7 -29 10 -5 24 -7 31 -5 18 7 14 31 -8 43
-15 8 -21 6 -30 -9z"/>
<path d="M15080 524 c-11 -12 -10 -18 3 -32 15 -15 19 -15 32 -1 17 17 11 49
-10 49 -7 0 -18 -7 -25 -16z"/>
<path d="M15517 237 c-8 -21 8 -39 29 -35 27 5 25 42 -2 46 -12 2 -24 -3 -27
-11z"/>
<path d="M18861 3276 c-8 -9 -11 -50 -9 -117 3 -93 5 -104 22 -107 13 -3 17 0
14 9 -21 57 -21 57 22 56 35 -1 44 3 58 25 9 15 14 30 11 33 -10 9 -39 -6 -39
-21 0 -8 -4 -14 -10 -14 -5 0 -10 7 -10 15 0 8 -7 15 -15 15 -8 0 -15 7 -15
16 0 8 5 12 11 9 17 -11 59 4 59 21 0 8 -10 28 -22 44 -23 32 -58 39 -77 16z
m49 -36 c27 -27 25 -30 -11 -30 -24 0 -30 3 -25 16 3 9 6 20 6 25 0 14 8 11
30 -11z"/>
<path d="M18795 3270 c3 -5 10 -10 16 -10 5 0 9 5 9 10 0 6 -7 10 -16 10 -8 0
-12 -4 -9 -10z"/>
<path d="M18781 3226 c-7 -8 -20 -12 -29 -9 -11 2 -26 -7 -40 -26 -22 -30 -22
-31 -4 -63 40 -74 54 -89 80 -86 30 4 43 28 15 28 -29 0 -60 26 -47 40 8 8 14
7 24 -5 7 -8 21 -15 31 -15 14 0 19 7 19 29 0 29 -2 30 -50 33 -67 4 -69 22
-2 26 50 3 52 4 52 33 0 22 -5 29 -19 29 -10 0 -24 -6 -30 -14z"/>
<path d="M14553 835 c-12 -44 -26 -114 -32 -155 -15 -108 -117 -520 -150 -607
l-29 -73 154 0 154 0 -5 23 c-21 87 -27 157 -35 427 -6 168 -16 341 -23 385
l-13 80 -21 -80z"/>
<path d="M1032 58 c2 -13 11 -24 21 -26 22 -4 35 27 16 39 -25 16 -41 10 -37
-13z"/>
<path d="M1150 10 c0 -5 12 -10 26 -10 14 0 23 4 19 10 -3 6 -15 10 -26 10
-10 0 -19 -4 -19 -10z"/>
</g>
</svg>
