<?xml version="1.0" standalone="no"?>
<!DOCTYPE svg PUBLIC "-//W3C//DTD SVG 20010904//EN"
 "http://www.w3.org/TR/2001/REC-SVG-20010904/DTD/svg10.dtd">
<svg version="1.0" xmlns="http://www.w3.org/2000/svg"
 width="1920.000000pt" height="839.000000pt" viewBox="0 0 1920.000000 839.000000"
 preserveAspectRatio="xMidYMid meet">

<g transform="translate(0.000000,839.000000) scale(0.100000,-0.100000)"
fill="#000000" stroke="none">
<path d="M15660 8380 c36 -4 54 -8 40 -10 -18 -2 -12 -5 20 -10 45 -7 45 -7
-20 -10 -65 -3 -65 -3 -20 -10 31 -5 37 -8 20 -10 -17 -2 -11 -5 20 -10 40 -6
35 -7 -40 -10 l-85 -3 65 -7 c36 -4 54 -8 40 -10 -18 -2 -12 -5 20 -10 45 -7
45 -7 -20 -10 -65 -3 -65 -3 -20 -10 31 -5 37 -8 20 -10 -17 -2 -11 -5 20 -10
40 -6 35 -7 -40 -10 l-85 -3 65 -7 c36 -4 54 -8 40 -10 -18 -2 -12 -5 20 -10
45 -7 45 -7 -20 -10 -65 -3 -65 -3 -20 -10 31 -5 37 -8 20 -10 -17 -2 -11 -5
20 -10 40 -6 35 -7 -40 -10 l-85 -3 65 -7 c36 -4 54 -8 40 -10 -18 -2 -12 -5
20 -10 45 -7 45 -7 -20 -10 -65 -3 -65 -3 -20 -10 31 -5 37 -8 20 -10 -17 -2
-11 -5 20 -10 40 -6 35 -7 -40 -10 l-85 -3 65 -7 c36 -4 54 -8 40 -10 -18 -2
-12 -5 20 -10 45 -7 45 -7 -20 -10 -65 -3 -65 -3 -20 -10 31 -5 37 -8 20 -10
-17 -2 -11 -5 20 -10 40 -6 35 -7 -40 -10 l-85 -3 65 -7 c36 -4 54 -8 40 -10
-18 -2 -12 -5 20 -10 45 -7 45 -7 -20 -10 -65 -3 -65 -3 -20 -10 31 -5 37 -8
20 -10 -17 -2 -11 -5 20 -10 40 -6 35 -7 -40 -10 l-85 -3 65 -7 c36 -4 54 -8
40 -10 -18 -2 -12 -5 20 -10 45 -7 45 -7 -20 -10 -65 -3 -65 -3 -20 -10 31 -5
37 -8 20 -10 -17 -2 -11 -5 20 -10 40 -6 35 -7 -40 -10 l-85 -3 65 -7 c36 -4
54 -8 40 -10 -18 -2 -12 -5 20 -10 45 -7 45 -7 -20 -10 -65 -3 -65 -3 -20 -10
31 -5 37 -8 20 -10 -17 -2 -11 -5 20 -10 40 -6 35 -7 -40 -10 l-85 -3 65 -7
c36 -4 54 -8 40 -10 -18 -2 -12 -5 20 -10 45 -7 45 -7 -20 -10 -65 -3 -65 -3
-20 -10 31 -5 37 -8 20 -10 -17 -2 -11 -5 20 -10 40 -6 35 -7 -40 -10 l-85 -3
65 -7 c36 -4 54 -8 40 -10 -18 -2 -12 -5 20 -10 45 -7 45 -7 -20 -10 -65 -3
-65 -3 -20 -10 31 -5 37 -8 20 -10 -17 -2 -11 -5 20 -10 40 -6 35 -7 -40 -10
l-85 -3 65 -7 c36 -4 54 -8 40 -10 -18 -2 -12 -5 20 -10 45 -7 45 -7 -20 -10
-65 -3 -65 -3 -20 -10 31 -5 37 -8 20 -10 -17 -2 -11 -5 20 -10 40 -6 35 -7
-40 -10 l-85 -3 65 -7 c36 -4 54 -8 40 -10 -18 -2 -12 -5 20 -10 45 -7 45 -7
-20 -10 -65 -3 -65 -3 -20 -10 31 -5 37 -8 20 -10 -17 -2 -11 -5 20 -10 40 -6
35 -7 -40 -10 l-85 -3 65 -7 c36 -4 54 -8 40 -10 -18 -2 -12 -5 20 -10 45 -7
45 -7 -20 -10 -65 -3 -65 -3 -20 -10 31 -5 37 -8 20 -10 -17 -2 -11 -5 20 -10
40 -6 35 -7 -40 -10 l-85 -3 65 -7 c36 -4 54 -8 40 -10 -18 -2 -12 -5 20 -10
45 -7 45 -7 -20 -10 -65 -3 -65 -3 -20 -10 31 -5 37 -8 20 -10 -17 -2 -11 -5
20 -10 40 -6 35 -7 -40 -10 l-85 -3 65 -7 c36 -4 54 -8 40 -10 -18 -2 -12 -5
20 -10 45 -7 45 -7 -20 -10 -65 -3 -65 -3 -20 -10 31 -5 37 -8 20 -10 -17 -2
-11 -5 20 -10 40 -6 35 -7 -40 -10 l-85 -3 65 -7 c36 -4 54 -8 40 -10 -18 -2
-12 -5 20 -10 45 -7 45 -7 -20 -10 -65 -3 -65 -3 -20 -10 31 -5 37 -8 20 -10
-17 -2 -11 -5 20 -10 40 -6 35 -7 -40 -10 l-85 -3 65 -7 c36 -4 54 -8 40 -10
-18 -2 -12 -5 20 -10 45 -7 45 -7 -20 -10 -65 -3 -65 -3 -20 -10 31 -5 37 -8
20 -10 -17 -2 -11 -5 20 -10 40 -6 35 -7 -40 -10 l-85 -3 65 -7 c36 -4 54 -8
40 -10 -18 -2 -12 -5 20 -10 45 -7 45 -7 -20 -10 -65 -3 -65 -3 -20 -10 31 -5
37 -8 20 -10 -17 -2 -11 -5 20 -10 40 -6 35 -7 -40 -10 l-85 -3 65 -7 c36 -4
54 -8 40 -10 -18 -2 -12 -5 20 -10 45 -7 45 -7 -20 -10 -65 -3 -65 -3 -20 -10
31 -5 37 -8 20 -10 -17 -2 -11 -5 20 -10 40 -6 35 -7 -40 -10 l-85 -3 65 -7
c36 -4 54 -8 40 -10 -18 -2 -12 -5 20 -10 45 -7 45 -7 -20 -10 -65 -3 -65 -3
-20 -10 31 -5 37 -8 20 -10 -17 -2 -11 -5 20 -10 40 -6 35 -7 -40 -10 l-85 -3
65 -7 c36 -4 54 -8 40 -10 -18 -2 -12 -5 20 -10 45 -7 45 -7 -20 -10 -65 -3
-65 -3 -20 -10 31 -5 37 -8 20 -10 -17 -2 -11 -5 20 -10 40 -6 35 -7 -40 -10
l-85 -3 65 -7 c36 -4 54 -8 40 -10 -18 -2 -12 -5 20 -10 45 -7 45 -7 -20 -10
-65 -3 -65 -3 -20 -10 31 -5 37 -8 20 -10 -17 -2 -11 -5 20 -10 40 -6 35 -7
-40 -10 l-85 -3 65 -7 c36 -4 54 -8 40 -10 -18 -2 -12 -5 20 -10 45 -7 45 -7
-20 -10 -65 -3 -65 -3 -20 -10 31 -5 37 -8 20 -10 -17 -2 -11 -5 20 -10 40 -6
35 -7 -40 -10 l-85 -3 65 -7 c36 -4 54 -8 40 -10 -18 -2 -12 -5 20 -10 45 -7
45 -7 -20 -10 -65 -3 -65 -3 -20 -10 31 -5 37 -8 20 -10 -17 -2 -11 -5 20 -10
40 -6 35 -7 -40 -10 l-85 -3 65 -7 c36 -4 54 -8 40 -10 -18 -2 -12 -5 20 -10
45 -7 45 -7 -20 -10 -65 -3 -65 -3 -20 -10 31 -5 37 -8 20 -10 -17 -2 -11 -5
20 -10 40 -6 35 -7 -40 -10 l-85 -3 65 -7 c36 -4 54 -8 40 -10 -18 -2 -12 -5
20 -10 45 -7 45 -7 -20 -10 -65 -3 -65 -3 -20 -10 31 -5 37 -8 20 -10 -17 -2
-11 -5 20 -10 40 -6 35 -7 -40 -10 l-85 -3 65 -7 c36 -4 54 -8 40 -10 -18 -2
-12 -5 20 -10 45 -7 45 -7 -20 -10 -65 -3 -65 -3 -20 -10 31 -5 37 -8 20 -10
-17 -2 -11 -5 20 -10 40 -6 35 -7 -40 -10 l-85 -3 65 -7 c36 -4 54 -8 40 -10
-18 -2 -12 -5 20 -10 45 -7 45 -7 -20 -10 -65 -3 -65 -3 -20 -10 31 -5 37 -8
20 -10 -17 -2 -11 -5 20 -10 40 -6 35 -7 -40 -10 l-85 -3 65 -7 c36 -4 54 -8
40 -10 -18 -2 -12 -5 20 -10 45 -7 45 -7 -20 -10 -65 -3 -65 -3 -20 -10 31 -5
37 -8 20 -10 -17 -2 -11 -5 20 -10 40 -6 35 -7 -40 -10 l-85 -3 65 -7 c36 -4
54 -8 40 -10 -18 -2 -12 -5 20 -10 45 -7 45 -7 -20 -10 -65 -3 -65 -3 -20 -10
31 -5 37 -8 20 -10 -17 -2 -11 -5 20 -10 40 -6 35 -7 -40 -10 l-85 -3 65 -7
c36 -4 54 -8 40 -10 -18 -2 -12 -5 20 -10 45 -7 45 -7 -20 -10 -65 -3 -65 -3
-20 -10 31 -5 37 -8 20 -10 -17 -2 -11 -5 20 -10 40 -6 35 -7 -40 -10 l-85 -3
65 -7 c36 -4 54 -8 40 -10 -18 -2 -12 -5 20 -10 45 -7 45 -7 -20 -10 -65 -3
-65 -3 -20 -10 29 -5 36 -8 20 -9 l-25 -3 25 -8 25 -8 -25 -3 c-16 -1 -9 -4
20 -9 45 -7 45 -7 -20 -10 -65 -3 -65 -3 -20 -10 31 -5 37 -8 20 -10 -17 -2
-11 -5 20 -10 40 -6 35 -7 -40 -10 l-85 -3 65 -7 c36 -4 54 -8 40 -10 -18 -2
-12 -5 20 -10 45 -7 45 -7 -20 -10 -65 -3 -65 -3 -20 -10 31 -5 37 -8 20 -10
-17 -2 -11 -5 20 -10 40 -6 35 -7 -40 -10 l-85 -3 65 -7 c36 -4 54 -8 40 -10
-18 -2 -12 -5 20 -10 45 -7 45 -7 -20 -10 -65 -3 -65 -3 -20 -10 31 -5 37 -8
20 -10 -17 -2 -11 -5 20 -10 40 -6 35 -7 -40 -10 l-85 -3 65 -7 c36 -4 54 -8
40 -10 -18 -2 -12 -5 20 -10 45 -7 45 -7 -20 -10 -65 -3 -65 -3 -20 -10 31 -5
37 -8 20 -10 -17 -2 -11 -5 20 -10 40 -6 35 -7 -40 -10 l-85 -3 65 -7 c36 -4
54 -8 40 -10 -18 -2 -12 -5 20 -10 45 -7 45 -7 -20 -10 -65 -3 -65 -3 -20 -10
31 -5 37 -8 20 -10 -17 -2 -11 -5 20 -10 40 -6 35 -7 -40 -10 l-85 -3 65 -7
c36 -4 54 -8 40 -10 -18 -2 -12 -5 20 -10 45 -7 45 -7 -20 -10 -65 -3 -65 -3
-20 -10 31 -5 37 -8 20 -10 -17 -2 -11 -5 20 -10 40 -6 35 -7 -40 -10 l-85 -3
65 -7 c36 -4 54 -8 40 -10 -18 -2 -12 -5 20 -10 45 -7 45 -7 -20 -10 -65 -3
-65 -3 -20 -10 31 -5 37 -8 20 -10 -17 -2 -11 -5 20 -10 40 -6 35 -7 -40 -10
l-85 -3 65 -7 c36 -4 54 -8 40 -10 -18 -2 -12 -5 20 -10 45 -7 45 -7 -20 -10
-65 -3 -65 -3 -20 -10 31 -5 37 -8 20 -10 -17 -2 -11 -5 20 -10 40 -6 35 -7
-40 -10 l-85 -3 65 -7 c36 -4 54 -8 40 -10 -18 -2 -12 -5 20 -10 45 -7 45 -7
-20 -10 -65 -3 -65 -3 -20 -10 31 -5 37 -8 20 -10 -17 -2 -11 -5 20 -10 40 -6
35 -7 -40 -10 l-85 -3 65 -7 c36 -4 54 -8 40 -10 -18 -2 -12 -5 20 -10 45 -7
45 -7 -20 -10 -65 -3 -65 -3 -20 -10 31 -5 37 -8 20 -10 -17 -2 -11 -5 20 -10
40 -6 35 -7 -40 -10 l-85 -3 65 -7 c36 -4 54 -8 40 -10 -18 -2 -12 -5 20 -10
45 -7 45 -7 -20 -10 -65 -3 -65 -3 -20 -10 31 -5 37 -8 20 -10 -17 -2 -11 -5
20 -10 40 -6 35 -7 -40 -10 l-85 -3 65 -7 c36 -4 54 -8 40 -10 -18 -2 -12 -5
20 -10 45 -7 45 -7 -20 -10 -65 -3 -65 -3 -20 -10 31 -5 37 -8 20 -10 -17 -2
-11 -5 20 -10 40 -6 35 -7 -40 -10 l-85 -3 65 -7 c36 -4 54 -8 40 -10 -18 -2
-12 -5 20 -10 45 -7 45 -7 -20 -10 -65 -3 -65 -3 -20 -10 31 -5 37 -8 20 -10
-17 -2 -11 -5 20 -10 40 -6 35 -7 -40 -10 l-85 -3 65 -7 c36 -4 54 -8 40 -10
-18 -2 -12 -5 20 -10 45 -7 45 -7 -20 -10 -65 -3 -65 -3 -20 -10 31 -5 37 -8
20 -10 -17 -2 -11 -5 20 -10 40 -6 35 -7 -40 -10 l-85 -3 65 -7 c36 -4 54 -8
40 -10 -18 -2 -12 -5 20 -10 45 -7 45 -7 -20 -10 -65 -3 -65 -3 -20 -10 31 -5
37 -8 20 -10 -17 -2 -11 -5 20 -10 40 -6 35 -7 -40 -10 l-85 -3 65 -7 c36 -4
54 -8 40 -10 -18 -2 -12 -5 20 -10 45 -7 45 -7 -20 -10 -65 -3 -65 -3 -20 -10
31 -5 37 -8 20 -10 -17 -2 -11 -5 20 -10 40 -6 35 -7 -40 -10 l-85 -3 65 -7
c36 -4 54 -8 40 -10 -18 -2 -12 -5 20 -10 45 -7 45 -7 -20 -10 -65 -3 -65 -3
-20 -10 31 -5 37 -8 20 -10 -17 -2 -11 -5 20 -10 40 -6 35 -7 -40 -10 l-85 -3
65 -7 c36 -4 54 -8 40 -10 -18 -2 -12 -5 20 -10 45 -7 45 -7 -20 -10 -65 -3
-65 -3 -20 -10 31 -5 37 -8 20 -10 -17 -2 -11 -5 20 -10 40 -6 35 -7 -40 -10
l-85 -3 65 -7 c36 -4 54 -8 40 -10 -18 -2 -12 -5 20 -10 45 -7 45 -7 -20 -10
-65 -3 -65 -3 -20 -10 31 -5 37 -8 20 -10 -17 -2 -11 -5 20 -10 40 -6 35 -7
-40 -10 l-85 -3 65 -7 c36 -4 54 -8 40 -10 -18 -2 -12 -5 20 -10 45 -7 45 -7
-20 -10 -65 -3 -65 -3 -20 -10 31 -5 37 -8 20 -10 -17 -2 -11 -5 20 -10 40 -6
35 -7 -40 -10 l-85 -3 65 -7 c36 -4 54 -8 40 -10 -18 -2 -12 -5 20 -10 45 -7
45 -7 -20 -10 -65 -3 -65 -3 -20 -10 31 -5 37 -8 20 -10 -17 -2 -11 -5 20 -10
40 -6 35 -7 -40 -10 l-85 -3 65 -7 c36 -4 54 -8 40 -10 -18 -2 -12 -5 20 -10
45 -7 45 -7 -20 -10 -65 -3 -65 -3 -20 -10 31 -5 37 -8 20 -10 -17 -2 -11 -5
20 -10 40 -6 35 -7 -40 -10 l-85 -3 65 -7 c36 -4 54 -8 40 -10 -18 -2 -12 -5
20 -10 45 -7 45 -7 -20 -10 -65 -3 -65 -3 -20 -10 31 -5 37 -8 20 -10 -17 -2
-11 -5 20 -10 40 -6 35 -7 -40 -10 l-85 -3 65 -7 c36 -4 54 -8 40 -10 -18 -2
-12 -5 20 -10 45 -7 45 -7 -20 -10 -65 -3 -65 -3 -20 -10 31 -5 37 -8 20 -10
-17 -2 -11 -5 20 -10 40 -6 35 -7 -40 -10 l-85 -3 65 -7 c36 -4 54 -8 40 -10
-18 -2 -12 -5 20 -10 45 -7 45 -7 -20 -10 -65 -3 -65 -3 -20 -10 31 -5 37 -8
20 -10 -17 -2 -11 -5 20 -10 40 -6 35 -7 -40 -10 l-85 -3 65 -7 c36 -4 54 -8
40 -10 -18 -2 -12 -5 20 -10 45 -7 45 -7 -20 -10 -65 -3 -65 -3 -20 -10 31 -5
37 -8 20 -10 -17 -2 -11 -5 20 -10 40 -6 35 -7 -40 -10 l-85 -3 65 -7 c36 -4
54 -8 40 -10 -18 -2 -12 -5 20 -10 45 -7 45 -7 -20 -10 -65 -3 -65 -3 -20 -10
31 -5 37 -8 20 -10 -17 -2 -11 -5 20 -10 40 -6 35 -7 -40 -10 l-85 -3 65 -7
c36 -4 54 -8 40 -10 -18 -2 -12 -5 20 -10 45 -7 45 -7 -20 -10 -65 -3 -65 -3
-20 -10 31 -5 37 -8 20 -10 -17 -2 -11 -5 20 -10 40 -6 35 -7 -40 -10 l-85 -3
65 -7 c36 -4 54 -8 40 -10 -18 -2 -12 -5 20 -10 45 -7 45 -7 -20 -10 -65 -3
-65 -3 -20 -10 31 -5 37 -8 20 -10 -17 -2 -11 -5 20 -10 40 -6 35 -7 -40 -10
l-85 -3 65 -7 c36 -4 54 -8 40 -10 -18 -2 -12 -5 20 -10 45 -7 45 -7 -20 -10
-65 -3 -65 -3 -20 -10 31 -5 37 -8 20 -10 -17 -2 -11 -5 20 -10 40 -6 35 -7
-40 -10 l-85 -3 65 -7 c36 -4 54 -8 40 -10 -18 -2 -12 -5 20 -10 45 -7 45 -7
-20 -10 -65 -3 -65 -3 -20 -10 31 -5 37 -8 20 -10 -17 -2 -11 -5 20 -10 40 -6
35 -7 -40 -10 l-85 -3 65 -7 c36 -4 54 -8 40 -10 -18 -2 -12 -5 20 -10 45 -7
45 -7 -20 -10 -65 -3 -65 -3 -20 -10 29 -5 36 -8 20 -9 l-25 -3 25 -8 25 -8
-25 -3 c-16 -1 -9 -4 20 -9 45 -7 45 -7 -20 -10 -65 -3 -65 -3 -20 -10 31 -5
37 -8 20 -10 -17 -2 -11 -5 20 -10 40 -6 35 -7 -40 -10 l-85 -3 65 -7 c36 -4
54 -8 40 -10 -18 -2 -12 -5 20 -10 45 -7 45 -7 -20 -10 -65 -3 -65 -3 -20 -10
31 -5 37 -8 20 -10 -17 -2 -11 -5 20 -10 40 -6 35 -7 -40 -10 l-85 -3 65 -7
c36 -4 54 -8 40 -10 -18 -2 -12 -5 20 -10 45 -7 45 -7 -20 -10 -65 -3 -65 -3
-20 -10 31 -5 37 -8 20 -10 -17 -2 -11 -5 20 -10 40 -6 35 -7 -40 -10 l-85 -3
65 -7 c36 -4 54 -8 40 -10 -18 -2 -12 -5 20 -10 45 -7 45 -7 -20 -10 -65 -3
-65 -3 -20 -10 31 -5 37 -8 20 -10 -17 -2 -11 -5 20 -10 40 -6 35 -7 -40 -10
l-85 -3 65 -7 c36 -4 54 -8 40 -10 -18 -2 -12 -5 20 -10 45 -7 45 -7 -20 -10
-65 -3 -65 -3 -20 -10 31 -5 37 -8 20 -10 -17 -2 -11 -5 20 -10 40 -6 35 -7
-40 -10 l-85 -3 65 -7 c36 -4 54 -8 40 -10 -18 -2 -12 -5 20 -10 45 -7 45 -7
-20 -10 -65 -3 -65 -3 -20 -10 31 -5 37 -8 20 -10 -17 -2 -11 -5 20 -10 40 -6
35 -7 -40 -10 l-85 -3 65 -7 c36 -4 54 -8 40 -10 -18 -2 -12 -5 20 -10 45 -7
45 -7 -20 -10 -65 -3 -65 -3 -20 -10 31 -5 37 -8 20 -10 -17 -2 -11 -5 20 -10
40 -6 35 -7 -40 -10 l-85 -3 65 -7 c36 -4 54 -8 40 -10 -18 -2 -12 -5 20 -10
45 -7 45 -7 -20 -10 -65 -3 -65 -3 -20 -10 31 -5 37 -8 20 -10 -17 -2 -11 -5
20 -10 40 -6 35 -7 -40 -10 l-85 -3 65 -7 c36 -4 54 -8 40 -10 -18 -2 -12 -5
20 -10 45 -7 45 -7 -20 -10 -65 -3 -65 -3 -20 -10 31 -5 37 -8 20 -10 -17 -2
-11 -5 20 -10 40 -6 35 -7 -40 -10 l-85 -3 65 -7 c36 -4 54 -8 40 -10 -18 -2
-12 -5 20 -10 45 -7 45 -7 -20 -10 -65 -3 -65 -3 -20 -10 31 -5 37 -8 20 -10
-17 -2 -11 -5 20 -10 40 -6 35 -7 -40 -10 l-85 -3 65 -7 c36 -4 54 -8 40 -10
-18 -2 -12 -5 20 -10 45 -7 45 -7 -20 -10 -65 -3 -65 -3 -20 -10 31 -5 37 -8
20 -10 -17 -2 -11 -5 20 -10 40 -6 35 -7 -40 -10 l-85 -3 65 -7 c36 -4 54 -8
40 -10 -18 -2 -12 -5 20 -10 45 -7 45 -7 -20 -10 -65 -3 -65 -3 -20 -10 31 -5
37 -8 20 -10 -17 -2 -11 -5 20 -10 40 -6 35 -7 -40 -10 l-85 -3 65 -7 c36 -4
54 -8 40 -10 -18 -2 -12 -5 20 -10 45 -7 45 -7 -20 -10 -65 -3 -65 -3 -20 -10
31 -5 37 -8 20 -10 -17 -2 -11 -5 20 -10 40 -6 35 -7 -40 -10 l-85 -3 65 -7
c36 -4 54 -8 40 -10 -18 -2 -12 -5 20 -10 45 -7 45 -7 -20 -10 -65 -3 -65 -3
-20 -10 31 -5 37 -8 20 -10 -17 -2 -11 -5 20 -10 40 -6 35 -7 -40 -10 l-85 -3
65 -7 c36 -4 54 -8 40 -10 -18 -2 -12 -5 20 -10 45 -7 45 -7 -20 -10 -65 -3
-65 -3 -20 -10 31 -5 37 -8 20 -10 -17 -2 -11 -5 20 -10 40 -6 35 -7 -40 -10
l-85 -3 65 -7 c36 -4 54 -8 40 -10 -18 -2 -12 -5 20 -10 45 -7 45 -7 -20 -10
-65 -3 -65 -3 -20 -10 31 -5 37 -8 20 -10 -17 -2 -11 -5 20 -10 40 -6 35 -7
-40 -10 l-85 -3 65 -7 c36 -4 54 -8 40 -10 -18 -2 -12 -5 20 -10 45 -7 45 -7
-20 -10 -65 -3 -65 -3 -20 -10 31 -5 37 -8 20 -10 -17 -2 -11 -5 20 -10 40 -6
35 -7 -40 -10 l-85 -3 65 -7 c36 -4 54 -8 40 -10 -18 -2 -12 -5 20 -10 45 -7
45 -7 -20 -10 -65 -3 -65 -3 -20 -10 31 -5 37 -8 20 -10 -17 -2 -11 -5 20 -10
40 -6 35 -7 -40 -10 l-85 -3 65 -7 c36 -4 54 -8 40 -10 -18 -2 -12 -5 20 -10
45 -7 45 -7 -20 -10 -65 -3 -65 -3 -20 -10 31 -5 37 -8 20 -10 -17 -2 -11 -5
20 -10 40 -6 35 -7 -40 -10 l-85 -3 65 -7 c36 -4 54 -8 40 -10 -18 -2 -12 -5
20 -10 45 -7 45 -7 -20 -10 -65 -3 -65 -3 -20 -10 31 -5 37 -8 20 -10 -17 -2
-11 -5 20 -10 40 -6 35 -7 -40 -10 l-85 -3 65 -7 c36 -4 54 -8 40 -10 -18 -2
-12 -5 20 -10 45 -7 45 -7 -20 -10 -65 -3 -65 -3 -20 -10 31 -5 37 -8 20 -10
-17 -2 -11 -5 20 -10 40 -6 35 -7 -40 -10 l-85 -3 65 -7 c36 -4 54 -8 40 -10
-18 -2 -12 -5 20 -10 45 -7 45 -7 -20 -10 -65 -3 -65 -3 -20 -10 31 -5 37 -8
20 -10 -17 -2 -11 -5 20 -10 40 -6 35 -7 -40 -10 l-85 -3 65 -7 c36 -4 54 -8
40 -10 -18 -2 -12 -5 20 -10 45 -7 45 -7 -20 -10 -65 -3 -65 -3 -20 -10 31 -5
37 -8 20 -10 -17 -2 -11 -5 20 -10 40 -6 35 -7 -40 -10 l-85 -3 65 -7 c36 -4
54 -8 40 -10 -18 -2 -12 -5 20 -10 45 -7 45 -7 -20 -10 -65 -3 -65 -3 -20 -10
31 -5 37 -8 20 -10 -17 -2 -11 -5 20 -10 40 -6 35 -7 -40 -10 l-85 -3 65 -7
c36 -4 54 -8 40 -10 -18 -2 -12 -5 20 -10 45 -7 45 -7 -20 -10 -65 -3 -65 -3
-20 -10 31 -5 37 -8 20 -10 -17 -2 -11 -5 20 -10 40 -6 35 -7 -40 -10 l-85 -3
65 -7 c36 -4 54 -8 40 -10 -18 -2 -12 -5 20 -10 45 -7 45 -7 -20 -10 -65 -3
-65 -3 -20 -10 31 -5 37 -8 20 -10 -17 -2 -11 -5 20 -10 40 -6 35 -7 -40 -10
l-85 -3 65 -7 c36 -4 54 -8 40 -10 -18 -2 -12 -5 20 -10 45 -7 45 -7 -20 -10
-65 -3 -65 -3 -20 -10 31 -5 37 -8 20 -10 -17 -2 -11 -5 20 -10 40 -6 35 -7
-40 -10 l-85 -3 65 -7 c36 -4 54 -8 40 -10 -18 -2 -12 -5 20 -10 45 -7 45 -7
-20 -10 -65 -3 -65 -3 -20 -10 31 -5 37 -8 20 -10 -17 -2 -11 -5 20 -10 40 -6
35 -7 -40 -10 l-85 -3 65 -7 c36 -4 54 -8 40 -10 -18 -2 -12 -5 20 -10 45 -7
45 -7 -20 -10 -65 -3 -65 -3 -20 -10 31 -5 37 -8 20 -10 -17 -2 -11 -5 20 -10
40 -6 35 -7 -40 -10 l-85 -3 65 -7 c36 -4 54 -8 40 -10 -18 -2 -12 -5 20 -10
45 -7 45 -7 -20 -10 -65 -3 -65 -3 -20 -10 31 -5 37 -8 20 -10 -17 -2 -11 -5
20 -10 40 -6 35 -7 -40 -10 l-85 -3 65 -7 c36 -4 54 -8 40 -10 -18 -2 -12 -5
20 -10 45 -7 45 -7 -20 -10 -65 -3 -65 -3 -20 -10 31 -5 37 -8 20 -10 -17 -2
-11 -5 20 -10 40 -6 35 -7 -40 -10 l-85 -3 65 -7 c36 -4 54 -8 40 -10 -18 -2
-12 -5 20 -10 45 -7 45 -7 -20 -10 -65 -3 -65 -3 -20 -10 29 -5 36 -8 20 -9
l-25 -3 25 -8 25 -8 -25 -3 c-16 -1 -9 -4 20 -9 45 -7 45 -7 -20 -10 -65 -3
-65 -3 -20 -10 31 -5 37 -8 20 -10 -17 -2 -11 -5 20 -10 40 -6 35 -7 -40 -10
l-85 -3 65 -7 c36 -4 54 -8 40 -10 -18 -2 -12 -5 20 -10 45 -7 45 -7 -20 -10
-65 -3 -65 -3 -20 -10 31 -5 37 -8 20 -10 -17 -2 -11 -5 20 -10 40 -6 35 -7
-40 -10 l-85 -3 65 -7 c36 -4 54 -8 40 -10 -18 -2 -12 -5 20 -10 45 -7 45 -7
-20 -10 -65 -3 -65 -3 -20 -10 31 -5 37 -8 20 -10 -17 -2 -11 -5 20 -10 40 -6
35 -7 -40 -10 l-85 -3 65 -7 c36 -4 54 -8 40 -10 -18 -2 -12 -5 20 -10 45 -7
45 -7 -20 -10 -65 -3 -65 -3 -20 -10 31 -5 37 -8 20 -10 -17 -2 -11 -5 20 -10
40 -6 35 -7 -40 -10 l-85 -3 65 -7 c36 -4 54 -8 40 -10 -18 -2 -12 -5 20 -10
45 -7 45 -7 -20 -10 -65 -3 -65 -3 -20 -10 31 -5 37 -8 20 -10 -17 -2 -11 -5
20 -10 40 -6 35 -7 -40 -10 l-85 -3 65 -7 c36 -4 54 -8 40 -10 -18 -2 -12 -5
20 -10 45 -7 45 -7 -20 -10 -65 -3 -65 -3 -20 -10 31 -5 37 -8 20 -10 -17 -2
-11 -5 20 -10 40 -6 35 -7 -40 -10 l-85 -3 65 -7 c36 -4 54 -8 40 -10 -18 -2
-12 -5 20 -10 45 -7 45 -7 -20 -10 -65 -3 -65 -3 -20 -10 31 -5 37 -8 20 -10
-17 -2 -11 -5 20 -10 40 -6 35 -7 -40 -10 l-85 -3 65 -7 c36 -4 54 -8 40 -10
-18 -2 -12 -5 20 -10 45 -7 45 -7 -20 -10 -65 -3 -65 -3 -20 -10 31 -5 37 -8
20 -10 -17 -2 -11 -5 20 -10 40 -6 35 -7 -40 -10 l-85 -3 65 -7 c36 -4 54 -8
40 -10 -18 -2 -12 -5 20 -10 45 -7 45 -7 -20 -10 -65 -3 -65 -3 -20 -10 31 -5
37 -8 20 -10 -17 -2 -11 -5 20 -10 40 -6 35 -7 -40 -10 l-85 -3 65 -6 c44 -5
57 -8 40 -12 -19 -5 -15 -7 20 -9 42 -3 41 -4 -20 -10 -36 -4 737 -7 1718 -8
l1782 -2 0 470 0 470 -197 0 c-187 0 -201 2 -248 24 -63 29 -128 101 -145 160
-16 58 -9 171 14 217 22 47 77 102 125 126 31 15 67 18 244 21 l207 3 0 3450
0 3449 -1802 -2 c-992 -1 -1774 -4 -1738 -8z m448 -27 c-10 -2 -28 -2 -40 0
-13 2 -5 4 17 4 22 1 32 -1 23 -4z m30 -40 c-15 -2 -42 -2 -60 0 -18 2 -6 4
27 4 33 0 48 -2 33 -4z m-30 -40 c-10 -2 -28 -2 -40 0 -13 2 -5 4 17 4 22 1
32 -1 23 -4z m30 -40 c-15 -2 -42 -2 -60 0 -18 2 -6 4 27 4 33 0 48 -2 33 -4z
m-30 -40 c-10 -2 -28 -2 -40 0 -13 2 -5 4 17 4 22 1 32 -1 23 -4z m30 -40
c-15 -2 -42 -2 -60 0 -18 2 -6 4 27 4 33 0 48 -2 33 -4z m-30 -40 c-10 -2 -28
-2 -40 0 -13 2 -5 4 17 4 22 1 32 -1 23 -4z m30 -40 c-15 -2 -42 -2 -60 0 -18
2 -6 4 27 4 33 0 48 -2 33 -4z m-30 -40 c-10 -2 -28 -2 -40 0 -13 2 -5 4 17 4
22 1 32 -1 23 -4z m30 -40 c-15 -2 -42 -2 -60 0 -18 2 -6 4 27 4 33 0 48 -2
33 -4z m-30 -40 c-10 -2 -28 -2 -40 0 -13 2 -5 4 17 4 22 1 32 -1 23 -4z m30
-40 c-15 -2 -42 -2 -60 0 -18 2 -6 4 27 4 33 0 48 -2 33 -4z m-30 -40 c-10 -2
-28 -2 -40 0 -13 2 -5 4 17 4 22 1 32 -1 23 -4z m30 -40 c-15 -2 -42 -2 -60 0
-18 2 -6 4 27 4 33 0 48 -2 33 -4z m-30 -40 c-10 -2 -28 -2 -40 0 -13 2 -5 4
17 4 22 1 32 -1 23 -4z m30 -40 c-15 -2 -42 -2 -60 0 -18 2 -6 4 27 4 33 0 48
-2 33 -4z m-30 -40 c-10 -2 -28 -2 -40 0 -13 2 -5 4 17 4 22 1 32 -1 23 -4z
m30 -40 c-15 -2 -42 -2 -60 0 -18 2 -6 4 27 4 33 0 48 -2 33 -4z m-30 -40
c-10 -2 -28 -2 -40 0 -13 2 -5 4 17 4 22 1 32 -1 23 -4z m30 -40 c-15 -2 -42
-2 -60 0 -18 2 -6 4 27 4 33 0 48 -2 33 -4z m-30 -40 c-10 -2 -28 -2 -40 0
-13 2 -5 4 17 4 22 1 32 -1 23 -4z m30 -40 c-15 -2 -42 -2 -60 0 -18 2 -6 4
27 4 33 0 48 -2 33 -4z m-30 -40 c-10 -2 -28 -2 -40 0 -13 2 -5 4 17 4 22 1
32 -1 23 -4z m30 -40 c-15 -2 -42 -2 -60 0 -18 2 -6 4 27 4 33 0 48 -2 33 -4z
m-30 -40 c-10 -2 -28 -2 -40 0 -13 2 -5 4 17 4 22 1 32 -1 23 -4z m30 -40
c-15 -2 -42 -2 -60 0 -18 2 -6 4 27 4 33 0 48 -2 33 -4z m-30 -40 c-10 -2 -28
-2 -40 0 -13 2 -5 4 17 4 22 1 32 -1 23 -4z m30 -40 c-15 -2 -42 -2 -60 0 -18
2 -6 4 27 4 33 0 48 -2 33 -4z m-30 -40 c-10 -2 -28 -2 -40 0 -13 2 -5 4 17 4
22 1 32 -1 23 -4z m30 -40 c-15 -2 -42 -2 -60 0 -18 2 -6 4 27 4 33 0 48 -2
33 -4z m-30 -40 c-10 -2 -28 -2 -40 0 -13 2 -5 4 17 4 22 1 32 -1 23 -4z m30
-40 c-15 -2 -42 -2 -60 0 -18 2 -6 4 27 4 33 0 48 -2 33 -4z m-30 -40 c-10 -2
-28 -2 -40 0 -13 2 -5 4 17 4 22 1 32 -1 23 -4z m30 -40 c-15 -2 -42 -2 -60 0
-18 2 -6 4 27 4 33 0 48 -2 33 -4z m-30 -40 c-10 -2 -28 -2 -40 0 -13 2 -5 4
17 4 22 1 32 -1 23 -4z m30 -40 c-15 -2 -42 -2 -60 0 -18 2 -6 4 27 4 33 0 48
-2 33 -4z m-30 -40 c-10 -2 -28 -2 -40 0 -13 2 -5 4 17 4 22 1 32 -1 23 -4z
m30 -40 c-15 -2 -42 -2 -60 0 -18 2 -6 4 27 4 33 0 48 -2 33 -4z m-30 -40
c-10 -2 -28 -2 -40 0 -13 2 -5 4 17 4 22 1 32 -1 23 -4z m30 -40 c-15 -2 -42
-2 -60 0 -18 2 -6 4 27 4 33 0 48 -2 33 -4z m-30 -40 c-10 -2 -28 -2 -40 0
-13 2 -5 4 17 4 22 1 32 -1 23 -4z m30 -40 c-15 -2 -42 -2 -60 0 -18 2 -6 4
27 4 33 0 48 -2 33 -4z m-30 -40 c-10 -2 -28 -2 -40 0 -13 2 -5 4 17 4 22 1
32 -1 23 -4z m30 -40 c-15 -2 -42 -2 -60 0 -18 2 -6 4 27 4 33 0 48 -2 33 -4z
m-30 -40 c-10 -2 -28 -2 -40 0 -13 2 -5 4 17 4 22 1 32 -1 23 -4z m30 -40
c-15 -2 -42 -2 -60 0 -18 2 -6 4 27 4 33 0 48 -2 33 -4z m-30 -40 c-10 -2 -28
-2 -40 0 -13 2 -5 4 17 4 22 1 32 -1 23 -4z m30 -40 c-15 -2 -42 -2 -60 0 -18
2 -6 4 27 4 33 0 48 -2 33 -4z m-30 -40 c-10 -2 -28 -2 -40 0 -13 2 -5 4 17 4
22 1 32 -1 23 -4z m30 -40 c-15 -2 -42 -2 -60 0 -18 2 -6 4 27 4 33 0 48 -2
33 -4z m-30 -40 c-10 -2 -28 -2 -40 0 -13 2 -5 4 17 4 22 1 32 -1 23 -4z m30
-40 c-15 -2 -42 -2 -60 0 -18 2 -6 4 27 4 33 0 48 -2 33 -4z m-30 -40 c-10 -2
-28 -2 -40 0 -13 2 -5 4 17 4 22 1 32 -1 23 -4z m30 -40 c-15 -2 -42 -2 -60 0
-18 2 -6 4 27 4 33 0 48 -2 33 -4z m-30 -40 c-10 -2 -28 -2 -40 0 -13 2 -5 4
17 4 22 1 32 -1 23 -4z m30 -40 c-15 -2 -42 -2 -60 0 -18 2 -6 4 27 4 33 0 48
-2 33 -4z m-30 -40 c-10 -2 -28 -2 -40 0 -13 2 -5 4 17 4 22 1 32 -1 23 -4z
m30 -40 c-15 -2 -42 -2 -60 0 -18 2 -6 4 27 4 33 0 48 -2 33 -4z m-30 -40
c-10 -2 -28 -2 -40 0 -13 2 -5 4 17 4 22 1 32 -1 23 -4z m30 -40 c-15 -2 -42
-2 -60 0 -18 2 -6 4 27 4 33 0 48 -2 33 -4z m-30 -40 c-10 -2 -28 -2 -40 0
-13 2 -5 4 17 4 22 1 32 -1 23 -4z m30 -40 c-15 -2 -42 -2 -60 0 -18 2 -6 4
27 4 33 0 48 -2 33 -4z m-30 -40 c-10 -2 -28 -2 -40 0 -13 2 -5 4 17 4 22 1
32 -1 23 -4z m0 -60 c-10 -2 -28 -2 -40 0 -13 2 -5 4 17 4 22 1 32 -1 23 -4z
m30 -40 c-15 -2 -42 -2 -60 0 -18 2 -6 4 27 4 33 0 48 -2 33 -4z m-30 -40
c-10 -2 -28 -2 -40 0 -13 2 -5 4 17 4 22 1 32 -1 23 -4z m30 -40 c-15 -2 -42
-2 -60 0 -18 2 -6 4 27 4 33 0 48 -2 33 -4z m-30 -40 c-10 -2 -28 -2 -40 0
-13 2 -5 4 17 4 22 1 32 -1 23 -4z m30 -40 c-15 -2 -42 -2 -60 0 -18 2 -6 4
27 4 33 0 48 -2 33 -4z m-30 -40 c-10 -2 -28 -2 -40 0 -13 2 -5 4 17 4 22 1
32 -1 23 -4z m30 -40 c-15 -2 -42 -2 -60 0 -18 2 -6 4 27 4 33 0 48 -2 33 -4z
m-30 -40 c-10 -2 -28 -2 -40 0 -13 2 -5 4 17 4 22 1 32 -1 23 -4z m30 -40
c-15 -2 -42 -2 -60 0 -18 2 -6 4 27 4 33 0 48 -2 33 -4z m-30 -40 c-10 -2 -28
-2 -40 0 -13 2 -5 4 17 4 22 1 32 -1 23 -4z m30 -40 c-15 -2 -42 -2 -60 0 -18
2 -6 4 27 4 33 0 48 -2 33 -4z m-30 -40 c-10 -2 -28 -2 -40 0 -13 2 -5 4 17 4
22 1 32 -1 23 -4z m30 -40 c-15 -2 -42 -2 -60 0 -18 2 -6 4 27 4 33 0 48 -2
33 -4z m-30 -40 c-10 -2 -28 -2 -40 0 -13 2 -5 4 17 4 22 1 32 -1 23 -4z m30
-40 c-15 -2 -42 -2 -60 0 -18 2 -6 4 27 4 33 0 48 -2 33 -4z m-30 -40 c-10 -2
-28 -2 -40 0 -13 2 -5 4 17 4 22 1 32 -1 23 -4z m30 -40 c-15 -2 -42 -2 -60 0
-18 2 -6 4 27 4 33 0 48 -2 33 -4z m-30 -40 c-10 -2 -28 -2 -40 0 -13 2 -5 4
17 4 22 1 32 -1 23 -4z m30 -40 c-15 -2 -42 -2 -60 0 -18 2 -6 4 27 4 33 0 48
-2 33 -4z m-30 -40 c-10 -2 -28 -2 -40 0 -13 2 -5 4 17 4 22 1 32 -1 23 -4z
m30 -40 c-15 -2 -42 -2 -60 0 -18 2 -6 4 27 4 33 0 48 -2 33 -4z m-30 -40
c-10 -2 -28 -2 -40 0 -13 2 -5 4 17 4 22 1 32 -1 23 -4z m30 -40 c-15 -2 -42
-2 -60 0 -18 2 -6 4 27 4 33 0 48 -2 33 -4z m-30 -40 c-10 -2 -28 -2 -40 0
-13 2 -5 4 17 4 22 1 32 -1 23 -4z m30 -40 c-15 -2 -42 -2 -60 0 -18 2 -6 4
27 4 33 0 48 -2 33 -4z m-30 -40 c-10 -2 -28 -2 -40 0 -13 2 -5 4 17 4 22 1
32 -1 23 -4z m30 -40 c-15 -2 -42 -2 -60 0 -18 2 -6 4 27 4 33 0 48 -2 33 -4z
m-30 -40 c-10 -2 -28 -2 -40 0 -13 2 -5 4 17 4 22 1 32 -1 23 -4z m30 -40
c-15 -2 -42 -2 -60 0 -18 2 -6 4 27 4 33 0 48 -2 33 -4z m-30 -40 c-10 -2 -28
-2 -40 0 -13 2 -5 4 17 4 22 1 32 -1 23 -4z m30 -40 c-15 -2 -42 -2 -60 0 -18
2 -6 4 27 4 33 0 48 -2 33 -4z m-30 -40 c-10 -2 -28 -2 -40 0 -13 2 -5 4 17 4
22 1 32 -1 23 -4z m30 -40 c-15 -2 -42 -2 -60 0 -18 2 -6 4 27 4 33 0 48 -2
33 -4z m-30 -40 c-10 -2 -28 -2 -40 0 -13 2 -5 4 17 4 22 1 32 -1 23 -4z m30
-40 c-15 -2 -42 -2 -60 0 -18 2 -6 4 27 4 33 0 48 -2 33 -4z m-30 -40 c-10 -2
-28 -2 -40 0 -13 2 -5 4 17 4 22 1 32 -1 23 -4z m30 -40 c-15 -2 -42 -2 -60 0
-18 2 -6 4 27 4 33 0 48 -2 33 -4z m-30 -40 c-10 -2 -28 -2 -40 0 -13 2 -5 4
17 4 22 1 32 -1 23 -4z m30 -40 c-15 -2 -42 -2 -60 0 -18 2 -6 4 27 4 33 0 48
-2 33 -4z m-30 -40 c-10 -2 -28 -2 -40 0 -13 2 -5 4 17 4 22 1 32 -1 23 -4z
m30 -40 c-15 -2 -42 -2 -60 0 -18 2 -6 4 27 4 33 0 48 -2 33 -4z m-30 -40
c-10 -2 -28 -2 -40 0 -13 2 -5 4 17 4 22 1 32 -1 23 -4z m30 -40 c-15 -2 -42
-2 -60 0 -18 2 -6 4 27 4 33 0 48 -2 33 -4z m-30 -40 c-10 -2 -28 -2 -40 0
-13 2 -5 4 17 4 22 1 32 -1 23 -4z m30 -40 c-15 -2 -42 -2 -60 0 -18 2 -6 4
27 4 33 0 48 -2 33 -4z m-30 -40 c-10 -2 -28 -2 -40 0 -13 2 -5 4 17 4 22 1
32 -1 23 -4z m30 -40 c-15 -2 -42 -2 -60 0 -18 2 -6 4 27 4 33 0 48 -2 33 -4z
m-30 -40 c-10 -2 -28 -2 -40 0 -13 2 -5 4 17 4 22 1 32 -1 23 -4z m30 -40
c-15 -2 -42 -2 -60 0 -18 2 -6 4 27 4 33 0 48 -2 33 -4z m-30 -40 c-10 -2 -28
-2 -40 0 -13 2 -5 4 17 4 22 1 32 -1 23 -4z m30 -40 c-15 -2 -42 -2 -60 0 -18
2 -6 4 27 4 33 0 48 -2 33 -4z m-30 -40 c-10 -2 -28 -2 -40 0 -13 2 -5 4 17 4
22 1 32 -1 23 -4z m30 -40 c-15 -2 -42 -2 -60 0 -18 2 -6 4 27 4 33 0 48 -2
33 -4z m-30 -40 c-10 -2 -28 -2 -40 0 -13 2 -5 4 17 4 22 1 32 -1 23 -4z m30
-40 c-15 -2 -42 -2 -60 0 -18 2 -6 4 27 4 33 0 48 -2 33 -4z m-30 -40 c-10 -2
-28 -2 -40 0 -13 2 -5 4 17 4 22 1 32 -1 23 -4z m30 -40 c-15 -2 -42 -2 -60 0
-18 2 -6 4 27 4 33 0 48 -2 33 -4z m-30 -40 c-10 -2 -28 -2 -40 0 -13 2 -5 4
17 4 22 1 32 -1 23 -4z m30 -40 c-15 -2 -42 -2 -60 0 -18 2 -6 4 27 4 33 0 48
-2 33 -4z m-30 -40 c-10 -2 -28 -2 -40 0 -13 2 -5 4 17 4 22 1 32 -1 23 -4z
m30 -40 c-15 -2 -42 -2 -60 0 -18 2 -6 4 27 4 33 0 48 -2 33 -4z m-30 -40
c-10 -2 -28 -2 -40 0 -13 2 -5 4 17 4 22 1 32 -1 23 -4z m0 -60 c-10 -2 -28
-2 -40 0 -13 2 -5 4 17 4 22 1 32 -1 23 -4z m30 -40 c-15 -2 -42 -2 -60 0 -18
2 -6 4 27 4 33 0 48 -2 33 -4z m-30 -40 c-10 -2 -28 -2 -40 0 -13 2 -5 4 17 4
22 1 32 -1 23 -4z m30 -40 c-15 -2 -42 -2 -60 0 -18 2 -6 4 27 4 33 0 48 -2
33 -4z m-30 -40 c-10 -2 -28 -2 -40 0 -13 2 -5 4 17 4 22 1 32 -1 23 -4z m30
-40 c-15 -2 -42 -2 -60 0 -18 2 -6 4 27 4 33 0 48 -2 33 -4z m-30 -40 c-10 -2
-28 -2 -40 0 -13 2 -5 4 17 4 22 1 32 -1 23 -4z m30 -40 c-15 -2 -42 -2 -60 0
-18 2 -6 4 27 4 33 0 48 -2 33 -4z m-30 -40 c-10 -2 -28 -2 -40 0 -13 2 -5 4
17 4 22 1 32 -1 23 -4z m30 -40 c-15 -2 -42 -2 -60 0 -18 2 -6 4 27 4 33 0 48
-2 33 -4z m-30 -40 c-10 -2 -28 -2 -40 0 -13 2 -5 4 17 4 22 1 32 -1 23 -4z
m30 -40 c-15 -2 -42 -2 -60 0 -18 2 -6 4 27 4 33 0 48 -2 33 -4z m-30 -40
c-10 -2 -28 -2 -40 0 -13 2 -5 4 17 4 22 1 32 -1 23 -4z m30 -40 c-15 -2 -42
-2 -60 0 -18 2 -6 4 27 4 33 0 48 -2 33 -4z m-30 -40 c-10 -2 -28 -2 -40 0
-13 2 -5 4 17 4 22 1 32 -1 23 -4z m30 -40 c-15 -2 -42 -2 -60 0 -18 2 -6 4
27 4 33 0 48 -2 33 -4z m-30 -40 c-10 -2 -28 -2 -40 0 -13 2 -5 4 17 4 22 1
32 -1 23 -4z m30 -40 c-15 -2 -42 -2 -60 0 -18 2 -6 4 27 4 33 0 48 -2 33 -4z
m-30 -40 c-10 -2 -28 -2 -40 0 -13 2 -5 4 17 4 22 1 32 -1 23 -4z m30 -40
c-15 -2 -42 -2 -60 0 -18 2 -6 4 27 4 33 0 48 -2 33 -4z m-30 -40 c-10 -2 -28
-2 -40 0 -13 2 -5 4 17 4 22 1 32 -1 23 -4z m30 -40 c-15 -2 -42 -2 -60 0 -18
2 -6 4 27 4 33 0 48 -2 33 -4z m-30 -40 c-10 -2 -28 -2 -40 0 -13 2 -5 4 17 4
22 1 32 -1 23 -4z m30 -40 c-15 -2 -42 -2 -60 0 -18 2 -6 4 27 4 33 0 48 -2
33 -4z m-30 -40 c-10 -2 -28 -2 -40 0 -13 2 -5 4 17 4 22 1 32 -1 23 -4z m30
-40 c-15 -2 -42 -2 -60 0 -18 2 -6 4 27 4 33 0 48 -2 33 -4z m-30 -40 c-10 -2
-28 -2 -40 0 -13 2 -5 4 17 4 22 1 32 -1 23 -4z m30 -40 c-15 -2 -42 -2 -60 0
-18 2 -6 4 27 4 33 0 48 -2 33 -4z m-30 -40 c-10 -2 -28 -2 -40 0 -13 2 -5 4
17 4 22 1 32 -1 23 -4z m30 -40 c-15 -2 -42 -2 -60 0 -18 2 -6 4 27 4 33 0 48
-2 33 -4z m-30 -40 c-10 -2 -28 -2 -40 0 -13 2 -5 4 17 4 22 1 32 -1 23 -4z
m30 -40 c-15 -2 -42 -2 -60 0 -18 2 -6 4 27 4 33 0 48 -2 33 -4z m-30 -40
c-10 -2 -28 -2 -40 0 -13 2 -5 4 17 4 22 1 32 -1 23 -4z m30 -40 c-15 -2 -42
-2 -60 0 -18 2 -6 4 27 4 33 0 48 -2 33 -4z m-30 -40 c-10 -2 -28 -2 -40 0
-13 2 -5 4 17 4 22 1 32 -1 23 -4z m30 -40 c-15 -2 -42 -2 -60 0 -18 2 -6 4
27 4 33 0 48 -2 33 -4z m-30 -40 c-10 -2 -28 -2 -40 0 -13 2 -5 4 17 4 22 1
32 -1 23 -4z m30 -40 c-15 -2 -42 -2 -60 0 -18 2 -6 4 27 4 33 0 48 -2 33 -4z
m-30 -40 c-10 -2 -28 -2 -40 0 -13 2 -5 4 17 4 22 1 32 -1 23 -4z m30 -40
c-15 -2 -42 -2 -60 0 -18 2 -6 4 27 4 33 0 48 -2 33 -4z m-30 -40 c-10 -2 -28
-2 -40 0 -13 2 -5 4 17 4 22 1 32 -1 23 -4z m30 -40 c-15 -2 -42 -2 -60 0 -18
2 -6 4 27 4 33 0 48 -2 33 -4z m-30 -40 c-10 -2 -28 -2 -40 0 -13 2 -5 4 17 4
22 1 32 -1 23 -4z m30 -40 c-15 -2 -42 -2 -60 0 -18 2 -6 4 27 4 33 0 48 -2
33 -4z m-30 -40 c-10 -2 -28 -2 -40 0 -13 2 -5 4 17 4 22 1 32 -1 23 -4z m30
-40 c-15 -2 -42 -2 -60 0 -18 2 -6 4 27 4 33 0 48 -2 33 -4z m-30 -40 c-10 -2
-28 -2 -40 0 -13 2 -5 4 17 4 22 1 32 -1 23 -4z m30 -40 c-15 -2 -42 -2 -60 0
-18 2 -6 4 27 4 33 0 48 -2 33 -4z m-30 -40 c-10 -2 -28 -2 -40 0 -13 2 -5 4
17 4 22 1 32 -1 23 -4z m30 -40 c-15 -2 -42 -2 -60 0 -18 2 -6 4 27 4 33 0 48
-2 33 -4z m-30 -40 c-10 -2 -28 -2 -40 0 -13 2 -5 4 17 4 22 1 32 -1 23 -4z
m30 -40 c-15 -2 -42 -2 -60 0 -18 2 -6 4 27 4 33 0 48 -2 33 -4z m-30 -40
c-10 -2 -28 -2 -40 0 -13 2 -5 4 17 4 22 1 32 -1 23 -4z m30 -40 c-15 -2 -42
-2 -60 0 -18 2 -6 4 27 4 33 0 48 -2 33 -4z m-30 -40 c-10 -2 -28 -2 -40 0
-13 2 -5 4 17 4 22 1 32 -1 23 -4z m30 -40 c-15 -2 -42 -2 -60 0 -18 2 -6 4
27 4 33 0 48 -2 33 -4z m-30 -40 c-10 -2 -28 -2 -40 0 -13 2 -5 4 17 4 22 1
32 -1 23 -4z m30 -40 c-15 -2 -42 -2 -60 0 -18 2 -6 4 27 4 33 0 48 -2 33 -4z
m-30 -40 c-10 -2 -28 -2 -40 0 -13 2 -5 4 17 4 22 1 32 -1 23 -4z m30 -40
c-15 -2 -42 -2 -60 0 -18 2 -6 4 27 4 33 0 48 -2 33 -4z m-30 -40 c-10 -2 -28
-2 -40 0 -13 2 -5 4 17 4 22 1 32 -1 23 -4z m30 -40 c-15 -2 -42 -2 -60 0 -18
2 -6 4 27 4 33 0 48 -2 33 -4z m-30 -40 c-10 -2 -28 -2 -40 0 -13 2 -5 4 17 4
22 1 32 -1 23 -4z m0 -60 c-10 -2 -28 -2 -40 0 -13 2 -5 4 17 4 22 1 32 -1 23
-4z m30 -40 c-15 -2 -42 -2 -60 0 -18 2 -6 4 27 4 33 0 48 -2 33 -4z m-30 -40
c-10 -2 -28 -2 -40 0 -13 2 -5 4 17 4 22 1 32 -1 23 -4z m30 -40 c-15 -2 -42
-2 -60 0 -18 2 -6 4 27 4 33 0 48 -2 33 -4z m-30 -40 c-10 -2 -28 -2 -40 0
-13 2 -5 4 17 4 22 1 32 -1 23 -4z m30 -40 c-15 -2 -42 -2 -60 0 -18 2 -6 4
27 4 33 0 48 -2 33 -4z m-30 -40 c-10 -2 -28 -2 -40 0 -13 2 -5 4 17 4 22 1
32 -1 23 -4z m30 -40 c-15 -2 -42 -2 -60 0 -18 2 -6 4 27 4 33 0 48 -2 33 -4z
m-30 -40 c-10 -2 -28 -2 -40 0 -13 2 -5 4 17 4 22 1 32 -1 23 -4z m30 -40
c-15 -2 -42 -2 -60 0 -18 2 -6 4 27 4 33 0 48 -2 33 -4z m-30 -40 c-10 -2 -28
-2 -40 0 -13 2 -5 4 17 4 22 1 32 -1 23 -4z m30 -40 c-15 -2 -42 -2 -60 0 -18
2 -6 4 27 4 33 0 48 -2 33 -4z m-30 -40 c-10 -2 -28 -2 -40 0 -13 2 -5 4 17 4
22 1 32 -1 23 -4z m30 -40 c-15 -2 -42 -2 -60 0 -18 2 -6 4 27 4 33 0 48 -2
33 -4z m-30 -40 c-10 -2 -28 -2 -40 0 -13 2 -5 4 17 4 22 1 32 -1 23 -4z m30
-40 c-15 -2 -42 -2 -60 0 -18 2 -6 4 27 4 33 0 48 -2 33 -4z m-30 -40 c-10 -2
-28 -2 -40 0 -13 2 -5 4 17 4 22 1 32 -1 23 -4z m30 -40 c-15 -2 -42 -2 -60 0
-18 2 -6 4 27 4 33 0 48 -2 33 -4z m-30 -40 c-10 -2 -28 -2 -40 0 -13 2 -5 4
17 4 22 1 32 -1 23 -4z"/>
<path d="M15648 8363 c7 -3 16 -2 19 1 4 3 -2 6 -13 5 -11 0 -14 -3 -6 -6z"/>
<path d="M15608 8343 c7 -3 16 -2 19 1 4 3 -2 6 -13 5 -11 0 -14 -3 -6 -6z"/>
<path d="M15648 8283 c7 -3 16 -2 19 1 4 3 -2 6 -13 5 -11 0 -14 -3 -6 -6z"/>
<path d="M15608 8263 c7 -3 16 -2 19 1 4 3 -2 6 -13 5 -11 0 -14 -3 -6 -6z"/>
<path d="M15648 8203 c7 -3 16 -2 19 1 4 3 -2 6 -13 5 -11 0 -14 -3 -6 -6z"/>
<path d="M15608 8183 c7 -3 16 -2 19 1 4 3 -2 6 -13 5 -11 0 -14 -3 -6 -6z"/>
<path d="M15648 8123 c7 -3 16 -2 19 1 4 3 -2 6 -13 5 -11 0 -14 -3 -6 -6z"/>
<path d="M15608 8103 c7 -3 16 -2 19 1 4 3 -2 6 -13 5 -11 0 -14 -3 -6 -6z"/>
<path d="M15648 8043 c7 -3 16 -2 19 1 4 3 -2 6 -13 5 -11 0 -14 -3 -6 -6z"/>
<path d="M15608 8023 c7 -3 16 -2 19 1 4 3 -2 6 -13 5 -11 0 -14 -3 -6 -6z"/>
<path d="M15648 7963 c7 -3 16 -2 19 1 4 3 -2 6 -13 5 -11 0 -14 -3 -6 -6z"/>
<path d="M15608 7943 c7 -3 16 -2 19 1 4 3 -2 6 -13 5 -11 0 -14 -3 -6 -6z"/>
<path d="M15648 7883 c7 -3 16 -2 19 1 4 3 -2 6 -13 5 -11 0 -14 -3 -6 -6z"/>
<path d="M15608 7863 c7 -3 16 -2 19 1 4 3 -2 6 -13 5 -11 0 -14 -3 -6 -6z"/>
<path d="M10428 7801 c-31 -25 -38 -26 -38 -6 0 9 -9 15 -25 15 l-25 0 0 -160
0 -160 25 0 c24 0 25 3 25 60 0 64 6 70 45 44 44 -28 98 3 115 68 27 99 -54
192 -122 139z m66 -53 c48 -69 -26 -156 -86 -101 -23 20 -24 80 -1 105 23 25
68 23 87 -4z"/>
<path d="M15648 7803 c7 -3 16 -2 19 1 4 3 -2 6 -13 5 -11 0 -14 -3 -6 -6z"/>
<path d="M10220 7785 c0 -8 6 -15 13 -15 9 0 8 -3 -2 -9 -8 -5 -10 -14 -5 -22
10 -18 11 -49 2 -71 -5 -10 -3 -18 5 -21 9 -4 9 -6 0 -6 -16 -1 -17 -31 -2
-31 15 0 35 22 43 47 5 16 2 23 -11 26 -17 4 -17 5 0 6 12 1 17 10 17 31 0 17
-7 33 -17 39 -10 6 -14 11 -9 11 11 0 -14 30 -25 30 -5 0 -9 -7 -9 -15z"/>
<path d="M15608 7783 c7 -3 16 -2 19 1 4 3 -2 6 -13 5 -11 0 -14 -3 -6 -6z"/>
<path d="M15648 7723 c7 -3 16 -2 19 1 4 3 -2 6 -13 5 -11 0 -14 -3 -6 -6z"/>
<path d="M15608 7703 c7 -3 16 -2 19 1 4 3 -2 6 -13 5 -11 0 -14 -3 -6 -6z"/>
<path d="M15648 7643 c7 -3 16 -2 19 1 4 3 -2 6 -13 5 -11 0 -14 -3 -6 -6z"/>
<path d="M15608 7623 c7 -3 16 -2 19 1 4 3 -2 6 -13 5 -11 0 -14 -3 -6 -6z"/>
<path d="M15648 7563 c7 -3 16 -2 19 1 4 3 -2 6 -13 5 -11 0 -14 -3 -6 -6z"/>
<path d="M15608 7543 c7 -3 16 -2 19 1 4 3 -2 6 -13 5 -11 0 -14 -3 -6 -6z"/>
<path d="M15648 7483 c7 -3 16 -2 19 1 4 3 -2 6 -13 5 -11 0 -14 -3 -6 -6z"/>
<path d="M15608 7463 c7 -3 16 -2 19 1 4 3 -2 6 -13 5 -11 0 -14 -3 -6 -6z"/>
<path d="M15648 7403 c7 -3 16 -2 19 1 4 3 -2 6 -13 5 -11 0 -14 -3 -6 -6z"/>
<path d="M15608 7383 c7 -3 16 -2 19 1 4 3 -2 6 -13 5 -11 0 -14 -3 -6 -6z"/>
<path d="M15648 7323 c7 -3 16 -2 19 1 4 3 -2 6 -13 5 -11 0 -14 -3 -6 -6z"/>
<path d="M15608 7303 c7 -3 16 -2 19 1 4 3 -2 6 -13 5 -11 0 -14 -3 -6 -6z"/>
<path d="M15648 7243 c7 -3 16 -2 19 1 4 3 -2 6 -13 5 -11 0 -14 -3 -6 -6z"/>
<path d="M15608 7223 c7 -3 16 -2 19 1 4 3 -2 6 -13 5 -11 0 -14 -3 -6 -6z"/>
<path d="M15648 7163 c7 -3 16 -2 19 1 4 3 -2 6 -13 5 -11 0 -14 -3 -6 -6z"/>
<path d="M15608 7143 c7 -3 16 -2 19 1 4 3 -2 6 -13 5 -11 0 -14 -3 -6 -6z"/>
<path d="M15648 7083 c7 -3 16 -2 19 1 4 3 -2 6 -13 5 -11 0 -14 -3 -6 -6z"/>
<path d="M15608 7063 c7 -3 16 -2 19 1 4 3 -2 6 -13 5 -11 0 -14 -3 -6 -6z"/>
<path d="M15648 7003 c7 -3 16 -2 19 1 4 3 -2 6 -13 5 -11 0 -14 -3 -6 -6z"/>
<path d="M15608 6983 c7 -3 16 -2 19 1 4 3 -2 6 -13 5 -11 0 -14 -3 -6 -6z"/>
<path d="M15648 6923 c7 -3 16 -2 19 1 4 3 -2 6 -13 5 -11 0 -14 -3 -6 -6z"/>
<path d="M15608 6903 c7 -3 16 -2 19 1 4 3 -2 6 -13 5 -11 0 -14 -3 -6 -6z"/>
<path d="M15648 6843 c7 -3 16 -2 19 1 4 3 -2 6 -13 5 -11 0 -14 -3 -6 -6z"/>
<path d="M15608 6823 c7 -3 16 -2 19 1 4 3 -2 6 -13 5 -11 0 -14 -3 -6 -6z"/>
<path d="M15648 6763 c7 -3 16 -2 19 1 4 3 -2 6 -13 5 -11 0 -14 -3 -6 -6z"/>
<path d="M15608 6743 c7 -3 16 -2 19 1 4 3 -2 6 -13 5 -11 0 -14 -3 -6 -6z"/>
<path d="M15648 6683 c7 -3 16 -2 19 1 4 3 -2 6 -13 5 -11 0 -14 -3 -6 -6z"/>
<path d="M15608 6663 c7 -3 16 -2 19 1 4 3 -2 6 -13 5 -11 0 -14 -3 -6 -6z"/>
<path d="M15648 6603 c7 -3 16 -2 19 1 4 3 -2 6 -13 5 -11 0 -14 -3 -6 -6z"/>
<path d="M15608 6583 c7 -3 16 -2 19 1 4 3 -2 6 -13 5 -11 0 -14 -3 -6 -6z"/>
<path d="M13200 3401 l0 -3134 -24 -41 c-13 -23 -42 -51 -64 -64 l-40 -22
-3484 2 c-2888 3 -3482 1 -3471 -10 7 -7 13 -18 13 -23 0 -5 7 -9 15 -9 8 0
15 -4 15 -10 0 -5 9 -10 20 -10 11 0 20 -4 20 -9 0 -5 27 -14 60 -22 33 -7 60
-17 60 -21 0 -5 9 -4 20 2 11 6 20 7 20 2 0 -4 37 -9 83 -11 45 -2 102 -5 127
-8 90 -10 6632 -15 6626 -5 -3 6 -1 12 4 14 6 2 12 10 14 18 2 8 6 23 11 32 4
10 8 32 9 50 0 18 6 36 11 40 14 10 18 6007 4 6108 -6 41 -12 107 -13 145 -1
49 -6 78 -18 95 -17 23 -18 -122 -18 -3109z m-3 -3347 c-3 -3 -12 -4 -19 -1
-8 3 -5 6 6 6 11 1 17 -2 13 -5z"/>
<path d="M15648 6523 c7 -3 16 -2 19 1 4 3 -2 6 -13 5 -11 0 -14 -3 -6 -6z"/>
<path d="M6362 6513 c-38 -15 -58 -157 -29 -213 26 -52 105 -52 132 0 18 35
20 142 3 173 -21 41 -64 57 -106 40z m78 -49 c15 -39 12 -127 -6 -152 -19 -27
-60 -29 -74 -3 -5 11 -10 47 -10 81 0 77 12 100 51 100 22 0 32 -6 39 -26z"/>
<path d="M6577 6478 c-43 -43 -46 -71 -4 -38 l27 21 0 -100 c0 -83 3 -101 15
-101 13 0 15 21 15 130 0 72 -3 129 -7 129 -5 -1 -25 -19 -46 -41z"/>
<path d="M6741 6404 c-18 -64 -35 -123 -38 -130 -3 -8 1 -14 9 -14 10 0 25 37
47 116 18 64 35 123 38 130 3 8 -1 14 -9 14 -10 0 -25 -37 -47 -116z"/>
<path d="M15608 6503 c7 -3 16 -2 19 1 4 3 -2 6 -13 5 -11 0 -14 -3 -6 -6z"/>
<path d="M15648 6443 c7 -3 16 -2 19 1 4 3 -2 6 -13 5 -11 0 -14 -3 -6 -6z"/>
<path d="M6852 6407 c-27 -29 -28 -41 -2 -27 19 10 20 8 20 -55 0 -37 4 -65
10 -65 6 0 10 35 10 85 0 47 -4 85 -8 85 -5 0 -18 -10 -30 -23z"/>
<path d="M6967 6412 c-22 -25 -23 -115 -1 -136 30 -30 66 -18 84 29 30 79 -35
161 -83 107z m64 -29 c7 -18 8 -41 2 -63 -6 -28 -13 -35 -33 -35 -23 0 -25 4
-28 49 -4 60 2 76 28 76 13 0 24 -10 31 -27z"/>
<path d="M15608 6423 c7 -3 16 -2 19 1 4 3 -2 6 -13 5 -11 0 -14 -3 -6 -6z"/>
<path d="M15648 6363 c7 -3 16 -2 19 1 4 3 -2 6 -13 5 -11 0 -14 -3 -6 -6z"/>
<path d="M15608 6343 c7 -3 16 -2 19 1 4 3 -2 6 -13 5 -11 0 -14 -3 -6 -6z"/>
<path d="M15648 6283 c7 -3 16 -2 19 1 4 3 -2 6 -13 5 -11 0 -14 -3 -6 -6z"/>
<path d="M15608 6263 c7 -3 16 -2 19 1 4 3 -2 6 -13 5 -11 0 -14 -3 -6 -6z"/>
<path d="M15648 6203 c7 -3 16 -2 19 1 4 3 -2 6 -13 5 -11 0 -14 -3 -6 -6z"/>
<path d="M15608 6183 c7 -3 16 -2 19 1 4 3 -2 6 -13 5 -11 0 -14 -3 -6 -6z"/>
<path d="M15648 6123 c7 -3 16 -2 19 1 4 3 -2 6 -13 5 -11 0 -14 -3 -6 -6z"/>
<path d="M15608 6103 c7 -3 16 -2 19 1 4 3 -2 6 -13 5 -11 0 -14 -3 -6 -6z"/>
<path d="M15648 6043 c7 -3 16 -2 19 1 4 3 -2 6 -13 5 -11 0 -14 -3 -6 -6z"/>
<path d="M15608 6023 c7 -3 16 -2 19 1 4 3 -2 6 -13 5 -11 0 -14 -3 -6 -6z"/>
<path d="M15648 5963 c7 -3 16 -2 19 1 4 3 -2 6 -13 5 -11 0 -14 -3 -6 -6z"/>
<path d="M15608 5943 c7 -3 16 -2 19 1 4 3 -2 6 -13 5 -11 0 -14 -3 -6 -6z"/>
<path d="M15648 5883 c7 -3 16 -2 19 1 4 3 -2 6 -13 5 -11 0 -14 -3 -6 -6z"/>
<path d="M6310 5860 c0 -11 12 -61 41 -172 5 -21 16 -38 24 -38 13 0 36 64 51
140 4 17 10 32 14 35 3 2 17 -36 30 -85 32 -127 45 -122 85 37 8 34 18 69 21
78 4 9 1 15 -9 15 -10 0 -20 -22 -32 -72 -23 -95 -30 -108 -38 -69 -18 87 -39
141 -56 141 -13 0 -23 -20 -41 -92 l-24 -93 -22 89 c-11 50 -26 92 -32 94 -7
2 -12 -2 -12 -8z"/>
<path d="M6600 5760 c0 -90 3 -110 15 -110 10 0 15 16 17 61 3 65 19 88 52 76
12 -5 16 -20 16 -72 0 -51 3 -65 15 -65 12 0 15 14 15 64 0 79 -16 101 -67 93
-32 -6 -33 -5 -33 29 0 24 -5 34 -15 34 -12 0 -15 -19 -15 -110z"/>
<path d="M6770 5855 c0 -8 7 -15 15 -15 8 0 15 7 15 15 0 8 -7 15 -15 15 -8 0
-15 -7 -15 -15z"/>
<path d="M6990 5760 c0 -67 4 -110 10 -110 6 0 10 19 10 43 0 59 9 85 32 92
33 11 48 -12 48 -76 0 -33 4 -59 10 -59 6 0 10 30 10 69 0 81 -12 97 -65 87
-35 -7 -35 -7 -35 29 0 19 -4 35 -10 35 -6 0 -10 -43 -10 -110z"/>
<path d="M7422 5858 c-7 -7 -12 -20 -12 -29 0 -10 -6 -20 -12 -23 -10 -5 -10
-7 0 -12 8 -4 12 -29 12 -75 0 -39 4 -69 10 -69 6 0 10 29 10 66 0 57 3 67 20
71 26 7 26 23 -1 23 -15 0 -19 4 -15 16 3 9 6 18 6 20 0 2 6 4 14 4 8 0 18 5
21 10 9 14 -39 12 -53 -2z"/>
<path d="M7650 5760 c0 -90 3 -110 15 -110 10 0 15 16 17 61 3 65 19 88 52 76
12 -5 16 -20 16 -72 0 -51 3 -65 15 -65 12 0 15 14 15 64 0 79 -16 101 -67 93
-32 -6 -33 -5 -33 29 0 24 -5 34 -15 34 -12 0 -15 -19 -15 -110z"/>
<path d="M8093 5863 c-7 -2 -13 -16 -13 -29 0 -15 -6 -24 -15 -24 -8 0 -15 -4
-15 -10 0 -5 7 -10 15 -10 12 0 15 -14 15 -70 0 -40 4 -70 10 -70 6 0 10 30
10 70 0 56 3 70 15 70 8 0 15 5 15 10 0 6 -7 10 -15 10 -22 0 -18 31 5 37 11
3 20 9 20 14 0 10 -27 11 -47 2z"/>
<path d="M8320 5760 c0 -67 4 -110 10 -110 6 0 10 43 10 110 0 67 -4 110 -10
110 -6 0 -10 -43 -10 -110z"/>
<path d="M8390 5760 c0 -67 4 -110 10 -110 6 0 10 43 10 110 0 67 -4 110 -10
110 -6 0 -10 -43 -10 -110z"/>
<path d="M8840 5855 c0 -8 5 -15 10 -15 6 0 10 7 10 15 0 8 -4 15 -10 15 -5 0
-10 -7 -10 -15z"/>
<path d="M9820 5855 c0 -8 7 -15 15 -15 8 0 15 7 15 15 0 8 -7 15 -15 15 -8 0
-15 -7 -15 -15z"/>
<path d="M10700 5835 c0 -33 -2 -35 -25 -29 -16 4 -34 0 -50 -10 -20 -14 -25
-25 -25 -61 0 -62 24 -85 85 -83 l45 2 0 108 c0 89 -3 108 -15 108 -10 0 -15
-11 -15 -35z m-4 -71 c20 -29 11 -70 -19 -88 -15 -9 -22 -7 -38 13 -23 28 -25
64 -3 85 22 23 41 20 60 -10z"/>
<path d="M11610 5760 c0 -67 4 -110 10 -110 6 0 10 15 10 34 0 50 16 52 46 6
15 -22 33 -40 41 -40 13 0 13 4 -1 25 -9 14 -23 36 -32 50 -16 25 -16 27 11
55 39 41 10 39 -32 -2 l-33 -32 0 62 c0 35 -4 62 -10 62 -6 0 -10 -43 -10
-110z"/>
<path d="M12090 5760 c0 -90 3 -110 15 -110 10 0 15 16 17 61 2 45 8 65 20 72
30 19 48 -8 48 -74 0 -46 3 -59 15 -59 22 0 21 107 -1 139 -14 19 -23 22 -50
18 -33 -6 -34 -5 -34 29 0 24 -5 34 -15 34 -12 0 -15 -19 -15 -110z"/>
<path d="M15608 5863 c7 -3 16 -2 19 1 4 3 -2 6 -13 5 -11 0 -14 -3 -6 -6z"/>
<path d="M7588 5854 c-5 -4 -8 -15 -8 -25 0 -9 -6 -19 -12 -22 -10 -3 -10 -7
-1 -18 7 -8 13 -42 15 -74 3 -53 5 -60 26 -63 25 -4 30 13 7 22 -11 4 -15 21
-15 61 0 42 3 55 15 55 8 0 15 5 15 10 0 6 -6 10 -14 10 -8 0 -16 12 -18 26
-2 14 -6 22 -10 18z"/>
<path d="M9330 5831 c0 -11 -6 -22 -12 -24 -10 -4 -10 -7 -1 -14 7 -5 13 -38
15 -73 3 -59 5 -65 26 -68 25 -4 30 13 7 22 -11 4 -15 21 -15 61 0 42 3 55 15
55 8 0 15 5 15 10 0 6 -7 10 -15 10 -8 0 -15 9 -15 20 0 11 -4 20 -10 20 -5 0
-10 -9 -10 -19z"/>
<path d="M10860 5831 c0 -11 -6 -22 -12 -24 -10 -4 -10 -7 -1 -14 7 -5 13 -38
15 -73 3 -59 5 -65 26 -68 26 -4 28 3 7 24 -9 9 -15 34 -15 60 0 30 5 46 15
50 8 4 15 10 15 15 0 5 -7 9 -15 9 -8 0 -15 9 -15 20 0 11 -4 20 -10 20 -5 0
-10 -9 -10 -19z"/>
<path d="M12010 5831 c0 -11 -6 -22 -12 -24 -10 -4 -10 -7 -1 -14 7 -5 13 -38
15 -73 3 -59 5 -65 26 -68 26 -4 28 3 7 24 -9 9 -15 34 -15 60 0 30 5 46 15
50 8 4 15 10 15 15 0 5 -7 9 -15 9 -8 0 -15 9 -15 20 0 11 -4 20 -10 20 -5 0
-10 -9 -10 -19z"/>
<path d="M15648 5823 c7 -3 16 -2 19 1 4 3 -2 6 -13 5 -11 0 -14 -3 -6 -6z"/>
<path d="M6770 5730 c0 -64 3 -80 15 -80 12 0 15 16 15 80 0 64 -3 80 -15 80
-12 0 -15 -16 -15 -80z"/>
<path d="M6851 5784 c-12 -15 -21 -39 -21 -54 0 -39 35 -80 69 -80 28 0 61 26
61 48 0 18 -14 14 -28 -8 -26 -43 -72 -17 -72 40 0 55 40 81 70 45 14 -17 30
-20 30 -6 0 19 -32 41 -60 41 -19 0 -36 -9 -49 -26z"/>
<path d="M7252 5787 c-30 -32 -29 -87 1 -115 50 -47 117 -14 117 58 0 73 -71
107 -118 57z m88 -29 c13 -25 13 -31 0 -55 -29 -52 -83 -34 -83 27 0 61 54 79
83 28z"/>
<path d="M7835 5785 c-16 -15 -25 -36 -25 -55 0 -37 39 -80 72 -80 26 0 68 25
68 41 0 5 -7 9 -15 9 -8 0 -15 -4 -15 -9 0 -16 -38 -23 -60 -11 -11 6 -20 17
-20 25 0 11 13 15 55 15 52 0 55 1 55 25 0 32 -33 65 -65 65 -14 0 -37 -11
-50 -25z m83 -22 c14 -23 14 -23 -32 -23 -49 0 -56 8 -30 35 21 20 43 16 62
-12z"/>
<path d="M8172 5794 c-18 -12 -22 -25 -22 -64 0 -39 4 -52 22 -64 53 -37 118
-1 118 65 0 65 -66 100 -118 63z m69 -14 c14 -8 19 -21 19 -51 0 -32 -4 -41
-25 -51 -50 -22 -88 50 -48 94 19 21 27 22 54 8z"/>
<path d="M8472 5794 c-18 -12 -22 -25 -22 -64 0 -39 4 -52 22 -64 53 -37 118
-1 118 65 0 65 -66 100 -118 63z m69 -14 c14 -8 19 -21 19 -51 0 -32 -4 -41
-25 -51 -50 -22 -88 50 -48 94 19 21 27 22 54 8z"/>
<path d="M8617 5758 c9 -29 19 -64 23 -78 13 -47 36 -35 49 25 7 31 15 54 18
52 2 -3 10 -27 17 -54 19 -74 39 -68 64 21 25 86 26 89 11 84 -7 -2 -19 -28
-29 -58 l-17 -55 -12 45 c-7 25 -14 51 -16 58 -10 27 -29 4 -45 -54 l-17 -59
-18 63 c-10 35 -23 62 -31 62 -10 0 -10 -10 3 -52z"/>
<path d="M8840 5730 c0 -47 4 -80 10 -80 6 0 10 33 10 80 0 47 -4 80 -10 80
-6 0 -10 -33 -10 -80z"/>
<path d="M8910 5730 c0 -47 4 -80 10 -80 6 0 10 24 10 54 0 36 5 60 16 70 37
38 64 7 64 -73 0 -29 5 -51 10 -51 7 0 10 27 8 72 -3 69 -4 73 -31 82 -20 7
-34 7 -47 -2 -12 -7 -20 -8 -20 -2 0 5 -4 10 -10 10 -6 0 -10 -33 -10 -80z"/>
<path d="M9088 5790 c-17 -13 -23 -28 -23 -58 0 -55 28 -86 72 -79 28 5 33 3
33 -13 0 -27 -45 -38 -69 -16 -22 20 -31 20 -31 1 0 -36 78 -47 110 -15 17 17
20 33 20 108 l0 87 -45 2 c-30 1 -52 -4 -67 -17z m82 -33 c13 -24 13 -30 0
-54 -19 -33 -42 -40 -64 -18 -33 33 -9 111 32 103 9 -2 23 -15 32 -31z"/>
<path d="M9422 5794 c-23 -16 -29 -34 -11 -34 6 0 17 7 26 16 21 21 58 14 58
-11 0 -15 -9 -21 -35 -25 -48 -8 -60 -17 -60 -44 0 -42 45 -60 91 -36 13 7 19
7 19 0 0 -5 6 -10 13 -10 19 0 10 131 -11 148 -22 17 -63 15 -90 -4z m68 -109
c-16 -19 -44 -19 -59 -1 -14 17 2 32 39 38 28 3 38 -15 20 -37z"/>
<path d="M9588 5790 c-17 -13 -23 -28 -23 -58 0 -55 28 -86 72 -79 28 5 33 3
33 -13 0 -27 -45 -38 -69 -16 -22 20 -31 20 -31 1 0 -36 78 -47 110 -15 17 17
20 33 20 108 l0 87 -45 2 c-30 1 -52 -4 -67 -17z m82 -33 c13 -24 13 -30 0
-54 -19 -33 -42 -40 -64 -18 -33 33 -9 111 32 103 9 -2 23 -15 32 -31z"/>
<path d="M9820 5730 c0 -64 3 -80 15 -80 12 0 15 16 15 80 0 64 -3 80 -15 80
-12 0 -15 -16 -15 -80z"/>
<path d="M9894 5789 c-25 -27 -10 -50 44 -67 47 -16 55 -38 17 -48 -18 -4 -32
-1 -45 11 -23 20 -34 16 -24 -9 13 -35 94 -33 114 3 15 30 2 49 -43 64 -23 7
-42 20 -42 28 0 20 44 24 51 5 7 -17 34 -22 34 -7 0 19 -32 41 -59 41 -15 0
-36 -9 -47 -21z"/>
<path d="M10120 5752 c0 -87 34 -122 91 -92 13 7 19 7 19 0 0 -5 5 -10 10 -10
6 0 10 33 10 80 0 64 -3 80 -15 80 -12 0 -15 -13 -15 -59 0 -64 -15 -87 -50
-76 -17 6 -20 15 -20 71 0 50 -3 64 -15 64 -12 0 -15 -13 -15 -58z"/>
<path d="M10294 5789 c-25 -27 -10 -50 44 -67 47 -16 55 -38 17 -48 -18 -4
-32 -1 -45 11 -23 20 -34 16 -24 -9 13 -35 94 -33 114 3 15 30 2 49 -43 64
-23 7 -42 20 -42 28 0 20 44 24 51 5 7 -17 34 -22 34 -7 0 19 -32 41 -59 41
-15 0 -36 -9 -47 -21z"/>
<path d="M10451 5784 c-59 -75 21 -172 97 -118 25 17 29 34 7 34 -8 0 -15 -4
-15 -9 0 -16 -38 -23 -60 -11 -11 6 -20 17 -20 25 0 11 13 15 55 15 51 0 55 2
55 23 0 61 -81 89 -119 41z m77 -6 c24 -24 13 -38 -28 -38 -43 0 -55 20 -22
39 23 14 36 13 50 -1z"/>
<path d="M10955 5785 c-67 -66 16 -173 93 -119 18 12 22 25 22 64 0 39 -4 52
-22 64 -32 23 -65 20 -93 -9z m77 -12 c24 -21 23 -65 -2 -88 -17 -15 -24 -16
-45 -7 -21 10 -25 19 -25 51 0 28 5 43 18 50 24 14 33 13 54 -6z"/>
<path d="M11190 5730 c0 -64 3 -80 15 -80 12 0 15 13 15 59 0 61 16 89 45 77
11 -4 15 -22 15 -71 0 -50 3 -65 15 -65 10 0 15 16 17 61 5 112 68 104 68 -8
0 -30 4 -53 10 -53 7 0 10 27 8 71 -3 83 -18 101 -66 83 -19 -7 -35 -7 -50 -1
-15 7 -30 7 -47 -1 -15 -7 -25 -8 -25 -2 0 6 -4 10 -10 10 -6 0 -10 -33 -10
-80z"/>
<path d="M11458 5799 c-10 -5 -18 -17 -18 -24 0 -19 9 -19 31 1 21 19 69 12
69 -10 0 -16 -21 -26 -54 -26 -26 0 -56 -29 -56 -54 0 -26 45 -42 81 -29 16 6
29 7 29 2 0 -5 7 -9 16 -9 13 0 15 10 9 68 -4 37 -12 73 -17 80 -12 14 -66 15
-90 1z m82 -83 c0 -37 -64 -62 -77 -31 -7 20 -1 26 39 35 18 4 34 8 36 9 1 1
2 -5 2 -13z"/>
<path d="M11770 5790 c-13 -13 -20 -33 -20 -60 0 -73 73 -107 122 -58 27 27 7
39 -22 13 -23 -21 -48 -17 -68 13 l-14 22 61 0 c53 0 61 2 61 19 0 10 -9 30
-21 45 -25 32 -70 35 -99 6z m71 -10 c34 -19 23 -40 -21 -40 -41 0 -52 14 -28
38 15 15 24 15 49 2z"/>
<path d="M12271 5784 c-59 -75 21 -172 97 -118 25 17 29 34 7 34 -8 0 -15 -4
-15 -9 0 -16 -38 -23 -60 -11 -11 6 -20 17 -20 25 0 11 13 15 55 15 51 0 55 2
55 23 0 61 -81 89 -119 41z m77 -6 c24 -24 13 -38 -28 -38 -43 0 -55 20 -22
39 23 14 36 13 50 -1z"/>
<path d="M15608 5803 c7 -3 16 -2 19 1 4 3 -2 6 -13 5 -11 0 -14 -3 -6 -6z"/>
<path d="M15648 5743 c7 -3 16 -2 19 1 4 3 -2 6 -13 5 -11 0 -14 -3 -6 -6z"/>
<path d="M15608 5723 c7 -3 16 -2 19 1 4 3 -2 6 -13 5 -11 0 -14 -3 -6 -6z"/>
<path d="M15648 5663 c7 -3 16 -2 19 1 4 3 -2 6 -13 5 -11 0 -14 -3 -6 -6z"/>
<path d="M15608 5643 c7 -3 16 -2 19 1 4 3 -2 6 -13 5 -11 0 -14 -3 -6 -6z"/>
<path d="M15648 5583 c7 -3 16 -2 19 1 4 3 -2 6 -13 5 -11 0 -14 -3 -6 -6z"/>
<path d="M15608 5563 c7 -3 16 -2 19 1 4 3 -2 6 -13 5 -11 0 -14 -3 -6 -6z"/>
<path d="M15648 5503 c7 -3 16 -2 19 1 4 3 -2 6 -13 5 -11 0 -14 -3 -6 -6z"/>
<path d="M15608 5483 c7 -3 16 -2 19 1 4 3 -2 6 -13 5 -11 0 -14 -3 -6 -6z"/>
<path d="M6750 5416 c0 -34 -1 -35 -33 -29 -44 7 -70 -22 -70 -79 0 -54 27
-78 89 -76 l44 1 0 108 c0 90 -3 109 -15 109 -10 0 -15 -10 -15 -34z m-11 -60
c27 -32 10 -106 -25 -106 -22 0 -44 30 -44 60 0 48 44 77 69 46z"/>
<path d="M7090 5340 c0 -67 4 -110 10 -110 6 0 10 43 10 110 0 67 -4 110 -10
110 -6 0 -10 -43 -10 -110z"/>
<path d="M7160 5435 c0 -8 5 -15 10 -15 6 0 10 7 10 15 0 8 -4 15 -10 15 -5 0
-10 -7 -10 -15z"/>
<path d="M7650 5415 c0 -33 -2 -35 -25 -29 -16 4 -34 0 -50 -10 -20 -14 -25
-25 -25 -61 0 -62 24 -85 85 -83 l45 2 0 108 c0 89 -3 108 -15 108 -10 0 -15
-11 -15 -35z m-4 -71 c20 -29 11 -70 -19 -88 -15 -9 -22 -7 -38 13 -23 28 -25
64 -3 85 22 23 41 20 60 -10z"/>
<path d="M8301 5424 c-25 -31 -26 -44 -7 -44 8 0 17 9 21 19 8 25 41 36 60 21
21 -18 18 -38 -10 -72 -25 -30 -34 -68 -15 -68 6 0 10 4 10 9 0 4 14 25 30 46
35 44 38 67 10 95 -29 29 -74 26 -99 -6z"/>
<path d="M7810 5411 c0 -11 -6 -22 -12 -24 -10 -4 -10 -7 -1 -14 7 -5 13 -38
15 -73 3 -59 5 -65 26 -68 26 -4 28 3 7 24 -9 9 -15 34 -15 60 0 30 5 46 15
50 8 4 15 10 15 15 0 5 -7 9 -15 9 -8 0 -15 9 -15 20 0 11 -4 20 -10 20 -5 0
-10 -9 -10 -19z"/>
<path d="M8210 5411 c0 -11 -6 -22 -12 -24 -10 -4 -10 -7 -1 -14 7 -5 13 -38
15 -73 3 -59 5 -65 26 -68 26 -4 28 3 7 24 -9 9 -15 34 -15 60 0 30 5 46 15
50 8 4 15 10 15 15 0 5 -7 9 -15 9 -8 0 -15 9 -15 20 0 11 -4 20 -10 20 -5 0
-10 -9 -10 -19z"/>
<path d="M15648 5423 c7 -3 16 -2 19 1 4 3 -2 6 -13 5 -11 0 -14 -3 -6 -6z"/>
<path d="M15608 5403 c7 -3 16 -2 19 1 4 3 -2 6 -13 5 -11 0 -14 -3 -6 -6z"/>
<path d="M6320 5326 c0 -45 5 -69 16 -80 18 -19 55 -21 72 -4 9 9 12 9 12 0 0
-7 5 -12 10 -12 6 0 10 33 10 80 0 47 -4 80 -10 80 -5 0 -10 -24 -10 -54 0
-36 -5 -60 -16 -70 -37 -37 -64 -3 -64 80 0 24 -4 44 -10 44 -6 0 -10 -28 -10
-64z"/>
<path d="M6490 5310 c0 -47 4 -80 10 -80 6 0 10 19 10 43 0 59 9 85 32 92 33
11 48 -12 48 -76 0 -34 4 -59 10 -59 7 0 10 27 8 71 -4 84 -18 101 -68 82 -16
-6 -30 -7 -30 -2 0 5 -4 9 -10 9 -6 0 -10 -33 -10 -80z"/>
<path d="M6835 5365 c-16 -15 -25 -36 -25 -55 0 -37 39 -80 72 -80 26 0 68 25
68 41 0 5 -7 9 -15 9 -8 0 -15 -4 -15 -9 0 -16 -38 -23 -60 -11 -11 6 -20 17
-20 25 0 11 13 15 55 15 52 0 55 1 55 25 0 32 -33 65 -65 65 -14 0 -37 -11
-50 -25z m83 -22 c14 -23 14 -23 -32 -23 -49 0 -56 8 -30 35 21 20 43 16 62
-12z"/>
<path d="M6990 5308 c0 -45 4 -78 10 -78 6 0 10 20 10 44 0 61 15 96 40 96 11
0 20 4 20 9 0 6 -18 9 -40 8 l-40 -1 0 -78z"/>
<path d="M7160 5310 c0 -47 4 -80 10 -80 6 0 10 33 10 80 0 47 -4 80 -10 80
-6 0 -10 -33 -10 -80z"/>
<path d="M7220 5310 c0 -63 3 -80 15 -80 10 0 15 16 17 61 2 45 8 65 20 72 30
19 48 -8 48 -74 0 -46 3 -59 15 -59 11 0 15 12 15 49 0 91 -26 124 -81 104
-16 -7 -29 -7 -29 -2 0 5 -4 9 -10 9 -6 0 -10 -33 -10 -80z"/>
<path d="M7401 5364 c-59 -75 21 -172 97 -118 25 17 29 34 7 34 -8 0 -15 -4
-15 -9 0 -16 -38 -23 -60 -11 -11 6 -20 17 -20 25 0 11 13 15 55 15 51 0 55 2
55 23 0 61 -81 89 -119 41z m77 -6 c24 -24 13 -38 -28 -38 -43 0 -55 20 -22
39 23 14 36 13 50 -1z"/>
<path d="M7901 5364 c-59 -75 21 -172 97 -118 25 17 29 34 7 34 -8 0 -15 -4
-15 -9 0 -16 -38 -23 -60 -11 -11 6 -20 17 -20 25 0 11 13 15 55 15 51 0 55 2
55 23 0 61 -81 89 -119 41z m77 -6 c24 -24 13 -38 -28 -38 -43 0 -55 20 -22
39 23 14 36 13 50 -1z"/>
<path d="M8050 5384 c0 -3 10 -19 21 -36 23 -31 21 -44 -17 -95 -15 -21 -15
-23 -1 -23 9 0 24 14 34 30 9 17 20 30 23 30 3 0 13 -14 22 -30 9 -17 25 -30
34 -30 15 0 15 2 0 23 -38 51 -40 64 -17 95 25 35 26 42 8 42 -8 0 -20 -11
-27 -25 -7 -14 -16 -25 -20 -25 -4 0 -13 11 -20 25 -12 22 -40 35 -40 19z"/>
<path d="M15648 5343 c7 -3 16 -2 19 1 4 3 -2 6 -13 5 -11 0 -14 -3 -6 -6z"/>
<path d="M15608 5323 c7 -3 16 -2 19 1 4 3 -2 6 -13 5 -11 0 -14 -3 -6 -6z"/>
<path d="M15648 5263 c7 -3 16 -2 19 1 4 3 -2 6 -13 5 -11 0 -14 -3 -6 -6z"/>
<path d="M8340 5245 c0 -8 7 -15 15 -15 8 0 15 7 15 15 0 8 -7 15 -15 15 -8 0
-15 -7 -15 -15z"/>
<path d="M15608 5243 c7 -3 16 -2 19 1 4 3 -2 6 -13 5 -11 0 -14 -3 -6 -6z"/>
<path d="M15648 5183 c7 -3 16 -2 19 1 4 3 -2 6 -13 5 -11 0 -14 -3 -6 -6z"/>
<path d="M15608 5163 c7 -3 16 -2 19 1 4 3 -2 6 -13 5 -11 0 -14 -3 -6 -6z"/>
<path d="M15648 5103 c7 -3 16 -2 19 1 4 3 -2 6 -13 5 -11 0 -14 -3 -6 -6z"/>
<path d="M15608 5083 c7 -3 16 -2 19 1 4 3 -2 6 -13 5 -11 0 -14 -3 -6 -6z"/>
<path d="M15648 5023 c7 -3 16 -2 19 1 4 3 -2 6 -13 5 -11 0 -14 -3 -6 -6z"/>
<path d="M15608 5003 c7 -3 16 -2 19 1 4 3 -2 6 -13 5 -11 0 -14 -3 -6 -6z"/>
<path d="M15648 4943 c7 -3 16 -2 19 1 4 3 -2 6 -13 5 -11 0 -14 -3 -6 -6z"/>
<path d="M15608 4923 c7 -3 16 -2 19 1 4 3 -2 6 -13 5 -11 0 -14 -3 -6 -6z"/>
<path d="M15648 4863 c7 -3 16 -2 19 1 4 3 -2 6 -13 5 -11 0 -14 -3 -6 -6z"/>
<path d="M15608 4843 c7 -3 16 -2 19 1 4 3 -2 6 -13 5 -11 0 -14 -3 -6 -6z"/>
<path d="M15648 4783 c7 -3 16 -2 19 1 4 3 -2 6 -13 5 -11 0 -14 -3 -6 -6z"/>
<path d="M15608 4763 c7 -3 16 -2 19 1 4 3 -2 6 -13 5 -11 0 -14 -3 -6 -6z"/>
<path d="M15648 4703 c7 -3 16 -2 19 1 4 3 -2 6 -13 5 -11 0 -14 -3 -6 -6z"/>
<path d="M15608 4683 c7 -3 16 -2 19 1 4 3 -2 6 -13 5 -11 0 -14 -3 -6 -6z"/>
<path d="M6532 4647 c-27 -29 -28 -41 -2 -27 19 10 20 8 20 -55 0 -37 4 -65
10 -65 6 0 10 35 10 85 0 47 -4 85 -8 85 -5 0 -18 -10 -30 -23z"/>
<path d="M6815 4614 c-27 -13 -50 -28 -50 -34 0 -6 24 -21 53 -35 28 -13 52
-20 52 -14 0 5 -16 17 -35 26 -19 9 -35 20 -35 23 0 3 16 14 35 23 19 9 35 21
35 27 0 5 -1 10 -2 9 -2 0 -25 -11 -53 -25z"/>
<path d="M6950 4632 c0 -5 18 -17 40 -27 22 -10 40 -21 40 -25 0 -4 -18 -15
-40 -25 -48 -21 -55 -41 -7 -21 64 27 87 39 87 46 0 4 -12 13 -27 20 -67 31
-93 40 -93 32z"/>
<path d="M6913 4565 c0 -38 2 -53 4 -32 2 20 2 52 0 70 -2 17 -4 1 -4 -38z"/>
<path d="M15648 4623 c7 -3 16 -2 19 1 4 3 -2 6 -13 5 -11 0 -14 -3 -6 -6z"/>
<path d="M15608 4603 c7 -3 16 -2 19 1 4 3 -2 6 -13 5 -11 0 -14 -3 -6 -6z"/>
<path d="M15648 4543 c7 -3 16 -2 19 1 4 3 -2 6 -13 5 -11 0 -14 -3 -6 -6z"/>
<path d="M15608 4523 c7 -3 16 -2 19 1 4 3 -2 6 -13 5 -11 0 -14 -3 -6 -6z"/>
<path d="M6640 4510 c0 -5 5 -10 10 -10 6 0 10 5 10 10 0 6 -4 10 -10 10 -5 0
-10 -4 -10 -10z"/>
<path d="M15648 4463 c7 -3 16 -2 19 1 4 3 -2 6 -13 5 -11 0 -14 -3 -6 -6z"/>
<path d="M15608 4443 c7 -3 16 -2 19 1 4 3 -2 6 -13 5 -11 0 -14 -3 -6 -6z"/>
<path d="M15648 4383 c7 -3 16 -2 19 1 4 3 -2 6 -13 5 -11 0 -14 -3 -6 -6z"/>
<path d="M15608 4363 c7 -3 16 -2 19 1 4 3 -2 6 -13 5 -11 0 -14 -3 -6 -6z"/>
<path d="M15648 4303 c7 -3 16 -2 19 1 4 3 -2 6 -13 5 -11 0 -14 -3 -6 -6z"/>
<path d="M15608 4283 c7 -3 16 -2 19 1 4 3 -2 6 -13 5 -11 0 -14 -3 -6 -6z"/>
<path d="M15648 4223 c7 -3 16 -2 19 1 4 3 -2 6 -13 5 -11 0 -14 -3 -6 -6z"/>
<path d="M15608 4203 c7 -3 16 -2 19 1 4 3 -2 6 -13 5 -11 0 -14 -3 -6 -6z"/>
<path d="M15648 4143 c7 -3 16 -2 19 1 4 3 -2 6 -13 5 -11 0 -14 -3 -6 -6z"/>
<path d="M15608 4123 c7 -3 16 -2 19 1 4 3 -2 6 -13 5 -11 0 -14 -3 -6 -6z"/>
<path d="M15648 4063 c7 -3 16 -2 19 1 4 3 -2 6 -13 5 -11 0 -14 -3 -6 -6z"/>
<path d="M15608 4043 c7 -3 16 -2 19 1 4 3 -2 6 -13 5 -11 0 -14 -3 -6 -6z"/>
<path d="M15648 3983 c7 -3 16 -2 19 1 4 3 -2 6 -13 5 -11 0 -14 -3 -6 -6z"/>
<path d="M15608 3963 c7 -3 16 -2 19 1 4 3 -2 6 -13 5 -11 0 -14 -3 -6 -6z"/>
<path d="M15648 3903 c7 -3 16 -2 19 1 4 3 -2 6 -13 5 -11 0 -14 -3 -6 -6z"/>
<path d="M15608 3883 c7 -3 16 -2 19 1 4 3 -2 6 -13 5 -11 0 -14 -3 -6 -6z"/>
<path d="M15648 3823 c7 -3 16 -2 19 1 4 3 -2 6 -13 5 -11 0 -14 -3 -6 -6z"/>
<path d="M15608 3803 c7 -3 16 -2 19 1 4 3 -2 6 -13 5 -11 0 -14 -3 -6 -6z"/>
<path d="M6505 3750 c-10 -11 -15 -23 -11 -28 4 -4 14 1 21 11 17 23 58 19 63
-6 2 -10 -15 -35 -42 -62 -25 -24 -46 -49 -46 -55 0 -6 24 -10 55 -10 30 0 55
5 55 10 0 6 -19 10 -42 10 l-43 0 43 41 c45 44 52 68 26 93 -21 22 -57 20 -79
-4z"/>
<path d="M7040 3685 c0 -50 4 -85 10 -85 6 0 10 35 10 85 0 50 -4 85 -10 85
-6 0 -10 -35 -10 -85z"/>
<path d="M15648 3743 c7 -3 16 -2 19 1 4 3 -2 6 -13 5 -11 0 -14 -3 -6 -6z"/>
<path d="M6815 3714 c-27 -13 -50 -28 -50 -34 0 -6 24 -21 53 -35 28 -13 52
-20 52 -14 0 5 -16 17 -35 26 -19 9 -35 20 -35 23 0 3 16 14 35 23 19 9 35 21
35 27 0 5 -1 10 -2 9 -2 0 -25 -11 -53 -25z"/>
<path d="M7090 3729 c0 -6 18 -18 40 -26 22 -9 40 -19 40 -23 0 -4 -18 -14
-40 -23 -22 -8 -40 -20 -40 -26 0 -5 24 1 53 13 28 13 52 29 52 36 0 7 -24 23
-52 36 -29 12 -53 18 -53 13z"/>
<path d="M6902 3674 c5 -62 17 -75 65 -71 l33 2 0 63 c0 75 -18 83 -22 10 -2
-42 -7 -54 -22 -56 -25 -5 -36 14 -36 66 0 24 -5 42 -11 42 -8 0 -10 -18 -7
-56z"/>
<path d="M15608 3723 c7 -3 16 -2 19 1 4 3 -2 6 -13 5 -11 0 -14 -3 -6 -6z"/>
<path d="M15648 3663 c7 -3 16 -2 19 1 4 3 -2 6 -13 5 -11 0 -14 -3 -6 -6z"/>
<path d="M15608 3643 c7 -3 16 -2 19 1 4 3 -2 6 -13 5 -11 0 -14 -3 -6 -6z"/>
<path d="M6640 3610 c0 -5 5 -10 10 -10 6 0 10 5 10 10 0 6 -4 10 -10 10 -5 0
-10 -4 -10 -10z"/>
<path d="M15648 3583 c7 -3 16 -2 19 1 4 3 -2 6 -13 5 -11 0 -14 -3 -6 -6z"/>
<path d="M15608 3563 c7 -3 16 -2 19 1 4 3 -2 6 -13 5 -11 0 -14 -3 -6 -6z"/>
<path d="M15648 3503 c7 -3 16 -2 19 1 4 3 -2 6 -13 5 -11 0 -14 -3 -6 -6z"/>
<path d="M15608 3483 c7 -3 16 -2 19 1 4 3 -2 6 -13 5 -11 0 -14 -3 -6 -6z"/>
<path d="M15648 3423 c7 -3 16 -2 19 1 4 3 -2 6 -13 5 -11 0 -14 -3 -6 -6z"/>
<path d="M15608 3403 c7 -3 16 -2 19 1 4 3 -2 6 -13 5 -11 0 -14 -3 -6 -6z"/>
<path d="M15648 3343 c7 -3 16 -2 19 1 4 3 -2 6 -13 5 -11 0 -14 -3 -6 -6z"/>
<path d="M15608 3323 c7 -3 16 -2 19 1 4 3 -2 6 -13 5 -11 0 -14 -3 -6 -6z"/>
<path d="M15648 3283 c7 -3 16 -2 19 1 4 3 -2 6 -13 5 -11 0 -14 -3 -6 -6z"/>
<path d="M15608 3263 c7 -3 16 -2 19 1 4 3 -2 6 -13 5 -11 0 -14 -3 -6 -6z"/>
<path d="M15648 3203 c7 -3 16 -2 19 1 4 3 -2 6 -13 5 -11 0 -14 -3 -6 -6z"/>
<path d="M15608 3183 c7 -3 16 -2 19 1 4 3 -2 6 -13 5 -11 0 -14 -3 -6 -6z"/>
<path d="M15648 3123 c7 -3 16 -2 19 1 4 3 -2 6 -13 5 -11 0 -14 -3 -6 -6z"/>
<path d="M15608 3103 c7 -3 16 -2 19 1 4 3 -2 6 -13 5 -11 0 -14 -3 -6 -6z"/>
<path d="M15648 3043 c7 -3 16 -2 19 1 4 3 -2 6 -13 5 -11 0 -14 -3 -6 -6z"/>
<path d="M15608 3023 c7 -3 16 -2 19 1 4 3 -2 6 -13 5 -11 0 -14 -3 -6 -6z"/>
<path d="M15648 2963 c7 -3 16 -2 19 1 4 3 -2 6 -13 5 -11 0 -14 -3 -6 -6z"/>
<path d="M15608 2943 c7 -3 16 -2 19 1 4 3 -2 6 -13 5 -11 0 -14 -3 -6 -6z"/>
<path d="M15648 2883 c7 -3 16 -2 19 1 4 3 -2 6 -13 5 -11 0 -14 -3 -6 -6z"/>
<path d="M6512 2858 c-7 -7 -12 -19 -12 -27 1 -13 3 -13 15 2 16 23 48 19 53
-6 3 -12 -4 -20 -17 -24 -28 -7 -27 -21 2 -25 16 -2 22 -10 22 -28 0 -32 -40
-41 -60 -13 -7 10 -17 15 -21 11 -12 -12 27 -48 52 -48 12 0 30 7 38 16 17 17
22 59 7 68 -4 3 -6 17 -3 31 2 14 -1 32 -8 40 -15 18 -51 20 -68 3z"/>
<path d="M15608 2863 c7 -3 16 -2 19 1 4 3 -2 6 -13 5 -11 0 -14 -3 -6 -6z"/>
<path d="M6815 2814 c-27 -13 -50 -28 -50 -34 0 -6 24 -21 53 -35 28 -13 52
-20 52 -14 0 5 -16 17 -35 26 -19 9 -35 20 -35 23 0 3 16 14 35 23 19 9 35 21
35 27 0 5 -1 10 -2 9 -2 0 -25 -11 -53 -25z"/>
<path d="M7030 2832 c0 -5 18 -17 40 -27 22 -10 40 -21 40 -25 0 -4 -18 -15
-40 -25 -48 -21 -55 -41 -7 -21 64 27 87 39 87 46 0 4 -12 13 -27 20 -67 31
-93 40 -93 32z"/>
<path d="M6902 2774 c5 -62 17 -75 65 -71 l33 2 0 63 c0 75 -18 83 -22 10 -2
-42 -7 -54 -22 -56 -25 -5 -36 14 -36 66 0 24 -5 42 -11 42 -8 0 -10 -18 -7
-56z"/>
<path d="M15648 2803 c7 -3 16 -2 19 1 4 3 -2 6 -13 5 -11 0 -14 -3 -6 -6z"/>
<path d="M15608 2783 c7 -3 16 -2 19 1 4 3 -2 6 -13 5 -11 0 -14 -3 -6 -6z"/>
<path d="M15648 2723 c7 -3 16 -2 19 1 4 3 -2 6 -13 5 -11 0 -14 -3 -6 -6z"/>
<path d="M6640 2710 c0 -5 5 -10 10 -10 6 0 10 5 10 10 0 6 -4 10 -10 10 -5 0
-10 -4 -10 -10z"/>
<path d="M15608 2703 c7 -3 16 -2 19 1 4 3 -2 6 -13 5 -11 0 -14 -3 -6 -6z"/>
<path d="M15648 2643 c7 -3 16 -2 19 1 4 3 -2 6 -13 5 -11 0 -14 -3 -6 -6z"/>
<path d="M15608 2623 c7 -3 16 -2 19 1 4 3 -2 6 -13 5 -11 0 -14 -3 -6 -6z"/>
<path d="M15648 2563 c7 -3 16 -2 19 1 4 3 -2 6 -13 5 -11 0 -14 -3 -6 -6z"/>
<path d="M15608 2543 c7 -3 16 -2 19 1 4 3 -2 6 -13 5 -11 0 -14 -3 -6 -6z"/>
<path d="M15648 2483 c7 -3 16 -2 19 1 4 3 -2 6 -13 5 -11 0 -14 -3 -6 -6z"/>
<path d="M15608 2463 c7 -3 16 -2 19 1 4 3 -2 6 -13 5 -11 0 -14 -3 -6 -6z"/>
<path d="M15648 2403 c7 -3 16 -2 19 1 4 3 -2 6 -13 5 -11 0 -14 -3 -6 -6z"/>
<path d="M15608 2383 c7 -3 16 -2 19 1 4 3 -2 6 -13 5 -11 0 -14 -3 -6 -6z"/>
<path d="M15648 2323 c7 -3 16 -2 19 1 4 3 -2 6 -13 5 -11 0 -14 -3 -6 -6z"/>
<path d="M15608 2303 c7 -3 16 -2 19 1 4 3 -2 6 -13 5 -11 0 -14 -3 -6 -6z"/>
<path d="M15648 2243 c7 -3 16 -2 19 1 4 3 -2 6 -13 5 -11 0 -14 -3 -6 -6z"/>
<path d="M15608 2223 c7 -3 16 -2 19 1 4 3 -2 6 -13 5 -11 0 -14 -3 -6 -6z"/>
<path d="M15648 2163 c7 -3 16 -2 19 1 4 3 -2 6 -13 5 -11 0 -14 -3 -6 -6z"/>
<path d="M15608 2143 c7 -3 16 -2 19 1 4 3 -2 6 -13 5 -11 0 -14 -3 -6 -6z"/>
<path d="M15648 2083 c7 -3 16 -2 19 1 4 3 -2 6 -13 5 -11 0 -14 -3 -6 -6z"/>
<path d="M15608 2063 c7 -3 16 -2 19 1 4 3 -2 6 -13 5 -11 0 -14 -3 -6 -6z"/>
<path d="M15648 2003 c7 -3 16 -2 19 1 4 3 -2 6 -13 5 -11 0 -14 -3 -6 -6z"/>
<path d="M15608 1983 c7 -3 16 -2 19 1 4 3 -2 6 -13 5 -11 0 -14 -3 -6 -6z"/>
<path d="M6525 1919 c-54 -75 -54 -79 -6 -79 34 0 41 -3 41 -20 0 -11 5 -20
10 -20 6 0 10 9 10 19 0 11 6 22 13 25 10 5 10 7 0 12 -8 3 -13 26 -13 60 0
30 -4 54 -9 54 -5 0 -26 -23 -46 -51z m35 -24 c0 -31 -3 -35 -25 -35 -14 0
-25 3 -25 6 0 8 40 64 46 64 2 0 4 -16 4 -35z"/>
<path d="M6815 1914 c-27 -13 -50 -28 -50 -34 0 -6 24 -21 53 -35 28 -13 52
-20 52 -14 0 5 -16 17 -35 26 -19 9 -35 20 -35 23 0 3 16 14 35 23 19 9 35 21
35 27 0 5 -1 10 -2 9 -2 0 -25 -11 -53 -25z"/>
<path d="M7250 1929 c0 -6 18 -18 40 -26 22 -9 40 -19 40 -23 0 -4 -18 -14
-40 -23 -22 -8 -40 -20 -40 -26 0 -5 24 1 53 13 28 13 52 29 52 36 0 7 -24 23
-52 36 -29 12 -53 18 -53 13z"/>
<path d="M6900 1838 c0 -52 4 -88 10 -88 6 0 10 14 10 30 0 28 2 30 25 24 35
-9 65 20 65 61 0 42 -26 64 -72 62 l-38 -1 0 -88z m86 48 c8 -35 -4 -66 -27
-66 -27 0 -45 41 -30 69 16 29 49 27 57 -3z"/>
<path d="M7040 1863 c0 -36 4 -63 10 -63 6 0 10 25 10 55 0 48 2 55 20 55 11
0 20 4 20 10 0 5 -13 8 -30 7 -30 -2 -30 -2 -30 -64z"/>
<path d="M7127 1912 c-52 -58 17 -143 79 -98 25 19 12 31 -15 14 -15 -9 -26
-10 -38 -2 -34 21 -26 34 21 34 39 0 46 3 46 19 0 46 -62 67 -93 33z m71 -19
c2 -9 -8 -13 -33 -13 -33 0 -36 2 -25 15 15 18 51 16 58 -2z"/>
<path d="M15648 1923 c7 -3 16 -2 19 1 4 3 -2 6 -13 5 -11 0 -14 -3 -6 -6z"/>
<path d="M15608 1903 c7 -3 16 -2 19 1 4 3 -2 6 -13 5 -11 0 -14 -3 -6 -6z"/>
<path d="M15648 1843 c7 -3 16 -2 19 1 4 3 -2 6 -13 5 -11 0 -14 -3 -6 -6z"/>
<path d="M15608 1823 c7 -3 16 -2 19 1 4 3 -2 6 -13 5 -11 0 -14 -3 -6 -6z"/>
<path d="M6640 1810 c0 -5 5 -10 10 -10 6 0 10 5 10 10 0 6 -4 10 -10 10 -5 0
-10 -4 -10 -10z"/>
<path d="M15648 1763 c7 -3 16 -2 19 1 4 3 -2 6 -13 5 -11 0 -14 -3 -6 -6z"/>
<path d="M15608 1743 c7 -3 16 -2 19 1 4 3 -2 6 -13 5 -11 0 -14 -3 -6 -6z"/>
<path d="M15648 1683 c7 -3 16 -2 19 1 4 3 -2 6 -13 5 -11 0 -14 -3 -6 -6z"/>
<path d="M15608 1663 c7 -3 16 -2 19 1 4 3 -2 6 -13 5 -11 0 -14 -3 -6 -6z"/>
<path d="M15648 1603 c7 -3 16 -2 19 1 4 3 -2 6 -13 5 -11 0 -14 -3 -6 -6z"/>
<path d="M15608 1583 c7 -3 16 -2 19 1 4 3 -2 6 -13 5 -11 0 -14 -3 -6 -6z"/>
<path d="M15648 1523 c7 -3 16 -2 19 1 4 3 -2 6 -13 5 -11 0 -14 -3 -6 -6z"/>
<path d="M15608 1503 c7 -3 16 -2 19 1 4 3 -2 6 -13 5 -11 0 -14 -3 -6 -6z"/>
<path d="M15648 1443 c7 -3 16 -2 19 1 4 3 -2 6 -13 5 -11 0 -14 -3 -6 -6z"/>
<path d="M15608 1423 c7 -3 16 -2 19 1 4 3 -2 6 -13 5 -11 0 -14 -3 -6 -6z"/>
<path d="M15648 1363 c7 -3 16 -2 19 1 4 3 -2 6 -13 5 -11 0 -14 -3 -6 -6z"/>
<path d="M15608 1343 c7 -3 16 -2 19 1 4 3 -2 6 -13 5 -11 0 -14 -3 -6 -6z"/>
<path d="M18921 1326 c-8 -9 -11 -50 -9 -117 3 -93 5 -104 22 -107 13 -3 17 0
14 9 -21 57 -21 57 22 56 35 -1 44 3 58 25 9 15 14 30 11 33 -10 9 -39 -6 -39
-21 0 -8 -4 -14 -10 -14 -5 0 -10 7 -10 15 0 8 -7 15 -15 15 -8 0 -15 7 -15
16 0 8 5 12 11 9 17 -11 59 4 59 21 0 8 -10 28 -22 44 -23 32 -58 39 -77 16z
m49 -36 c27 -27 25 -30 -11 -30 -24 0 -30 3 -25 16 3 9 6 20 6 25 0 14 8 11
30 -11z"/>
<path d="M18855 1320 c3 -5 10 -10 16 -10 5 0 9 5 9 10 0 6 -7 10 -16 10 -8 0
-12 -4 -9 -10z"/>
<path d="M15648 1283 c7 -3 16 -2 19 1 4 3 -2 6 -13 5 -11 0 -14 -3 -6 -6z"/>
<path d="M18841 1276 c-7 -8 -20 -12 -29 -9 -11 2 -26 -7 -40 -26 -22 -30 -22
-31 -4 -63 40 -74 54 -89 80 -86 30 4 43 28 15 28 -29 0 -60 26 -47 40 8 8 14
7 24 -5 7 -8 21 -15 31 -15 14 0 19 7 19 29 0 29 -2 30 -50 33 -67 4 -69 22
-2 26 50 3 52 4 52 33 0 22 -5 29 -19 29 -10 0 -24 -6 -30 -14z"/>
<path d="M15608 1263 c7 -3 16 -2 19 1 4 3 -2 6 -13 5 -11 0 -14 -3 -6 -6z"/>
<path d="M15648 1203 c7 -3 16 -2 19 1 4 3 -2 6 -13 5 -11 0 -14 -3 -6 -6z"/>
<path d="M15608 1183 c7 -3 16 -2 19 1 4 3 -2 6 -13 5 -11 0 -14 -3 -6 -6z"/>
<path d="M15648 1123 c7 -3 16 -2 19 1 4 3 -2 6 -13 5 -11 0 -14 -3 -6 -6z"/>
<path d="M15608 1103 c7 -3 16 -2 19 1 4 3 -2 6 -13 5 -11 0 -14 -3 -6 -6z"/>
<path d="M15648 1043 c7 -3 16 -2 19 1 4 3 -2 6 -13 5 -11 0 -14 -3 -6 -6z"/>
<path d="M12590 1030 c-13 -8 -13 -10 0 -10 13 0 13 -1 0 -10 -13 -9 -13 -10
0 -10 13 0 13 -1 0 -10 -13 -9 -13 -10 0 -10 13 0 13 -1 0 -10 -13 -9 -13 -10
0 -10 13 0 13 -1 0 -10 -13 -9 -13 -10 0 -10 13 0 13 -1 0 -10 -13 -9 -13 -10
0 -10 13 0 13 -1 0 -10 -13 -9 -13 -10 0 -10 13 0 13 -1 0 -10 -13 -9 -13 -10
0 -10 13 0 13 -1 0 -10 -13 -9 -13 -10 0 -10 13 0 13 -1 0 -10 -13 -9 -13 -10
0 -10 13 0 13 -1 0 -10 -13 -9 -13 -10 0 -10 13 0 13 -1 0 -10 -13 -9 -13 -10
0 -10 13 0 13 -1 0 -10 -13 -9 -13 -10 0 -10 13 0 13 -1 0 -10 -13 -9 -13 -10
0 -10 13 0 13 -1 0 -10 -13 -9 -13 -10 0 -10 13 0 13 -1 0 -10 -13 -9 -13 -10
0 -10 13 0 13 -1 0 -10 -13 -9 -13 -10 0 -10 13 0 13 -1 0 -10 -13 -9 -13 -10
0 -10 13 0 13 -1 0 -10 -13 -9 -13 -10 0 -10 13 0 13 -1 0 -10 -13 -9 -13 -10
0 -10 13 0 13 -1 0 -10 -13 -9 -13 -10 0 -10 13 0 13 -1 0 -10 -13 -9 -13 -10
0 -10 13 0 13 -1 0 -10 -13 -9 -13 -10 0 -10 13 0 13 -1 0 -10 -13 -9 -13 -10
0 -10 13 0 13 -1 0 -10 -13 -9 -13 -10 0 -10 13 0 13 -1 0 -10 -13 -9 -13 -10
0 -10 13 0 13 -1 0 -10 -13 -9 -13 -10 0 -10 13 0 13 -1 0 -10 -13 -9 -13 -10
0 -10 13 0 13 -1 0 -10 -13 -9 -13 -10 0 -10 13 0 13 -1 0 -11 -11 -7 21 -9
107 -7 194 5 202 17 202 298 0 277 -11 294 -188 297 -59 1 -113 -2 -121 -7z"/>
<path d="M15608 1023 c7 -3 16 -2 19 1 4 3 -2 6 -13 5 -11 0 -14 -3 -6 -6z"/>
<path d="M15648 963 c7 -3 16 -2 19 1 4 3 -2 6 -13 5 -11 0 -14 -3 -6 -6z"/>
<path d="M15608 943 c7 -3 16 -2 19 1 4 3 -2 6 -13 5 -11 0 -14 -3 -6 -6z"/>
<path d="M15648 883 c7 -3 16 -2 19 1 4 3 -2 6 -13 5 -11 0 -14 -3 -6 -6z"/>
<path d="M15608 863 c7 -3 16 -2 19 1 4 3 -2 6 -13 5 -11 0 -14 -3 -6 -6z"/>
<path d="M15648 803 c7 -3 16 -2 19 1 4 3 -2 6 -13 5 -11 0 -14 -3 -6 -6z"/>
<path d="M15608 783 c7 -3 16 -2 19 1 4 3 -2 6 -13 5 -11 0 -14 -3 -6 -6z"/>
<path d="M15648 743 c7 -3 16 -2 19 1 4 3 -2 6 -13 5 -11 0 -14 -3 -6 -6z"/>
<path d="M15608 723 c7 -3 16 -2 19 1 4 3 -2 6 -13 5 -11 0 -14 -3 -6 -6z"/>
<path d="M15648 663 c7 -3 16 -2 19 1 4 3 -2 6 -13 5 -11 0 -14 -3 -6 -6z"/>
<path d="M15608 643 c7 -3 16 -2 19 1 4 3 -2 6 -13 5 -11 0 -14 -3 -6 -6z"/>
<path d="M15648 583 c7 -3 16 -2 19 1 4 3 -2 6 -13 5 -11 0 -14 -3 -6 -6z"/>
<path d="M15608 563 c7 -3 16 -2 19 1 4 3 -2 6 -13 5 -11 0 -14 -3 -6 -6z"/>
<path d="M15648 503 c7 -3 16 -2 19 1 4 3 -2 6 -13 5 -11 0 -14 -3 -6 -6z"/>
<path d="M15608 483 c7 -3 16 -2 19 1 4 3 -2 6 -13 5 -11 0 -14 -3 -6 -6z"/>
<path d="M15648 423 c7 -3 16 -2 19 1 4 3 -2 6 -13 5 -11 0 -14 -3 -6 -6z"/>
<path d="M15608 403 c7 -3 16 -2 19 1 4 3 -2 6 -13 5 -11 0 -14 -3 -6 -6z"/>
<path d="M15648 343 c7 -3 16 -2 19 1 4 3 -2 6 -13 5 -11 0 -14 -3 -6 -6z"/>
<path d="M15608 323 c7 -3 16 -2 19 1 4 3 -2 6 -13 5 -11 0 -14 -3 -6 -6z"/>
<path d="M15648 263 c7 -3 16 -2 19 1 4 3 -2 6 -13 5 -11 0 -14 -3 -6 -6z"/>
<path d="M15608 243 c7 -3 16 -2 19 1 4 3 -2 6 -13 5 -11 0 -14 -3 -6 -6z"/>
<path d="M15648 183 c7 -3 16 -2 19 1 4 3 -2 6 -13 5 -11 0 -14 -3 -6 -6z"/>
<path d="M15608 163 c7 -3 16 -2 19 1 4 3 -2 6 -13 5 -11 0 -14 -3 -6 -6z"/>
<path d="M15648 103 c7 -3 16 -2 19 1 4 3 -2 6 -13 5 -11 0 -14 -3 -6 -6z"/>
<path d="M15608 83 c7 -3 16 -2 19 1 4 3 -2 6 -13 5 -11 0 -14 -3 -6 -6z"/>
<path d="M15648 23 c7 -3 16 -2 19 1 4 3 -2 6 -13 5 -11 0 -14 -3 -6 -6z"/>
<path d="M15608 3 c7 -3 16 -2 19 1 4 3 -2 6 -13 5 -11 0 -14 -3 -6 -6z"/>
</g>
</svg>
