<?xml version="1.0" standalone="no"?>
<!DOCTYPE svg PUBLIC "-//W3C//DTD SVG 20010904//EN"
 "http://www.w3.org/TR/2001/REC-SVG-20010904/DTD/svg10.dtd">
<svg version="1.0" xmlns="http://www.w3.org/2000/svg"
 width="1840.000000pt" height="849.000000pt" viewBox="0 0 1840.000000 849.000000"
 preserveAspectRatio="xMidYMid meet">

<g transform="translate(0.000000,849.000000) scale(0.100000,-0.100000)"
fill="#000000" stroke="none">
<path d="M0 4245 l0 -4245 9200 0 9200 0 0 4245 0 4245 -9200 0 -9200 0 0
-4245z m2518 3849 c39 -15 62 -47 62 -84 0 -17 -7 -20 -49 -20 -41 0 -50 3
-54 21 -4 16 -12 20 -38 17 -41 -4 -62 -33 -36 -52 9 -8 35 -16 56 -20 58 -9
101 -49 102 -94 l1 -37 9 45 c5 25 16 87 25 138 l16 92 45 0 45 0 -7 -57 c-4
-31 -10 -63 -13 -72 -4 -10 8 -4 29 13 18 16 37 37 41 47 11 28 43 23 100 -15
l51 -35 40 27 c32 22 52 27 99 27 73 0 108 -29 115 -96 9 -94 -66 -179 -159
-179 -36 0 -78 -12 -159 -47 -145 -61 -146 -61 -122 100 9 64 14 119 11 122
-10 10 -46 -13 -52 -32 -2 -10 -10 -51 -16 -90 l-12 -73 -49 0 -49 0 7 42 6
42 -32 -36 c-81 -93 -281 -64 -281 41 0 30 1 31 48 31 39 0 49 -4 57 -22 12
-28 61 -36 89 -15 28 21 13 44 -36 57 -105 27 -135 54 -124 114 17 87 138 139
234 100z m12849 -28 c45 -45 62 -86 63 -152 0 -17 7 -37 15 -44 20 -16 19 -56
-1 -64 -9 -3 -28 -6 -43 -6 -20 0 -31 -7 -39 -25 -21 -45 -93 -45 -114 1 -8
17 -19 24 -39 24 -59 0 -74 24 -44 67 8 12 19 51 24 88 9 60 14 71 53 110 24
25 51 44 62 45 10 0 38 -20 63 -44z m-11850 4 c-5 -25 -3 -30 13 -30 25 0 33
-15 26 -46 -5 -17 -13 -24 -30 -24 -26 0 -29 -8 -42 -93 -6 -44 -4 -49 15 -54
15 -4 21 -13 21 -34 0 -28 -2 -29 -48 -29 -75 0 -88 19 -73 115 14 96 14 95
-4 95 -16 0 -18 12 -9 48 4 13 14 22 25 22 13 0 19 7 19 23 0 32 7 37 53 37
39 0 39 -1 34 -30z m-237 -56 l0 -27 25 27 c14 15 35 26 51 26 22 0 25 -3 20
-22 -3 -13 -6 -29 -6 -35 0 -8 -12 -13 -28 -13 -16 0 -38 -9 -50 -20 -21 -20
-27 -39 -40 -135 l-7 -50 -43 -3 c-28 -2 -42 1 -42 9 0 21 41 252 46 261 3 4
21 8 40 8 30 0 34 -3 34 -26z m476 16 c32 -12 53 -37 54 -62 0 -14 -8 -18 -39
-18 -25 0 -41 5 -45 15 -6 16 -43 20 -65 6 -24 -15 -5 -38 38 -45 59 -9 91
-26 98 -53 14 -60 -49 -113 -135 -113 -74 0 -122 28 -122 71 0 15 69 10 96 -7
20 -14 30 -15 49 -6 42 19 30 39 -31 52 -70 15 -98 41 -90 83 3 16 12 37 19
45 30 37 117 53 173 32z m7900 -34 c28 -28 34 -42 34 -76 0 -23 -5 -51 -11
-62 -9 -17 -5 -26 27 -59 49 -50 35 -64 -15 -15 -33 32 -42 36 -59 27 -11 -6
-39 -11 -62 -11 -34 0 -48 6 -76 34 -29 29 -34 41 -34 81 0 40 5 52 34 81 29
29 41 34 81 34 40 0 52 -5 81 -34z m4642 -18 c2 -26 -2 -56 -7 -65 -6 -10 -11
-12 -11 -5 0 7 -15 12 -40 12 -25 0 -40 -5 -40 -12 0 -7 -11 0 -25 16 -26 30
-31 46 -16 46 5 0 14 14 20 31 10 29 12 30 63 27 l53 -3 3 -47z m-8858 -32 c0
-19 4 -23 19 -19 10 3 28 0 40 -6 17 -9 21 -21 21 -56 0 -25 -4 -45 -10 -45
-5 0 -10 15 -10 34 0 41 -23 65 -45 46 -8 -7 -15 -28 -15 -46 0 -19 -4 -34
-10 -34 -6 0 -10 32 -10 75 0 43 4 75 10 75 6 0 10 -11 10 -24z m1510 -51 l0
-75 -44 0 c-50 0 -76 19 -76 55 0 29 41 60 70 52 16 -4 20 0 20 19 0 15 6 24
15 24 12 0 15 -15 15 -75z m218 64 c-2 -6 -8 -10 -13 -10 -5 0 -11 4 -13 10
-2 6 4 11 13 11 9 0 15 -5 13 -11z m132 -62 l0 -74 -45 -1 c-35 -2 -46 2 -55
17 -25 48 7 99 55 87 22 -6 25 -3 25 19 0 14 5 25 10 25 6 0 10 -31 10 -73z
m7030 64 c0 -6 -4 -13 -10 -16 -5 -3 -10 1 -10 9 0 9 5 16 10 16 6 0 10 -4 10
-9z m-9375 -16 c0 -5 -17 -8 -37 -7 -52 5 -50 -20 2 -41 32 -12 40 -21 40 -40
0 -14 -7 -28 -16 -31 -32 -12 -94 -3 -94 13 0 4 19 7 41 7 53 -1 61 18 15 34
-47 15 -61 33 -46 60 9 17 19 21 53 18 23 -2 42 -7 42 -13z m1437 -15 c19 -17
19 -20 5 -20 -13 0 -17 -9 -17 -35 0 -24 5 -35 15 -35 8 0 15 -4 15 -10 0 -16
-47 -11 -54 6 -3 9 -6 29 -6 45 0 16 -5 29 -10 29 -6 0 -5 8 2 20 7 11 16 20
21 20 4 0 17 -9 29 -20z m-1331 -10 c11 -6 19 -21 19 -35 0 -23 -4 -25 -41
-25 -26 0 -38 -4 -34 -11 4 -6 19 -9 33 -8 15 2 28 -1 30 -6 1 -6 -13 -11 -32
-13 -44 -4 -72 31 -57 71 14 36 45 46 82 27z m117 -2 c7 -7 12 -32 12 -56 l0
-43 -42 3 c-38 3 -43 6 -43 28 0 21 5 26 33 28 43 4 37 28 -7 26 -31 -2 -42
10 -18 19 22 10 53 7 65 -5z m107 1 c3 -4 -4 -10 -15 -14 -16 -5 -20 -15 -20
-46 0 -28 -4 -39 -15 -39 -11 0 -15 12 -15 48 0 27 2 51 5 54 9 8 55 6 60 -3z
m101 -4 c18 -15 17 -16 -12 -10 -35 7 -58 -12 -52 -42 3 -13 12 -18 36 -16 43
2 37 -21 -6 -25 -24 -2 -34 2 -47 21 -36 55 29 113 81 72z m292 3 c7 -7 12
-32 12 -56 l0 -43 -42 3 c-38 3 -43 6 -43 28 0 21 5 26 33 28 20 2 32 8 29 15
-2 7 -18 11 -36 9 -17 -1 -31 2 -31 7 0 21 59 28 78 9z m132 -3 c11 -13 8 -15
-20 -13 -36 3 -57 -18 -46 -47 5 -14 14 -16 41 -12 35 6 48 -6 19 -17 -48 -18
-84 1 -84 45 0 51 60 80 90 44z m104 9 c28 -11 17 -26 -13 -19 -24 5 -32 2
-41 -15 -16 -31 5 -54 43 -46 20 4 27 2 25 -7 -7 -19 -63 -20 -82 -2 -43 44 9
112 68 89z m126 -14 c24 -24 25 -38 4 -68 -28 -40 -104 -18 -104 30 0 24 35
58 60 58 11 0 29 -9 40 -20z m62 -22 c3 -38 6 -43 28 -43 22 0 25 5 28 43 4
61 22 52 22 -11 l0 -54 -37 -1 c-49 -2 -63 12 -63 64 0 56 18 57 22 2z m203
26 c17 -17 21 -94 5 -94 -5 0 -10 13 -10 28 0 37 -22 67 -44 59 -11 -4 -16
-19 -16 -47 0 -29 -4 -40 -15 -40 -11 0 -15 12 -15 48 0 27 2 51 5 54 12 12
75 6 90 -8z m195 6 c16 -10 8 -13 -29 -10 -31 2 -23 -22 10 -30 17 -4 24 -13
24 -30 0 -21 -5 -26 -34 -28 -18 -2 -38 1 -44 7 -8 8 0 11 26 11 45 0 49 15 7
24 -35 6 -48 29 -30 51 14 17 48 19 70 5z m158 -2 c7 -7 12 -32 12 -56 l0 -43
-42 3 c-38 3 -43 6 -43 28 0 21 5 26 33 28 20 2 32 8 29 15 -2 7 -18 11 -36 9
-17 -1 -31 2 -31 7 0 21 59 28 78 9z m134 1 c13 -7 18 -21 18 -54 0 -25 -4
-45 -10 -45 -5 0 -10 15 -10 34 0 41 -23 65 -45 46 -8 -7 -15 -28 -15 -46 0
-19 -4 -34 -10 -34 -5 0 -10 24 -10 53 0 54 0 54 32 55 17 0 40 -4 50 -9z
m258 -24 c6 -19 15 -35 19 -35 4 0 15 16 24 35 23 48 42 45 21 -2 -9 -21 -19
-46 -21 -56 -10 -32 -36 -14 -60 41 -17 40 -19 52 -9 52 8 0 20 -16 26 -35z
m120 -20 c0 -42 -3 -55 -15 -55 -11 0 -15 12 -15 48 0 27 3 52 7 55 16 17 23
3 23 -48z m251 34 c29 -29 19 -43 -32 -49 -28 -3 -39 -8 -31 -13 7 -5 23 -7
37 -5 13 2 25 -1 27 -7 4 -15 -61 -18 -78 -4 -19 15 -18 64 2 83 21 22 50 20
75 -5z m123 5 c19 -18 21 -65 4 -82 -17 -17 -64 -15 -82 4 -23 22 -20 60 6 78
29 20 52 20 72 0z m113 -1 c3 -7 -5 -11 -21 -10 -29 2 -36 -17 -7 -21 31 -5
46 -29 31 -48 -15 -17 -87 -16 -82 1 1 5 16 8 32 7 39 -4 39 14 0 23 -23 5
-30 12 -30 30 0 13 6 26 13 29 20 8 60 2 64 -11z m6603 -11 c0 -10 -36 -9 -46
1 -4 4 5 7 19 7 15 0 27 -4 27 -8z m-20 -52 c14 0 31 5 36 10 8 8 15 6 24 -5
11 -13 9 -19 -10 -40 -14 -15 -35 -25 -52 -25 -30 0 -68 30 -68 54 0 18 22 27
35 15 5 -5 21 -9 35 -9z m-62 -39 c12 -16 35 -32 52 -36 37 -8 30 -25 -11 -25
-33 0 -79 20 -99 45 -11 13 -10 18 6 30 26 19 27 19 52 -14z m-6121 -914 c-2
-23 -3 -1 -3 48 0 50 1 68 3 42 2 -26 2 -67 0 -90z m183 -69 c0 -112 3 -322 7
-467 6 -247 7 -263 23 -244 14 18 18 79 28 464 11 398 15 462 25 448 2 -2 0
-112 -4 -244 -4 -132 -8 -329 -8 -437 -1 -191 0 -197 19 -195 20 1 20 8 20
439 0 286 3 438 10 438 6 0 10 -97 9 -272 -2 -606 -1 -638 18 -631 28 11 616
357 803 473 8 5 74 43 145 86 72 42 150 89 175 105 114 71 368 217 397 229 56
21 57 6 2 -30 -29 -19 -121 -73 -204 -121 -350 -204 -466 -273 -471 -281 -3
-4 -10 -6 -15 -3 -5 4 -9 2 -9 -3 0 -9 -350 -222 -364 -222 -3 0 -76 -43 -163
-96 -87 -53 -195 -118 -239 -145 -73 -43 -81 -51 -77 -74 3 -13 9 -22 14 -19
5 3 9 -4 9 -15 0 -11 -5 -23 -12 -27 -6 -4 -8 -3 -4 4 3 6 2 13 -3 17 -6 3
-10 -28 -9 -85 1 -49 5 -90 10 -90 4 0 8 5 8 11 0 6 6 9 14 6 8 -3 17 0 20 8
2 7 16 19 30 27 14 7 67 37 118 67 51 30 131 74 176 98 46 24 104 57 129 74
24 17 70 45 101 63 31 18 97 56 145 85 49 28 95 51 103 51 8 0 14 5 14 10 0 6
8 14 18 17 26 10 151 81 207 118 28 18 85 71 129 117 43 45 112 118 154 161
42 42 73 77 70 77 -6 0 49 54 155 154 21 20 35 40 32 46 -4 6 5 10 21 10 l27
0 -24 -27 c-13 -16 -36 -41 -52 -57 -15 -16 -25 -31 -23 -33 2 -3 -10 -18 -27
-34 l-32 -30 30 5 c17 3 56 8 88 11 43 5 57 10 57 23 0 9 3 12 8 7 5 -6 6 -35
3 -66 l-6 -56 -102 25 -103 24 -119 -114 c-65 -62 -132 -129 -147 -148 l-29
-35 37 28 c20 15 39 27 43 27 3 0 52 27 108 59 56 33 116 63 132 66 l30 7 -25
-22 c-54 -45 -352 -214 -362 -205 -6 6 -89 -81 -173 -179 -27 -32 -81 -88
-120 -125 -124 -117 -325 -326 -325 -336 0 -4 7 -2 15 5 8 7 15 9 15 5 0 -5 9
0 20 10 18 17 20 17 20 1 0 -20 -57 -79 -69 -71 -5 3 -16 -10 -25 -29 -18 -38
-38 -50 -55 -33 -8 8 -17 4 -36 -13 -22 -21 -26 -48 -4 -34 5 3 7 9 4 14 -3 5
-1 11 5 15 6 4 10 -7 10 -26 0 -30 1 -31 31 -25 17 3 38 6 45 6 8 0 14 5 14
10 0 6 -11 10 -25 10 -29 0 -33 17 -7 36 26 21 42 16 42 -11 l0 -25 31 32 c23
25 32 29 39 18 7 -11 11 -10 25 3 9 10 21 15 26 12 5 -4 9 -1 9 4 0 6 -8 11
-17 11 -13 0 -12 4 7 13 14 8 24 20 22 28 -3 11 -1 11 8 2 9 -8 17 -7 33 5 46
38 76 69 71 74 -3 3 12 19 33 34 20 16 60 50 88 76 49 47 75 59 75 37 0 -12
-159 -169 -171 -169 -6 0 -194 -194 -221 -228 -12 -16 -11 -16 7 -2 11 8 24
21 28 28 5 7 13 9 19 6 7 -5 8 -2 3 7 -6 11 -5 11 5 2 10 -9 10 -15 -4 -28
-19 -19 -22 -32 -3 -17 8 7 18 6 31 -4 27 -20 77 -18 138 6 42 16 77 20 163
20 61 0 119 1 130 2 12 2 19 -2 17 -9 -1 -8 9 -13 26 -13 15 0 34 6 41 13 6 6
15 12 19 12 4 1 17 6 29 13 18 10 24 9 35 -5 9 -12 29 -19 63 -21 36 -1 46 1
35 8 -17 11 -10 13 35 10 29 -1 31 1 33 36 2 20 4 41 5 48 3 16 58 38 82 32
28 -6 79 40 96 87 14 41 31 50 29 15 -3 -38 0 -62 6 -55 7 6 43 396 43 452 0
26 -2 27 -9 10 -7 -15 -9 -10 -9 24 -1 33 2 42 13 38 11 -4 15 17 20 101 4 59
16 206 27 327 10 121 19 226 19 233 0 19 49 14 96 -9 31 -15 48 -32 63 -63 20
-40 21 -60 21 -349 0 -198 -4 -307 -10 -307 -5 0 -10 -18 -10 -41 0 -24 4 -38
10 -34 6 3 10 -1 10 -10 0 -9 -4 -13 -10 -10 -5 3 -10 1 -10 -4 0 -6 6 -11 13
-11 6 0 4 -5 -5 -11 -22 -12 -24 -33 -3 -25 22 8 18 -11 -6 -35 -18 -18 -21
-30 -16 -72 3 -32 10 -53 21 -59 22 -12 21 -38 -2 -38 -16 0 -17 -8 -14 -72 4
-86 8 -102 23 -92 9 5 10 -52 6 -227 -3 -129 -8 -252 -11 -274 -3 -22 -14
-152 -26 -290 -11 -137 -27 -329 -36 -425 -8 -96 -23 -278 -34 -405 -11 -126
-20 -237 -20 -246 0 -10 -33 -67 -74 -129 l-73 -112 -6 39 c-3 21 -7 250 -8
508 -1 259 -3 504 -5 545 -1 41 -4 237 -5 435 -2 198 -4 336 -6 307 -5 -65
-10 -67 -148 -77 -55 -4 -181 -16 -280 -26 -99 -11 -236 -26 -305 -34 -69 -7
-163 -16 -210 -20 -74 -5 -235 -23 -377 -42 -29 -4 -43 -11 -43 -20 0 -13 13
-14 88 -8 108 9 96 9 165 -6 42 -9 61 -9 69 -1 8 8 4 11 -15 9 -14 -1 -27 2
-29 7 -4 14 52 27 81 19 22 -6 23 -7 6 -13 -18 -6 -30 -50 -13 -50 4 0 8 7 8
16 0 13 7 15 40 9 39 -7 59 9 23 18 -15 3 -13 6 7 14 14 6 44 13 68 17 33 5
42 3 42 -8 0 -8 5 -18 10 -21 17 -10 51 5 48 22 -4 21 36 32 142 39 47 3 123
9 170 14 111 13 111 13 68 -11 -21 -11 -38 -21 -38 -24 0 -5 9 -1 83 34 35 16
62 21 108 20 39 -2 63 2 68 10 5 8 18 10 34 5 28 -7 27 -2 33 -111 2 -40 0
-43 -30 -48 -17 -2 -56 -6 -86 -7 -49 -3 -55 -1 -52 15 3 16 -1 18 -25 13 -15
-3 -84 -11 -153 -17 -69 -6 -127 -14 -130 -16 -6 -6 192 5 234 13 17 4 26 2
22 -4 -3 -5 -41 -13 -83 -16 -43 -4 -119 -14 -169 -21 -50 -8 -129 -17 -175
-20 -46 -4 -109 -9 -139 -12 -47 -4 -53 -3 -42 9 14 17 6 28 -19 28 -9 0 -19
10 -22 22 -9 31 -22 13 -22 -29 0 -28 -4 -36 -20 -38 -19 -3 -138 -14 -218
-21 -23 -2 -35 1 -31 7 3 6 12 8 19 5 8 -3 19 3 27 11 11 15 11 16 -5 10 -10
-4 -27 -7 -38 -7 -10 0 -19 -6 -19 -14 0 -16 -21 -26 -56 -26 -15 0 -24 -6
-24 -15 0 -13 12 -14 73 -9 39 3 104 10 142 16 39 6 81 10 95 9 14 -1 70 4
125 10 91 10 338 33 460 44 329 28 421 38 427 49 7 10 9 -103 12 -514 l1 -115
-149 -7 c-81 -5 -176 -12 -210 -17 -48 -8 -34 -9 69 -4 72 3 155 6 185 7 l55
1 3 -37 3 -38 -60 0 c-33 0 -61 5 -63 11 -2 7 -36 8 -113 1 -94 -8 -101 -10
-50 -12 l60 -3 -80 -10 c-121 -15 -287 -15 -292 1 -3 6 -9 12 -14 12 -11 0
-12 -37 -1 -43 4 -3 104 1 222 9 118 8 262 15 320 17 95 2 106 4 112 22 3 11
7 -115 9 -280 2 -333 -1 -576 -8 -587 -2 -5 -17 -8 -32 -8 -27 0 -27 -1 -26
-61 1 -59 10 -76 45 -91 3 -2 21 -30 40 -63 18 -33 38 -63 43 -66 5 -3 8 -10
8 -15 -1 -5 1 -29 5 -53 4 -25 1 -75 -7 -114 -12 -65 -17 -75 -63 -119 -54
-50 -72 -49 -35 3 20 29 17 27 -35 -15 -32 -26 -80 -57 -107 -68 -27 -12 -49
-27 -49 -32 0 -21 40 -76 55 -76 8 0 15 5 15 10 0 6 11 10 25 10 14 0 25 5 25
10 0 6 -7 10 -16 8 -33 -6 -23 18 18 44 49 31 58 25 58 -39 0 -47 -10 -54 -72
-51 -55 2 -93 -36 -45 -45 16 -3 13 -5 -10 -6 -18 0 -33 4 -33 9 0 6 -18 10
-40 10 -48 0 -54 22 -11 39 l28 12 -51 102 c-29 56 -77 162 -107 236 -36 89
-60 136 -71 139 -20 5 -23 17 -9 27 14 8 -8 65 -25 65 -10 0 -9 -6 4 -30 15
-27 15 -32 2 -40 -8 -5 -27 -10 -41 -10 -34 0 -46 -16 -52 -66 -3 -23 -13 -53
-22 -67 -20 -32 -12 -52 15 -37 14 7 27 5 49 -8 17 -9 31 -20 31 -24 0 -5 7
-8 16 -8 8 0 12 5 9 10 -3 6 -1 10 4 10 12 0 14 -20 5 -45 -12 -29 -82 -57
-126 -50 -37 7 -39 6 -36 -16 2 -17 13 -27 38 -35 30 -10 36 -17 38 -45 2 -19
8 -39 13 -46 7 -7 6 -14 -1 -18 -13 -8 -4 -43 17 -67 14 -15 12 -18 -22 -32
-43 -18 -98 -56 -91 -63 2 -3 18 6 36 18 23 18 48 24 102 27 70 4 71 4 104
-32 18 -20 41 -36 51 -36 16 1 15 3 -5 19 -46 40 8 74 79 51 27 -9 39 -19 39
-32 0 -11 4 -17 9 -13 6 3 29 7 53 9 24 2 51 7 61 11 10 4 17 3 17 -5 0 -6 6
-18 14 -26 14 -13 13 -23 -10 -86 -10 -27 -34 -31 -35 -5 -1 14 -4 9 -11 -15
-6 -24 -16 -38 -26 -39 -14 -1 -14 -2 1 -6 15 -4 16 -7 6 -20 -17 -20 5 -34
46 -31 26 3 31 -1 40 -29 10 -36 26 -46 20 -13 -2 11 -1 20 3 20 4 0 5 30 2
67 -3 45 -9 67 -17 66 -8 -2 -9 6 -2 30 5 17 9 33 9 35 0 10 49 -35 50 -45 0
-7 5 -13 11 -13 17 0 189 -71 234 -97 22 -12 48 -23 58 -23 16 0 17 -25 17
-380 0 -247 -4 -380 -10 -380 -5 0 -10 -7 -10 -16 0 -8 5 -12 10 -9 7 4 10
-99 10 -300 0 -288 -1 -307 -17 -301 -17 6 -17 5 0 -8 15 -12 17 -35 17 -215
0 -172 -2 -201 -15 -201 -8 0 -15 -7 -15 -15 0 -9 7 -18 15 -21 10 -4 15 -20
15 -51 0 -25 -4 -42 -9 -38 -5 3 -13 1 -16 -5 -5 -8 -11 -7 -21 1 -11 9 -14 9
-14 0 0 -7 12 -17 28 -24 19 -8 28 -21 30 -41 3 -24 1 -28 -15 -22 -17 6 -17
5 0 -8 9 -7 17 -16 17 -20 0 -3 -8 -6 -17 -6 -14 0 -15 -2 -4 -9 11 -7 10 -11
-5 -20 -18 -10 -18 -12 -2 -21 16 -10 17 -13 2 -35 -10 -15 -21 -22 -31 -18
-12 5 -15 2 -10 -10 4 -11 -1 -20 -13 -27 -24 -13 -43 -13 -35 0 3 6 -5 14
-19 20 -14 5 -26 14 -26 20 0 5 -6 10 -13 10 -7 0 -23 18 -35 40 -11 22 -17
40 -12 40 4 0 10 -5 12 -12 2 -6 10 -8 17 -4 7 5 10 15 6 23 -4 13 -3 14 10 3
19 -16 20 -3 0 16 -10 10 -15 11 -15 4 0 -8 -9 -10 -24 -6 -15 4 -26 1 -29 -7
-3 -7 -9 -2 -15 13 l-11 25 0 -24 c-1 -18 -4 -21 -14 -13 -9 8 -17 8 -27 0
-13 -8 -12 -9 2 -5 17 6 48 -21 48 -41 0 -7 7 -12 16 -12 8 0 22 -16 30 -35
13 -31 18 -36 39 -35 7 1 35 -27 35 -34 0 -3 -49 -6 -110 -6 l-110 0 0 35 c0
24 5 35 15 35 8 0 15 5 15 10 0 6 -7 10 -15 10 -21 0 -38 36 -26 57 5 11 6 24
0 34 -5 9 -11 43 -15 75 -3 33 -13 78 -21 102 -9 23 -13 45 -10 48 3 3 29 6
58 7 34 1 60 8 70 18 9 9 21 18 27 20 20 7 1 57 -24 63 -19 5 -24 13 -24 36 0
17 -4 30 -9 30 -6 0 -6 14 0 34 6 22 6 50 0 77 -5 24 -8 46 -5 50 2 4 21 10
41 14 34 6 36 8 20 20 -13 9 -14 14 -5 17 8 3 3 11 -14 22 -29 19 -53 13 -44
-10 3 -8 1 -14 -4 -14 -6 0 -10 -8 -11 -17 0 -14 -3 -13 -11 5 -9 18 -8 25 7
36 10 7 16 19 13 27 -3 8 0 20 8 26 10 10 14 8 19 -8 5 -16 10 -18 18 -10 9 9
8 14 -3 21 -13 8 -13 10 2 10 21 0 29 12 19 28 -10 17 -68 -4 -74 -26 -3 -12
-5 -11 -6 5 0 12 4 25 10 28 7 5 5 15 -5 30 -9 13 -13 32 -9 41 4 11 3 15 -5
10 -15 -9 -27 13 -13 27 13 13 15 31 2 23 -4 -3 -7 12 -5 34 1 22 -2 43 -7 46
-18 11 -23 -6 -12 -36 8 -22 8 -30 -1 -33 -18 -7 -19 -74 -1 -81 8 -3 15 -13
15 -22 0 -12 -3 -14 -12 -6 -10 8 -13 -4 -15 -54 -2 -62 10 -91 28 -63 7 11 9
11 9 -2 0 -9 -8 -19 -18 -21 -17 -5 -20 -20 -24 -145 -4 -89 -11 -150 -20
-166 -20 -38 -108 -113 -148 -125 -19 -6 -82 -12 -140 -13 l-105 -1 2 43 c1
24 7 113 12 197 6 85 11 203 11 262 l0 109 -32 5 c-18 3 -60 7 -93 10 -33 3
-79 12 -103 20 l-42 15 -6 -27 c-3 -15 -10 -43 -14 -62 -4 -19 -13 -73 -20
-120 -21 -148 -30 -183 -58 -219 -20 -27 -27 -49 -28 -83 -2 -82 0 -80 -49
-47 -25 17 -50 39 -55 50 -15 27 -33 24 -26 -4 3 -15 -1 -31 -12 -43 -18 -21
-25 -54 -11 -54 5 0 9 4 9 10 0 5 7 7 15 4 8 -4 15 -12 15 -19 0 -7 7 -16 16
-19 12 -4 15 -15 12 -36 -4 -27 -2 -30 21 -30 14 0 46 -7 71 -16 25 -9 85 -24
134 -34 105 -22 125 -35 41 -27 -33 3 -69 2 -80 -3 -15 -6 -6 -9 35 -11 30 -2
65 -2 77 -1 16 0 25 -6 29 -24 3 -13 10 -21 15 -18 5 3 6 10 3 16 -4 6 1 6 14
-1 26 -14 62 -14 62 -1 0 6 -13 10 -29 10 -43 0 -45 14 -5 29 18 7 34 15 34
19 0 4 -22 17 -48 29 l-47 23 45 -3 c25 -1 44 -6 42 -12 -2 -5 7 -12 20 -15
18 -5 24 -15 29 -45 l6 -40 3 35 c3 32 3 32 7 8 2 -16 9 -28 14 -28 5 0 9 -4
9 -10 0 -5 -7 -10 -15 -10 -8 0 -15 -5 -15 -10 0 -6 -3 -9 -7 -8 -13 4 -53
-22 -84 -54 -26 -27 -32 -30 -54 -20 -20 9 -23 9 -18 -3 3 -8 8 -15 12 -15 3
0 16 -3 29 -6 14 -4 22 -2 22 6 0 13 43 51 69 61 9 3 30 3 48 -1 23 -6 33 -4
37 6 8 21 21 17 53 -14 15 -15 39 -36 53 -45 23 -16 23 -18 8 -34 -14 -14 -20
-14 -33 -3 -22 18 -135 22 -128 4 3 -9 15 -11 36 -8 22 4 28 3 19 -4 -11 -7
-8 -11 12 -16 58 -14 22 -26 -83 -26 -88 0 -110 3 -115 15 -3 8 -14 15 -25 15
-11 0 -21 6 -24 12 -2 7 -2 0 0 -17 3 -23 2 -27 -6 -15 -7 10 -11 11 -11 3 0
-10 -31 -13 -121 -13 -119 0 -120 0 -117 23 3 21 8 22 113 25 60 1 113 6 118
11 8 8 -242 32 -255 24 -5 -2 -8 -14 -8 -26 -1 -42 -23 -57 -81 -57 -37 0 -49
3 -39 9 8 6 18 7 22 5 4 -3 8 -1 8 5 0 5 -18 12 -39 16 -29 5 -38 11 -34 21 3
8 0 14 -6 14 -6 0 -11 -2 -11 -4 0 -2 -3 -11 -6 -19 -3 -9 3 -16 16 -20 12 -3
19 -10 16 -16 -4 -6 -157 -10 -422 -10 l-415 -1 21 22 c27 28 47 63 31 54 -6
-4 -11 -3 -11 2 0 6 7 12 15 16 8 3 15 13 15 23 0 15 -2 16 -10 3 -9 -15 -13
-16 -46 -19 -8 0 -13 -5 -10 -10 3 -5 -4 -21 -15 -35 -12 -15 -18 -33 -15 -41
4 -12 -42 -14 -329 -15 -184 0 -335 3 -335 7 0 5 -10 19 -21 33 l-20 25 6 -33
7 -32 -186 0 c-160 0 -185 2 -180 15 4 8 10 12 15 9 5 -3 9 5 10 18 0 22 1 22
10 3 7 -16 9 -14 6 12 -2 19 1 29 6 26 6 -4 8 2 5 14 -7 26 30 52 43 31 5 -7
9 -21 9 -30 0 -23 5 -23 32 4 20 20 22 20 34 3 12 -16 16 -16 58 9 25 14 48
32 53 38 20 34 3 99 -22 78 -7 -6 -15 -7 -17 -3 -3 4 -3 2 -2 -5 2 -7 -1 -24
-6 -38 -9 -22 -15 -26 -44 -22 -25 3 -32 0 -29 -9 3 -7 0 -13 -6 -13 -6 0 -11
7 -11 15 0 25 -86 20 -100 -5 -6 -11 -16 -20 -23 -20 -7 0 -6 4 3 10 12 8 12
10 -5 10 -11 0 -31 7 -45 15 -27 15 -25 17 40 33 22 5 36 15 38 26 4 17 23 38
85 91 9 8 23 15 31 15 7 0 21 11 30 25 15 23 15 25 -1 25 -13 0 -14 3 -5 12
15 15 16 48 2 48 -5 0 -10 5 -10 11 0 7 12 9 34 5 20 -4 37 -2 41 4 8 12 45
13 45 1 0 -5 -8 -8 -17 -7 -14 1 -18 -6 -17 -31 1 -18 -1 -33 -5 -33 -4 0 -8
-7 -8 -15 0 -18 2 -18 29 -4 15 8 27 8 47 -2 36 -18 63 -19 78 -3 19 19 16 33
-7 27 -16 -4 -19 -2 -14 11 5 13 1 15 -27 10 -31 -6 -32 -5 -16 8 18 13 18 15
-6 25 -24 11 -25 15 -16 50 6 21 26 52 45 70 31 30 48 63 23 48 -6 -4 -13 2
-16 14 -8 31 -17 26 -59 -31 -21 -28 -40 -46 -42 -40 -4 12 35 74 50 80 5 2 5
8 2 14 -3 5 1 15 10 21 89 69 229 204 215 209 -17 6 8 57 33 68 88 35 158 72
158 82 0 5 7 8 15 8 14 0 89 38 130 66 11 8 30 14 42 14 32 0 20 -23 -20 -38
-18 -7 -43 -21 -56 -32 -19 -16 -21 -23 -11 -35 14 -17 5 -35 -17 -35 -16 0
-125 -70 -178 -115 -23 -19 -26 -25 -12 -25 9 0 17 4 17 9 0 5 16 15 35 21 28
9 39 9 50 0 11 -9 23 -9 44 -2 26 9 30 8 35 -11 6 -20 8 -20 21 10 8 18 19 33
25 33 5 0 10 13 10 29 0 20 6 32 19 36 10 3 29 14 41 25 13 11 31 21 42 21 10
1 23 2 30 3 7 1 26 16 43 34 20 21 43 35 67 39 37 5 38 4 57 -38 11 -24 20
-37 20 -29 1 8 14 26 30 40 21 18 30 37 34 68 3 23 1 42 -4 42 -5 0 -9 5 -9
12 0 9 3 9 12 0 18 -18 38 -14 38 8 0 11 -7 20 -15 20 -18 0 -20 16 -2 24 10
5 10 7 0 12 -20 9 -15 34 5 34 24 0 59 26 49 36 -4 5 -12 2 -17 -6 -5 -8 -15
-15 -22 -15 -7 -1 -26 -7 -42 -13 -20 -9 -32 -10 -40 -2 -5 5 -19 10 -30 10
-19 0 -18 -2 4 -13 33 -17 38 -44 8 -49 -17 -2 -22 -8 -20 -22 3 -17 1 -18
-11 -7 -18 14 -87 5 -99 -13 -4 -6 -10 -7 -13 -4 -8 8 24 43 45 50 11 4 8 9
-12 18 -33 15 -29 29 7 22 14 -2 25 0 25 6 0 6 2 17 5 24 8 20 -191 23 -202 4
-19 -33 -123 -54 -123 -25 0 5 -8 9 -19 9 -20 0 -36 -46 -20 -56 15 -9 10 -24
-8 -24 -57 -2 -202 -69 -151 -70 9 -1 7 -4 -4 -10 -23 -14 -70 5 -66 27 2 9
15 20 30 24 15 4 40 16 56 28 18 13 43 20 66 19 20 -1 39 2 43 5 3 4 -3 7 -15
7 -28 0 -29 17 -2 25 24 8 27 25 4 25 -12 0 -15 6 -11 21 8 29 -21 37 -39 10
-8 -11 -20 -21 -26 -21 -16 0 0 81 19 95 16 12 16 14 0 30 -15 15 -18 15 -23
1 -3 -9 -14 -16 -23 -17 -9 0 -29 -9 -46 -19 -16 -11 -60 -34 -98 -52 -71 -35
-79 -49 -31 -59 25 -6 23 -7 -14 -8 -27 -1 -41 3 -37 9 3 6 2 10 -3 10 -5 0
-12 -9 -15 -20 -4 -14 -14 -20 -32 -20 -23 0 -27 -4 -23 -23 4 -20 1 -23 -18
-19 -13 2 -29 10 -35 18 -15 18 -29 18 -29 -1 0 -24 -48 -18 -71 9 -16 18 -27
23 -42 17 -24 -9 -67 -2 -67 11 0 5 15 6 35 2 28 -5 35 -3 35 10 0 9 8 16 20
16 11 0 20 5 20 10 0 6 -6 10 -13 10 -7 0 -21 11 -31 25 -10 14 -26 25 -35 25
-9 0 -22 9 -29 21 -7 12 -16 19 -18 16 -10 -9 29 -59 53 -68 31 -12 29 -27 -2
-21 -18 3 -25 0 -23 -9 3 -15 -13 -16 -52 -4 -22 7 -23 6 -11 -9 12 -14 11
-16 -11 -16 -27 0 -78 -21 -78 -32 0 -5 -7 -8 -16 -8 -11 0 -8 6 10 23 22 21
24 26 12 42 -9 13 -15 15 -20 7 -4 -7 -19 -12 -34 -12 -19 0 -23 3 -13 9 9 6
1 13 -30 24 -50 18 -24 22 34 6 33 -9 42 -8 58 7 10 9 16 21 13 25 -3 5 4 9
15 9 12 0 21 5 21 10 0 6 8 10 18 11 9 0 -8 7 -38 14 -34 8 -59 10 -64 4 -6
-5 -2 -9 12 -9 15 0 20 -4 15 -16 -3 -9 -9 -11 -12 -6 -3 5 -22 13 -41 17 -33
6 -34 6 -15 -8 11 -9 17 -19 13 -23 -4 -4 -14 -1 -22 5 -9 7 -24 10 -37 6 -17
-6 -19 -9 -8 -16 10 -6 8 -9 -9 -9 -13 0 -21 4 -18 9 3 5 -5 12 -19 15 -33 8
-33 25 0 18 14 -2 25 0 25 6 0 15 -37 21 -70 12 -18 -5 -32 -5 -36 1 -3 5 -10
7 -15 3 -5 -3 -23 -3 -39 1 -21 5 -30 13 -30 26 0 16 7 19 48 19 40 0 48 3 48
18 0 17 -5 18 -44 9 -47 -10 -58 -6 -49 18 4 9 19 15 42 15 19 0 35 5 35 10 0
6 -18 10 -40 10 -29 0 -40 4 -40 15 0 12 14 15 73 14 166 -1 185 1 192 18 3
10 1 19 -4 21 -6 2 -11 8 -11 13 0 5 10 5 23 0 27 -10 89 -2 81 10 -3 5 0 9 5
9 6 0 11 7 11 15 0 11 -11 15 -39 15 -22 0 -41 -4 -43 -10 -1 -5 -25 -13 -53
-16 -47 -6 -49 -5 -30 9 11 9 29 17 40 18 11 1 4 5 -15 8 -40 8 -63 1 -34 -10
13 -5 7 -8 -23 -8 -44 -1 -52 -8 -31 -29 9 -9 7 -12 -13 -12 -13 0 -35 -3 -48
-7 -21 -5 -22 -4 -12 16 7 11 16 21 22 21 6 0 18 7 27 16 15 15 13 16 -19 8
-57 -13 -99 -12 -99 3 0 8 12 13 30 13 23 0 30 5 30 19 0 14 10 21 35 25 19 4
39 14 43 23 7 12 18 14 40 10 21 -4 32 -2 36 8 4 11 -2 15 -24 15 -17 0 -30 4
-30 9 0 5 -18 4 -41 -1 -36 -10 -42 -8 -54 9 -10 14 -22 19 -40 16 -23 -5 -25
-2 -25 31 0 21 5 37 13 37 6 1 21 3 32 5 11 2 44 7 74 10 57 7 95 35 86 62 -3
8 3 21 12 30 16 16 15 17 -13 23 l-29 6 35 10 c19 6 29 12 23 12 -44 3 37 43
112 56 22 4 47 13 57 22 9 8 25 13 35 12 10 -1 31 3 46 9 37 16 52 15 67 -3
10 -12 26 -14 74 -9 33 3 66 10 72 15 18 15 23 47 9 53 -18 6 -25 66 -8 66 7
0 13 4 13 8 0 4 16 14 35 21 36 13 45 37 24 58 -9 9 -6 13 14 18 24 6 46 45
25 45 -20 0 -38 30 -38 64 0 19 -4 38 -10 41 -14 9 -5 50 11 50 8 0 13 -6 11
-13 -4 -20 68 -11 79 10 5 10 6 18 1 18 -5 0 -15 11 -22 25 -7 14 -20 25 -29
25 -13 1 -12 4 4 15 38 27 45 36 45 54 0 20 -36 35 -46 20 -10 -17 -44 -10
-44 10 0 11 -6 22 -12 24 -10 4 -10 8 2 16 8 5 19 7 25 3 5 -4 24 -7 42 -7 23
0 33 5 37 19 3 12 10 16 21 12 10 -3 14 -2 9 5 -3 6 -19 9 -35 5 -15 -3 -31
-1 -34 4 -3 6 -19 10 -36 10 -20 0 -29 5 -29 16 0 10 6 14 14 11 10 -4 13 -1
9 9 -4 11 -13 13 -27 9 -41 -12 -51 -10 -54 13 -3 21 -22 32 -22 12 0 -22 -18
-8 -23 18 -14 71 -29 114 -52 148 -14 20 -25 32 -25 27 0 -6 -17 -10 -37 -9
-30 1 -37 5 -35 19 2 11 -4 17 -17 17 -28 0 -40 58 -15 77 10 7 14 13 10 13
-5 0 -2 8 5 17 12 15 12 16 -3 10 -23 -8 -23 12 -1 28 15 11 15 17 5 39 -7 15
-17 24 -22 21 -6 -3 -10 -1 -10 4 0 6 5 11 11 11 5 0 7 5 4 10 -3 6 -1 10 4
10 6 0 11 5 11 11 0 5 -4 7 -10 4 -5 -3 -10 1 -10 9 0 20 -9 20 -34 1 -16 -12
-17 -17 -5 -31 17 -21 20 -41 13 -87 -4 -25 -10 -37 -18 -34 -15 6 -42 -33
-29 -42 16 -11 22 -38 10 -50 -15 -15 -17 -80 -2 -75 18 7 42 -25 26 -35 -9
-6 -8 -11 4 -21 17 -14 20 -46 5 -55 -6 -3 -18 7 -27 23 l-17 30 -20 -26 c-11
-13 -20 -40 -20 -58 -1 -19 -4 -34 -8 -34 -5 0 -8 -9 -8 -20 0 -16 -6 -20 -30
-18 -28 2 -30 5 -30 45 0 24 5 43 10 43 6 0 10 5 10 10 0 7 -13 8 -35 4 -31
-5 -35 -4 -35 15 0 11 -4 21 -10 21 -5 0 -10 -2 -10 -4 0 -2 -3 -11 -6 -20 -4
-11 -1 -16 10 -16 9 0 17 -3 17 -7 1 -5 3 -23 5 -42 2 -19 9 -40 15 -47 6 -8
9 -20 6 -27 -3 -7 4 -19 15 -26 16 -10 19 -9 16 6 -2 11 4 19 16 21 19 4 19 3
4 -19 -8 -13 -25 -25 -37 -27 -11 -2 -21 -9 -21 -16 0 -8 -14 -20 -32 -29 -36
-17 -75 -8 -70 16 1 9 -7 22 -18 30 -28 19 -57 117 -38 128 15 10 8 11 -49 9
l-43 -2 0 100 0 99 40 7 c22 3 40 11 40 16 0 5 -18 13 -40 16 l-40 7 0 172 c0
170 0 173 23 180 l22 8 -22 4 c-26 5 -31 23 -8 23 21 0 19 30 -2 31 -14 0 -13
2 5 9 27 12 29 24 2 15 -16 -5 -20 -2 -20 14 0 13 5 19 14 15 8 -3 17 -1 21 5
3 7 -2 11 -14 11 -12 0 -21 7 -21 15 0 8 9 15 20 15 13 0 18 5 14 15 -4 8 -12
15 -20 15 -22 0 -16 37 6 43 13 3 18 11 14 20 -3 8 -1 18 5 22 7 4 11 -5 11
-23 0 -26 3 -28 29 -24 19 3 30 -1 34 -12 4 -10 1 -16 -8 -16 -8 0 -18 -6 -22
-14 -4 -7 -15 -16 -23 -19 -9 -3 -5 -6 10 -6 15 -1 30 -5 35 -9 6 -5 67 -4
138 1 l127 10 0 64 c0 40 4 62 10 58 6 -3 10 -33 10 -66 0 -59 0 -59 30 -59
l30 0 0 69 c0 50 4 74 16 85 14 15 14 17 0 22 -14 5 -16 29 -16 163 0 86 4
162 9 170 13 21 275 38 293 20 9 -10 12 -44 11 -119 -1 -58 -2 -131 -2 -162
l-1 -58 -37 -1 -38 -1 35 -10 c31 -9 33 -11 15 -19 -18 -7 -18 -8 5 -8 24 -1
25 -3 22 -66 -2 -36 0 -65 5 -65 4 0 9 27 9 60 1 47 5 64 20 74 10 8 23 12 28
9 4 -3 13 1 18 8 7 11 11 11 15 2 2 -7 9 -13 14 -13 6 0 7 5 4 10 -9 14 48 13
63 -2 8 -8 12 -8 12 -1 0 6 15 9 35 7 19 -1 38 2 41 8 4 6 10 5 15 -3 6 -10 9
-11 9 -1 0 6 7 12 15 12 8 0 15 -4 15 -10 0 -16 60 -12 66 5 5 11 23 15 71 15
40 0 62 -4 58 -10 -3 -5 -1 -10 4 -10 6 0 11 5 11 11 0 6 9 8 21 4 18 -6 20
-5 10 14 -12 22 -45 28 -56 11 -7 -12 -102 -10 -127 2 -16 8 -18 26 -18 169 0
147 2 162 20 182 l20 21 -25 13 -25 14 0 149 c0 87 5 159 11 173 10 22 20 25
123 36 145 14 184 14 201 -2 10 -10 13 -54 14 -171 1 -164 -5 -186 -43 -186
-9 0 -16 -5 -16 -11 0 -7 10 -9 24 -5 18 4 25 2 28 -11 3 -15 4 -15 20 0 12
13 48 20 130 28 62 6 115 13 117 15 2 1 -7 17 -19 33 -11 17 -18 36 -15 41 4
6 2 9 -3 8 -6 -2 -26 18 -46 44 -36 46 -36 48 -36 145 0 66 -4 103 -12 112
-11 10 -10 14 5 22 26 15 21 30 -9 23 -26 -7 -41 4 -77 56 -23 33 -21 50 6 51
15 0 10 5 -18 14 l-40 13 35 1 c20 1 41 6 47 12 8 8 14 2 24 -20 8 -17 19 -31
26 -31 7 0 20 -15 29 -32 9 -18 22 -37 28 -41 8 -6 7 -10 -1 -14 -21 -8 -15
-26 6 -20 22 5 31 -10 31 -55 l0 -30 82 7 c45 3 85 8 90 11 4 3 8 20 7 37 -1
28 -2 29 -8 8 -6 -22 -7 -22 -23 13 -10 20 -22 36 -28 36 -5 0 -10 9 -10 21 0
17 -4 20 -24 15 -14 -3 -36 -1 -50 6 -28 12 -36 48 -11 48 10 0 15 10 15 30 0
17 5 30 10 30 6 0 10 -9 10 -20 0 -11 4 -20 9 -20 5 0 8 7 7 17 -1 16 47 37
58 25 3 -3 6 -37 7 -76 0 -39 3 -65 6 -58 2 6 18 12 34 12 16 0 29 5 29 11 0
7 -11 9 -30 6 -28 -6 -30 -4 -30 22 0 26 4 29 38 33 20 3 39 1 40 -4 2 -4 8
-6 13 -2 5 3 9 -4 9 -15 0 -12 7 -21 15 -21 19 0 19 -26 0 -81 -19 -52 -15
-66 19 -66 22 0 24 3 19 28 -3 18 -1 29 6 29 6 0 11 -11 11 -25 0 -21 5 -25
30 -25 l29 0 -2 70 c-1 39 -6 70 -10 70 -4 0 -12 10 -17 23 -6 17 -4 26 11 39
25 21 24 30 -3 26 -17 -2 -23 2 -23 17 0 17 6 19 33 17 24 -3 32 0 32 12 0 12
-10 16 -40 16 -40 0 -40 0 -40 -37 -1 -32 -2 -35 -11 -19 -7 11 -9 42 -5 80 5
45 4 56 -4 44 -15 -25 -45 -22 -58 6 -6 13 -14 71 -18 130 -4 58 -10 103 -15
101 -4 -3 -5 -25 -3 -50 5 -41 3 -45 -16 -45 -18 0 -21 5 -20 33 4 69 0 103
-10 87 -8 -12 -10 -9 -10 12 0 15 -4 29 -9 32 -4 3 -14 26 -21 52 l-13 46 -56
-6 c-147 -14 -158 -17 -170 -42 -6 -14 -17 -27 -25 -30 -12 -4 -14 -20 -9 -74
7 -82 -2 -140 -23 -140 -17 0 -56 20 -66 35 -4 6 -8 27 -8 47 0 23 -10 51 -25
74 -14 20 -25 47 -25 60 0 20 -5 24 -32 24 -36 0 -139 -17 -181 -30 -21 -7
-30 -5 -34 6 -3 7 0 91 6 186 10 141 15 175 28 186 29 21 38 8 38 -60 0 -37
-3 -64 -7 -61 -5 2 -8 -20 -7 -49 0 -39 2 -48 9 -32 7 18 20 22 91 27 45 4 84
9 87 12 3 3 4 56 3 119 -1 72 2 116 8 121 7 4 11 -7 11 -30 0 -31 3 -36 18
-30 38 16 53 17 67 5 13 -11 15 11 15 185 0 109 2 196 5 194 2 -3 5 -95 6
-204 2 -185 4 -196 15 -150 13 50 13 49 9 -38 -3 -48 -2 -99 1 -113 5 -21 8
-23 18 -9 12 16 21 22 96 64 l43 23 -6 499 c-4 309 -2 499 4 499 5 0 9 -83 9
-202z m1890 170 c0 -18 -5 -40 -10 -48 -7 -11 -10 -2 -10 33 0 26 5 47 10 47
6 0 10 -15 10 -32z m-2690 -139 c95 -43 150 -129 150 -234 -1 -105 -52 -187
-145 -231 -48 -23 -58 -24 -305 -24 -247 0 -257 1 -305 24 -93 44 -145 126
-145 231 0 105 52 187 145 231 49 23 58 24 305 24 235 0 259 -2 300 -21z m617
-156 c-2 -16 -4 -3 -4 27 0 30 2 43 4 28 2 -16 2 -40 0 -55z m-8270 25 c20
-18 23 -19 23 -5 0 11 8 17 25 17 22 0 25 -4 25 -39 0 -29 7 -48 25 -67 28
-30 32 -46 10 -38 -13 5 -15 -6 -15 -69 0 -81 -4 -87 -60 -87 -28 0 -29 2 -32
58 -3 56 -3 57 -35 60 l-32 3 -3 -58 -3 -58 -45 0 -45 0 -3 78 c-2 64 -6 78
-17 73 -8 -3 -15 -2 -15 3 0 14 144 151 159 151 8 0 25 -10 38 -22z m408 -53
c0 -5 -21 -11 -47 -13 -43 -3 -48 -5 -48 -28 0 -22 4 -24 46 -24 59 0 55 -24
-4 -28 -39 -3 -42 -5 -42 -33 0 -19 -5 -29 -15 -29 -12 0 -15 16 -15 85 l0 86
63 -3 c34 -2 62 -7 62 -13z m376 -20 c12 -19 25 -35 29 -35 5 0 18 16 30 35
25 40 59 51 39 13 -7 -13 -20 -35 -30 -50 -11 -14 -19 -42 -19 -62 0 -29 -4
-36 -20 -36 -16 0 -20 7 -20 31 0 17 -14 56 -31 85 -24 44 -27 54 -14 54 8 0
25 -16 36 -35z m9343 -42 c-63 -74 -515 -523 -527 -523 -5 0 -7 4 -5 9 6 18
569 583 575 577 3 -3 -16 -31 -43 -63z m-9581 6 c46 -63 -35 -130 -101 -83
-28 20 -29 67 -1 95 28 28 76 22 102 -12z m117 16 c0 -7 -9 -15 -20 -18 -16
-4 -20 -14 -20 -51 0 -39 -3 -46 -20 -46 -18 0 -20 7 -20 58 0 32 2 61 5 63
11 12 75 6 75 -6z m340 -5 c41 -41 10 -110 -47 -110 -34 0 -46 8 -62 37 -15
30 -14 36 10 67 25 32 70 35 99 6z m82 -27 c3 -44 5 -48 28 -48 23 0 25 4 28
48 2 33 7 47 18 47 11 0 14 -15 14 -64 l0 -63 -47 -1 c-26 -1 -53 4 -60 10
-19 15 -18 118 1 118 11 0 16 -14 18 -47z m7187 -25 c-1 -18 -5 -46 -9 -63 -6
-24 -8 -17 -9 33 0 35 3 62 9 62 6 0 9 -15 9 -32z m2021 -8 c0 -5 -4 -10 -10
-10 -5 0 -10 5 -10 10 0 6 5 10 10 10 6 0 10 -4 10 -10z m5144 -131 c65 -72
62 -95 -4 -38 l-35 30 -5 -88 c-4 -69 -8 -88 -20 -88 -12 0 -16 19 -20 88 l-5
88 -35 -30 c-36 -31 -50 -37 -50 -22 0 18 92 111 110 111 10 0 39 -23 64 -51z
m-6185 -72 c-2 -1 -12 -9 -22 -16 -15 -12 -17 -12 -11 3 3 9 13 16 22 16 8 0
13 -1 11 -3z m-119 -77 c0 -5 -7 -10 -16 -10 -8 0 -12 5 -9 10 3 6 10 10 16
10 5 0 9 -4 9 -10z m-60 -30 c0 -5 -5 -10 -11 -10 -5 0 -7 5 -4 10 3 6 8 10
11 10 2 0 4 -4 4 -10z m-60 -50 c0 -5 -9 -10 -20 -10 -11 0 -20 -4 -20 -10 0
-5 -6 -10 -13 -10 -7 0 -18 -9 -25 -20 -7 -11 -21 -20 -32 -20 -10 0 -35 -13
-53 -30 -19 -16 -39 -30 -45 -30 -6 0 -12 -5 -14 -10 -5 -16 -48 -21 -48 -6 0
15 42 46 62 46 8 0 20 9 28 20 8 11 20 20 26 20 6 0 17 7 24 15 10 12 10 15
-1 15 -11 0 -11 2 1 10 9 6 17 5 21 -1 8 -14 56 -1 63 17 6 16 46 19 46 4z
m-290 -120 c0 -5 -7 -7 -15 -4 -8 4 -15 8 -15 10 0 2 7 4 15 4 8 0 15 -4 15
-10z m670 -10 c-6 -11 -15 -20 -20 -20 -6 0 -2 9 7 20 10 11 19 20 21 20 1 0
-2 -9 -8 -20z m-696 -15 c-4 -8 -1 -15 5 -15 6 0 11 -9 11 -20 0 -11 -4 -20
-10 -20 -5 0 -10 -11 -10 -25 0 -17 -5 -25 -18 -25 -10 0 -23 -5 -30 -12 -9
-9 -12 1 -12 48 0 65 11 84 47 84 16 0 21 -4 17 -15z m642 -40 c-11 -8 -24
-15 -30 -15 -5 0 -1 7 10 15 10 8 24 14 29 14 6 0 1 -6 -9 -14z m31 -41 c-3
-3 -12 -4 -19 -1 -8 3 -5 6 6 6 11 1 17 -2 13 -5z m-147 -83 c0 -6 -4 -13 -10
-16 -5 -3 -10 1 -10 9 0 9 5 16 10 16 6 0 10 -4 10 -9z m-9200 -36 c32 -17 60
-61 60 -96 0 -12 14 -37 31 -56 16 -19 28 -40 26 -46 -2 -7 -29 -13 -63 -14
-32 -1 -78 -5 -100 -8 -70 -11 -134 40 -134 106 0 12 -14 37 -31 56 -16 19
-28 40 -26 46 2 7 28 12 65 12 33 0 64 3 68 8 13 12 73 8 104 -8z m9227 -7
c-3 -8 -6 -5 -6 6 -1 11 2 17 5 13 3 -3 4 -12 1 -19z m-8497 -88 c0 -53 -4
-90 -10 -90 -6 0 -10 37 -10 90 0 53 4 90 10 90 6 0 10 -37 10 -90z m-350 70
c0 -5 -22 -10 -50 -10 -49 0 -50 -1 -50 -30 0 -29 2 -30 48 -32 l47 -2 -47 -3
c-46 -4 -48 -6 -48 -34 0 -28 1 -29 49 -29 28 0 53 -4 56 -10 4 -6 -17 -10
-54 -10 l-61 0 0 85 0 85 55 0 c30 0 55 -4 55 -10z m8785 -50 c-6 -9 -9 -9
-16 1 -10 17 0 34 13 21 6 -6 7 -16 3 -22z m-8680 -6 c10 15 20 24 22 22 3 -3
-4 -18 -15 -33 l-21 -29 25 -32 c14 -18 21 -32 15 -32 -6 0 -18 12 -28 26
l-17 26 -23 -27 c-30 -34 -41 -27 -13 8 25 31 25 39 0 62 -11 10 -20 23 -20
28 0 6 13 -2 29 -17 l29 -28 17 26z m104 16 c28 14 57 5 77 -26 34 -51 -23
-112 -81 -86 -22 10 -24 9 -28 -26 -2 -20 -4 6 -5 58 -1 56 2 89 7 81 7 -10
13 -11 30 -1z m289 -17 c31 -41 0 -103 -52 -103 -53 0 -78 84 -33 115 25 18
66 12 85 -12z m88 17 c15 6 24 6 24 0 0 -6 -6 -10 -14 -10 -20 0 -29 -17 -37
-70 -6 -40 -6 -37 -7 25 0 39 2 65 4 58 4 -8 13 -9 30 -3z m139 -15 c37 -36
31 -45 -30 -45 -60 0 -69 -11 -30 -36 21 -14 31 -15 50 -6 14 7 25 8 25 3 0
-11 -25 -21 -53 -21 -54 0 -79 83 -35 114 31 22 45 20 73 -9z m8214 -8 c-2 -1
-15 -11 -29 -22 l-25 -20 19 23 c11 12 24 22 29 22 6 0 8 -1 6 -3z m-893 -54
c7 -10 14 -28 14 -40 0 -12 6 -26 14 -30 19 -11 56 -101 50 -118 -4 -8 -13
-15 -21 -15 -8 0 -21 -7 -29 -15 -13 -13 -12 -20 11 -62 14 -26 25 -59 25 -72
0 -30 -26 -61 -52 -61 -15 0 -18 9 -20 53 l-1 52 -6 -50 c-5 -38 -10 -51 -25
-53 -28 -6 -34 6 -46 101 -9 69 -9 95 0 118 15 36 37 38 50 4 12 -32 20 -32
20 0 0 17 -7 28 -23 34 -15 6 -26 23 -35 55 -19 71 -16 91 16 103 39 15 43 15
58 -4z m-588 -176 l-3 -182 -34 -3 c-26 -3 -31 -6 -20 -13 10 -7 0 -9 -31 -7
-25 1 -51 -1 -57 -5 -20 -13 -130 -18 -157 -8 -25 10 -25 11 -29 138 l-3 128
-2 -131 c-2 -125 -3 -131 -24 -142 l-23 -11 22 0 c21 -1 21 -4 23 -176 1 -174
1 -175 -22 -184 -13 -5 -30 -6 -38 -4 -8 2 -4 -2 10 -10 l25 -15 -30 -5 c-25
-3 -24 -4 10 -5 l40 -2 -3 -157 c-2 -87 -6 -161 -10 -165 -4 -4 -23 -8 -43 -9
-26 -2 -35 -7 -32 -16 3 -8 -3 -13 -17 -13 -14 0 -19 4 -14 13 6 10 4 10 -7 0
-7 -7 -16 -13 -20 -13 -3 0 -7 37 -8 82 -3 105 -11 116 -11 15 l0 -77 -37 -1
-38 -2 40 -7 40 -7 -35 -2 c-19 -1 -46 -4 -60 -6 -21 -5 -22 -4 -5 4 17 7 15
9 -15 12 l-35 4 -2 157 c-3 178 -10 164 90 172 l57 5 2 -42 1 -42 6 45 c7 50
-6 64 -47 49 -31 -12 -32 -12 -25 9 6 16 6 16 -10 0 -16 -16 -19 -16 -47 0
l-30 17 -2 105 -2 105 -5 -110 -6 -110 -35 -3 -35 -4 30 -13 c30 -13 30 -13
-22 -14 -32 -1 -53 4 -56 12 -3 6 -6 2 -6 -9 -1 -21 2 -21 65 -16 l65 5 -1
-69 c-1 -38 -4 -110 -7 -161 l-6 -91 -58 -7 c-34 -4 -59 -12 -59 -18 0 -7 -5
-4 -11 5 -9 16 -39 15 -39 -2 0 -11 50 -19 56 -9 3 5 18 8 32 7 15 -1 34 2 41
7 9 5 12 4 8 -2 -4 -6 5 -14 19 -17 l27 -7 -6 -160 c-6 -205 -2 -200 -161
-206 -137 -6 -152 1 -147 71 1 25 -2 46 -7 46 -4 0 -7 -12 -5 -27 3 -16 0 -41
-6 -56 -9 -23 -15 -27 -33 -21 -20 6 -21 5 -9 -10 12 -14 9 -16 -28 -16 l-41
0 0 378 0 377 59 3 c33 1 63 -2 66 -8 3 -5 3 -10 -2 -10 -4 0 -7 -74 -5 -165
3 -156 2 -165 -18 -177 -11 -7 -20 -16 -20 -19 0 -13 47 -24 80 -18 19 3 29 7
23 8 -7 0 -13 6 -13 12 0 5 8 9 18 8 36 -3 62 1 62 12 0 5 -5 7 -12 3 -18 -11
-91 -5 -99 8 -5 7 -7 78 -6 158 l2 145 33 3 c41 4 41 15 -2 30 -18 7 -34 18
-33 25 1 36 -4 46 -19 40 -12 -4 -13 -8 -3 -14 9 -5 5 -10 -14 -14 -41 -11
-72 1 -74 27 -1 12 -7 24 -13 26 -5 2 -10 17 -10 33 0 26 3 29 34 29 19 0 38
5 41 10 3 6 17 10 31 10 17 0 24 6 24 19 0 17 -6 18 -65 13 l-65 -5 0 256 0
257 38 0 c107 1 147 -2 150 -10 2 -6 12 -10 22 -10 16 0 18 6 13 34 l-5 34 62
4 c34 1 66 0 72 -3 5 -3 10 -20 10 -37 1 -30 3 -32 39 -32 33 0 38 -3 42 -27
2 -16 3 -7 2 19 -1 36 2 48 14 51 12 2 8 8 -14 20 l-30 17 27 -4 c14 -3 29 -1
33 2 3 4 27 8 53 9 61 2 139 10 177 17 17 3 57 8 90 11 33 3 78 8 100 11 22 3
53 6 68 5 15 0 26 3 23 7 -2 4 25 8 60 9 l64 3 -2 -183z m179 62 c23 -36 44
-59 55 -59 31 0 20 -25 -21 -48 -47 -27 -61 -28 -61 -4 0 9 -21 48 -47 85 -49
72 -48 81 6 83 27 1 35 -6 68 -57z m323 -19 c0 -20 -5 -30 -15 -30 -10 0 -15
10 -15 30 0 20 5 30 15 30 10 0 15 -10 15 -30z m-52 -60 c1 -35 -2 -60 -8 -60
-11 0 -14 103 -3 113 3 4 7 7 7 7 1 0 2 -27 4 -60z m-172 -60 c4 -23 12 -40
19 -40 17 0 55 -61 55 -89 0 -12 -5 -31 -10 -42 -8 -15 -7 -19 5 -19 8 0 15 5
15 10 0 21 37 9 49 -16 15 -33 12 -35 -42 -41 -43 -5 -44 -5 -77 46 -31 50
-32 52 -14 66 18 13 17 14 -11 15 -26 0 -33 6 -53 49 -26 58 -28 75 -6 67 8
-3 12 -2 9 4 -6 9 8 14 28 11 4 0 7 4 7 9 0 6 4 10 10 10 5 0 13 -18 16 -40z
m2069 -87 c-8 -34 -11 -37 -24 -28 -6 3 -11 17 -11 31 0 18 5 24 21 24 18 0
20 -4 14 -27z m-1649 -85 c8 -25 7 -26 -41 -29 -31 -3 -43 -9 -52 -29 l-11
-25 -1 27 c-1 38 9 58 29 58 10 0 23 6 30 14 14 18 37 10 46 -16z m1649 22 c3
-5 2 -10 -4 -10 -7 0 -7 -8 -1 -26 13 -34 13 -44 -4 -44 -15 0 -31 63 -21 80
8 13 22 13 30 0z m-1085 -24 c0 -3 -4 -8 -10 -11 -5 -3 -10 -1 -10 4 0 6 5 11
10 11 6 0 10 -2 10 -4z m-590 -286 c0 -11 -4 -20 -10 -20 -5 0 -10 9 -10 20 0
11 5 20 10 20 6 0 10 -9 10 -20z m-8532 -2 c7 -7 12 -42 12 -88 0 -46 -5 -81
-12 -88 -7 -7 -44 -12 -94 -12 -106 0 -114 7 -114 100 0 93 8 100 114 100 50
0 87 -5 94 -12z m447 2 c3 -5 -1 -10 -10 -10 -9 0 -13 5 -10 10 3 6 8 10 10
10 2 0 7 -4 10 -10z m-321 -16 c9 -24 7 -137 -3 -153 -8 -12 -16 -10 -50 12
-36 24 -41 32 -41 67 0 34 5 43 37 65 44 29 49 30 57 9z m221 -134 c24 0 47
-4 50 -10 4 -6 -15 -10 -49 -10 l-56 0 2 88 2 87 3 -77 4 -78 44 0z m92 13
c-2 -21 -4 -6 -4 32 0 39 2 55 4 38 2 -18 2 -50 0 -70z m67 42 c10 -25 21 -45
26 -45 4 0 17 23 29 51 13 28 25 49 28 46 6 -7 -47 -127 -57 -127 -7 0 -60
110 -60 124 0 19 19 -8 34 -49z m201 30 c37 -36 31 -45 -30 -45 -30 0 -55 -4
-55 -10 0 -18 48 -42 71 -35 14 5 19 4 15 -4 -11 -17 -57 -13 -78 6 -26 23
-24 78 4 97 31 22 45 20 73 -9z m7125 -149 c0 -157 -7 -216 -21 -166 l-6 25
-13 -30 -13 -30 -7 30 -6 30 -7 -27 c-5 -20 -12 -25 -27 -21 -12 3 -20 0 -20
-7 0 -10 15 -11 58 -6 35 4 52 3 43 -3 -11 -7 -10 -10 5 -14 10 -2 -4 -5 -33
-6 -60 -1 -83 6 -83 25 0 20 -17 17 -29 -3 -10 -17 -10 -17 -11 0 0 9 -4 17
-10 17 -5 0 -10 -12 -10 -26 0 -14 -4 -23 -9 -20 -5 3 -7 15 -4 26 6 22 -7 26
-25 8 -9 -9 -12 -9 -12 0 0 6 -6 9 -13 6 -19 -7 -37 94 -37 214 0 55 4 103 10
107 5 3 39 8 76 10 37 3 69 6 70 8 1 1 32 3 68 4 l66 3 0 -154z m17 -3 c-2
-21 -4 -4 -4 37 0 41 2 58 4 38 2 -21 2 -55 0 -75z m1 -396 l-3 -162 -65 -11
c-44 -8 -55 -12 -35 -14 21 -2 24 -4 11 -7 -10 -3 -29 1 -42 8 -22 11 -24 20
-26 88 l-2 76 -3 -77 -4 -78 -33 0 c-21 0 -36 -6 -40 -15 -3 -8 -13 -15 -23
-14 -16 0 -15 1 2 9 17 6 14 8 -15 11 -34 4 -35 6 -38 48 -2 28 1 47 10 52 10
7 10 9 1 9 -10 0 -13 29 -13 109 l0 109 33 6 c17 3 50 7 72 8 l40 2 6 -80 5
-79 2 76 c1 41 6 79 11 85 6 5 42 8 81 6 l70 -4 -2 -161z m2362 142 c0 -5 -4
-9 -10 -9 -5 0 -10 7 -10 16 0 8 5 12 10 9 6 -3 10 -10 10 -16z m-217 -36 c-7
-2 -21 -2 -30 0 -10 3 -4 5 12 5 17 0 24 -2 18 -5z m526 -427 c-9 -8 -10 2 -5
44 3 30 7 71 8 90 1 19 4 -1 5 -44 3 -52 0 -83 -8 -90z m-2840 130 c-12 -10
-59 -15 -59 -6 0 5 14 10 32 10 17 0 29 -2 27 -4z m-7625 -22 c9 -8 16 -26 16
-40 0 -24 -31 -64 -51 -64 -23 0 -47 21 -53 46 -14 56 49 98 88 58z m-140 -20
c20 -20 20 -48 0 -68 -32 -33 -74 -9 -74 41 0 40 45 57 74 27z m686 -74 c0
-53 -4 -90 -10 -90 -6 0 -10 37 -10 90 0 53 4 90 10 90 6 0 10 -37 10 -90z
m57 -47 c-2 -27 -3 -5 -3 47 0 52 1 74 3 48 2 -27 2 -69 0 -95z m428 127 c3
-5 1 -10 -4 -10 -6 0 -11 5 -11 10 0 6 2 10 4 10 3 0 8 -4 11 -10z m-685 -10
c0 -5 -22 -10 -50 -10 -49 0 -50 -1 -50 -30 0 -29 2 -30 45 -30 25 0 45 -4 45
-10 0 -5 -20 -10 -44 -10 -44 0 -45 0 -49 -37 -2 -21 -4 1 -5 50 l-2 87 55 0
c30 0 55 -4 55 -10z m126 -56 c20 -19 24 -31 19 -52 -12 -52 -68 -69 -105 -32
-28 28 -25 64 6 89 35 27 49 26 80 -5z m280 0 c20 -19 24 -31 19 -52 -12 -52
-68 -69 -105 -32 -28 28 -25 64 6 89 35 27 49 26 80 -5z m64 -26 c16 -53 25
-54 45 -2 9 25 22 43 28 41 6 -2 17 -22 25 -45 7 -23 17 -42 20 -42 4 0 15 23
25 51 10 28 21 48 24 46 6 -7 -39 -127 -49 -127 -3 0 -14 20 -24 45 -9 25 -20
45 -25 45 -4 0 -14 -19 -21 -42 -8 -23 -19 -43 -24 -45 -6 -2 -18 20 -29 49
-29 83 -29 84 -18 73 6 -5 16 -27 23 -47z m207 -45 c-2 -21 -4 -6 -4 32 0 39
2 55 4 38 2 -18 2 -50 0 -70z m151 81 c18 -12 22 -25 22 -65 0 -66 -18 -63
-22 4 -3 46 -6 52 -26 55 -35 5 -52 -15 -52 -64 0 -24 -4 -44 -10 -44 -6 0
-10 27 -10 61 0 47 3 60 13 56 8 -3 20 -1 28 4 20 12 31 11 57 -7z m144 5 c16
-9 23 -8 29 2 5 9 9 -16 9 -63 0 -71 -2 -79 -25 -94 -16 -11 -34 -14 -55 -9
-42 9 -38 22 5 17 36 -4 65 11 65 33 0 9 -11 12 -40 8 -50 -7 -70 8 -70 53 0
23 7 38 22 48 27 19 33 19 60 5z m5703 -24 c0 -10 -6 -20 -12 -22 -8 -3 -13 5
-13 22 0 17 5 25 13 23 6 -3 12 -13 12 -23z m-7150 -45 c4 -6 -11 -10 -38 -10
-31 0 -49 -6 -62 -20 -18 -20 -17 -20 23 -20 23 0 42 -4 42 -10 0 -5 -20 -10
-45 -10 -38 0 -45 3 -45 20 0 31 39 60 81 60 21 0 41 -4 44 -10z m176 -26 c10
-9 19 -28 19 -41 0 -23 -2 -23 -105 -23 -95 0 -105 2 -105 18 0 68 132 100
191 46z m7149 -671 c-1 -19 -18 -33 -34 -27 -13 5 -14 9 -5 20 12 15 39 19 39
7z m73 -56 c12 -19 12 -26 2 -40 -7 -9 -18 -17 -26 -17 -10 0 -10 3 -1 12 16
16 15 28 -3 28 -8 0 -15 9 -15 20 0 27 24 25 43 -3z m3615 -64 l-2 -88 -3 78
c-3 69 -6 77 -23 77 -11 0 -20 5 -20 10 0 6 11 10 25 10 25 0 25 0 23 -87z
m140 0 c2 -53 -1 -83 -8 -83 -6 0 -10 30 -10 75 0 68 -2 75 -20 75 -11 0 -20
5 -20 11 0 6 12 9 28 7 27 -3 27 -4 30 -85z m100 27 c19 -33 36 -60 40 -60 4
0 22 27 40 60 18 33 35 60 37 60 3 0 4 -39 3 -87 l-2 -88 -5 69 -6 70 -28 -52
c-15 -28 -32 -54 -36 -56 -4 -3 -21 18 -37 47 l-29 52 -3 -62 c-4 -94 -22 -76
-22 22 0 47 3 85 8 85 4 0 22 -27 40 -60z m-3788 -60 c-12 -8 -13 -12 -2 -19
11 -6 10 -10 -3 -15 -9 -3 -21 -4 -26 0 -15 9 -10 32 9 37 30 8 37 7 22 -3z
m50 -66 c0 -15 -6 -24 -15 -24 -15 0 -21 40 -9 53 12 11 24 -3 24 -29z m3570
26 c0 -5 -4 -10 -9 -10 -6 0 -13 5 -16 10 -3 6 1 10 9 10 9 0 16 -4 16 -10z
m-4183 -62 c13 -29 6 -48 -17 -48 -21 0 -34 -26 -17 -34 7 -2 4 -5 -5 -5 -21
-1 -23 -22 -6 -39 10 -10 10 -14 1 -20 -7 -4 -11 -20 -10 -34 1 -15 -2 -27 -8
-28 -17 -1 -18 108 -1 132 20 28 20 42 1 34 -11 -4 -15 2 -15 20 0 14 4 22 10
19 6 -3 10 -2 10 4 0 8 13 14 41 20 3 0 10 -9 16 -21z m213 -53 c0 -2 -7 -5
-15 -9 -9 -3 -15 0 -15 9 0 9 6 12 15 9 8 -4 15 -7 15 -9z m-200 -40 c0 -21
59 -45 102 -42 21 1 38 5 38 8 0 3 23 2 50 -4 37 -7 50 -14 50 -27 0 -26 -30
-33 -52 -13 -16 15 -21 15 -28 3 -6 -10 -4 -17 6 -23 8 -5 12 -12 9 -18 -4 -5
2 -9 12 -10 10 0 13 -3 6 -6 -15 -5 -18 -43 -4 -43 5 0 8 -12 7 -27 -5 -36 2
-47 20 -32 8 6 17 9 21 6 3 -4 12 -2 20 4 8 7 13 8 13 1 0 -19 38 -20 68 -2
26 16 31 16 36 4 3 -8 19 -14 36 -14 18 0 33 -6 36 -15 5 -11 21 -15 60 -15
46 0 56 -4 70 -25 21 -33 13 -42 -46 -50 -27 -4 -53 -11 -56 -16 -3 -5 -10 -7
-15 -4 -22 14 -6 -20 22 -46 33 -31 31 -49 -6 -49 -19 0 -23 -4 -18 -17 4 -10
11 -21 17 -25 6 -4 -2 -8 -18 -8 -16 0 -37 7 -47 15 -12 12 -45 17 -115 20
-55 3 -98 7 -96 10 1 3 2 14 2 25 0 15 7 20 29 20 17 0 32 4 35 9 4 5 -3 7
-14 4 -11 -3 -20 0 -20 6 0 6 6 11 13 11 9 0 8 3 -2 9 -22 14 -46 6 -44 -15 1
-18 1 -18 -11 -1 -7 9 -18 17 -24 17 -5 0 -13 7 -16 16 -3 8 -10 12 -16 9 -5
-3 -10 -1 -10 4 0 6 -15 11 -33 11 -19 0 -44 9 -56 19 -13 11 -28 18 -35 15
-7 -3 -20 4 -29 14 -17 19 -16 19 35 15 51 -4 52 -3 31 13 -24 17 -30 48 -13
59 8 5 8 11 1 19 -6 7 -8 16 -4 19 3 4 -2 7 -12 7 -15 0 -15 2 -4 16 10 13 10
17 -2 24 -11 7 -11 12 -1 22 18 18 15 36 -8 43 -14 4 -20 15 -20 34 0 15 3 31
6 34 10 9 24 -2 24 -18z m691 -38 c-1 -12 -15 -9 -19 4 -3 6 1 10 8 8 6 -3 11
-8 11 -12z m-7521 -97 c5 -21 11 -25 37 -22 51 5 81 -52 46 -90 -15 -17 -15
-19 0 -36 35 -38 5 -95 -46 -90 -26 3 -32 -1 -37 -22 -5 -22 -11 -25 -50 -25
-39 0 -45 3 -50 25 -5 21 -11 25 -37 22 -51 -5 -81 52 -46 90 15 17 15 19 0
36 -21 23 -21 41 -1 71 13 18 23 22 46 17 20 -4 30 -1 33 9 3 8 7 22 10 31 4
11 16 14 47 12 36 -3 43 -7 48 -28z m775 -40 c3 -5 1 -10 -4 -10 -6 0 -11 5
-11 10 0 6 2 10 4 10 3 0 8 -4 11 -10z m6011 -5 c24 -18 7 -19 -26 0 -16 9
-19 14 -9 15 8 0 24 -7 35 -15z m-6426 -3 c21 -6 16 -8 -25 -12 -41 -4 -50 -8
-50 -25 0 -14 12 -24 43 -35 53 -18 67 -39 46 -68 -18 -26 -70 -30 -100 -7
-23 17 -17 19 24 4 22 -8 36 -7 52 1 32 17 20 40 -30 59 -90 33 -52 111 40 83z
m10795 -13 c111 -31 173 -142 141 -253 -31 -107 -151 -171 -252 -136 -22 8
-40 7 -70 -4 -54 -19 -69 -9 -56 36 8 28 6 48 -10 93 -23 71 -18 115 22 179
48 75 138 109 225 85z m-10565 -9 c0 -5 7 -10 15 -10 8 0 15 -4 15 -10 0 -5
-7 -10 -16 -10 -12 0 -14 -10 -12 -47 2 -39 6 -48 21 -47 9 1 17 -2 17 -7 0
-13 -34 -11 -48 3 -7 7 -12 31 -12 54 0 24 -5 44 -12 46 -9 3 -8 9 2 21 17 19
30 22 30 7z m115 -15 c19 -8 19 -9 -3 -13 -21 -3 -23 -8 -20 -50 2 -38 7 -47
21 -46 9 1 17 -3 17 -8 0 -5 -10 -8 -22 -6 -20 3 -23 10 -26 56 -2 40 -7 52
-19 52 -14 0 -14 3 3 19 10 10 21 15 24 11 3 -3 14 -10 25 -15z m-187 -23 c24
-31 14 -42 -38 -42 -37 0 -50 -4 -50 -15 0 -23 39 -39 66 -26 13 6 24 6 24 1
0 -13 -38 -23 -66 -16 -30 8 -49 45 -40 79 11 44 74 56 104 19z m249 -69 c-2
-21 -4 -6 -4 32 0 39 2 55 4 38 2 -18 2 -50 0 -70z m153 77 c14 -14 20 -33 20
-65 0 -63 -18 -57 -22 8 -3 46 -6 52 -26 55 -35 5 -52 -15 -52 -64 0 -24 -4
-44 -10 -44 -6 0 -10 27 -10 61 0 47 3 60 13 56 8 -3 20 -1 28 4 22 14 37 11
59 -11z m163 7 c14 -1 17 -12 17 -69 0 -61 -2 -69 -25 -84 -16 -11 -34 -14
-54 -9 -48 10 -44 21 7 21 40 -1 47 2 50 19 2 18 -2 20 -36 17 -32 -3 -43 0
-56 19 -9 13 -16 31 -16 40 0 26 50 62 75 54 11 -4 28 -7 38 -8z m127 6 c23
-7 21 -8 -14 -13 -54 -7 -57 -26 -7 -40 33 -9 41 -15 41 -34 0 -34 -55 -49
-90 -25 -11 8 -6 9 20 5 66 -11 80 26 17 42 -37 10 -48 39 -21 59 21 15 21 15
54 6z m5615 -154 c-7 -20 -8 -21 -17 -4 -8 12 -7 20 3 26 18 11 22 5 14 -22z
m137 -11 c-7 -7 -12 -8 -12 -2 0 14 12 26 19 19 2 -3 -1 -11 -7 -17z m-167
-67 c-2 -5 -16 -6 -30 -3 -18 3 -25 11 -25 26 0 13 3 26 7 29 8 9 55 -42 48
-52z m3334 17 c1 -5 -3 -8 -9 -8 -5 0 -10 12 -9 28 0 24 1 25 9 7 5 -11 9 -23
9 -27z m-3305 24 c2 -4 17 -7 33 -6 15 1 36 -3 46 -8 12 -6 16 -5 15 3 -3 11
15 14 52 10 5 0 7 -8 3 -17 -4 -10 1 -17 16 -21 11 -3 21 -10 21 -15 0 -5 -8
-7 -17 -4 -72 21 -113 27 -129 18 -23 -13 -57 -3 -50 14 3 8 1 14 -4 14 -6 0
-10 5 -10 10 0 12 17 13 24 2z m3261 -22 c3 -5 1 -10 -4 -10 -6 0 -11 5 -11
10 0 6 2 10 4 10 3 0 8 -4 11 -10z m-3309 -260 c-1 -21 -6 -30 -18 -30 -13 0
-18 8 -18 30 0 23 5 30 19 30 14 0 18 -7 17 -30z m4162 -122 c-53 -66 -54 -68
-14 -68 30 0 36 4 37 23 l2 22 4 -22 c2 -12 14 -24 26 -26 l22 -4 -22 -8 c-14
-4 -24 -16 -24 -29 -2 -20 -2 -20 -6 2 -4 19 -11 22 -47 22 -23 0 -46 3 -49 6
-8 8 82 124 96 124 5 0 -6 -19 -25 -42z m197 17 c31 -30 33 -82 4 -119 -43
-55 -109 -20 -109 59 0 78 56 110 105 60z m130 -25 c27 27 54 50 59 50 6 0 -7
-18 -28 -39 l-38 -39 37 -41 c21 -23 35 -44 32 -47 -3 -3 -22 13 -43 35 -41
46 -57 43 -73 -13 -7 -24 -9 -10 -8 59 0 74 1 80 6 37 l6 -53 50 51z m-4505
-60 c0 -5 7 -10 15 -10 8 0 15 -4 15 -10 0 -11 -11 -13 -34 -4 -17 7 -22 34
-6 34 6 0 10 -4 10 -10z m-6717 -129 c29 -28 32 -37 32 -91 0 -54 -3 -63 -33
-92 -29 -30 -38 -33 -92 -33 -54 0 -63 3 -92 33 -30 29 -33 38 -33 91 0 49 4
64 25 86 34 37 57 45 113 41 39 -3 55 -10 80 -35z m587 -81 c0 -53 -4 -90 -10
-90 -6 0 -10 37 -10 90 0 53 4 90 10 90 6 0 10 -37 10 -90z m-282 2 l52 -3 0
40 c0 23 5 41 10 41 6 0 10 -35 10 -85 0 -50 -4 -85 -10 -85 -5 0 -10 18 -10
40 l0 40 -54 0 -55 0 -4 -42 c-2 -24 -4 -2 -4 47 0 57 2 76 6 50 l6 -40 53 -3z
m207 13 c37 -36 31 -45 -30 -45 -60 0 -69 -11 -30 -36 21 -14 31 -15 50 -6 14
7 25 8 25 3 0 -11 -25 -21 -53 -21 -54 0 -79 83 -35 114 31 22 45 20 73 -9z
m164 15 c28 14 57 5 77 -26 34 -51 -23 -112 -81 -86 -22 10 -24 9 -28 -26 -2
-20 -4 6 -5 58 -1 56 2 89 7 81 7 -10 13 -11 30 -1z m6054 -237 c-1 -6 9 -14
24 -17 14 -4 23 -9 20 -12 -10 -10 -77 20 -77 34 0 8 7 12 18 10 9 -2 16 -9
15 -15z m114 -29 c8 -8 19 -14 24 -14 6 0 7 -4 4 -10 -3 -5 2 -10 11 -10 13 0
15 -3 8 -10 -14 -14 -46 -1 -40 16 3 9 -2 14 -14 14 -11 0 -20 6 -20 14 0 8
-12 16 -27 18 -14 2 -28 9 -30 15 -5 15 62 -11 84 -33z m4343 -89 l65 -66 -88
-85 c-48 -47 -92 -82 -97 -79 -6 3 -10 24 -10 46 0 24 -5 39 -12 39 -37 0 -94
-25 -127 -56 -21 -19 -41 -34 -45 -34 -14 0 -4 98 13 136 26 57 66 91 123 104
47 12 48 13 48 49 0 21 3 41 6 44 10 9 51 -23 124 -98z m-4407 68 c-7 -2 -21
-2 -30 0 -10 3 -4 5 12 5 17 0 24 -2 18 -5z m-47 -21 c-10 -2 -22 0 -28 6 -6
6 0 7 19 4 21 -5 23 -7 9 -10z m1018 -37 c-3 -8 -31 -27 -61 -41 -30 -15 -57
-33 -60 -41 -6 -15 -63 -18 -63 -3 0 5 7 7 15 4 9 -4 16 3 20 19 5 18 12 24
22 20 11 -4 14 -2 11 8 -6 18 46 46 89 48 25 1 31 -3 27 -14z m-629 -25 c17
-7 14 -9 -13 -9 -20 -1 -31 3 -27 9 7 12 13 12 40 0z m-198 -26 c-3 -3 -12 -4
-19 -1 -8 3 -5 6 6 6 11 1 17 -2 13 -5z m143 -4 c0 -5 -7 -10 -16 -10 -8 0
-12 5 -9 10 3 6 10 10 16 10 5 0 9 -4 9 -10z m1300 -10 c0 -5 -4 -10 -9 -10
-6 0 -13 5 -16 10 -3 6 1 10 9 10 9 0 16 -4 16 -10z m-1345 -10 c-3 -5 -11
-10 -16 -10 -6 0 -7 5 -4 10 3 6 11 10 16 10 6 0 7 -4 4 -10z m238 3 c-7 -2
-21 -2 -30 0 -10 3 -4 5 12 5 17 0 24 -2 18 -5z m751 -20 c34 -33 23 -44 -34
-33 -45 9 -78 6 -115 -10 -34 -15 -97 -40 -101 -40 -2 0 -4 4 -4 9 0 5 17 15
38 22 20 6 55 22 77 34 36 19 90 42 106 44 4 1 18 -11 33 -26z m-429 -33 c3
-5 -3 -10 -14 -10 -11 0 -23 5 -26 10 -3 6 3 10 14 10 11 0 23 -4 26 -10z
m-530 -10 c4 -6 -6 -10 -22 -10 -22 0 -25 2 -13 10 19 12 27 12 35 0z m490
-16 c33 -22 23 -34 -28 -35 -33 0 -38 -2 -22 -9 17 -7 14 -9 -13 -9 -20 -1
-31 3 -27 9 8 14 -18 13 -50 -2 -22 -10 -28 -9 -36 3 -15 24 -10 29 21 23 24
-5 30 -3 30 11 0 14 5 16 26 11 15 -4 40 -9 58 -12 l31 -5 -30 15 c-27 13 -28
14 -7 15 12 1 34 -6 47 -15z m195 -84 c0 -5 -7 -10 -16 -10 -8 0 -12 5 -9 10
3 6 10 10 16 10 5 0 9 -4 9 -10z m-560 -49 c0 -5 -6 -14 -14 -20 -12 -10 -13
-8 -9 8 5 21 23 30 23 12z m2950 -62 c0 -10 -5 -19 -11 -19 -5 0 -7 -4 -4 -10
3 -5 1 -10 -4 -10 -14 0 -14 27 -1 35 5 3 6 13 3 22 -4 11 -3 14 5 9 7 -4 12
-16 12 -27z m-10206 -54 c29 -9 64 -13 83 -9 l34 6 -3 -88 -3 -89 -55 0 c-30
1 -83 5 -117 9 l-63 9 0 -62 c0 -34 -4 -61 -10 -61 -6 0 -10 57 -10 150 l0
150 48 0 c26 0 69 -7 96 -15z m7686 1 c0 -2 -7 -9 -15 -16 -13 -11 -14 -10 -9
4 5 14 24 23 24 12z m-7253 -72 c18 -25 16 -51 -6 -71 -20 -16 -20 -17 0 -45
11 -15 16 -28 11 -28 -5 0 -17 11 -26 25 -12 19 -25 25 -51 25 -29 0 -34 -4
-38 -27 -2 -16 -5 12 -6 61 l-1 89 52 -5 c34 -4 56 -12 65 -24z m6820 9 c-9
-9 -19 -14 -23 -11 -10 10 6 28 24 28 15 0 15 -1 -1 -17z m-6187 -13 c0 -5 7
-10 15 -10 8 0 15 -4 15 -10 0 -5 -7 -10 -16 -10 -12 0 -14 -10 -12 -47 2 -39
6 -48 21 -47 9 1 17 -2 17 -7 0 -13 -34 -11 -48 3 -7 7 -12 31 -12 54 0 24 -5
44 -12 46 -9 3 -8 9 2 21 17 19 30 22 30 7z m-495 -35 c37 -36 31 -45 -30 -45
-30 0 -55 -4 -55 -10 0 -18 48 -42 71 -35 14 5 19 4 15 -4 -11 -17 -57 -13
-78 6 -26 23 -24 78 4 97 31 22 45 20 73 -9z m148 14 c43 -23 50 -66 17 -99
-22 -22 -65 -27 -76 -9 -4 7 0 9 14 5 32 -11 62 10 62 42 0 34 -16 52 -46 52
-29 0 -46 -22 -43 -57 4 -52 -1 -93 -11 -93 -6 0 -10 34 -10 81 0 64 3 80 13
76 8 -3 20 -1 28 4 18 12 26 11 52 -2z m161 -10 c15 -12 26 -30 26 -45 0 -31
-33 -64 -65 -64 -30 0 -65 32 -65 60 0 24 42 70 63 70 8 0 26 -9 41 -21z m102
11 c15 6 24 6 24 0 0 -6 -6 -10 -14 -10 -20 0 -29 -17 -37 -70 -6 -40 -6 -37
-7 25 0 39 2 65 4 58 4 -8 13 -9 30 -3z m6429 -20 c3 -6 -2 -13 -12 -17 -10
-4 -23 -14 -30 -22 -10 -14 -12 -14 -18 2 -4 9 -5 24 -1 32 6 17 51 20 61 5z
m3755 -105 c26 -32 -13 -81 -47 -59 -35 22 -23 74 17 74 10 0 23 -7 30 -15z
m4248 -109 l3 -87 37 31 c38 31 52 37 52 21 0 -18 -92 -111 -110 -111 -18 0
-110 93 -110 111 0 16 15 10 53 -22 l37 -30 0 84 c0 46 3 87 7 91 19 19 28 -8
31 -88z m-4248 -41 c26 -32 -13 -81 -47 -59 -35 22 -23 74 17 74 10 0 23 -7
30 -15z m-1845 -102 c27 -50 62 -68 183 -95 63 -14 102 -28 102 -35 0 -7 -4
-13 -10 -13 -5 0 -10 5 -10 11 0 7 -9 9 -22 6 -29 -7 -132 16 -121 27 4 4 -6
5 -22 1 -24 -5 -27 -4 -15 5 12 10 11 11 -8 7 -13 -3 -22 -4 -19 -1 5 6 -86
99 -95 96 -4 -1 -5 5 -2 13 9 23 17 18 39 -22z m1845 -48 c26 -32 -13 -81 -47
-59 -35 22 -23 74 17 74 10 0 23 -7 30 -15z m-3685 -175 c-3 -5 -11 -10 -16
-10 -6 0 -7 5 -4 10 3 6 11 10 16 10 6 0 7 -4 4 -10z m-352 -105 c-3 -9 -8
-14 -10 -11 -3 3 -2 9 2 15 9 16 15 13 8 -4z m-63 1 c0 -2 -7 -7 -16 -10 -8
-3 -12 -2 -9 4 6 10 25 14 25 6z m-110 -26 c0 -5 -2 -10 -4 -10 -3 0 -8 5 -11
10 -3 6 -1 10 4 10 6 0 11 -4 11 -10z m164 -9 c11 -18 -6 -41 -30 -41 -25 0
-28 7 -18 34 7 17 39 22 48 7z m-6983 -28 c14 -37 7 -166 -10 -187 -10 -12
-31 -16 -93 -16 -50 0 -77 4 -73 10 3 6 37 10 75 10 83 0 90 8 90 99 0 95 6
91 -140 91 -147 0 -140 5 -140 -99 0 -72 10 -91 47 -91 13 0 23 -5 23 -11 0
-6 -14 -9 -32 -7 -46 4 -59 35 -56 131 2 56 7 81 18 87 8 5 75 10 148 10 l132
0 11 -27z m739 -105 c0 -51 -4 -88 -8 -81 -5 8 -13 9 -22 3 -41 -26 -90 4 -90
55 0 49 43 72 93 51 14 -7 17 -3 17 28 0 20 2 36 5 36 3 0 5 -42 5 -92z m670
2 c0 -50 -4 -90 -9 -90 -13 0 -20 23 -14 53 6 33 -11 57 -41 57 -30 0 -46 -18
-46 -52 0 -32 30 -53 62 -42 14 4 18 2 14 -5 -22 -34 -96 7 -96 53 0 44 52 76
90 56 18 -10 20 -8 20 25 0 19 5 35 10 35 6 0 10 -37 10 -90z m60 55 c0 -33 1
-34 25 -25 64 24 114 -51 68 -102 -18 -20 -63 -24 -81 -6 -9 9 -12 9 -12 0 0
-7 -4 -12 -10 -12 -6 0 -10 37 -10 90 0 53 4 90 10 90 6 0 10 -16 10 -35z
m440 -26 l0 -61 40 36 c47 43 65 48 27 8 l-27 -28 31 -37 c17 -20 26 -37 21
-37 -6 0 -22 14 -36 31 -22 26 -29 29 -41 19 -8 -7 -15 -21 -15 -31 0 -11 -4
-19 -10 -19 -6 0 -10 37 -10 90 0 53 4 90 10 90 6 0 10 -27 10 -61z m-1650 43
c21 -6 16 -8 -25 -12 -41 -4 -50 -8 -50 -25 0 -14 12 -24 43 -35 53 -18 67
-39 46 -68 -18 -26 -70 -30 -100 -7 -23 17 -17 19 24 4 22 -8 36 -7 52 1 32
17 20 40 -30 59 -90 33 -52 111 40 83z m710 -2 c0 -5 -22 -10 -50 -10 -49 0
-50 -1 -50 -30 0 -29 2 -30 45 -30 25 0 45 -4 45 -10 0 -5 -20 -10 -44 -10
-44 0 -45 0 -49 -37 -2 -21 -4 1 -5 50 l-2 87 55 0 c30 0 55 -4 55 -10z m-552
-58 c24 -31 14 -42 -38 -42 -37 0 -50 -4 -50 -15 0 -23 39 -39 66 -26 13 6 24
6 24 1 0 -13 -38 -23 -66 -16 -30 8 -49 45 -40 79 11 44 74 56 104 19z m90 17
c21 11 52 5 64 -13 4 -6 7 -33 6 -61 l-1 -50 -4 45 c-5 53 -17 70 -49 70 -28
0 -37 -13 -45 -70 -6 -41 -6 -38 -8 25 0 42 3 65 8 56 6 -10 13 -10 29 -2z
m590 -17 c24 -31 14 -42 -38 -42 -37 0 -50 -4 -50 -15 0 -23 39 -39 66 -26 13
6 24 6 24 1 0 -13 -38 -23 -66 -16 -30 8 -49 45 -40 79 11 44 74 56 104 19z
m137 3 c37 -36 31 -45 -30 -45 -30 0 -55 -4 -55 -10 0 -18 48 -42 71 -35 14 5
19 4 15 -4 -11 -17 -57 -13 -78 6 -26 23 -24 78 4 97 31 22 45 20 73 -9z m456
15 c15 -9 19 -22 19 -63 0 -50 -1 -52 -28 -54 -49 -4 -72 5 -72 31 0 26 17 36
61 36 30 0 34 6 20 29 -6 10 -20 12 -45 8 -41 -7 -47 -1 -13 13 30 12 35 12
58 0z m163 -10 c5 -5 -10 -6 -32 -3 -34 5 -42 2 -52 -16 -23 -43 19 -93 59
-71 28 14 36 12 21 -5 -17 -21 -64 -19 -84 4 -26 28 -18 82 14 98 24 12 56 9
74 -7z"/>
<path d="M3002 7964 c-12 -8 -22 -21 -22 -27 0 -13 62 -57 80 -57 16 0 12 67
-6 84 -19 20 -24 20 -52 0z"/>
<path d="M15256 8046 c-42 -41 -46 -49 -46 -93 0 -29 -8 -63 -20 -86 l-20 -37
135 0 c74 0 135 1 135 3 0 1 -9 20 -20 42 -11 22 -20 59 -20 83 0 39 -5 48
-46 88 -26 24 -48 44 -49 44 -1 0 -23 -20 -49 -44z"/>
<path d="M15272 7783 c4 -22 44 -29 64 -13 24 21 16 30 -27 30 -33 0 -40 -3
-37 -17z"/>
<path d="M11530 8002 c-74 -37 -73 -142 3 -178 42 -20 79 -13 112 21 52 51 37
133 -30 161 -43 18 -43 18 -85 -4z"/>
<path d="M8864 7896 c-11 -29 1 -51 26 -51 19 0 26 6 28 24 5 35 -42 58 -54
27z"/>
<path d="M9220 7890 c-9 -16 -8 -25 1 -36 27 -33 75 -2 52 35 -15 24 -40 25
-53 1z"/>
<path d="M7007 7904 c-15 -15 -6 -24 24 -24 20 0 29 4 27 13 -5 14 -40 21 -51
11z"/>
<path d="M7133 7863 c-7 -2 -13 -9 -13 -15 0 -14 43 -6 48 10 4 12 -12 15 -35
5z"/>
<path d="M7633 7863 c-22 -8 -14 -23 12 -23 16 0 25 6 25 15 0 15 -14 18 -37
8z"/>
<path d="M7974 7896 c-11 -29 1 -51 26 -51 19 0 26 6 28 24 5 35 -42 58 -54
27z"/>
<path d="M8613 7863 c-22 -8 -14 -23 12 -23 16 0 25 6 25 15 0 15 -14 18 -37
8z"/>
<path d="M9360 7895 c-11 -13 -8 -15 20 -15 21 0 30 4 28 13 -7 18 -33 20 -48
2z"/>
<path d="M9480 7890 c-9 -16 -8 -25 1 -36 27 -33 75 -2 52 35 -15 24 -40 25
-53 1z"/>
<path d="M11993 6843 c-38 -5 -43 -18 -10 -27 38 -10 65 -7 71 10 10 27 13 26
-61 17z"/>
<path d="M11365 6382 c-46 -30 -106 -62 -117 -62 -4 0 -18 -10 -31 -22 -22
-20 -150 -95 -390 -229 -116 -65 -174 -99 -247 -147 -36 -23 -90 -54 -120 -69
-30 -16 -57 -31 -58 -36 -2 -4 -9 -4 -14 0 -8 4 -9 -2 -4 -18 17 -55 18 -71 6
-79 -9 -5 -10 -19 -5 -46 6 -34 8 -37 19 -22 12 16 14 16 29 -3 9 -10 17 -26
17 -34 0 -8 8 -15 18 -15 22 0 52 -30 52 -52 0 -8 3 -18 7 -22 8 -8 133 121
133 137 0 5 7 7 15 3 8 -3 15 -2 15 3 0 4 18 27 40 51 22 24 40 47 40 52 0 6
6 8 12 6 7 -3 18 5 24 16 6 12 16 20 22 19 7 -2 12 1 12 6 0 5 106 116 235
247 129 132 247 253 263 269 15 17 41 40 57 52 42 31 18 27 -30 -5z m-861
-672 c19 -43 18 -81 -1 -88 -8 -2 -13 6 -13 20 0 29 -17 48 -36 41 -18 -7 -19
38 -2 55 20 20 33 13 52 -28z m-27 -82 c-3 -7 -5 -2 -5 12 0 14 2 19 5 13 2
-7 2 -19 0 -25z m79 -25 c-10 -10 -19 5 -10 18 6 11 8 11 12 0 2 -7 1 -15 -2
-18z"/>
<path d="M10200 5970 c-14 -11 -30 -20 -36 -20 -6 0 -17 -6 -23 -14 -10 -12
-7 -13 21 -6 52 12 66 20 71 41 6 24 -1 24 -33 -1z"/>
<path d="M10041 5904 c0 -11 3 -14 6 -6 3 7 2 16 -1 19 -3 4 -6 -2 -5 -13z"/>
<path d="M10290 5910 c0 -5 5 -10 10 -10 6 0 10 5 10 10 0 6 -4 10 -10 10 -5
0 -10 -4 -10 -10z"/>
<path d="M9950 5873 c0 -16 17 -26 25 -13 3 5 15 10 26 10 10 0 19 3 19 8 0 4
-16 7 -35 7 -20 0 -35 -5 -35 -12z"/>
<path d="M10342 5800 c0 -19 2 -27 5 -17 2 9 2 25 0 35 -3 9 -5 1 -5 -18z"/>
<path d="M12001 5769 c-18 -22 -31 -42 -28 -45 2 -2 10 2 17 11 21 25 31 17
28 -24 -1 -22 -5 -38 -9 -35 -4 2 -23 -5 -41 -17 -18 -12 -24 -18 -13 -14 58
21 61 20 57 -32 -2 -26 -1 -45 2 -42 7 7 29 229 23 235 -2 2 -18 -14 -36 -37z"/>
<path d="M9992 5745 c0 -16 2 -22 5 -12 2 9 2 23 0 30 -3 6 -5 -1 -5 -18z"/>
<path d="M11900 5690 l-45 -5 -3 -56 -3 -57 -37 -5 c-20 -3 -110 -13 -199 -23
-125 -13 -163 -21 -163 -31 0 -10 6 -12 23 -7 30 9 214 33 305 39 59 4 72 2
72 -10 0 -11 11 -15 43 -15 38 0 44 3 65 40 27 48 27 54 2 40 -11 -6 -20 -17
-20 -25 0 -19 -31 -34 -53 -26 -17 6 -16 8 7 20 20 11 23 18 16 32 -18 32 -11
50 25 65 19 8 35 16 35 18 0 9 -28 11 -70 6z"/>
<path d="M10013 5645 c-3 -9 -3 -18 0 -21 9 -9 27 6 27 22 0 19 -19 18 -27 -1z"/>
<path d="M10715 5640 c-3 -5 -2 -10 4 -10 5 0 13 5 16 10 3 6 2 10 -4 10 -5 0
-13 -4 -16 -10z"/>
<path d="M10955 5600 c-3 -5 1 -10 10 -10 9 0 13 5 10 10 -3 6 -8 10 -10 10
-2 0 -7 -4 -10 -10z"/>
<path d="M10605 5540 c-33 -33 -54 -60 -48 -60 13 0 113 98 113 111 0 14 -2
13 -65 -51z"/>
<path d="M10910 5569 c0 -5 5 -7 10 -4 6 3 10 8 10 11 0 2 -4 4 -10 4 -5 0
-10 -5 -10 -11z"/>
<path d="M11333 5513 c-55 -7 -37 -18 22 -15 30 2 55 8 55 13 0 9 -16 9 -77 2z"/>
<path d="M10983 5477 c-106 -12 -193 -25 -193 -30 0 -6 26 -7 63 -4 139 14
411 48 415 52 9 9 -90 2 -285 -18z"/>
<path d="M10673 5443 c-24 -2 -43 -9 -43 -14 0 -7 17 -7 48 -3 26 5 57 8 70 9
12 0 22 3 22 8 0 7 -16 7 -97 0z"/>
<path d="M11860 5370 c0 -5 5 -10 10 -10 6 0 10 5 10 10 0 6 -4 10 -10 10 -5
0 -10 -4 -10 -10z"/>
<path d="M11826 5305 c-51 -46 -40 -45 14 0 23 19 38 35 33 35 -4 -1 -26 -16
-47 -35z"/>
<path d="M11120 5279 c0 -5 5 -7 10 -4 6 3 10 8 10 11 0 2 -4 4 -10 4 -5 0
-10 -5 -10 -11z"/>
<path d="M10882 5216 c-48 -44 -67 -48 -27 -6 27 28 28 30 7 30 -25 0 -31 -9
-37 -55 l-5 -35 48 7 c26 3 65 9 87 14 35 7 32 8 -22 5 -35 -1 -63 -1 -63 1 0
2 15 16 32 32 18 16 30 32 26 36 -3 4 -24 -10 -46 -29z"/>
<path d="M11148 5211 c-15 -18 -15 -19 13 -23 32 -5 35 0 16 25 -11 16 -13 16
-29 -2z"/>
<path d="M11210 5219 c0 -5 5 -7 10 -4 6 3 10 8 10 11 0 2 -4 4 -10 4 -5 0
-10 -5 -10 -11z"/>
<path d="M11214 5124 c-18 -14 -18 -15 4 -4 12 6 22 13 22 15 0 8 -5 6 -26
-11z"/>
<path d="M11165 5100 c-3 -5 -2 -10 4 -10 5 0 13 5 16 10 3 6 2 10 -4 10 -5 0
-13 -4 -16 -10z"/>
<path d="M11555 5099 c-12 -19 5 -23 22 -6 16 16 16 17 1 17 -9 0 -20 -5 -23
-11z"/>
<path d="M11130 5079 c0 -5 5 -7 10 -4 6 3 10 8 10 11 0 2 -4 4 -10 4 -5 0
-10 -5 -10 -11z"/>
<path d="M11078 5054 c-39 -21 -35 -28 5 -8 37 19 44 24 31 24 -5 -1 -21 -8
-36 -16z"/>
<path d="M10641 5027 c-6 -8 -8 -17 -4 -20 11 -12 21 -7 26 13 6 23 -5 26 -22
7z"/>
<path d="M10416 5001 c-4 -7 -5 -15 -2 -18 9 -9 19 4 14 18 -4 11 -6 11 -12 0z"/>
<path d="M11191 4943 c-1 -43 3 -73 9 -73 12 0 12 84 0 120 -6 18 -8 4 -9 -47z"/>
<path d="M10155 4980 c-8 -13 -1 -24 14 -19 6 3 7 10 2 18 -6 10 -10 10 -16 1z"/>
<path d="M10635 4940 c-3 -6 1 -7 9 -4 18 7 21 14 7 14 -6 0 -13 -4 -16 -10z"/>
<path d="M9688 4885 c2 -14 6 -25 7 -25 1 0 5 11 7 25 3 16 1 25 -7 25 -8 0
-10 -9 -7 -25z"/>
<path d="M10554 4894 c-18 -14 -18 -15 4 -4 12 6 22 13 22 15 0 8 -5 6 -26
-11z"/>
<path d="M10633 4818 c-51 -28 -91 -53 -89 -55 2 -3 51 21 108 51 56 31 96 56
88 55 -8 0 -57 -23 -107 -51z"/>
<path d="M11203 4805 c0 -27 2 -38 4 -22 2 15 2 37 0 50 -2 12 -4 0 -4 -28z"/>
<path d="M11910 4741 c0 -11 -3 -26 -6 -35 -4 -11 -1 -16 10 -16 9 0 21 11 26
25 5 14 16 25 25 25 31 0 14 15 -20 17 -29 3 -35 0 -35 -16z"/>
<path d="M11963 4696 c-4 -8 -17 -15 -27 -17 -11 -2 -21 -10 -24 -18 -4 -11 2
-12 24 -7 26 7 53 31 54 49 0 12 -19 8 -27 -7z"/>
<path d="M9915 4621 c-6 -5 -21 -11 -35 -14 -18 -3 -15 -5 13 -6 27 -1 37 3
37 14 0 17 -3 18 -15 6z"/>
<path d="M9795 4610 c-4 -7 -24 -10 -46 -8 -22 2 -39 0 -39 -4 0 -5 15 -8 33
-7 34 0 120 16 100 18 -6 0 -18 4 -26 7 -8 3 -18 0 -22 -6z"/>
<path d="M10360 4436 c0 -139 -3 -185 -12 -189 -10 -3 -10 -9 1 -29 20 -39 6
-66 -40 -78 -112 -30 -191 -84 -261 -176 -22 -30 -45 -51 -51 -47 -6 4 -8 0
-4 -11 4 -9 3 -24 -3 -34 -37 -69 -50 -221 -27 -309 10 -37 11 -54 3 -57 -7
-3 -7 -5 1 -5 7 -1 24 -22 37 -48 14 -27 44 -68 67 -92 41 -41 45 -43 91 -39
l48 5 0 -38 c0 -29 5 -41 22 -50 77 -41 254 -52 345 -21 115 40 241 151 287
253 16 35 32 71 35 79 4 8 8 56 10 105 2 69 -3 104 -18 150 -11 33 -21 65 -21
71 0 16 33 23 81 17 45 -6 62 -29 35 -49 -11 -7 -19 -29 -21 -56 -2 -31 -8
-44 -20 -47 -15 -2 -15 -5 -4 -12 9 -6 10 -12 4 -16 -5 -5 -12 -27 -13 -51 -3
-37 -2 -41 15 -35 15 6 16 4 6 -8 -7 -9 -14 -44 -17 -78 -2 -35 -9 -68 -15
-74 -6 -6 -11 -26 -11 -44 0 -18 -5 -33 -11 -33 -7 0 -9 -13 -4 -38 5 -30 2
-42 -15 -60 -16 -17 -17 -22 -6 -22 29 0 27 -20 -3 -26 -17 -4 -30 -9 -29 -13
2 -20 -4 -22 -16 -5 -14 18 -15 18 -21 -9 -7 -25 -11 -27 -36 -22 -25 6 -30 3
-39 -19 -8 -22 -16 -26 -50 -26 -29 0 -40 -4 -40 -15 0 -8 -4 -15 -8 -15 -5 0
-18 -9 -31 -21 -12 -11 -27 -19 -34 -16 -16 6 -49 -7 -47 -18 0 -6 -21 -12
-47 -15 -44 -5 -48 -7 -49 -32 -1 -17 4 -28 12 -28 8 0 14 -7 14 -15 0 -8 -6
-15 -14 -15 -18 0 -30 -33 -21 -60 5 -14 2 -20 -10 -20 -9 0 -13 -5 -10 -10 4
-6 10 -8 15 -5 5 3 11 1 15 -5 3 -5 14 -10 23 -9 12 0 11 3 -5 9 -31 13 -29
20 5 16 15 -2 19 -1 9 1 -10 3 -16 10 -14 16 3 7 11 10 18 8 21 -6 42 -5 66 3
18 6 22 4 17 -7 -3 -9 3 -16 15 -20 24 -6 29 -37 6 -37 -8 0 -15 7 -15 15 0 8
-3 15 -7 16 -5 0 -17 2 -29 4 -27 6 -44 -29 -33 -67 6 -24 4 -28 -12 -28 -22
0 -38 -28 -22 -39 6 -3 12 -15 14 -25 5 -25 21 -27 25 -3 1 10 14 27 27 37 16
13 23 27 20 39 -6 23 21 32 55 17 18 -7 26 -6 33 5 7 11 9 11 9 -3 0 -12 7
-17 22 -15 17 1 24 -4 26 -20 2 -16 -2 -23 -13 -23 -11 0 -15 -5 -12 -14 3 -8
-1 -20 -9 -26 -8 -7 -14 -19 -14 -26 0 -8 -5 -14 -11 -14 -5 0 -17 -16 -25
-35 -17 -41 -16 -40 -69 -15 -22 11 -49 19 -59 20 -20 0 -20 0 0 -14 29 -22 7
-52 -34 -48 -25 3 -34 -1 -43 -20 -7 -17 -20 -25 -43 -26 -31 -2 -34 0 -39 32
-7 42 -53 96 -82 96 -30 0 -69 -42 -53 -58 7 -7 18 -12 25 -12 16 0 16 -2 3
-34 -9 -23 -7 -26 28 -36 61 -17 692 -13 796 5 114 20 161 40 185 79 23 37 81
94 81 80 0 -6 -16 -31 -35 -56 -27 -34 -40 -67 -55 -129 -31 -138 -68 -357
-80 -474 -8 -81 -15 -113 -27 -122 -25 -19 -39 -16 -61 11 -13 18 -22 22 -30
14 -12 -12 -20 -7 -90 47 -56 45 -73 75 -40 75 12 0 26 7 33 17 10 13 17 14
45 4 50 -17 47 -6 -5 19 l-46 22 -24 -22 c-22 -21 -24 -21 -54 -6 -17 9 -31
21 -31 26 0 6 -23 -1 -51 -16 -60 -30 -111 -29 -221 4 -38 10 -68 16 -68 11 0
-5 4 -9 9 -9 5 0 12 -12 16 -28 12 -53 45 -79 115 -93 37 -8 70 -21 78 -30 6
-10 25 -20 42 -24 30 -7 62 -41 80 -89 6 -17 6 -26 0 -26 -6 0 -10 -5 -10 -11
0 -6 8 -8 19 -4 14 4 29 -5 58 -37 21 -23 62 -68 92 -100 44 -48 54 -65 59
-103 4 -41 9 -48 48 -71 24 -14 47 -32 52 -39 4 -8 18 -16 32 -18 37 -8 77
-24 85 -36 3 -6 19 -11 35 -11 22 0 34 9 58 48 17 26 36 66 43 90 l12 43 60
-7 60 -7 -7 49 c-3 27 -9 90 -12 139 -6 77 -4 96 12 125 18 34 26 91 40 280
11 146 -46 327 -155 498 -26 40 -47 62 -59 62 -16 0 -22 15 -36 103 -10 56
-20 113 -23 126 -5 22 -4 23 36 19 l41 -4 0 47 0 46 -67 12 c-114 21 -156 50
-117 82 8 7 22 25 30 41 8 15 21 28 28 28 8 0 17 14 21 30 4 17 15 35 26 41
13 7 19 19 17 37 -2 20 3 29 22 39 l26 12 -59 122 c-33 67 -60 133 -61 146 0
12 -4 23 -7 23 -10 0 -109 228 -105 242 1 7 1 10 -1 7 -10 -16 -42 6 -58 39
-10 20 -20 32 -22 25 -2 -7 0 -21 6 -32 10 -19 8 -19 -73 -18 l-85 2 -29 40
c-34 47 -127 135 -142 135 -5 0 -10 20 -10 45 0 40 -9 59 -70 150 -38 57 -70
107 -70 110 0 3 21 6 48 7 44 1 45 2 9 5 -29 3 -37 8 -33 19 4 11 0 13 -20 8
-17 -4 -31 -1 -44 11 -29 26 -25 33 23 38 41 3 41 4 -9 5 -50 2 -51 3 -77 50
-31 54 -51 82 -61 82 -3 0 -6 -83 -6 -184z m95 -659 c159 -97 159 -97 0 -194
-78 -47 -129 -72 -145 -70 l-25 2 -3 155 c-1 85 0 160 2 167 11 27 55 11 171
-60z m510 -87 c3 -5 1 -10 -4 -10 -6 0 -11 5 -11 10 0 6 2 10 4 10 3 0 8 -4
11 -10z m-427 -293 c9 -10 -1 -12 -52 -9 -72 5 -76 0 -68 -76 l4 -43 52 3 c44
3 51 6 54 26 2 15 -2 22 -12 22 -9 0 -16 5 -16 10 0 6 12 10 26 10 23 0 25 -3
22 -37 l-3 -38 -70 0 -70 0 -3 58 c-2 35 2 64 9 73 15 18 112 19 127 1z m180
-42 c2 -36 0 -46 -8 -35 -5 8 -10 30 -10 48 l0 33 -52 -3 -53 -3 -3 -57 c-3
-56 -2 -58 23 -58 14 0 25 -5 25 -11 0 -6 -14 -9 -32 -7 -33 3 -33 3 -36 62
-4 86 -3 87 75 84 l68 -3 3 -50z m-518 35 c0 -6 -27 -10 -62 -9 -47 1 -57 3
-38 9 36 12 100 12 100 0z m178 -13 c6 -30 -7 -67 -23 -67 -19 0 -19 -9 2 -32
25 -28 0 -21 -27 7 -14 15 -35 25 -52 25 -25 0 -28 -4 -28 -31 0 -17 -4 -28
-10 -24 -12 8 -13 82 -1 89 5 3 11 -1 15 -9 3 -9 18 -15 40 -15 53 0 66 9 66
42 l0 31 -65 -5 c-37 -3 -65 -2 -65 4 0 5 32 8 72 6 61 -3 73 -6 76 -21z m577
-38 c11 -16 1 -19 -13 -3 -7 8 -8 14 -3 14 5 0 13 -5 16 -11z m-130 -138 c3
-5 1 -12 -5 -16 -5 -3 -10 1 -10 9 0 18 6 21 15 7z m-192 -118 c-7 -2 -19 -2
-25 0 -7 3 -2 5 12 5 14 0 19 -2 13 -5z m302 -43 c3 -6 -4 -10 -17 -10 -18 0
-20 2 -8 10 19 12 18 12 25 0z m-11 -44 c-6 -16 -24 -23 -24 -8 0 10 22 33 27
28 2 -2 1 -11 -3 -20z m-405 -28 c11 -11 12 -10 6 0 -6 12 -3 12 15 2 12 -6
18 -15 14 -20 -14 -12 -74 1 -74 16 0 17 22 18 39 2z m354 -3 c27 -2 51 -5 54
-8 8 -9 -7 -28 -18 -22 -5 3 -6 -1 -3 -9 4 -11 0 -16 -12 -17 -18 -1 -18 -2
-1 -6 38 -10 10 -27 -39 -24 -53 3 -64 7 -64 22 0 6 14 7 34 3 29 -5 34 -3 32
11 -1 10 -22 29 -47 42 -37 20 -39 23 -14 17 17 -3 52 -8 78 -9z m-183 -125
c0 -21 -5 -30 -16 -30 -8 0 -13 4 -10 9 3 5 -1 14 -9 21 -22 18 -18 30 10 30
21 0 25 -5 25 -30z m65 -90 c-3 -5 -14 -10 -23 -10 -15 0 -15 2 -2 10 20 13
33 13 25 0z m-7 -37 c-4 -22 -22 -20 -26 1 -2 10 3 16 13 16 10 0 15 -7 13
-17z m-473 -113 c3 -5 2 -10 -4 -10 -5 0 -13 5 -16 10 -3 6 -2 10 4 10 5 0 13
-4 16 -10z m340 -550 c8 -13 -25 -13 -45 0 -12 8 -9 10 12 10 15 0 30 -4 33
-10z m195 -15 c0 -8 5 -15 11 -15 24 0 99 -71 99 -94 0 -14 20 -42 55 -75 47
-45 57 -51 75 -41 11 6 20 15 20 20 0 6 7 10 15 10 9 0 19 -17 26 -45 14 -57
29 -67 29 -21 0 26 5 36 19 41 24 7 35 37 33 88 -2 32 1 37 21 37 12 0 38 -9
57 -20 19 -11 52 -28 73 -37 48 -21 48 -56 -3 -168 -10 -22 -30 -65 -44 -95
-27 -59 -65 -90 -110 -90 -19 0 -26 5 -26 19 0 10 -10 25 -22 33 -21 14 -22
16 -5 41 16 25 16 27 -6 51 -31 34 -134 90 -142 76 -16 -26 -97 60 -97 105 0
14 -6 25 -13 25 -6 0 -24 21 -39 48 -15 26 -35 61 -46 77 -24 39 -24 45 0 45
11 0 20 -7 20 -15z m-163 -11 c-3 -3 -12 -4 -19 -1 -8 3 -5 6 6 6 11 1 17 -2
13 -5z"/>
<path d="M10310 3680 c0 -78 3 -140 8 -138 25 11 222 133 222 138 0 4 -62 43
-192 120 l-38 22 0 -142z"/>
<path d="M11170 4528 c0 -54 19 -98 43 -98 15 0 18 -4 17 -27 -1 -5 -10 -7
-22 -5 -13 3 -19 -1 -16 -10 3 -8 24 -14 55 -16 50 -3 50 -3 45 25 -3 15 -7
22 -10 15 -2 -6 -8 -10 -13 -6 -11 7 -12 44 -1 44 15 0 9 33 -10 52 -10 10
-27 18 -37 18 -12 0 -21 8 -23 22 -2 12 -9 23 -15 26 -9 2 -13 -10 -13 -40z"/>
<path d="M11318 4553 c-38 -4 -54 -23 -19 -23 10 0 33 -3 51 -7 24 -4 31 -3
26 5 -5 8 1 12 16 13 22 0 22 1 3 9 -11 5 -24 8 -30 8 -5 -1 -27 -3 -47 -5z"/>
<path d="M11442 4549 c11 -6 29 -6 50 0 32 9 31 9 -17 10 -38 0 -46 -2 -33
-10z"/>
<path d="M10877 4519 c-82 -4 -152 -11 -155 -14 -4 -4 41 -5 101 -3 105 5 107
4 107 -17 0 -21 -6 -23 -80 -29 -53 -5 -79 -11 -77 -19 1 -8 -20 -14 -58 -18
-33 -4 -1 -4 70 -2 137 5 292 19 240 22 -26 1 -31 5 -33 30 -3 37 9 44 83 52
l60 6 -55 0 c-30 0 -122 -3 -203 -8z m41 -76 c-10 -2 -28 -2 -40 0 -13 2 -5 4
17 4 22 1 32 -1 23 -4z"/>
<path d="M11406 4502 c-3 -6 3 -12 15 -15 12 -3 19 -1 16 6 -5 15 -24 20 -31
9z"/>
<path d="M10603 4493 c9 -2 25 -2 35 0 9 3 1 5 -18 5 -19 0 -27 -2 -17 -5z"/>
<path d="M11114 4453 c-16 -12 -14 -13 17 -13 24 0 36 5 36 14 0 17 -29 17
-53 -1z"/>
<path d="M10160 4240 l-65 -7 72 -1 c39 -1 75 3 78 8 3 6 0 9 -7 8 -7 -1 -42
-4 -78 -8z"/>
<path d="M9924 4231 c-5 -5 -20 -11 -34 -14 -14 -2 -1 -5 28 -6 28 0 52 -5 52
-11 0 -5 5 -9 12 -7 6 1 15 -9 19 -23 l7 -25 1 27 c1 14 6 28 12 30 8 3 6 10
-5 21 -13 13 -22 14 -43 6 -18 -7 -28 -6 -33 1 -4 6 -10 6 -16 1z"/>
<path d="M9141 4213 c0 -12 -4 -30 -7 -40 -5 -14 -4 -15 5 -7 7 6 11 24 8 40
-3 21 -4 23 -6 7z"/>
<path d="M9165 4180 c-3 -6 1 -7 9 -4 18 7 21 14 7 14 -6 0 -13 -4 -16 -10z"/>
<path d="M9067 4173 c-3 -5 8 -8 23 -8 15 0 26 3 23 8 -2 4 -13 7 -23 7 -10 0
-21 -3 -23 -7z"/>
<path d="M11000 4078 c1 -7 9 -29 20 -48 23 -43 28 -14 5 30 -16 32 -25 38
-25 18z"/>
<path d="M9990 4013 c0 -22 2 -25 10 -13 13 20 13 40 0 40 -5 0 -10 -12 -10
-27z"/>
<path d="M9301 3956 c1 -31 6 -53 10 -50 12 7 11 91 -1 99 -6 4 -9 -15 -9 -49z"/>
<path d="M8937 3983 c-4 -3 -7 -39 -7 -80 l0 -73 30 0 c25 0 30 4 30 24 0 19
-6 26 -27 29 l-28 4 28 2 c26 1 27 3 27 51 0 46 -2 50 -23 50 -13 0 -27 -3
-30 -7z"/>
<path d="M8662 3972 c-28 -2 -52 -8 -52 -13 0 -6 5 -7 10 -4 17 11 32 -5 19
-21 -6 -7 -15 -11 -20 -8 -5 3 -9 0 -9 -5 0 -6 8 -11 18 -11 13 0 14 -2 3 -9
-21 -13 -5 -28 29 -26 16 1 46 2 65 3 l35 2 0 50 c0 46 -2 50 -23 47 -12 -1
-46 -3 -75 -5z"/>
<path d="M8770 3900 l0 -80 29 0 c15 0 49 3 75 6 36 5 46 11 46 25 0 17 -9 19
-72 20 l-73 2 67 7 c38 3 70 9 72 11 3 2 2 23 -1 47 l-6 42 -68 0 -69 0 0 -80z"/>
<path d="M9652 3955 c0 -16 2 -22 5 -12 2 9 2 23 0 30 -3 6 -5 -1 -5 -18z"/>
<path d="M9431 3894 c0 -11 3 -14 6 -6 3 7 2 16 -1 19 -3 4 -6 -2 -5 -13z"/>
<path d="M8591 3884 c0 -11 3 -14 6 -6 3 7 2 16 -1 19 -3 4 -6 -2 -5 -13z"/>
<path d="M9300 3864 c0 -14 4 -23 10 -19 6 3 10 15 10 26 0 10 -4 19 -10 19
-5 0 -10 -12 -10 -26z"/>
<path d="M9332 3870 c0 -14 2 -19 5 -12 2 6 2 18 0 25 -3 6 -5 1 -5 -13z"/>
<path d="M9142 3860 c0 -14 2 -19 5 -12 2 6 2 18 0 25 -3 6 -5 1 -5 -13z"/>
<path d="M10968 3873 c7 -3 16 -2 19 1 4 3 -2 6 -13 5 -11 0 -14 -3 -6 -6z"/>
<path d="M8610 3850 c0 -23 39 -36 98 -32 47 4 52 6 52 27 0 22 -3 23 -75 22
-59 -2 -75 -5 -75 -17z"/>
<path d="M8591 3834 c0 -11 3 -14 6 -6 3 7 2 16 -1 19 -3 4 -6 -2 -5 -13z"/>
<path d="M9713 3751 c-67 -4 -124 -9 -126 -11 -3 -3 -8 -40 -12 -84 -6 -65 -5
-78 6 -74 9 3 15 25 17 65 l3 61 72 7 c40 4 99 5 132 3 l60 -3 1 -51 c1 -54 9
-77 27 -71 13 4 18 30 17 91 -1 58 -13 77 -49 74 -14 -1 -81 -4 -148 -7z"/>
<path d="M9063 3723 c-16 -6 -18 -149 -3 -158 13 -8 21 30 18 79 -3 45 -13 43
167 48 l90 3 2 -59 c2 -63 6 -72 23 -61 11 7 8 124 -5 144 -6 11 -267 15 -292
4z"/>
<path d="M8606 3688 c-17 -56 -13 -69 27 -75 14 -2 17 5 17 36 0 26 -5 41 -16
45 -22 8 -24 8 -28 -6z m11 -40 c-3 -7 -5 -2 -5 12 0 14 2 19 5 13 2 -7 2 -19
0 -25z"/>
<path d="M8805 3686 c-3 -9 -7 -22 -9 -30 -3 -8 1 -20 9 -26 11 -9 14 -5 18
22 l4 33 1 -32 c1 -18 7 -33 13 -33 6 0 9 16 7 37 -3 40 -33 60 -43 29z"/>
<path d="M11217 3679 c-6 -24 1 -49 14 -49 5 0 9 -11 9 -24 0 -32 33 -72 50
-61 10 6 8 12 -8 24 -25 20 -19 71 9 78 19 5 25 24 12 36 -3 4 -12 2 -18 -3
-9 -7 -16 -6 -25 5 -18 21 -37 19 -43 -6z"/>
<path d="M11310 3565 c0 -9 9 -15 25 -15 16 0 25 6 25 15 0 9 -9 15 -25 15
-16 0 -25 -6 -25 -15z"/>
<path d="M11414 3573 c-39 -5 -54 -40 -20 -45 31 -5 66 12 66 34 0 10 -3 17
-7 16 -5 0 -22 -3 -39 -5z"/>
<path d="M11365 3489 c-4 -6 -5 -12 -2 -15 2 -3 7 2 10 11 7 17 1 20 -8 4z"/>
<path d="M9132 3450 c-8 -13 -8 -20 -2 -20 6 0 13 7 17 15 9 24 -1 27 -15 5z"/>
<path d="M11310 3430 c0 -5 5 -10 10 -10 6 0 10 5 10 10 0 6 -4 10 -10 10 -5
0 -10 -4 -10 -10z"/>
<path d="M11412 3408 c-7 -7 -12 -21 -12 -32 1 -18 3 -17 16 7 17 31 15 44 -4
25z"/>
<path d="M8688 3393 c7 -3 16 -2 19 1 4 3 -2 6 -13 5 -11 0 -14 -3 -6 -6z"/>
<path d="M9250 3351 c0 -12 29 -23 41 -15 5 3 7 10 4 15 -8 12 -45 12 -45 0z"/>
<path d="M8790 3324 c0 -11 5 -14 16 -10 9 3 20 6 25 6 5 0 9 5 9 10 0 6 -11
10 -25 10 -16 0 -25 -6 -25 -16z"/>
<path d="M10140 3301 c0 -11 46 -42 53 -35 3 3 3 14 0 25 -5 19 -53 29 -53 10z"/>
<path d="M10738 3283 c7 -3 16 -2 19 1 4 3 -2 6 -13 5 -11 0 -14 -3 -6 -6z"/>
<path d="M10630 3191 l-25 -7 28 -6 c19 -4 27 -1 27 8 0 8 -1 14 -2 13 -2 -1
-14 -4 -28 -8z"/>
<path d="M8750 3155 c0 -8 9 -15 20 -15 11 0 20 7 20 15 0 8 -9 15 -20 15 -11
0 -20 -7 -20 -15z"/>
<path d="M11430 3120 c0 -5 6 -10 14 -10 8 0 18 5 21 10 3 6 -3 10 -14 10 -12
0 -21 -4 -21 -10z"/>
<path d="M8720 3090 c0 -5 7 -10 16 -10 8 0 12 5 9 10 -3 6 -10 10 -16 10 -5
0 -9 -4 -9 -10z"/>
<path d="M9960 3033 c1 -20 20 -37 29 -28 7 7 4 14 -9 23 -11 7 -20 9 -20 5z"/>
<path d="M10210 3024 c-7 -8 -22 -13 -34 -12 -11 2 -21 -1 -21 -7 0 -5 9 -9
20 -7 29 4 41 4 143 -4 66 -5 92 -4 92 5 0 6 -4 11 -10 11 -5 0 -10 6 -10 13
0 19 -164 21 -180 1z"/>
<path d="M9445 2930 c3 -5 10 -10 16 -10 5 0 9 5 9 10 0 6 -7 10 -16 10 -8 0
-12 -4 -9 -10z"/>
<path d="M9505 2900 c4 -6 11 -8 16 -5 14 9 11 15 -7 15 -8 0 -12 -5 -9 -10z"/>
<path d="M10260 2859 c0 -11 5 -17 10 -14 6 3 10 13 10 21 0 8 -4 14 -10 14
-5 0 -10 -9 -10 -21z"/>
<path d="M10083 2817 c2 -7 13 -13 25 -13 26 -1 20 11 -8 19 -14 3 -20 1 -17
-6z"/>
<path d="M10419 2817 c6 -8 7 -18 3 -22 -4 -5 -2 -5 5 -1 14 8 6 36 -9 36 -7
0 -6 -5 1 -13z"/>
<path d="M10243 2800 c-15 -12 -19 -24 -16 -43 6 -33 25 -40 60 -22 15 8 24
15 18 15 -5 0 -3 5 5 10 11 7 11 10 2 10 -7 0 -10 5 -7 10 3 6 2 10 -4 10 -5
0 -16 6 -23 14 -12 11 -17 11 -35 -4z"/>
<path d="M10108 2783 c7 -3 16 -2 19 1 4 3 -2 6 -13 5 -11 0 -14 -3 -6 -6z"/>
<path d="M9572 2762 c-7 -5 -11 -15 -8 -23 2 -8 7 -27 11 -43 6 -28 7 -28 20
-9 15 21 14 75 -1 80 -5 1 -15 -1 -22 -5z"/>
<path d="M9630 2759 c0 -5 5 -7 10 -4 6 3 10 8 10 11 0 2 -4 4 -10 4 -5 0 -10
-5 -10 -11z"/>
<path d="M9777 2750 c-13 -12 -15 -20 -7 -25 6 -4 10 -21 8 -37 -2 -17 2 -33
7 -35 6 -2 11 7 12 19 1 13 5 37 8 55 7 38 -4 47 -28 23z"/>
<path d="M11310 2739 c0 -5 5 -7 10 -4 6 3 10 8 10 11 0 2 -4 4 -10 4 -5 0
-10 -5 -10 -11z"/>
<path d="M11820 2734 c0 -8 5 -12 10 -9 6 4 8 11 5 16 -9 14 -15 11 -15 -7z"/>
<path d="M9660 2725 c0 -7 -6 -18 -13 -22 -8 -4 -16 -16 -20 -25 -3 -10 -16
-18 -27 -18 -11 0 -20 -5 -20 -11 0 -7 -11 -9 -30 -6 -16 4 -32 2 -35 -3 -3
-5 0 -7 8 -5 14 6 45 -40 35 -51 -3 -3 -19 -7 -34 -8 -17 -2 -29 -9 -29 -17 0
-20 153 -20 177 0 23 18 33 73 19 112 -7 21 -7 37 0 50 8 16 6 19 -11 19 -11
0 -20 -7 -20 -15z"/>
<path d="M11719 2712 c-10 -5 -13 -15 -9 -32 5 -20 8 -22 15 -10 9 14 18 51
12 49 -1 0 -9 -3 -18 -7z"/>
<path d="M10285 2650 c3 -5 11 -10 16 -10 6 0 7 5 4 10 -3 6 -11 10 -16 10 -6
0 -7 -4 -4 -10z"/>
<path d="M9992 2615 c2 -21 8 -25 33 -25 22 0 26 3 15 9 -8 6 -19 7 -25 5 -5
-3 -2 1 7 9 20 16 14 27 -14 27 -13 0 -17 -7 -16 -25z"/>
<path d="M9391 2576 c-9 -11 -8 -15 5 -20 16 -6 33 8 34 27 0 12 -27 8 -39 -7z"/>
<path d="M10010 2571 c0 -5 7 -12 16 -15 21 -8 21 -8 21 9 0 8 -9 15 -19 15
-10 0 -18 -4 -18 -9z"/>
<path d="M10160 2570 c0 -6 7 -10 15 -10 8 0 15 2 15 4 0 2 -7 6 -15 10 -8 3
-15 1 -15 -4z"/>
<path d="M11764 2555 c-9 -23 2 -30 28 -18 l23 10 -23 12 c-18 10 -23 9 -28
-4z"/>
<path d="M12144 2492 c-6 -4 -11 -15 -11 -25 0 -21 20 -6 23 18 3 17 3 17 -12
7z"/>
<path d="M9058 2453 c6 -2 18 -2 25 0 6 3 1 5 -13 5 -14 0 -19 -2 -12 -5z"/>
<path d="M12144 2425 c3 -23 12 -26 13 -5 1 11 -2 20 -7 20 -4 0 -7 -7 -6 -15z"/>
<path d="M8790 2370 c0 -5 5 -10 10 -10 6 0 10 5 10 10 0 6 -4 10 -10 10 -5 0
-10 -4 -10 -10z"/>
<path d="M12128 2363 c7 -3 16 -2 19 1 4 3 -2 6 -13 5 -11 0 -14 -3 -6 -6z"/>
<path d="M12000 2330 c0 -13 18 -22 24 -11 3 5 -1 11 -9 15 -8 3 -15 1 -15 -4z"/>
<path d="M10656 2295 c42 -37 50 -40 59 -25 3 6 16 10 28 10 21 0 21 0 -3 17
-14 10 -38 16 -56 14 -18 -1 -35 2 -39 8 -3 6 -11 11 -17 11 -6 0 6 -16 28
-35z"/>
<path d="M10497 2310 c-17 -3 -35 -18 -47 -38 -24 -39 -24 -42 -5 -42 12 0 13
-4 4 -19 -13 -20 -6 -51 11 -51 6 0 9 14 8 32 -2 19 3 33 11 36 7 2 21 12 30
21 13 13 22 15 33 8 19 -12 51 -1 46 15 -7 21 -62 44 -91 38z"/>
<path d="M12095 2311 c-3 -5 -1 -12 5 -16 6 -4 8 -11 5 -16 -8 -12 -35 -11
-35 2 0 5 6 7 13 3 8 -5 8 -2 -2 9 -16 20 -22 22 -18 5 1 -7 -4 -13 -10 -14
-7 -1 -17 -2 -23 -3 -16 -2 -11 -28 6 -35 9 -4 22 -3 28 2 6 5 23 7 39 6 16
-2 27 2 27 9 0 7 4 6 10 -3 7 -12 12 -12 22 -2 14 14 3 28 -27 34 -11 2 -19
10 -17 16 2 14 -14 16 -23 3z"/>
<path d="M12145 2310 c-13 -6 -15 -9 -5 -9 8 0 22 4 30 9 18 12 2 12 -25 0z"/>
<path d="M11665 2254 c-9 -15 -12 -23 -6 -20 11 7 35 46 28 46 -3 0 -12 -12
-22 -26z"/>
<path d="M11081 2254 c0 -11 3 -14 6 -6 3 7 2 16 -1 19 -3 4 -6 -2 -5 -13z"/>
<path d="M10894 2200 c-7 -33 -33 -53 -58 -44 -29 11 -17 -4 16 -20 46 -24 62
-14 66 38 3 52 -15 72 -24 26z"/>
<path d="M11080 2206 c0 -8 5 -18 10 -21 6 -3 10 1 10 9 0 8 -4 18 -10 21 -5
3 -10 -1 -10 -9z"/>
<path d="M10760 2196 c0 -2 8 -10 18 -17 15 -13 16 -12 3 4 -13 16 -21 21 -21
13z"/>
<path d="M10660 2106 c0 -2 7 -9 15 -16 12 -10 15 -10 15 4 0 9 -7 16 -15 16
-8 0 -15 -2 -15 -4z"/>
<path d="M9305 2084 c-39 -12 -40 -12 -9 -13 18 -1 47 6 65 14 30 12 31 14 9
13 -14 -1 -43 -8 -65 -14z"/>
<path d="M9089 2043 c-13 -15 -10 -16 31 -9 61 10 76 26 23 26 -26 0 -46 -6
-54 -17z"/>
<path d="M9006 2031 c-4 -5 0 -11 6 -14 7 -2 -4 -7 -24 -11 -21 -4 -38 -11
-38 -16 0 -9 26 -8 35 2 4 3 25 4 48 2 35 -4 39 -2 26 8 -9 7 -14 19 -12 26 5
14 -33 17 -41 3z"/>
<path d="M11602 2015 c0 -16 2 -22 5 -12 2 9 2 23 0 30 -3 6 -5 -1 -5 -18z"/>
<path d="M10969 1996 c14 -14 26 -24 29 -22 7 8 -8 25 -31 37 -21 11 -21 10 2
-15z"/>
<path d="M11592 1950 c0 -14 2 -19 5 -12 2 6 2 18 0 25 -3 6 -5 1 -5 -13z"/>
<path d="M9090 1920 c-18 -12 -2 -12 25 0 13 6 15 9 5 9 -8 0 -22 -4 -30 -9z"/>
<path d="M8862 1890 c-47 -11 -51 -20 -6 -13 41 6 83 23 54 22 -8 -1 -30 -5
-48 -9z"/>
<path d="M8667 1860 c6 -7 28 -14 48 -15 53 -3 70 -25 20 -25 l-40 -1 25 -15
c24 -14 24 -14 -15 -9 l-40 5 35 -11 c19 -6 53 -17 74 -25 48 -17 58 -11 19
11 l-28 16 45 -6 c30 -3 38 -2 25 4 -19 8 -19 9 5 14 14 3 -2 3 -35 1 -51 -3
-56 -2 -32 7 15 6 27 14 27 19 0 12 65 22 94 14 14 -3 24 -10 21 -14 -3 -5 9
-5 27 1 18 5 34 9 36 9 2 0 0 5 -4 11 -4 7 -21 9 -40 6 -19 -3 -34 -2 -34 2 0
4 -28 4 -62 -1 -58 -8 -128 -4 -167 9 -13 5 -13 3 -4 -7z"/>
<path d="M10060 1837 l-55 -32 34 -3 c26 -3 40 3 62 24 28 27 37 44 22 44 -5
0 -33 -15 -63 -33z"/>
<path d="M9045 1812 c15 -13 106 -45 111 -39 3 3 -23 14 -57 26 -35 12 -59 17
-54 13z"/>
<path d="M9145 1800 c28 -12 37 -12 30 0 -3 6 -16 10 -28 9 -21 0 -21 -1 -2
-9z"/>
<path d="M9040 1780 c64 -23 75 -24 40 -6 -14 8 -41 16 -60 20 -24 4 -18 0 20
-14z"/>
<path d="M8941 1780 c-23 -5 -21 -7 14 -17 22 -7 41 -10 44 -8 2 3 -2 5 -10 5
-11 0 -12 2 -1 9 19 11 -14 19 -47 11z"/>
<path d="M11717 1760 c-3 -8 -8 -31 -10 -50 l-6 -35 15 34 c8 18 13 41 11 50
-3 14 -5 14 -10 1z"/>
<path d="M8886 1752 c-3 -5 20 -13 51 -19 55 -10 55 -10 32 8 -25 19 -74 25
-83 11z"/>
<path d="M10440 1746 c0 -8 -6 -16 -12 -19 -10 -3 -10 -7 1 -20 13 -16 15 -16
27 0 18 24 17 53 -1 53 -8 0 -15 -6 -15 -14z"/>
<path d="M9090 1710 c0 -5 5 -10 11 -10 5 0 7 5 4 10 -3 6 -8 10 -11 10 -2 0
-4 -4 -4 -10z"/>
<path d="M10598 1708 c9 -9 15 -9 24 0 9 9 7 12 -12 12 -19 0 -21 -3 -12 -12z"/>
<path d="M9718 1683 c7 -3 16 -2 19 1 4 3 -2 6 -13 5 -11 0 -14 -3 -6 -6z"/>
<path d="M10450 1661 c0 -6 4 -12 10 -16 5 -3 6 -13 3 -22 -5 -13 -2 -13 21 2
l28 18 -24 13 c-28 16 -38 17 -38 5z"/>
<path d="M8977 1653 c-14 -13 -6 -23 19 -23 22 0 25 2 14 15 -14 16 -23 19
-33 8z"/>
<path d="M9135 1650 c3 -5 8 -10 11 -10 2 0 4 5 4 10 0 6 -5 10 -11 10 -5 0
-7 -4 -4 -10z"/>
<path d="M9725 1640 c-3 -5 1 -10 9 -10 9 0 16 5 16 10 0 6 -4 10 -9 10 -6 0
-13 -4 -16 -10z"/>
<path d="M9784 1628 c-3 -4 2 -8 10 -8 8 0 17 4 20 8 3 5 -2 9 -10 9 -8 0 -17
-4 -20 -9z"/>
<path d="M9180 1616 c0 -2 7 -9 15 -16 9 -7 15 -8 15 -2 0 5 -7 12 -15 16 -8
3 -15 4 -15 2z"/>
<path d="M11900 1610 c0 -5 5 -10 10 -10 6 0 10 5 10 10 0 6 -4 10 -10 10 -5
0 -10 -4 -10 -10z"/>
<path d="M9154 1574 c0 -15 7 -24 17 -24 21 0 20 25 -2 38 -14 9 -17 7 -15
-14z"/>
<path d="M11862 1540 c0 -19 2 -27 5 -17 2 9 2 25 0 35 -3 9 -5 1 -5 -18z"/>
<path d="M11910 1560 c0 -5 7 -10 15 -10 8 0 15 5 15 10 0 6 -7 10 -15 10 -8
0 -15 -4 -15 -10z"/>
<path d="M10310 1520 c0 -11 7 -20 15 -20 17 0 18 2 9 24 -9 23 -24 20 -24 -4z"/>
<path d="M11900 1520 c0 -5 5 -10 11 -10 5 0 7 5 4 10 -3 6 -8 10 -11 10 -2 0
-4 -4 -4 -10z"/>
<path d="M10410 1502 c0 -7 -6 -11 -12 -9 -16 3 -17 -25 -2 -30 11 -4 28 37
19 46 -3 2 -5 -1 -5 -7z"/>
<path d="M10313 1478 c17 -46 18 -59 5 -57 -25 3 -38 -1 -38 -12 0 -5 5 -7 10
-4 6 4 17 1 25 -5 11 -9 18 -8 31 4 11 12 20 14 28 6 19 -15 26 -1 13 27 -15
32 -86 71 -74 41z"/>
<path d="M10990 1481 c0 -6 5 -13 10 -16 6 -3 10 1 10 9 0 9 -4 16 -10 16 -5
0 -10 -4 -10 -9z"/>
<path d="M11940 1481 c0 -5 5 -13 10 -16 6 -3 10 -2 10 4 0 5 -4 13 -10 16 -5
3 -10 2 -10 -4z"/>
<path d="M11726 1445 c-9 -26 -7 -32 5 -12 6 10 9 21 6 23 -2 3 -7 -2 -11 -11z"/>
<path d="M10636 1325 c-18 -13 -18 -14 3 -12 11 1 23 7 25 14 7 17 -4 16 -28
-2z"/>
<path d="M9680 1260 c0 -5 5 -10 10 -10 6 0 10 5 10 10 0 6 -4 10 -10 10 -5 0
-10 -4 -10 -10z"/>
<path d="M9884 1255 c-17 -13 -17 -14 -2 -15 9 0 20 5 23 11 11 17 0 20 -21 4z"/>
<path d="M11856 1185 c-6 -80 -15 -132 -32 -200 -3 -15 -1 -14 10 5 14 26 41
232 34 266 -2 10 -7 -21 -12 -71z"/>
<path d="M11628 1222 c-10 -20 -16 -38 -13 -40 5 -6 37 58 33 67 -2 5 -11 -8
-20 -27z"/>
<path d="M9548 1233 c7 -3 16 -2 19 1 4 3 -2 6 -13 5 -11 0 -14 -3 -6 -6z"/>
<path d="M11000 1223 c0 -10 -7 -26 -14 -36 -19 -25 -9 -59 17 -55 27 4 42 54
25 86 -14 26 -28 29 -28 5z"/>
<path d="M10720 1220 c-13 -8 -12 -10 3 -10 9 0 17 5 17 10 0 12 -1 12 -20 0z"/>
<path d="M10293 1193 c-20 -8 -15 -29 7 -30 14 -1 20 4 20 18 0 19 -5 22 -27
12z"/>
<path d="M10518 1183 c7 -3 16 -2 19 1 4 3 -2 6 -13 5 -11 0 -14 -3 -6 -6z"/>
<path d="M9663 1153 c-13 -2 -23 -8 -23 -12 0 -5 -13 -11 -30 -14 -18 -4 -30
-13 -30 -22 0 -15 -14 -19 -55 -16 -11 1 -34 -12 -52 -28 -18 -16 -38 -31 -45
-33 -7 -3 -3 -7 10 -10 13 -4 31 1 44 11 27 21 43 18 78 -15 23 -21 29 -22 68
-12 26 6 50 20 59 35 18 27 17 30 -17 35 -20 2 -25 -1 -24 -19 0 -19 -4 -21
-35 -19 -21 2 -35 8 -33 14 1 7 -3 12 -10 12 -6 0 -2 11 11 23 13 14 44 29 76
36 35 8 55 18 55 27 0 14 -6 15 -47 7z"/>
<path d="M9720 1146 c0 -9 40 -13 46 -5 3 5 -6 9 -20 9 -14 0 -26 -2 -26 -4z"/>
<path d="M10765 1120 c-42 -19 -39 -23 22 -34 31 -5 43 5 43 40 0 18 -16 17
-65 -6z"/>
<path d="M9870 1089 c0 -9 43 -24 70 -24 15 0 25 6 25 14 0 9 -14 14 -48 15
-26 0 -47 -2 -47 -5z"/>
<path d="M11610 1062 c-32 -47 -34 -52 -22 -52 13 0 55 67 50 80 -2 5 -14 -7
-28 -28z"/>
<path d="M9871 1059 c-1 -16 -49 -66 -58 -61 -7 4 -55 -79 -49 -85 3 -3 13 5
23 18 10 13 33 39 51 58 27 28 35 32 43 20 12 -19 11 -73 -1 -85 -8 -8 -6 -15
5 -24 8 -7 16 -9 17 -4 5 28 2 100 -5 105 -5 4 -13 22 -17 40 -4 19 -8 27 -9
18z"/>
<path d="M10830 1066 c0 -2 11 -6 25 -8 14 -3 25 -1 25 3 0 5 -11 9 -25 9 -14
0 -25 -2 -25 -4z"/>
<path d="M10652 1015 c0 -16 2 -22 5 -12 2 9 2 23 0 30 -3 6 -5 -1 -5 -18z"/>
<path d="M10457 1023 c-4 -3 -7 -13 -7 -22 1 -13 3 -13 11 2 11 19 8 33 -4 20z"/>
<path d="M10006 1003 c-9 -10 -7 -25 3 -19 5 3 21 -4 37 -16 15 -13 24 -17 20
-9 -7 10 -3 12 15 6 13 -4 34 -13 46 -21 18 -11 22 -11 27 1 4 11 -10 19 -52
30 -31 9 -64 20 -73 25 -9 5 -20 6 -23 3z"/>
<path d="M10527 1003 c-4 -3 -7 -11 -7 -17 0 -6 5 -5 12 2 6 6 9 14 7 17 -3 3
-9 2 -12 -2z"/>
<path d="M9580 945 c0 -37 22 -49 34 -19 9 24 8 28 -14 42 -19 11 -20 10 -20
-23z"/>
<path d="M10240 949 c0 -5 5 -7 10 -4 6 3 10 8 10 11 0 2 -4 4 -10 4 -5 0 -10
-5 -10 -11z"/>
<path d="M10501 934 c0 -11 3 -14 6 -6 3 7 2 16 -1 19 -3 4 -6 -2 -5 -13z"/>
<path d="M12018 943 c6 -2 18 -2 25 0 6 3 1 5 -13 5 -14 0 -19 -2 -12 -5z"/>
<path d="M10933 915 c0 -10 10 -15 31 -15 29 1 30 1 12 15 -25 19 -43 19 -43
0z"/>
<path d="M10665 910 c-19 -8 -19 -9 3 -9 12 -1 22 4 22 9 0 6 -1 10 -2 9 -2 0
-12 -4 -23 -9z"/>
<path d="M10500 886 c0 -10 -6 -13 -16 -9 -12 4 -15 2 -12 -8 6 -16 103 -18
120 -1 6 6 -6 8 -38 4 -32 -3 -45 -2 -40 6 3 6 2 13 -4 17 -5 3 -10 -1 -10 -9z"/>
<path d="M12090 842 c0 -10 11 -24 24 -32 27 -14 61 -7 51 11 -5 8 -10 8 -18
0 -16 -16 -30 -13 -23 4 3 9 -3 19 -14 25 -17 9 -20 7 -20 -8z"/>
<path d="M10686 835 c-3 -8 -1 -15 4 -15 6 0 10 7 10 15 0 8 -2 15 -4 15 -2 0
-6 -7 -10 -15z"/>
<path d="M10040 823 c-13 -15 -12 -16 4 -10 10 4 20 7 22 7 2 0 4 5 4 10 0 15
-13 12 -30 -7z"/>
<path d="M10080 820 c0 -5 5 -10 11 -10 5 0 7 5 4 10 -3 6 -8 10 -11 10 -2 0
-4 -4 -4 -10z"/>
<path d="M10930 815 c-11 -13 -10 -14 4 -9 9 3 16 10 16 15 0 13 -6 11 -20 -6z"/>
<path d="M10960 815 c0 -9 6 -12 15 -9 8 4 12 10 9 15 -8 14 -24 10 -24 -6z"/>
<path d="M10840 811 c0 -5 9 -11 20 -14 24 -6 27 8 4 17 -21 8 -24 8 -24 -3z"/>
<path d="M9591 789 c-1 -19 -24 -31 -45 -23 -8 3 -17 1 -21 -5 -3 -7 3 -11 15
-11 13 0 20 -5 18 -12 -3 -7 -11 -13 -19 -13 -8 0 -24 -11 -37 -24 -17 -19
-25 -22 -34 -13 -15 15 -28 15 -28 1 0 -5 4 -7 10 -4 6 4 9 -4 7 -17 -2 -20 3
-23 31 -23 28 -1 32 2 32 26 0 19 6 30 20 34 26 8 63 61 57 83 -4 15 -5 15 -6
1z"/>
<path d="M10007 794 c-4 -4 -4 -10 -1 -15 6 -10 34 0 34 12 0 10 -24 12 -33 3z"/>
<path d="M10920 769 c13 -23 33 -25 28 -2 -2 9 -11 17 -20 19 -15 2 -16 -1 -8
-17z"/>
<path d="M10106 765 c-11 -8 -15 -15 -10 -15 6 0 19 7 30 15 10 8 15 14 9 14
-5 0 -19 -6 -29 -14z"/>
<path d="M10780 769 c0 -5 5 -7 10 -4 6 3 10 8 10 11 0 2 -4 4 -10 4 -5 0 -10
-5 -10 -11z"/>
<path d="M10828 773 c-24 -6 -23 -23 2 -23 11 0 20 7 20 15 0 8 -1 14 -2 14
-2 -1 -11 -3 -20 -6z"/>
<path d="M10860 774 c0 -3 6 -12 14 -19 17 -17 30 -7 15 12 -12 13 -29 18 -29
7z"/>
<path d="M10620 750 c0 -13 5 -20 13 -17 6 2 12 10 12 17 0 7 -6 15 -12 18 -8
2 -13 -5 -13 -18z"/>
<path d="M10740 740 c0 -16 5 -30 11 -30 5 0 7 5 4 10 -3 6 -1 10 4 10 6 0 11
-4 11 -8 0 -18 -26 -32 -61 -32 -32 0 -36 -3 -32 -20 5 -21 53 -30 53 -10 0
15 17 12 35 -6 9 -9 31 -18 50 -20 28 -2 34 1 38 23 4 23 2 25 -24 21 -25 -4
-29 -1 -29 19 0 13 -4 23 -10 23 -5 0 -10 4 -10 10 0 5 7 7 15 4 8 -4 15 -13
15 -21 0 -8 5 -11 10 -8 6 3 10 0 10 -7 0 -9 3 -9 10 2 14 23 -9 39 -62 43
-10 1 -18 7 -18 14 0 7 -4 13 -10 13 -5 0 -10 -13 -10 -30z m50 -69 c9 -19 9
-22 -1 -19 -7 2 -14 15 -16 28 -4 27 -1 25 17 -9z"/>
<path d="M9805 745 c-31 -10 -36 -14 -22 -20 19 -8 77 12 77 26 0 11 -4 10
-55 -6z"/>
<path d="M10410 750 c0 -5 5 -10 11 -10 5 0 7 5 4 10 -3 6 -8 10 -11 10 -2 0
-4 -4 -4 -10z"/>
<path d="M9416 741 c-4 -7 -5 -15 -2 -18 9 -9 19 4 14 18 -4 11 -6 11 -12 0z"/>
<path d="M10685 740 c-3 -5 -2 -10 4 -10 5 0 13 5 16 10 3 6 2 10 -4 10 -5 0
-13 -4 -16 -10z"/>
<path d="M9700 730 c0 -12 28 -25 36 -17 3 3 -4 10 -15 17 -15 7 -21 7 -21 0z"/>
<path d="M10458 733 c7 -3 16 -2 19 1 4 3 -2 6 -13 5 -11 0 -14 -3 -6 -6z"/>
<path d="M10590 731 c0 -18 12 -41 22 -41 5 0 6 5 3 10 -3 6 2 10 11 10 16 0
16 1 -2 15 -22 17 -34 19 -34 6z"/>
<path d="M10084 722 c3 -5 0 -13 -6 -15 -8 -3 -6 -6 5 -6 19 -1 23 14 5 25 -6
4 -8 3 -4 -4z"/>
<path d="M10902 710 c-9 -14 -8 -20 1 -24 7 -3 2 -3 -10 0 -19 4 -23 1 -23
-19 0 -20 4 -25 23 -22 12 1 30 6 40 10 13 5 16 3 11 -8 -7 -20 16 -34 27 -16
14 22 10 49 -6 49 -8 0 -15 6 -15 13 0 7 -8 17 -18 24 -15 9 -21 7 -30 -7z
m68 -55 c0 -8 -4 -15 -8 -15 -5 0 -9 7 -9 15 0 8 4 15 9 15 4 0 8 -7 8 -15z"/>
<path d="M12119 682 c-3 -20 -2 -29 4 -23 5 5 7 19 5 32 -3 20 -5 19 -9 -9z"/>
<path d="M12157 689 c4 -13 8 -18 11 -10 2 7 -1 18 -6 23 -8 8 -9 4 -5 -13z"/>
<path d="M12045 689 c-3 -8 -2 -26 3 -39 9 -24 9 -24 20 -4 9 16 8 26 -3 40
-12 17 -14 17 -20 3z"/>
<path d="M9776 673 c-6 -14 -5 -15 5 -6 7 7 10 15 7 18 -3 3 -9 -2 -12 -12z"/>
<path d="M11010 671 c0 -12 5 -21 10 -21 6 0 10 6 10 14 0 8 -4 18 -10 21 -5
3 -10 -3 -10 -14z"/>
<path d="M9282 662 c-7 -5 -16 -23 -22 -40 -5 -20 -5 -30 1 -27 5 4 9 -3 9
-14 0 -12 5 -21 11 -21 5 0 7 -4 4 -10 -3 -6 1 -7 9 -4 11 4 16 0 16 -10 0
-26 17 -17 63 33 12 13 32 27 45 32 17 6 22 16 22 41 l-1 33 -13 -31 c-17 -38
-34 -50 -49 -35 -6 6 -21 11 -34 11 -16 0 -27 8 -33 25 -11 28 -10 28 -28 17z"/>
<path d="M9536 663 c-11 -11 -6 -23 9 -23 8 0 15 4 15 9 0 13 -16 22 -24 14z"/>
<path d="M10530 661 c0 -5 5 -13 10 -16 6 -3 10 -2 10 4 0 5 -4 13 -10 16 -5
3 -10 2 -10 -4z"/>
<path d="M10253 634 c0 -27 5 -29 30 -10 14 11 15 16 5 22 -25 16 -35 12 -35
-12z"/>
<path d="M10185 640 c-3 -5 -1 -10 4 -10 6 0 11 5 11 10 0 6 -2 10 -4 10 -3 0
-8 -4 -11 -10z"/>
<path d="M12171 613 c-11 -37 -7 -53 10 -53 6 0 7 9 4 20 -9 28 18 26 38 -2
l16 -23 0 22 c1 12 4 28 7 37 5 12 0 14 -26 11 -24 -3 -30 0 -26 11 3 8 1 14
-4 14 -5 0 -14 -16 -19 -37z"/>
<path d="M11000 630 c0 -5 5 -10 10 -10 6 0 10 5 10 10 0 6 -4 10 -10 10 -5 0
-10 -4 -10 -10z"/>
<path d="M10210 605 c0 -16 16 -20 24 -6 3 5 -1 11 -9 15 -9 3 -15 0 -15 -9z"/>
<path d="M11090 590 c-24 -17 21 -49 57 -42 22 5 24 7 9 10 -11 2 -27 13 -35
23 -12 14 -20 16 -31 9z"/>
<path d="M10996 568 c-3 -13 -6 -34 -6 -47 0 -14 -7 -32 -15 -41 -13 -15 -12
-19 16 -39 26 -20 35 -21 56 -12 14 6 40 9 59 5 19 -3 34 -2 34 2 -1 14 -79
64 -100 64 -17 0 -20 7 -20 45 0 48 -14 60 -24 23z"/>
<path d="M12071 580 c0 -8 3 -21 8 -28 7 -11 9 -10 14 3 4 9 3 13 -2 10 -5 -3
-12 3 -14 12 -3 13 -5 14 -6 3z"/>
<path d="M12117 573 c-4 -3 -7 -13 -7 -20 0 -12 3 -12 15 1 8 8 15 17 15 20 0
8 -15 7 -23 -1z"/>
<path d="M12250 553 c0 -7 7 -13 15 -13 8 0 15 6 15 13 0 8 -7 14 -15 14 -8 0
-15 -6 -15 -14z"/>
<path d="M11040 550 c0 -13 28 -25 38 -16 3 4 0 11 -8 16 -20 13 -30 12 -30 0z"/>
<path d="M12194 548 c-5 -7 -3 -8 6 -3 9 5 11 4 6 -3 -4 -7 -15 -8 -29 -3 -19
7 -23 5 -24 -11 -1 -11 1 -18 4 -14 3 3 13 0 21 -7 13 -10 14 -9 7 3 -8 13 -6
13 8 2 13 -11 14 -17 4 -32 -8 -14 -13 -16 -19 -7 -5 8 -8 7 -8 -5 0 -9 4 -19
8 -22 10 -6 10 -46 -1 -62 -4 -7 2 -14 16 -18 35 -9 40 -7 27 9 -11 13 -10 14
5 9 15 -6 17 -1 14 39 -2 26 -1 48 2 49 4 2 9 14 11 28 2 19 -1 24 -14 22 -10
-2 -18 2 -18 8 0 5 6 10 13 10 8 0 7 4 -3 10 -20 13 -27 12 -36 -2z"/>
<path d="M10071 541 c-9 -6 -10 -11 -2 -15 6 -4 16 -4 21 -1 6 3 10 0 10 -8 0
-8 7 -18 16 -21 23 -9 27 -8 20 9 -3 8 -1 15 4 15 6 0 10 5 10 11 0 6 -8 8
-19 4 -11 -3 -22 -1 -26 5 -8 12 -16 12 -34 1z"/>
<path d="M10750 539 c0 -5 5 -7 10 -4 6 3 10 8 10 11 0 2 -4 4 -10 4 -5 0 -10
-5 -10 -11z"/>
<path d="M11347 491 c-4 -24 -5 -46 -2 -49 3 -3 5 6 6 19 l1 24 8 -25 c4 -14
8 -19 9 -12 1 6 10 12 21 12 28 0 25 18 -4 26 -15 3 -26 14 -28 27 -2 14 -6 5
-11 -22z"/>
<path d="M10396 493 c9 -38 14 -42 14 -10 0 14 -5 29 -10 32 -7 4 -8 -3 -4
-22z"/>
<path d="M9156 502 c-3 -5 1 -9 9 -9 8 0 15 4 15 9 0 4 -4 8 -9 8 -6 0 -12 -4
-15 -8z"/>
<path d="M9623 479 c-7 -7 -13 -29 -13 -48 0 -20 -7 -45 -15 -55 -20 -26 -19
-33 4 -39 12 -3 22 1 25 10 3 7 14 13 23 11 23 -4 30 39 9 55 -8 7 -16 27 -18
45 -2 27 -5 31 -15 21z"/>
<path d="M10215 480 c-3 -5 -1 -10 4 -10 6 0 11 5 11 10 0 6 -2 10 -4 10 -3 0
-8 -4 -11 -10z"/>
<path d="M10021 449 c7 -14 14 -19 16 -12 3 7 11 9 19 6 8 -3 14 0 14 7 0 6
-8 10 -17 8 -10 -1 -24 1 -31 6 -12 7 -12 4 -1 -15z"/>
<path d="M11505 440 c3 -5 11 -10 16 -10 6 0 7 5 4 10 -3 6 -11 10 -16 10 -6
0 -7 -4 -4 -10z"/>
<path d="M10660 431 c0 -10 29 -36 34 -30 1 2 -6 12 -16 22 -10 9 -18 13 -18
8z"/>
<path d="M11491 414 c0 -11 3 -14 6 -6 3 7 2 16 -1 19 -3 4 -6 -2 -5 -13z"/>
<path d="M10610 405 c-7 -8 -16 -12 -21 -9 -5 3 -9 0 -9 -5 0 -6 6 -11 14 -11
8 0 22 -3 32 -7 13 -5 16 -3 11 10 -3 9 -2 17 4 17 6 0 7 5 4 10 -9 14 -21 12
-35 -5z"/>
<path d="M10915 410 c-4 -7 0 -19 9 -28 13 -14 16 -14 16 -2 0 25 -16 44 -25
30z"/>
<path d="M12265 410 c-3 -5 -2 -10 4 -10 5 0 13 5 16 10 3 6 2 10 -4 10 -5 0
-13 -4 -16 -10z"/>
<path d="M10957 383 c-4 -3 -7 -11 -7 -17 0 -6 5 -5 12 2 6 6 9 14 7 17 -3 3
-9 2 -12 -2z"/>
<path d="M10574 346 c-19 -14 -18 -15 3 -13 12 0 20 4 17 8 -2 4 2 10 8 12 7
3 8 6 2 6 -5 1 -19 -5 -30 -13z"/>
<path d="M11501 344 c0 -11 3 -14 6 -6 3 7 2 16 -1 19 -3 4 -6 -2 -5 -13z"/>
<path d="M9920 340 c0 -5 5 -10 10 -10 6 0 10 5 10 10 0 6 -4 10 -10 10 -5 0
-10 -4 -10 -10z"/>
<path d="M11520 340 c0 -5 4 -10 9 -10 6 0 13 5 16 10 3 6 -1 10 -9 10 -9 0
-16 -4 -16 -10z"/>
<path d="M8928 6710 c-25 -16 -40 -48 -33 -71 4 -10 24 -28 46 -39 53 -28 51
-44 -6 -38 -42 5 -45 4 -45 -17 0 -56 132 -44 147 13 8 32 -5 52 -50 77 -47
25 -47 38 -1 33 27 -3 38 0 45 15 6 10 8 21 5 24 -11 11 -92 13 -108 3z"/>
<path d="M1693 6684 l-53 -46 0 -89 0 -89 30 0 c30 0 30 1 30 54 0 57 7 66 55
66 36 0 55 -26 55 -76 0 -40 2 -44 25 -44 25 0 25 1 25 88 l0 88 -54 47 c-30
26 -56 47 -58 47 -2 0 -27 -21 -55 -46z"/>
<path d="M1832 6700 c0 -14 2 -19 5 -12 2 6 2 18 0 25 -3 6 -5 1 -5 -13z"/>
<path d="M2247 6614 c-14 -14 -7 -53 12 -63 26 -14 54 8 49 40 -2 17 -10 25
-28 27 -14 2 -29 0 -33 -4z"/>
<path d="M2717 6614 c-12 -12 -8 -51 7 -63 24 -20 58 4 54 37 -2 20 -9 28 -28
30 -14 2 -29 0 -33 -4z"/>
<path d="M1596 5852 c-3 -6 3 -21 14 -33 17 -21 21 -22 30 -9 12 19 13 40 1
40 -5 0 -16 3 -24 6 -8 3 -18 1 -21 -4z"/>
<path d="M1679 5831 c-16 -16 -29 -34 -29 -39 0 -11 76 -61 133 -88 38 -18 39
-18 53 1 8 10 14 36 14 58 0 55 -43 97 -100 97 -33 0 -48 -6 -71 -29z"/>
<path d="M1650 5739 c0 -12 13 -34 29 -50 23 -22 39 -29 70 -29 43 0 63 15 33
24 -10 4 -44 22 -75 40 -52 32 -57 33 -57 15z"/>
<path d="M1855 5700 c-8 -26 -6 -29 26 -32 30 -4 32 19 2 39 -19 13 -22 12
-28 -7z"/>
<path d="M2393 5782 c-26 -17 -19 -70 12 -84 21 -9 28 -8 45 7 48 43 -3 112
-57 77z"/>
<path d="M2600 5771 c-15 -29 -12 -46 10 -66 39 -35 96 17 70 65 -14 27 -65
27 -80 1z"/>
<path d="M2840 5770 c-10 -19 -8 -20 35 -20 46 0 54 7 33 28 -19 19 -56 14
-68 -8z"/>
<path d="M9310 5670 c-12 -8 -10 -10 8 -10 13 0 20 4 17 10 -7 12 -6 12 -25 0z"/>
<path d="M9312 5625 c0 -16 2 -22 5 -12 2 9 2 23 0 30 -3 6 -5 -1 -5 -18z"/>
<path d="M8983 5450 c0 -25 2 -35 4 -22 2 12 2 32 0 45 -2 12 -4 2 -4 -23z"/>
<path d="M9478 5395 c-1 -30 0 -55 5 -55 4 0 7 25 7 55 0 71 -7 71 -12 0z"/>
<path d="M8982 5365 c0 -16 2 -22 5 -12 2 9 2 23 0 30 -3 6 -5 -1 -5 -18z"/>
<path d="M9141 5364 c0 -11 3 -14 6 -6 3 7 2 16 -1 19 -3 4 -6 -2 -5 -13z"/>
<path d="M8950 5291 c0 -12 5 -21 10 -21 6 0 10 6 10 14 0 8 -4 18 -10 21 -5
3 -10 -3 -10 -14z"/>
<path d="M8990 5290 c0 -5 10 -10 23 -10 18 0 19 2 7 10 -19 13 -30 13 -30 0z"/>
<path d="M8980 5260 c-12 -8 -10 -10 8 -10 13 0 20 4 17 10 -7 12 -6 12 -25 0z"/>
<path d="M8982 5215 c0 -16 2 -22 5 -12 2 9 2 23 0 30 -3 6 -5 -1 -5 -18z"/>
<path d="M8981 5164 c0 -11 3 -14 6 -6 3 7 2 16 -1 19 -3 4 -6 -2 -5 -13z"/>
<path d="M8758 5073 c7 -3 16 -2 19 1 4 3 -2 6 -13 5 -11 0 -14 -3 -6 -6z"/>
<path d="M8822 4980 c-3 -71 -17 -100 -51 -100 -11 0 -21 -4 -21 -8 0 -4 16
-6 35 -4 29 3 35 1 36 -14 0 -18 1 -17 9 1 13 29 12 35 -5 29 -8 -4 -15 -2
-15 4 0 6 5 12 11 14 6 2 9 30 6 73 l-3 70 -2 -65z"/>
<path d="M9140 4982 c-3 -28 -3 -52 0 -52 3 0 15 -3 28 -6 12 -4 22 -2 22 4 0
5 -8 9 -17 8 -14 -1 -19 9 -23 49 l-6 50 -4 -53z"/>
<path d="M9195 4990 c-16 -7 -17 -9 -3 -9 9 -1 20 4 23 9 7 11 7 11 -20 0z"/>
<path d="M9253 4993 c9 -2 23 -2 30 0 6 3 -1 5 -18 5 -16 0 -22 -2 -12 -5z"/>
<path d="M9078 4973 c7 -3 16 -2 19 1 4 3 -2 6 -13 5 -11 0 -14 -3 -6 -6z"/>
<path d="M8938 4963 c7 -3 16 -2 19 1 4 3 -2 6 -13 5 -11 0 -14 -3 -6 -6z"/>
<path d="M8868 4953 c7 -3 16 -2 19 1 4 3 -2 6 -13 5 -11 0 -14 -3 -6 -6z"/>
<path d="M8758 4943 c6 -2 18 -2 25 0 6 3 1 5 -13 5 -14 0 -19 -2 -12 -5z"/>
<path d="M9195 4910 c-19 -8 -19 -9 3 -9 12 -1 22 4 22 9 0 6 -1 10 -2 9 -2 0
-12 -4 -23 -9z"/>
<path d="M8821 4814 c0 -11 3 -14 6 -6 3 7 2 16 -1 19 -3 4 -6 -2 -5 -13z"/>
<path d="M9142 4780 c0 -19 2 -27 5 -17 2 9 2 25 0 35 -3 9 -5 1 -5 -18z"/>
<path d="M8918 4793 c7 -3 16 -2 19 1 4 3 -2 6 -13 5 -11 0 -14 -3 -6 -6z"/>
<path d="M8918 4723 c6 -2 18 -2 25 0 6 3 1 5 -13 5 -14 0 -19 -2 -12 -5z"/>
<path d="M8821 4604 c0 -11 3 -14 6 -6 3 7 2 16 -1 19 -3 4 -6 -2 -5 -13z"/>
<path d="M8806 4508 c3 -5 10 -6 15 -3 13 9 11 12 -6 12 -8 0 -12 -4 -9 -9z"/>
<path d="M8758 4503 c7 -3 16 -2 19 1 4 3 -2 6 -13 5 -11 0 -14 -3 -6 -6z"/>
<path d="M8663 4440 c0 -25 2 -35 4 -22 2 12 2 32 0 45 -2 12 -4 2 -4 -23z"/>
<path d="M8663 4325 c0 -22 2 -30 4 -17 2 12 2 30 0 40 -3 9 -5 -1 -4 -23z"/>
<path d="M1604 4986 c-3 -7 -4 -42 -2 -77 l3 -64 84 -3 c97 -3 101 -1 101 75
0 83 0 83 -96 83 -62 0 -86 -4 -90 -14z"/>
<path d="M1868 4968 c-19 -13 -28 -29 -28 -48 0 -19 9 -36 28 -50 l27 -22 3
36 c2 20 2 51 0 70 l-3 35 -27 -21z"/>
<path d="M2422 4938 c-21 -21 -13 -28 33 -28 25 0 45 4 45 8 0 15 -24 32 -45
32 -12 0 -26 -5 -33 -12z"/>
<path d="M9338 4383 c7 -3 16 -2 19 1 4 3 -2 6 -13 5 -11 0 -14 -3 -6 -6z"/>
<path d="M1783 4174 c-18 -8 -16 -49 3 -65 23 -19 49 1 49 37 0 29 -22 40 -52
28z"/>
<path d="M1654 4146 c-9 -24 4 -48 23 -44 12 2 18 12 18 28 0 29 -32 41 -41
16z"/>
<path d="M2242 4098 c-34 -34 2 -98 48 -83 24 7 37 51 23 74 -13 20 -54 26
-71 9z"/>
<path d="M2522 4098 c-34 -34 2 -98 48 -83 24 7 37 51 23 74 -13 20 -54 26
-71 9z"/>
<path d="M3100 4095 c-17 -20 -5 -62 20 -70 47 -15 82 23 60 65 -13 24 -61 27
-80 5z"/>
<path d="M1780 4032 c-26 -4 -60 -29 -60 -44 0 -4 42 -8 92 -8 l93 0 -25 24
c-27 26 -61 35 -100 28z"/>
<path d="M8696 2846 c-4 -19 -2 -33 6 -38 18 -11 61 -10 54 1 -3 5 0 14 8 20
25 21 8 47 -29 47 -29 0 -34 -4 -39 -30z"/>
<path d="M8887 2749 c7 -7 15 -10 18 -7 3 3 -2 9 -12 12 -14 6 -15 5 -6 -5z"/>
<path d="M8880 2680 c0 -5 5 -10 10 -10 6 0 10 5 10 10 0 6 -4 10 -10 10 -5 0
-10 -4 -10 -10z"/>
<path d="M8797 2649 c7 -7 15 -10 18 -7 3 3 -2 9 -12 12 -14 6 -15 5 -6 -5z"/>
<path d="M8906 2653 c-11 -11 -6 -21 14 -26 11 -3 20 -3 20 0 0 10 -28 32 -34
26z"/>
<path d="M1720 2866 c0 -25 -30 -46 -55 -40 -33 8 -54 -30 -31 -55 21 -23 20
-40 -1 -63 -24 -27 -6 -53 36 -53 31 -1 51 -17 51 -42 0 -8 13 -13 30 -13 19
0 30 5 30 14 0 25 30 46 55 40 33 -8 54 30 31 55 -21 23 -20 40 1 63 24 27 6
53 -36 53 -31 1 -51 17 -51 43 0 7 -13 12 -30 12 -19 0 -30 -5 -30 -14z m68
-88 c7 -7 12 -24 12 -38 0 -33 -17 -50 -50 -50 -33 0 -50 17 -50 50 0 33 17
50 50 50 14 0 31 -5 38 -12z"/>
<path d="M1733 2767 c-21 -27 -23 -36 -7 -51 19 -20 54 -5 54 24 0 25 -34 45
-47 27z"/>
<path d="M12830 2779 c-32 -13 -78 -56 -96 -91 -19 -37 -17 -105 5 -153 11
-26 15 -48 10 -60 -15 -38 -11 -45 17 -35 15 6 59 8 103 4 98 -8 141 9 182 75
77 121 -9 273 -153 270 -24 0 -54 -5 -68 -10z"/>
<path d="M2237 2763 c-20 -20 -4 -33 38 -33 43 0 45 1 35 20 -10 20 -58 28
-73 13z"/>
<path d="M2802 2758 c-7 -7 -12 -21 -12 -33 0 -12 5 -26 12 -33 7 -7 21 -12
33 -12 29 0 45 19 45 51 0 37 -51 54 -78 27z"/>
<path d="M12854 2185 c-21 -32 -11 -90 17 -106 16 -8 26 -7 45 6 19 12 24 24
24 58 0 24 -5 48 -12 55 -20 20 -56 14 -74 -13z"/>
<path d="M1671 1979 c-26 -26 -31 -38 -31 -79 0 -69 41 -110 110 -110 41 0 53
5 79 31 26 26 31 38 31 79 0 69 -41 110 -110 110 -41 0 -53 -5 -79 -31z m119
-24 c10 -12 8 -21 -11 -50 -13 -19 -27 -35 -31 -35 -14 0 -9 13 13 36 12 13
19 30 16 38 -8 21 -44 20 -56 -1 -5 -10 -13 -15 -17 -11 -12 13 18 38 46 38
15 0 33 -7 40 -15z m-36 -126 c-3 -5 -10 -7 -15 -3 -5 3 -7 10 -3 15 3 5 10 7
15 3 5 -3 7 -10 3 -15z"/>
<path d="M2280 1910 c-10 -19 -8 -20 35 -20 46 0 54 7 33 28 -19 19 -56 14
-68 -8z"/>
<path d="M2513 1922 c-26 -17 -19 -70 12 -84 21 -9 28 -8 45 7 48 43 -3 112
-57 77z"/>
<path d="M12928 1608 c-3 -31 -6 -33 -50 -40 -61 -8 -102 -38 -122 -88 -27
-67 -22 -74 27 -46 25 15 61 26 92 27 49 3 50 3 55 -28 l5 -31 64 57 c35 32
61 62 58 68 -4 6 -34 34 -66 62 l-60 52 -3 -33z"/>
<path d="M1653 1193 c-9 -3 -13 -29 -13 -78 l0 -73 43 0 c23 -1 64 -6 91 -12
78 -17 86 -11 86 72 0 68 -1 70 -23 64 -12 -3 -51 4 -86 14 -64 20 -77 22 -98
13z"/>
<path d="M2090 1090 l0 -41 41 3 c80 6 80 70 0 76 l-41 3 0 -41z"/>
<path d="M2262 1078 c-21 -21 -13 -28 33 -28 25 0 45 4 45 8 0 15 -24 32 -45
32 -12 0 -26 -5 -33 -12z"/>
<path d="M2572 1078 c-25 -25 -4 -88 29 -88 26 0 49 23 49 48 0 33 -16 52 -45
52 -12 0 -26 -5 -33 -12z"/>
<path d="M12884 959 c-10 -17 13 -36 27 -22 12 12 4 33 -11 33 -5 0 -12 -5
-16 -11z"/>
<path d="M12884 809 c-10 -17 13 -36 27 -22 12 12 4 33 -11 33 -5 0 -12 -5
-16 -11z"/>
<path d="M12884 659 c-10 -17 13 -36 27 -22 12 12 4 33 -11 33 -5 0 -12 -5
-16 -11z"/>
<path d="M2540 230 c-25 -47 22 -94 66 -65 26 17 30 35 14 66 -15 26 -66 26
-80 -1z"/>
<path d="M3382 238 c-31 -31 6 -96 47 -83 39 12 49 65 17 87 -17 12 -51 9 -64
-4z"/>
<path d="M2237 243 c-20 -20 -4 -33 38 -33 43 0 45 1 35 20 -10 20 -58 28 -73
13z"/>
<path d="M2917 243 c-20 -20 -4 -33 38 -33 43 0 45 1 35 20 -10 20 -58 28 -73
13z"/>
<path d="M3062 238 c-21 -21 -13 -28 33 -28 25 0 45 4 45 8 0 15 -24 32 -45
32 -12 0 -26 -5 -33 -12z"/>
<path d="M3525 190 c-8 -13 13 -40 31 -40 15 0 44 27 44 41 0 13 -67 11 -75
-1z"/>
</g>
</svg>
