<?xml version="1.0" standalone="no"?>
<!DOCTYPE svg PUBLIC "-//W3C//DTD SVG 20010904//EN"
 "http://www.w3.org/TR/2001/REC-SVG-20010904/DTD/svg10.dtd">
<svg version="1.0" xmlns="http://www.w3.org/2000/svg"
 width="1920.000000pt" height="839.000000pt" viewBox="0 0 1920.000000 839.000000"
 preserveAspectRatio="xMidYMid meet">

<g transform="translate(0.000000,839.000000) scale(0.100000,-0.100000)"
fill="#000000" stroke="none">
<path d="M15255 7405 l-25 -24 0 -251 0 -251 25 -24 24 -25 826 0 826 0 24 25
25 24 0 251 0 251 -25 24 -24 25 -826 0 -826 0 -24 -25z m1183 -198 c2 -11 -3
-17 -17 -17 -23 0 -35 15 -26 31 10 15 39 6 43 -14z m-408 -10 c0 -20 4 -23
29 -19 42 6 73 -28 69 -75 -4 -51 -38 -74 -100 -66 l-48 6 0 88 c0 88 0 89 25
89 20 0 25 -5 25 -23z m-242 1 c18 -18 14 -38 -8 -38 -11 0 -20 5 -20 10 0 6
-9 10 -21 10 -33 0 -19 -33 19 -42 20 -6 37 -18 44 -34 10 -21 8 -28 -10 -46
-24 -24 -73 -28 -96 -8 -22 18 -20 40 4 40 11 0 20 -5 20 -11 0 -6 10 -9 23
-7 32 4 25 20 -19 43 -41 21 -55 54 -34 81 15 17 81 19 98 2z m728 -10 c27
-27 30 -38 9 -38 -11 0 -15 -11 -15 -39 0 -25 5 -41 15 -45 25 -9 17 -26 -14
-26 -38 0 -47 14 -53 79 -9 92 10 114 58 69z m-648 -66 c3 -48 5 -53 25 -50
19 3 22 10 25 56 3 44 6 53 20 50 14 -3 18 -17 20 -69 l3 -66 -43 -6 c-68 -9
-98 21 -98 97 0 37 7 48 30 44 11 -2 16 -18 18 -56z m397 48 c6 -1 21 2 35 5
42 10 72 -21 78 -83 4 -51 4 -52 -22 -52 -25 0 -26 3 -26 49 0 28 -5 53 -10
56 -21 13 -40 -17 -40 -61 0 -37 -3 -44 -20 -44 -17 0 -20 7 -20 49 0 35 -4
51 -16 55 -26 10 -34 -3 -34 -55 0 -42 -3 -49 -20 -49 -18 0 -20 7 -20 69 l0
70 53 -4 c28 -3 57 -5 62 -5z m173 -63 c3 -62 1 -67 -18 -67 -18 0 -20 6 -20
71 0 62 2 70 18 67 14 -3 18 -16 20 -71z"/>
<path d="M16042 7141 c-8 -5 -12 -21 -10 -37 2 -23 8 -29 28 -29 18 0 26 6 28
23 3 22 -13 52 -27 52 -3 0 -12 -4 -19 -9z"/>
<path d="M10280 6105 c-25 -30 15 -70 45 -45 20 16 19 46 -1 54 -23 9 -30 8
-44 -9z"/>
<path d="M9593 6079 c-51 -15 -83 -61 -83 -120 0 -81 47 -129 125 -129 66 0
125 54 125 114 0 26 -1 26 -70 26 -63 0 -70 -2 -70 -19 0 -16 8 -20 43 -23
l42 -3 -24 -24 c-18 -18 -30 -22 -55 -17 -39 8 -56 30 -56 73 0 58 67 97 100
58 13 -16 80 -21 80 -6 0 21 -44 61 -78 71 -20 5 -39 10 -42 9 -3 0 -19 -5
-37 -10z"/>
<path d="M8310 5955 l0 -125 60 0 c111 0 160 39 160 127 0 86 -47 123 -155
123 l-65 0 0 -125z m140 55 c20 -20 27 -74 12 -96 -11 -16 -48 -34 -71 -34
-19 0 -21 6 -21 75 l0 75 30 0 c17 0 39 -9 50 -20z"/>
<path d="M10560 5955 l0 -125 30 0 30 0 0 125 0 125 -30 0 -30 0 0 -125z"/>
<path d="M10670 5955 l0 -125 30 0 30 0 0 78 0 77 51 -77 c45 -67 56 -78 80
-78 l29 0 0 125 0 125 -30 0 -29 0 -3 -72 -3 -71 -48 71 c-41 63 -51 72 -77
72 l-30 0 0 -125z"/>
<path d="M8585 6005 c-20 -19 -25 -34 -25 -75 0 -41 5 -56 25 -75 27 -28 82
-34 104 -12 11 10 14 10 18 0 3 -7 18 -13 34 -13 l29 0 0 100 0 100 -29 0
c-16 0 -31 -6 -34 -12 -4 -10 -7 -10 -18 0 -22 21 -77 15 -104 -13z m111 -50
c15 -23 15 -27 0 -50 -28 -43 -76 -27 -76 25 0 52 48 68 76 25z"/>
<path d="M8810 5930 l0 -100 30 0 c30 0 30 1 30 54 0 59 16 86 51 86 14 0 19
7 19 30 0 35 -22 40 -52 13 -17 -15 -18 -15 -18 0 0 12 -9 17 -30 17 l-30 0 0
-100z"/>
<path d="M8950 6025 c0 -3 17 -47 38 -98 l39 -92 -23 -50 -24 -50 26 -3 c15
-2 31 1 36 6 8 8 128 280 128 289 0 2 -15 3 -33 3 -31 0 -34 -3 -52 -55 -10
-30 -21 -55 -25 -55 -4 0 -15 25 -25 55 -18 52 -21 55 -52 55 -18 0 -33 -2
-33 -5z"/>
<path d="M9217 6012 c-64 -70 -28 -182 58 -182 17 0 36 5 43 12 9 9 12 9 12 0
0 -7 13 -12 30 -12 l30 0 0 100 0 100 -30 0 c-17 0 -30 -5 -30 -12 0 -9 -3 -9
-12 0 -19 19 -82 15 -101 -6z m102 -46 c31 -37 -9 -103 -46 -80 -37 23 -24 94
17 94 10 0 23 -6 29 -14z"/>
<path d="M9822 6023 c-19 -8 -42 -59 -42 -95 0 -32 21 -74 44 -90 16 -11 64
-10 87 2 13 7 19 7 19 0 0 -5 14 -10 30 -10 l30 0 0 100 0 100 -30 0 c-16 0
-30 -5 -30 -10 0 -7 -6 -7 -19 0 -20 10 -66 12 -89 3z m98 -64 c23 -43 -8 -87
-51 -74 -44 14 -30 95 16 95 14 0 29 -9 35 -21z"/>
<path d="M10030 5930 l0 -100 30 0 c30 0 30 0 30 56 0 67 13 94 44 94 30 0 36
-16 36 -91 0 -59 0 -59 30 -59 l30 0 0 78 c0 65 -3 82 -20 100 -22 24 -68 29
-101 12 -13 -7 -19 -7 -19 0 0 5 -13 10 -30 10 l-30 0 0 -100z"/>
<path d="M10280 5915 c0 -105 -2 -115 -21 -125 -13 -7 -19 -19 -17 -33 2 -18
9 -22 33 -20 55 4 65 30 65 169 l0 124 -30 0 -30 0 0 -115z"/>
<path d="M10381 5840 c-14 -64 -14 -60 8 -60 12 0 23 14 35 43 22 57 20 67 -8
67 -21 0 -26 -7 -35 -50z"/>
<path d="M9167 5593 c-4 -3 -7 -14 -7 -24 0 -9 -6 -20 -12 -23 -10 -5 -10 -7
0 -12 7 -3 12 -26 12 -60 0 -30 5 -54 10 -54 6 0 10 23 10 51 0 38 5 55 18 65
16 13 16 13 0 14 -19 0 -26 30 -8 30 6 0 10 5 10 10 0 11 -23 14 -33 3z"/>
<path d="M9540 5593 c-27 -10 -40 -36 -40 -83 0 -53 22 -90 54 -90 36 0 57 23
63 68 5 41 -11 102 -27 102 -5 0 -14 2 -22 4 -7 3 -20 2 -28 -1z m38 -22 c19
-11 27 -83 13 -110 -13 -23 -40 -28 -59 -9 -18 18 -15 94 4 112 18 18 24 19
42 7z"/>
<path d="M9690 5593 c-27 -10 -40 -36 -40 -83 0 -53 22 -90 54 -90 36 0 57 23
63 68 5 41 -11 102 -27 102 -5 0 -14 2 -22 4 -7 3 -20 2 -28 -1z m38 -22 c19
-11 27 -83 13 -110 -13 -23 -40 -28 -59 -9 -18 18 -15 94 4 112 18 18 24 19
42 7z"/>
<path d="M9889 5593 c-37 -9 -53 -109 -23 -151 22 -31 69 -30 90 3 17 27 16
118 -2 134 -13 12 -46 19 -65 14z m45 -29 c18 -18 21 -76 6 -105 -6 -10 -19
-19 -30 -19 -24 0 -40 29 -40 74 0 32 20 66 40 66 5 0 16 -7 24 -16z"/>
<path d="M10039 5593 c-37 -9 -53 -109 -23 -151 22 -31 69 -30 90 3 17 27 16
118 -2 134 -13 12 -46 19 -65 14z m45 -29 c18 -18 21 -76 6 -105 -6 -10 -19
-19 -30 -19 -24 0 -40 29 -40 74 0 32 20 66 40 66 5 0 16 -7 24 -16z"/>
<path d="M8695 5578 c-2 -7 -16 -44 -30 -82 -14 -38 -23 -71 -21 -74 8 -7 26
9 26 24 0 10 12 14 39 14 31 0 41 -4 46 -20 6 -19 26 -29 24 -12 0 4 -12 40
-28 81 -26 72 -46 97 -56 69z m29 -96 c-36 -9 -43 1 -27 38 l15 35 13 -35 c10
-29 10 -36 -1 -38z"/>
<path d="M9290 5580 c0 -5 5 -10 10 -10 6 0 10 -32 10 -75 0 -43 4 -75 10 -75
6 0 10 35 10 85 0 78 -2 85 -20 85 -11 0 -20 -4 -20 -10z"/>
<path d="M9373 5576 c13 -10 17 -28 17 -85 0 -41 4 -71 10 -71 6 0 10 35 10
85 l0 85 -27 0 c-25 -1 -26 -2 -10 -14z"/>
<path d="M10265 5578 c-2 -7 -16 -44 -30 -82 -14 -38 -23 -71 -21 -74 8 -7 26
9 26 24 0 10 12 14 39 14 31 0 41 -4 46 -20 6 -19 26 -29 24 -12 0 4 -12 40
-28 81 -26 72 -46 97 -56 69z m29 -96 c-36 -9 -43 1 -27 38 l15 35 13 -35 c10
-29 10 -36 -1 -38z"/>
<path d="M10387 5583 c-11 -10 -8 -163 3 -163 5 0 10 26 12 58 l3 57 27 -57
c15 -32 31 -58 35 -58 5 0 20 26 35 58 l26 57 1 -57 c1 -32 6 -58 11 -58 6 0
10 35 10 85 0 49 -4 85 -10 85 -5 0 -23 -29 -39 -65 -16 -36 -32 -65 -34 -65
-3 0 -19 29 -36 65 -31 67 -33 70 -44 58z"/>
<path d="M8814 5535 c-10 -25 3 -44 41 -59 20 -9 34 -20 30 -26 -9 -14 -52
-13 -58 3 -2 6 -8 9 -12 5 -14 -13 17 -38 46 -38 57 0 57 62 -1 75 -17 4 -30
13 -30 20 0 20 28 26 45 8 18 -18 30 -11 22 12 -8 20 -75 21 -83 0z"/>
<path d="M9022 5543 c-23 -9 -34 -54 -21 -85 20 -49 95 -51 117 -3 29 63 -29
115 -96 88z m73 -58 c0 -39 -1 -40 -35 -40 -31 0 -35 3 -38 28 -5 46 4 59 40
55 31 -3 33 -5 33 -43z"/>
<path d="M9447 5544 c-8 -8 1 -24 14 -24 5 0 9 7 9 15 0 15 -12 20 -23 9z"/>
<path d="M9800 5535 c0 -8 5 -15 10 -15 6 0 10 7 10 15 0 8 -4 15 -10 15 -5 0
-10 -7 -10 -15z"/>
<path d="M9447 5444 c-8 -8 1 -24 14 -24 5 0 9 7 9 15 0 15 -12 20 -23 9z"/>
<path d="M9800 5435 c0 -8 5 -15 10 -15 6 0 10 7 10 15 0 8 -4 15 -10 15 -5 0
-10 -7 -10 -15z"/>
<path d="M9814 5071 c-50 -31 -68 -104 -39 -165 46 -96 199 -84 233 18 16 51
1 106 -39 140 -38 32 -108 35 -155 7z m110 -57 c22 -22 20 -77 -4 -99 -53 -48
-122 43 -70 95 24 24 53 26 74 4z"/>
<path d="M10260 5021 c-130 -40 -195 -131 -194 -271 1 -87 16 -130 68 -188 53
-58 122 -85 211 -80 95 4 158 37 203 102 46 70 44 76 -32 76 -57 0 -67 -3 -95
-29 -67 -63 -174 -42 -212 42 -34 75 -20 156 36 207 22 21 37 25 85 25 53 0
62 -3 92 -32 31 -31 39 -33 101 -33 l67 0 -15 38 c-23 56 -93 118 -155 136
-57 17 -118 19 -160 7z"/>
<path d="M8745 4981 c-68 -31 -115 -96 -115 -157 0 -23 2 -24 74 -24 66 0 75
2 81 20 10 33 34 50 69 50 42 0 66 -26 66 -73 0 -45 -28 -67 -87 -67 l-43 0 0
-64 0 -63 45 -5 c58 -7 92 -30 100 -69 10 -45 -20 -83 -68 -87 -47 -4 -76 12
-89 49 -10 29 -11 29 -85 29 l-76 0 7 -42 c18 -120 150 -195 295 -168 114 21
178 99 169 206 -5 60 -26 96 -75 130 l-30 20 38 32 c91 77 67 227 -43 281 -58
28 -175 29 -233 2z"/>
<path d="M9323 4975 c-97 -45 -139 -144 -137 -330 2 -224 83 -329 254 -329
133 -1 207 56 245 189 25 86 18 280 -14 350 -45 102 -112 144 -226 145 -53 0
-82 -6 -122 -25z m186 -144 c45 -45 54 -255 14 -323 -23 -39 -78 -58 -117 -40
-44 20 -60 57 -64 155 -5 108 11 191 41 212 31 22 103 19 126 -4z"/>
<path d="M9656 3692 c-16 -4 -31 -13 -34 -21 -4 -11 0 -12 14 -6 55 23 116 26
170 9 50 -15 57 -15 117 1 58 16 69 16 123 2 62 -16 76 -15 56 5 -11 11 -110
14 -232 7 -14 -1 -61 1 -105 4 -44 3 -93 3 -109 -1z"/>
<path d="M8960 3560 c0 -96 17 -125 22 -37 3 50 4 52 33 52 29 0 30 -2 33 -52
4 -69 22 -68 22 1 0 62 -15 80 -60 74 -27 -4 -30 -2 -30 24 0 15 -4 28 -10 28
-6 0 -10 -37 -10 -90z"/>
<path d="M9650 3617 c-41 -14 -59 -55 -19 -43 84 26 118 28 173 11 52 -17 58
-17 119 0 58 16 68 16 123 2 56 -15 83 -10 70 11 -12 20 -95 35 -153 27 -65
-8 -117 -8 -213 0 -39 3 -79 0 -100 -8z"/>
<path d="M9123 3588 c-19 -24 -24 -56 -12 -82 13 -28 32 -35 92 -33 l37 1 0
61 0 61 -54 2 c-33 1 -57 -3 -63 -10z m86 -30 c14 -38 -2 -63 -40 -63 -30 0
-34 3 -37 28 -5 43 4 57 38 57 23 0 33 -6 39 -22z"/>
<path d="M9270 3590 c0 -5 11 -10 25 -10 14 0 25 -2 25 -6 0 -3 -11 -22 -25
-42 -35 -51 -32 -62 15 -62 22 0 40 5 40 10 0 6 -14 10 -30 10 l-31 0 31 44
c16 25 30 49 30 55 0 6 -18 11 -40 11 -22 0 -40 -4 -40 -10z"/>
<path d="M9392 3588 c-27 -34 -21 -88 12 -110 21 -14 63 -8 81 12 14 16 15 20
4 20 -8 0 -20 -5 -26 -11 -16 -16 -57 -7 -61 14 -3 14 4 17 47 17 43 0 51 3
51 18 0 42 -82 72 -108 40z m82 -24 c4 -11 -4 -14 -34 -14 -42 0 -52 12 -24
28 21 12 51 4 58 -14z"/>
<path d="M9660 3537 c-28 -7 -45 -18 -45 -27 0 -16 15 -17 85 -3 33 7 61 5
101 -6 50 -13 64 -13 120 0 47 12 76 13 109 6 69 -14 85 -14 85 3 0 23 -89 42
-155 34 -68 -9 -128 -9 -200 -1 -33 4 -73 2 -100 -6z"/>
<path d="M9660 3457 c-28 -8 -46 -19 -48 -30 -3 -15 2 -17 40 -10 24 5 64 7
91 6 57 -2 179 -2 245 0 26 1 65 -1 87 -3 31 -4 40 -2 40 10 0 10 -20 19 -60
28 -49 11 -72 11 -126 2 -36 -7 -81 -10 -100 -6 -72 14 -126 15 -169 3z"/>
<path d="M4125 2538 c-3 -7 -18 -67 -34 -133 -24 -101 -26 -121 -14 -123 8 -2
17 -1 20 2 6 6 62 233 63 254 0 6 -7 12 -15 12 -9 0 -18 -6 -20 -12z"/>
<path d="M3680 2490 c0 -13 7 -20 20 -20 13 0 20 7 20 20 0 13 -7 20 -20 20
-13 0 -20 -7 -20 -20z"/>
<path d="M7790 2490 c0 -13 7 -20 20 -20 13 0 20 7 20 20 0 13 -7 20 -20 20
-13 0 -20 -7 -20 -20z"/>
<path d="M8025 2500 c-4 -7 -3 -16 3 -22 14 -14 45 -2 40 15 -6 16 -34 21 -43
7z"/>
<path d="M14790 2490 c0 -13 7 -20 20 -20 13 0 20 7 20 20 0 13 -7 20 -20 20
-13 0 -20 -7 -20 -20z"/>
<path d="M14995 2500 c-4 -7 -3 -16 3 -22 14 -14 45 -2 40 15 -6 16 -34 21
-43 7z"/>
<path d="M15225 2500 c-4 -7 -3 -16 3 -22 14 -14 45 -2 40 15 -6 16 -34 21
-43 7z"/>
<path d="M15370 2490 c0 -13 7 -20 20 -20 13 0 20 7 20 20 0 13 -7 20 -20 20
-13 0 -20 -7 -20 -20z"/>
<path d="M3910 2410 c0 -83 1 -90 20 -90 16 0 20 7 20 34 0 47 9 66 30 66 21
0 30 -19 30 -66 0 -28 4 -34 21 -34 20 0 21 4 17 55 -6 66 -16 79 -63 77 -31
-1 -35 1 -35 23 0 18 -5 25 -20 25 -19 0 -20 -7 -20 -90z"/>
<path d="M7950 2470 c0 -28 -2 -30 -21 -20 -47 26 -97 -47 -68 -99 13 -23 22
-26 72 -28 l57 -2 0 90 c0 82 -1 89 -20 89 -16 0 -20 -7 -20 -30z m-2 -79 c4
-29 -15 -43 -40 -30 -21 11 -23 30 -6 47 19 19 43 10 46 -17z"/>
<path d="M15060 2411 l0 -88 55 -1 c66 0 85 14 85 67 0 47 -19 65 -65 63 -31
-1 -35 2 -35 23 0 18 -5 25 -20 25 -18 0 -20 -7 -20 -89z m98 -20 c4 -25 -13
-42 -34 -34 -19 7 -26 34 -13 50 17 20 43 12 47 -16z"/>
<path d="M15300 2410 c0 -83 1 -90 20 -90 19 0 20 7 20 90 0 83 -1 90 -20 90
-19 0 -20 -7 -20 -90z"/>
<path d="M3500 2405 c0 -78 2 -85 20 -85 16 0 20 7 20 35 0 33 2 35 35 35 33
0 35 -2 35 -35 0 -28 4 -35 20 -35 18 0 20 7 20 85 0 78 -2 85 -20 85 -16 0
-20 -7 -20 -36 0 -34 -1 -35 -32 -32 -29 3 -33 7 -36 36 -2 24 -8 32 -23 32
-17 0 -19 -8 -19 -85z"/>
<path d="M4180 2405 l0 -85 50 0 c37 0 50 4 50 14 0 9 -12 16 -27 18 -27 3
-28 5 -31 71 -3 59 -5 67 -22 67 -18 0 -20 -7 -20 -85z"/>
<path d="M7200 2405 c0 -78 2 -85 20 -85 16 0 20 7 20 35 0 32 2 35 30 35 28
0 30 -3 30 -35 0 -28 4 -35 20 -35 18 0 20 7 20 85 0 78 -2 85 -20 85 -16 0
-20 -7 -20 -35 0 -32 -2 -35 -30 -35 -28 0 -30 3 -30 35 0 28 -4 35 -20 35
-18 0 -20 -7 -20 -85z"/>
<path d="M8100 2470 c0 -11 -4 -20 -10 -20 -5 0 -10 -7 -10 -15 0 -8 5 -15 10
-15 6 0 10 -17 10 -38 0 -43 14 -62 47 -62 26 0 32 25 8 34 -9 3 -15 18 -15
36 0 20 5 30 15 30 8 0 15 7 15 15 0 8 -7 15 -15 15 -8 0 -15 9 -15 20 0 13
-7 20 -20 20 -13 0 -20 -7 -20 -20z"/>
<path d="M10920 2405 c0 -78 2 -85 20 -85 16 0 20 7 20 30 0 25 4 30 25 30 28
0 65 32 65 55 0 30 -38 55 -85 55 l-45 0 0 -85z m78 43 c8 -8 9 -15 1 -25 -18
-21 -39 -15 -39 12 0 27 18 33 38 13z"/>
<path d="M14624 2423 c37 -106 36 -104 63 -101 21 2 29 14 48 63 40 107 40
107 14 103 -17 -2 -26 -16 -41 -57 -10 -30 -20 -56 -22 -58 -2 -2 -13 22 -23
54 -15 44 -25 59 -41 61 l-21 3 23 -68z"/>
<path d="M15441 2458 c-11 -24 -11 -33 -3 -36 7 -2 12 -23 12 -47 0 -43 10
-55 46 -55 18 0 18 24 -1 40 -8 7 -15 23 -15 36 0 15 6 24 15 24 8 0 15 6 15
14 0 8 -7 16 -15 20 -8 3 -15 12 -15 21 0 27 -25 16 -39 -17z"/>
<path d="M3767 2440 c-31 -25 -35 -64 -11 -99 14 -19 23 -22 50 -18 26 4 34 2
34 -9 0 -22 -28 -28 -56 -14 -27 15 -39 9 -30 -15 7 -20 53 -37 77 -30 40 13
49 33 49 116 l0 79 -27 -1 c-16 -1 -35 1 -44 5 -9 4 -26 -2 -42 -14z m71 -46
c2 -11 -4 -27 -13 -34 -22 -19 -50 9 -40 39 9 29 49 25 53 -5z"/>
<path d="M4333 2450 c-44 -18 -56 -77 -23 -110 41 -41 120 -12 120 44 0 47
-53 83 -97 66z m52 -51 c5 -14 1 -27 -9 -37 -15 -15 -17 -15 -32 0 -20 20 -10
58 16 58 10 0 22 -10 25 -21z"/>
<path d="M7578 2452 l-38 -3 0 -65 c0 -57 2 -64 19 -64 17 0 20 8 23 48 3 39
6 47 23 47 17 0 20 -8 23 -47 3 -39 7 -48 22 -48 15 0 19 9 22 48 3 39 6 47
23 47 17 0 20 -8 23 -47 3 -40 6 -48 23 -48 18 0 20 6 17 57 -3 49 -6 59 -27
69 -16 8 -32 9 -48 3 -12 -4 -33 -5 -45 -1 -13 4 -40 6 -60 4z"/>
<path d="M11200 2447 c-19 -9 -26 -22 -28 -51 -5 -63 43 -95 99 -66 31 17 22
32 -18 28 -22 -2 -38 2 -40 10 -3 8 9 12 41 12 38 0 46 3 46 18 0 40 -60 69
-100 49z m55 -37 c4 -6 -5 -10 -19 -10 -14 0 -26 5 -26 10 0 6 9 10 19 10 11
0 23 -4 26 -10z"/>
<path d="M11342 2449 c-18 -7 -23 -15 -20 -36 2 -21 10 -29 36 -37 47 -13 39
-27 -10 -20 l-43 7 19 -22 c21 -23 74 -29 94 -9 23 23 13 48 -23 64 -45 19
-45 27 1 18 34 -6 36 -6 25 15 -7 11 -16 21 -21 21 -4 0 -14 2 -22 4 -7 3 -23
1 -36 -5z"/>
<path d="M11480 2447 c-36 -18 -32 -49 8 -66 42 -19 41 -34 -3 -25 -39 7 -48
-8 -16 -26 26 -14 64 -13 79 2 23 23 13 48 -23 64 -20 8 -33 19 -29 25 4 8 10
7 17 0 13 -13 47 -15 47 -2 0 10 -39 41 -50 41 -3 0 -16 -6 -30 -13z"/>
<path d="M11880 2447 c-19 -9 -26 -22 -28 -51 -5 -63 43 -95 99 -66 31 17 22
32 -18 28 -22 -2 -38 2 -40 10 -3 8 9 12 41 12 38 0 46 3 46 18 0 40 -60 69
-100 49z m55 -37 c4 -6 -5 -10 -19 -10 -14 0 -26 5 -26 10 0 6 9 10 19 10 11
0 23 -4 26 -10z"/>
<path d="M14882 2449 c-18 -7 -23 -15 -20 -36 2 -21 10 -29 36 -37 47 -13 39
-27 -10 -20 l-43 7 19 -22 c11 -12 31 -21 47 -21 26 0 59 22 59 40 0 15 -31
40 -50 40 -20 0 -33 13 -23 23 3 4 14 2 25 -4 10 -6 26 -9 34 -7 12 2 13 6 2
19 -17 22 -48 30 -76 18z"/>
<path d="M3680 2385 c0 -58 2 -65 20 -65 18 0 20 7 20 65 0 58 -2 65 -20 65
-18 0 -20 -7 -20 -65z"/>
<path d="M4440 2445 c0 -3 7 -32 17 -65 14 -51 20 -60 39 -60 18 0 24 7 30 35
7 40 19 38 27 -5 5 -23 12 -30 31 -30 20 0 25 7 35 48 7 26 14 55 17 65 4 12
0 17 -14 17 -16 0 -22 -9 -28 -42 l-7 -43 -12 40 c-9 32 -17 40 -35 40 -18 0
-26 -8 -35 -40 l-12 -40 -7 43 c-6 32 -12 42 -27 42 -10 0 -19 -2 -19 -5z"/>
<path d="M7370 2407 c0 -65 20 -86 80 -85 l50 1 0 64 c0 49 -3 63 -15 63 -10
0 -15 -10 -15 -33 0 -18 -6 -42 -14 -52 -21 -29 -46 -3 -46 46 0 32 -3 39 -20
39 -17 0 -20 -7 -20 -43z"/>
<path d="M7790 2385 c0 -58 2 -65 20 -65 18 0 20 7 20 65 0 58 -2 65 -20 65
-18 0 -20 -7 -20 -65z"/>
<path d="M8020 2385 c0 -58 2 -65 20 -65 18 0 20 7 20 65 0 58 -2 65 -20 65
-18 0 -20 -7 -20 -65z"/>
<path d="M8183 2438 c46 -116 45 -113 31 -146 -12 -30 -12 -32 9 -32 18 0 28
14 54 78 49 116 48 112 25 112 -14 0 -25 -12 -35 -37 l-15 -38 -16 38 c-12 26
-23 37 -37 37 -13 0 -19 -5 -16 -12z"/>
<path d="M11070 2384 c0 -57 2 -64 20 -64 17 0 20 7 20 41 0 32 4 42 20 46 11
3 20 13 20 23 0 14 -9 18 -40 18 l-40 1 0 -65z"/>
<path d="M11590 2396 c0 -31 5 -58 13 -64 6 -5 36 -10 65 -10 l52 0 0 64 c0
57 -2 64 -20 64 -17 0 -20 -7 -20 -44 0 -31 -5 -46 -16 -50 -26 -10 -34 2 -34
50 0 37 -3 44 -20 44 -18 0 -20 -7 -20 -54z"/>
<path d="M11750 2384 c0 -57 2 -64 20 -64 17 0 20 7 20 41 0 32 4 42 20 46 11
3 20 13 20 23 0 14 -9 18 -40 18 l-40 1 0 -65z"/>
<path d="M14790 2385 c0 -58 2 -65 20 -65 18 0 20 7 20 65 0 58 -2 65 -20 65
-18 0 -20 -7 -20 -65z"/>
<path d="M14990 2385 c0 -58 2 -65 20 -65 18 0 20 7 20 65 0 58 -2 65 -20 65
-18 0 -20 -7 -20 -65z"/>
<path d="M15230 2385 c0 -58 2 -65 20 -65 18 0 20 7 20 65 0 58 -2 65 -20 65
-18 0 -20 -7 -20 -65z"/>
<path d="M15370 2385 c0 -58 2 -65 20 -65 18 0 20 7 20 65 0 58 -2 65 -20 65
-18 0 -20 -7 -20 -65z"/>
<path d="M15546 2393 c24 -56 26 -76 9 -116 -6 -15 -4 -18 14 -15 17 2 30 20
53 73 52 121 51 115 24 115 -19 0 -26 -7 -31 -30 -10 -43 -22 -45 -35 -5 -9
27 -17 35 -36 35 l-24 0 26 -57z"/>
<path d="M4056 2084 c-16 -63 -26 -118 -22 -121 7 -8 10 1 41 124 28 114 28
113 17 113 -4 0 -21 -52 -36 -116z"/>
<path d="M11493 2080 c0 -47 2 -67 4 -45 5 46 18 65 43 65 21 0 30 -19 30 -66
0 -19 5 -34 10 -34 6 0 10 20 10 43 0 54 -25 81 -63 72 -22 -6 -26 -3 -30 22
-2 15 -4 -10 -4 -57z"/>
<path d="M3787 2143 c-4 -3 -7 -13 -7 -20 0 -12 3 -11 16 2 20 20 48 16 52 -8
3 -12 -4 -20 -17 -24 -27 -7 -27 -19 -1 -26 29 -8 27 -47 -3 -47 -13 0 -28 5
-35 12 -6 6 -14 9 -17 6 -12 -12 28 -39 53 -36 34 4 51 32 34 58 -9 16 -10 24
0 39 9 15 9 23 -1 35 -13 16 -62 22 -74 9z"/>
<path d="M3912 2138 c-18 -18 -15 -103 4 -122 37 -38 84 -7 84 55 0 22 -5 49
-10 60 -12 22 -59 26 -78 7z m57 -12 c7 -8 11 -34 9 -58 -2 -36 -7 -44 -25
-46 -28 -4 -46 35 -36 76 9 41 32 52 52 28z"/>
<path d="M4136 2134 c-9 -23 -2 -28 14 -9 15 18 32 19 47 4 16 -16 5 -39 -18
-39 -27 0 -24 -18 4 -22 31 -4 30 -42 -2 -46 -13 -2 -27 2 -32 9 -4 8 -11 10
-15 6 -12 -11 17 -37 42 -37 30 0 57 28 48 49 -4 9 -7 34 -8 56 -1 39 -2 40
-37 43 -27 2 -38 -1 -43 -14z"/>
<path d="M4260 2124 c-23 -60 0 -124 44 -124 43 0 66 56 46 114 -10 32 -15 36
-46 36 -28 0 -36 -5 -44 -26z m70 -3 c23 -44 9 -101 -25 -101 -26 0 -35 17
-35 64 0 52 39 76 60 37z"/>
<path d="M7571 2136 c-7 -9 -8 -17 -3 -20 6 -3 13 1 16 10 4 9 15 14 28 12 31
-4 31 -42 1 -46 -13 -2 -23 -7 -23 -12 0 -5 10 -10 23 -12 14 -2 23 -11 25
-25 3 -18 -1 -23 -20 -23 -13 0 -29 5 -36 12 -17 17 -27 2 -12 -17 17 -21 69
-16 84 7 8 13 8 23 -2 38 -9 15 -10 26 -2 41 9 15 8 24 -1 35 -15 18 -63 18
-78 0z"/>
<path d="M7690 2114 c-20 -58 3 -114 46 -114 44 0 67 64 44 124 -8 21 -16 26
-44 26 -31 0 -36 -4 -46 -36z m68 14 c13 -13 16 -66 6 -92 -3 -9 -16 -16 -29
-16 -25 0 -35 17 -35 56 0 52 31 79 58 52z"/>
<path d="M7820 2136 c-18 -22 -5 -48 22 -44 17 2 23 10 23 28 0 29 -26 38 -45
16z m40 -22 c0 -8 -7 -14 -15 -14 -15 0 -21 21 -9 33 10 9 24 -2 24 -19z"/>
<path d="M7913 2138 c-26 -33 -81 -138 -73 -138 11 0 94 139 87 146 -2 2 -9
-1 -14 -8z"/>
<path d="M11038 2138 c7 -7 12 -39 12 -75 0 -35 4 -63 10 -63 6 0 10 32 10 75
0 71 -1 75 -22 75 -17 0 -19 -3 -10 -12z"/>
<path d="M11122 2138 c-18 -18 -15 -103 4 -122 37 -38 84 -7 84 55 0 22 -5 49
-10 60 -12 22 -59 26 -78 7z m57 -12 c7 -8 11 -34 9 -58 -2 -36 -7 -44 -25
-46 -28 -4 -46 35 -36 76 9 41 32 52 52 28z"/>
<path d="M11238 2138 c7 -7 12 -39 12 -75 0 -35 4 -63 10 -63 6 0 10 32 10 75
0 71 -1 75 -22 75 -17 0 -19 -3 -10 -12z"/>
<path d="M11310 2130 c-7 -14 -7 -20 0 -20 5 0 10 4 10 9 0 13 27 21 45 15 27
-11 16 -46 -25 -84 -22 -20 -40 -40 -40 -43 0 -4 23 -7 50 -7 28 0 50 5 50 10
0 6 -14 10 -31 10 l-31 0 31 35 c33 38 39 63 19 83 -19 19 -66 15 -78 -8z"/>
<path d="M11620 2075 c0 -43 4 -75 10 -75 6 0 10 14 10 30 0 25 4 30 24 30 27
0 56 24 56 45 0 20 -40 45 -72 45 l-28 0 0 -75z m75 30 c0 -14 -8 -21 -27 -23
-24 -3 -28 0 -28 23 0 23 4 26 28 23 19 -2 27 -9 27 -23z"/>
<path d="M14890 2110 c0 -43 2 -45 30 -30 29 15 52 2 48 -29 -2 -19 -10 -27
-27 -29 -13 -2 -27 2 -32 9 -4 8 -11 10 -15 6 -12 -11 17 -37 42 -37 29 0 54
25 54 54 0 31 -24 50 -55 44 -21 -4 -25 -1 -25 18 0 19 6 23 38 27 34 3 33 4
-10 5 l-48 2 0 -40z"/>
<path d="M15083 2075 c0 -44 2 -65 4 -46 l4 34 35 -34 c43 -42 55 -32 15 13
l-30 33 31 32 c18 18 29 35 26 39 -4 3 -21 -11 -40 -31 l-33 -37 -6 38 c-4 26
-6 13 -6 -41z"/>
<path d="M11750 2100 c-24 -24 -25 -48 -5 -78 13 -17 24 -21 60 -20 l45 2 0
53 c0 28 -4 55 -10 58 -5 3 -10 1 -10 -5 0 -7 -6 -8 -19 0 -28 14 -38 13 -61
-10z m68 -12 c28 -28 0 -81 -38 -71 -25 7 -37 48 -20 68 15 18 42 19 58 3z"/>
<path d="M15200 2058 c0 -70 18 -78 22 -10 3 43 5 47 28 47 23 0 25 -4 28 -47
4 -55 22 -66 22 -14 0 47 9 66 30 66 24 0 33 -15 41 -65 6 -40 7 -39 8 13 1
47 -2 54 -24 64 -18 8 -28 8 -39 -1 -9 -7 -21 -9 -28 -5 -7 5 -30 9 -50 9
l-38 1 0 -58z"/>
<path d="M7901 2047 c-17 -21 -3 -49 23 -45 15 2 21 10 21 28 0 28 -26 38 -44
17z m34 -17 c0 -7 -6 -15 -12 -17 -8 -3 -13 4 -13 17 0 13 5 20 13 18 6 -3 12
-11 12 -18z"/>
<path d="M4010 1530 c0 -13 7 -20 20 -20 13 0 20 7 20 20 0 13 -7 20 -20 20
-13 0 -20 -7 -20 -20z"/>
<path d="M7385 1540 c-4 -7 -3 -16 3 -22 14 -14 45 -2 40 15 -6 16 -34 21 -43
7z"/>
<path d="M7950 1530 c0 -13 7 -20 20 -20 13 0 20 7 20 20 0 13 -7 20 -20 20
-13 0 -20 -7 -20 -20z"/>
<path d="M11570 1530 c0 -13 7 -20 20 -20 13 0 20 7 20 20 0 13 -7 20 -20 20
-13 0 -20 -7 -20 -20z"/>
<path d="M4330 1510 c0 -28 -2 -30 -21 -20 -47 26 -97 -47 -68 -99 13 -23 22
-26 72 -28 l57 -2 0 90 c0 82 -1 89 -20 89 -16 0 -20 -7 -20 -30z m-2 -79 c4
-29 -15 -43 -40 -30 -21 11 -23 30 -6 47 19 19 43 10 46 -17z"/>
<path d="M3754 1496 c4 -19 13 -57 22 -85 12 -43 19 -51 38 -51 21 0 26 8 36
51 14 56 22 52 34 -14 6 -34 10 -38 33 -35 23 3 28 11 44 68 24 84 24 100 0
100 -15 0 -21 -10 -26 -42 -12 -70 -21 -74 -34 -14 -11 49 -15 56 -37 56 -16
0 -24 -6 -25 -17 0 -10 -6 -36 -13 -58 l-13 -40 -12 58 c-10 47 -16 57 -33 57
-18 0 -19 -4 -14 -34z"/>
<path d="M7210 1445 l0 -85 40 0 c51 0 85 16 99 47 31 68 -13 123 -99 123
l-40 0 0 -85z m102 19 c15 -33 1 -58 -36 -62 -25 -3 -26 -1 -26 42 0 42 2 46
25 46 18 0 29 -8 37 -26z"/>
<path d="M7851 1498 c-11 -24 -11 -33 -3 -36 7 -2 12 -20 12 -41 0 -40 14 -61
42 -61 19 0 25 25 8 35 -5 3 -10 19 -10 36 0 16 5 29 10 29 6 0 10 7 10 15 0
8 -4 15 -9 15 -5 0 -11 9 -14 20 -8 30 -30 24 -46 -12z"/>
<path d="M11005 1506 c-22 -33 -7 -61 40 -76 19 -6 35 -15 35 -20 0 -16 -21
-22 -35 -10 -8 6 -24 10 -37 8 l-23 -3 23 -22 c26 -27 73 -30 97 -7 25 26 14
57 -27 77 -38 19 -52 47 -23 47 8 0 15 -4 15 -10 0 -5 11 -10 25 -10 30 0 32
11 7 33 -28 26 -78 22 -97 -7z"/>
<path d="M14736 1511 c-26 -28 -16 -53 27 -74 20 -10 37 -25 37 -33 0 -16 -26
-19 -35 -4 -7 12 -45 13 -45 2 0 -19 38 -42 68 -42 64 0 78 80 17 96 -31 8
-50 29 -35 39 7 4 17 2 23 -4 16 -16 47 -14 47 4 0 35 -76 47 -104 16z"/>
<path d="M15481 1498 c-11 -24 -11 -33 -3 -36 7 -2 12 -23 12 -47 0 -43 10
-55 46 -55 18 0 18 24 -1 40 -8 7 -15 23 -15 36 0 15 6 24 15 24 8 0 15 6 15
14 0 8 -7 16 -15 20 -8 3 -15 12 -15 21 0 27 -25 16 -39 -17z"/>
<path d="M4157 1493 c-4 -3 -23 -6 -42 -5 l-35 1 0 -64 c0 -58 2 -65 19 -65
17 0 20 8 23 48 3 39 6 47 23 47 17 0 20 -8 23 -47 3 -40 6 -48 23 -48 18 0
20 6 17 56 -2 44 -8 60 -24 70 -11 8 -24 11 -27 7z"/>
<path d="M7585 1488 c-11 -6 -23 -16 -27 -22 -14 -21 -8 -73 10 -89 22 -20 73
-22 90 -5 21 21 13 29 -24 26 -23 -2 -39 2 -41 10 -3 8 9 12 41 12 39 0 46 3
46 19 0 20 -44 61 -64 61 -6 0 -20 -6 -31 -12z m50 -38 c4 -6 -5 -10 -19 -10
-14 0 -26 5 -26 10 0 6 9 10 19 10 11 0 23 -4 26 -10z"/>
<path d="M7735 1488 c-11 -6 -23 -16 -27 -22 -14 -21 -8 -73 10 -89 27 -25 78
-22 97 6 15 21 14 22 -5 25 -12 2 -28 -2 -36 -9 -20 -16 -37 1 -32 32 3 22 7
24 48 21 l45 -3 -28 26 c-31 28 -42 30 -72 13z"/>
<path d="M8053 1490 c-44 -18 -56 -77 -23 -110 41 -41 120 -12 120 44 0 47
-53 83 -97 66z m52 -51 c5 -14 1 -27 -9 -37 -15 -15 -17 -15 -32 0 -20 20 -10
58 16 58 10 0 22 -10 25 -21z"/>
<path d="M8247 1493 c-4 -3 -23 -6 -42 -5 l-35 1 0 -64 c0 -58 2 -65 19 -65
17 0 20 8 23 48 3 39 6 47 23 47 17 0 20 -8 23 -47 3 -40 6 -48 23 -48 18 0
20 6 17 56 -2 44 -8 60 -24 70 -11 8 -24 11 -27 7z"/>
<path d="M11348 1492 l-38 -3 0 -65 c0 -57 2 -64 20 -64 17 0 20 7 20 51 0 47
2 50 23 47 19 -3 22 -10 25 -50 3 -40 6 -48 23 -48 16 0 19 7 19 48 0 72 -20
90 -92 84z"/>
<path d="M11659 1482 c-28 -24 -20 -50 21 -65 41 -16 38 -29 -5 -21 -39 7 -48
-8 -16 -26 26 -14 64 -13 79 2 23 23 13 48 -23 64 -20 8 -33 19 -29 25 4 8 10
7 17 0 13 -13 47 -15 47 -2 0 12 -40 41 -56 41 -7 0 -22 -8 -35 -18z"/>
<path d="M11805 1488 c-11 -6 -23 -16 -27 -22 -14 -21 -8 -73 10 -89 22 -20
73 -22 90 -5 21 21 13 29 -24 26 -23 -2 -39 2 -41 10 -3 8 9 12 41 12 39 0 46
3 46 19 0 20 -44 61 -64 61 -6 0 -20 -6 -31 -12z m50 -38 c4 -6 -5 -10 -19
-10 -14 0 -26 5 -26 10 0 6 9 10 19 10 11 0 23 -4 26 -10z"/>
<path d="M15078 1492 l-38 -3 0 -65 c0 -57 2 -64 20 -64 17 0 20 7 20 51 0 47
2 50 23 47 19 -3 22 -10 25 -50 3 -40 6 -48 23 -48 16 0 19 7 19 48 0 72 -20
90 -92 84z"/>
<path d="M15220 1487 c-36 -18 -32 -49 8 -66 42 -19 41 -34 -3 -25 -39 7 -48
-8 -16 -26 26 -14 64 -13 79 2 23 23 13 48 -23 64 -20 8 -33 19 -29 25 4 8 10
7 17 0 13 -13 47 -15 47 -2 0 10 -39 41 -50 41 -3 0 -16 -6 -30 -13z"/>
<path d="M15360 1487 c-52 -26 -49 -109 5 -123 34 -8 71 2 79 22 5 14 1 16
-33 10 -29 -4 -40 -2 -45 9 -4 12 4 15 45 15 48 0 50 1 44 23 -14 45 -55 64
-95 44z m50 -37 c0 -5 -12 -10 -26 -10 -14 0 -23 4 -19 10 3 6 15 10 26 10 10
0 19 -4 19 -10z"/>
<path d="M4010 1425 c0 -58 2 -65 20 -65 18 0 20 7 20 65 0 58 -2 65 -20 65
-18 0 -20 -7 -20 -65z"/>
<path d="M7380 1425 c0 -58 2 -65 20 -65 18 0 20 7 20 65 0 58 -2 65 -20 65
-18 0 -20 -7 -20 -65z"/>
<path d="M7450 1424 c0 -57 2 -64 20 -64 15 0 20 7 20 29 0 42 10 61 31 61 12
0 19 7 19 18 0 15 -8 19 -45 20 l-45 0 0 -64z"/>
<path d="M7950 1425 c0 -58 2 -65 20 -65 18 0 20 7 20 65 0 58 -2 65 -20 65
-18 0 -20 -7 -20 -65z"/>
<path d="M11140 1447 c0 -66 19 -85 85 -85 l55 1 0 63 c0 57 -2 64 -20 64 -17
0 -20 -7 -20 -39 0 -46 -22 -70 -45 -51 -9 7 -15 29 -15 51 0 32 -3 39 -20 39
-17 0 -20 -7 -20 -43z"/>
<path d="M11470 1424 c0 -57 2 -64 20 -64 17 0 20 7 20 41 0 32 4 42 20 46 11
3 20 13 20 23 0 14 -9 18 -40 18 l-40 1 0 -65z"/>
<path d="M11570 1425 c0 -58 2 -65 20 -65 18 0 20 7 20 65 0 58 -2 65 -20 65
-18 0 -20 -7 -20 -65z"/>
<path d="M14870 1447 c0 -65 20 -86 80 -85 l50 1 0 64 c0 49 -3 63 -15 63 -10
0 -15 -10 -15 -33 0 -18 -6 -42 -14 -52 -21 -29 -46 -3 -46 46 0 32 -3 39 -20
39 -17 0 -20 -7 -20 -43z"/>
<path d="M18921 1326 c-8 -9 -11 -50 -9 -117 3 -93 5 -104 22 -107 13 -3 17 0
14 9 -21 57 -21 57 22 56 35 -1 44 3 58 25 9 15 14 30 11 33 -10 9 -39 -6 -39
-21 0 -8 -4 -14 -10 -14 -5 0 -10 7 -10 15 0 8 -7 15 -15 15 -8 0 -15 7 -15
16 0 8 5 12 11 9 17 -11 59 4 59 21 0 8 -10 28 -22 44 -23 32 -58 39 -77 16z
m49 -36 c27 -27 25 -30 -11 -30 -24 0 -30 3 -25 16 3 9 6 20 6 25 0 14 8 11
30 -11z"/>
<path d="M18855 1320 c3 -5 10 -10 16 -10 5 0 9 5 9 10 0 6 -7 10 -16 10 -8 0
-12 -4 -9 -10z"/>
<path d="M18841 1276 c-7 -8 -20 -12 -29 -9 -11 2 -26 -7 -40 -26 -22 -30 -22
-31 -4 -63 40 -74 54 -89 80 -86 30 4 43 28 15 28 -29 0 -60 26 -47 40 8 8 14
7 24 -5 7 -8 21 -15 31 -15 14 0 19 7 19 29 0 29 -2 30 -50 33 -67 4 -69 22
-2 26 50 3 52 4 52 33 0 22 -5 29 -19 29 -10 0 -24 -6 -30 -14z"/>
<path d="M4356 1124 c-16 -63 -26 -118 -22 -121 7 -8 10 1 41 124 28 114 28
113 17 113 -4 0 -21 -52 -36 -116z"/>
<path d="M4013 1120 c0 -47 2 -75 4 -62 5 27 15 28 38 2 10 -11 23 -20 28 -20
6 0 -1 13 -16 28 l-27 28 27 27 c15 14 23 30 19 34 -4 4 -18 -4 -31 -19 -13
-16 -26 -28 -29 -28 -3 0 -7 21 -9 48 -2 26 -4 9 -4 -38z"/>
<path d="M4438 1194 c-11 -11 -10 -154 1 -154 6 0 11 21 13 47 2 37 7 49 22
51 26 5 39 -11 47 -60 l6 -43 2 52 c1 43 -3 54 -19 63 -12 6 -29 8 -40 5 -15
-5 -19 0 -22 21 -2 14 -6 22 -10 18z"/>
<path d="M7920 1170 c0 -28 -2 -30 -21 -19 -50 26 -98 -36 -65 -86 14 -21 23
-24 61 -23 l45 2 0 73 c0 39 -4 75 -10 78 -6 4 -10 -7 -10 -25z m-12 -42 c28
-28 0 -81 -38 -71 -25 7 -37 48 -20 68 15 18 42 19 58 3z"/>
<path d="M3527 1183 c-4 -3 -7 -13 -7 -21 0 -12 4 -12 20 3 10 9 26 15 35 12
22 -9 19 -38 -5 -44 -25 -7 -26 -23 -1 -23 10 0 21 -6 23 -12 8 -22 -3 -38
-26 -38 -12 0 -28 6 -35 13 -11 10 -13 9 -9 -2 7 -23 33 -34 61 -27 22 5 27
12 27 36 0 16 -4 32 -10 35 -6 4 -5 13 2 24 18 29 3 51 -35 51 -19 0 -37 -3
-40 -7z"/>
<path d="M3690 1154 c-20 -58 3 -114 46 -114 44 0 67 64 44 124 -8 21 -16 26
-44 26 -31 0 -36 -4 -46 -36z m68 14 c13 -13 16 -66 6 -92 -8 -21 -50 -21 -58
0 -23 60 15 129 52 92z"/>
<path d="M3832 1178 c-7 -7 -12 -21 -12 -33 0 -29 19 -45 52 -45 18 0 28 -5
28 -15 0 -22 -29 -30 -52 -16 -26 16 -34 8 -13 -13 21 -20 49 -21 69 0 18 18
21 85 6 115 -12 22 -59 26 -78 7z m63 -33 c0 -25 -4 -30 -25 -30 -16 0 -26 6
-28 18 -6 30 6 49 30 45 18 -2 23 -9 23 -33z"/>
<path d="M7306 1174 c-9 -25 2 -31 18 -9 17 24 46 13 46 -18 0 -13 -15 -37
-35 -57 -19 -19 -35 -38 -35 -42 0 -4 23 -8 50 -8 28 0 50 5 50 10 0 6 -15 10
-34 10 l-34 0 30 32 c21 23 28 39 26 62 -3 28 -7 31 -39 34 -27 2 -38 -1 -43
-14z"/>
<path d="M7432 1178 c-17 -17 -15 -53 3 -68 8 -7 29 -10 45 -8 24 4 30 1 25
-9 -3 -8 -5 -19 -5 -24 0 -13 -44 -11 -58 3 -7 7 -12 8 -12 2 0 -34 63 -46 80
-15 14 27 13 104 -2 119 -15 15 -61 15 -76 0z m66 -27 c5 -30 -10 -45 -37 -36
-21 6 -29 43 -14 59 15 15 48 1 51 -23z"/>
<path d="M7560 1164 c-23 -60 0 -124 44 -124 43 0 66 56 46 114 -10 32 -15 36
-46 36 -28 0 -36 -5 -44 -26z m70 -3 c23 -44 9 -101 -25 -101 -26 0 -35 17
-35 64 0 52 39 76 60 37z"/>
<path d="M7690 1175 c-26 -31 13 -82 44 -56 22 18 20 48 -3 61 -25 13 -26 13
-41 -5z m40 -24 c0 -23 -9 -31 -26 -24 -17 6 -18 40 -1 46 17 6 27 -1 27 -22z"/>
<path d="M10920 1171 c-27 -51 0 -131 44 -131 29 0 46 18 46 51 0 34 -23 53
-55 47 -29 -6 -34 12 -9 33 12 10 20 10 35 1 26 -16 34 -15 19 3 -18 22 -67
19 -80 -4z m74 -66 c9 -25 -5 -45 -30 -45 -14 0 -27 7 -30 15 -10 25 4 45 30
45 13 0 26 -7 30 -15z"/>
<path d="M11096 1174 c-9 -25 2 -31 18 -9 17 24 46 13 46 -18 0 -13 -15 -37
-35 -57 -19 -19 -35 -38 -35 -42 0 -4 23 -8 50 -8 28 0 50 5 50 10 0 6 -15 10
-34 10 l-34 0 30 32 c21 23 28 39 26 62 -3 28 -7 31 -39 34 -27 2 -38 -1 -43
-14z"/>
<path d="M11216 1174 c-9 -25 2 -31 18 -9 17 24 46 13 46 -18 0 -13 -15 -37
-35 -57 -19 -19 -35 -38 -35 -42 0 -4 23 -8 50 -8 28 0 50 5 50 10 0 6 -15 10
-34 10 l-34 0 30 32 c21 23 28 39 26 62 -3 28 -7 31 -39 34 -27 2 -38 -1 -43
-14z"/>
<path d="M11387 1183 c-4 -3 -7 -13 -7 -20 0 -12 3 -11 16 2 20 20 48 16 52
-8 3 -12 -4 -20 -17 -24 -27 -7 -27 -19 -1 -26 29 -8 27 -47 -3 -47 -13 0 -28
5 -35 12 -6 6 -14 9 -17 6 -12 -12 28 -39 53 -36 34 4 51 32 34 58 -9 16 -10
24 0 39 9 15 9 23 -1 35 -13 16 -62 22 -74 9z"/>
<path d="M11500 1150 c0 -40 14 -52 36 -30 23 23 60 -13 48 -45 -7 -18 -45
-20 -62 -3 -6 6 -14 9 -17 6 -10 -10 26 -38 49 -38 29 0 46 18 46 51 0 34 -23
53 -55 47 -21 -4 -25 -1 -25 18 0 19 6 23 38 27 34 3 33 4 -10 5 l-48 2 0 -40z"/>
<path d="M11730 1170 c-22 -42 -49 -130 -39 -130 5 0 12 7 15 15 4 9 19 15 39
15 20 0 35 -6 39 -15 3 -8 10 -15 15 -15 10 0 -33 128 -49 144 -4 4 -13 -2
-20 -14z m18 -78 c-27 -5 -30 1 -17 34 l11 29 13 -30 c12 -27 12 -30 -7 -33z"/>
<path d="M11830 1115 c0 -82 19 -107 21 -27 l1 47 21 -47 c12 -26 26 -48 30
-48 4 0 18 21 30 48 l22 47 3 -47 c2 -27 7 -48 13 -48 12 0 12 137 -1 145 -5
3 -22 -22 -38 -57 l-28 -63 -29 63 c-15 34 -32 62 -36 62 -5 0 -9 -34 -9 -75z"/>
<path d="M14622 1178 c-7 -7 -12 -35 -12 -63 0 -57 12 -75 50 -75 33 0 50 17
50 51 0 36 -23 53 -60 45 -33 -6 -35 -4 -20 25 12 21 46 26 53 7 2 -7 8 -10
12 -6 13 12 -6 28 -34 28 -15 0 -32 -5 -39 -12z m63 -88 c0 -20 -6 -26 -26
-28 -28 -3 -43 16 -32 44 3 9 15 14 32 12 20 -2 26 -8 26 -28z"/>
<path d="M14791 1176 c-7 -9 -8 -17 -3 -20 6 -3 13 1 16 10 4 9 15 14 28 12
31 -4 31 -42 1 -46 -13 -2 -23 -7 -23 -12 0 -5 10 -10 23 -12 14 -2 23 -11 25
-25 3 -18 -1 -23 -20 -23 -13 0 -29 5 -36 12 -17 17 -27 2 -12 -17 17 -21 69
-16 84 7 8 13 8 23 -2 38 -9 15 -10 26 -2 41 9 15 8 24 -1 35 -15 18 -63 18
-78 0z"/>
<path d="M14917 1183 c-4 -3 -7 -13 -7 -21 0 -12 4 -12 20 3 24 22 50 13 50
-19 0 -15 -14 -37 -40 -60 -22 -20 -40 -38 -40 -41 0 -3 23 -5 50 -5 28 0 50
5 50 10 0 6 -14 10 -32 10 l-32 0 32 33 c33 34 40 65 20 85 -13 13 -60 16 -71
5z"/>
<path d="M15080 1149 c0 -35 3 -40 18 -34 29 12 44 11 55 -6 23 -37 -29 -69
-61 -37 -7 7 -12 8 -12 2 0 -17 23 -34 45 -34 35 0 61 35 49 68 -8 22 -16 28
-47 30 -53 5 -48 35 8 43 l40 6 -47 2 -48 1 0 -41z"/>
<path d="M15210 1154 c-20 -58 3 -114 46 -114 44 0 67 64 44 124 -8 21 -16 26
-44 26 -31 0 -36 -4 -46 -36z m68 14 c13 -13 16 -66 6 -92 -8 -21 -50 -21 -58
0 -23 60 15 129 52 92z"/>
<path d="M15402 1113 c0 -43 3 -63 5 -45 4 27 8 32 32 32 33 0 51 16 51 47 0
25 -26 43 -64 43 -26 0 -26 -1 -24 -77z m66 30 c3 -20 -1 -23 -27 -23 -27 0
-31 4 -31 26 0 22 4 25 28 22 19 -2 28 -9 30 -25z"/>
<path d="M15522 1113 c1 -54 3 -64 5 -30 2 26 7 47 11 47 4 0 15 -20 25 -45
11 -25 23 -45 27 -45 4 0 16 20 27 45 10 25 21 45 25 45 4 0 9 -21 11 -47 2
-34 4 -24 5 30 1 43 -2 76 -6 73 -4 -2 -19 -27 -32 -55 -13 -28 -27 -51 -30
-51 -4 0 -17 22 -29 49 -32 76 -41 72 -39 -16z"/>
<path d="M4122 1095 c1 -46 2 -51 5 -20 5 46 18 65 43 65 21 0 30 -19 30 -66
0 -52 18 -41 22 14 3 43 5 47 28 47 23 0 25 -4 28 -47 4 -60 22 -63 22 -4 0
52 -22 81 -54 71 -22 -7 -28 -7 -88 -2 l-38 3 2 -61z"/>
<path d="M4571 1095 c1 -60 2 -60 9 -16 4 24 14 49 23 56 23 16 21 20 -8 20
-24 0 -25 -2 -24 -60z"/>
<path d="M7981 1141 c-25 -25 -27 -49 -5 -79 18 -26 65 -30 84 -7 18 22 5 31
-15 11 -21 -20 -29 -20 -51 2 -17 16 -16 17 29 20 36 2 47 7 47 20 -1 45 -56
66 -89 33z m67 -18 c2 -9 -8 -13 -33 -13 -33 0 -36 2 -25 15 15 18 51 16 58
-2z"/>
<path d="M8110 1140 c-24 -24 -25 -48 -4 -79 14 -19 23 -22 51 -18 28 5 34 3
31 -10 -5 -27 -35 -40 -58 -25 -30 19 -38 14 -11 -8 29 -25 46 -25 71 0 16 16
20 33 20 84 0 36 -4 68 -10 71 -5 3 -10 1 -10 -5 0 -7 -6 -8 -19 0 -28 14 -38
13 -61 -10z m68 -12 c28 -28 0 -81 -38 -71 -25 7 -37 48 -20 68 15 18 42 19
58 3z"/>
<path d="M11040 1140 c0 -5 5 -10 10 -10 6 0 10 5 10 10 0 6 -4 10 -10 10 -5
0 -10 -4 -10 -10z"/>
<path d="M11330 1140 c0 -5 5 -10 10 -10 6 0 10 5 10 10 0 6 -4 10 -10 10 -5
0 -10 -4 -10 -10z"/>
<path d="M14735 1140 c3 -5 10 -10 16 -10 5 0 9 5 9 10 0 6 -7 10 -16 10 -8 0
-12 -4 -9 -10z"/>
<path d="M15025 1140 c3 -5 10 -10 16 -10 5 0 9 5 9 10 0 6 -7 10 -16 10 -8 0
-12 -4 -9 -10z"/>
<path d="M3640 1050 c0 -5 5 -10 10 -10 6 0 10 5 10 10 0 6 -4 10 -10 10 -5 0
-10 -4 -10 -10z"/>
<path d="M11040 1050 c0 -5 5 -10 10 -10 6 0 10 5 10 10 0 6 -4 10 -10 10 -5
0 -10 -4 -10 -10z"/>
<path d="M11330 1050 c0 -5 5 -10 10 -10 6 0 10 5 10 10 0 6 -4 10 -10 10 -5
0 -10 -4 -10 -10z"/>
<path d="M14735 1050 c3 -5 10 -10 16 -10 5 0 9 5 9 10 0 6 -7 10 -16 10 -8 0
-12 -4 -9 -10z"/>
<path d="M15025 1050 c3 -5 10 -10 16 -10 5 0 9 5 9 10 0 6 -7 10 -16 10 -8 0
-12 -4 -9 -10z"/>
</g>
</svg>
