<?xml version="1.0" standalone="no"?>
<!DOCTYPE svg PUBLIC "-//W3C//DTD SVG 20010904//EN"
 "http://www.w3.org/TR/2001/REC-SVG-20010904/DTD/svg10.dtd">
<svg version="1.0" xmlns="http://www.w3.org/2000/svg"
 width="1920.000000pt" height="839.000000pt" viewBox="0 0 1920.000000 839.000000"
 preserveAspectRatio="xMidYMid meet">

<g transform="translate(0.000000,839.000000) scale(0.100000,-0.100000)"
fill="#000000" stroke="none">
<path d="M0 4195 l0 -4195 9485 0 9485 0 0 470 0 470 -188 0 c-209 0 -251 8
-315 61 -20 17 -49 52 -65 77 -24 42 -27 57 -27 137 0 80 3 95 27 137 16 25
45 60 65 77 64 53 106 61 315 61 l188 0 0 3450 0 3450 -9485 0 -9485 0 0
-4195z m461 3880 l-26 -30 -31 30 -31 30 22 12 c13 7 25 20 29 28 5 14 11 12
35 -12 l28 -28 -26 -30z m98 68 c17 -17 17 -19 0 -35 -16 -15 -18 -15 -34 2
-14 16 -15 21 -3 34 17 19 15 19 37 -1z m163 -20 c21 -20 38 -42 38 -47 0 -15
-282 -296 -297 -296 -17 0 -93 69 -93 84 0 16 282 296 299 296 9 0 32 -17 53
-37z m863 -28 c0 -13 -8 -21 -22 -23 -17 -3 -23 2 -23 16 0 10 3 22 7 26 13
13 38 1 38 -19z m-575 -18 c63 -32 88 -122 50 -184 -27 -46 -68 -63 -145 -63
l-65 0 0 130 0 130 68 0 c37 0 78 -6 92 -13z m12878 -4 c5 -17 -26 -29 -40
-15 -6 6 -7 15 -3 22 9 14 37 9 43 -7z m-1798 -28 c0 -32 2 -35 19 -25 31 16
66 12 95 -11 21 -17 26 -29 26 -65 0 -66 -23 -84 -105 -82 l-65 2 0 108 c0 89
3 108 15 108 11 0 15 -11 15 -35z m-1540 -20 l0 -45 50 0 50 0 0 45 c0 33 4
45 15 45 12 0 15 -18 15 -105 0 -87 -3 -105 -15 -105 -11 0 -15 12 -15 45 l0
45 -50 0 -50 0 0 -45 c0 -38 -3 -45 -20 -45 -19 0 -20 7 -20 105 0 98 1 105
20 105 17 0 20 -7 20 -45z m1418 18 c28 -70 62 -166 62 -174 0 -17 -29 -9 -40
11 -8 15 -21 20 -54 20 -35 0 -45 -4 -49 -20 -5 -20 -37 -29 -37 -11 0 5 14
47 30 93 17 46 33 89 35 96 8 23 42 13 53 -15z m722 7 c0 -13 7 -20 20 -20 11
0 20 -7 20 -15 0 -8 -9 -15 -20 -15 -18 0 -20 -7 -20 -55 0 -48 2 -55 20 -55
11 0 20 -7 20 -15 0 -18 -50 -21 -68 -3 -7 7 -12 38 -12 70 0 32 -4 58 -10 58
-5 0 -10 7 -10 15 0 8 5 15 10 15 6 0 10 9 10 20 0 13 7 20 20 20 13 0 20 -7
20 -20z m642 -2 c20 -20 21 -23 6 -26 -9 -2 -28 4 -41 13 -30 20 -57 10 -57
-21 0 -18 8 -25 36 -33 68 -19 89 -55 58 -99 -28 -41 -134 -22 -134 25 0 20
30 15 49 -8 15 -18 21 -20 39 -10 41 22 25 49 -40 70 -36 12 -48 27 -48 59 0
51 90 72 132 30z m1698 7 c0 -10 -10 -15 -30 -15 l-30 0 0 -90 c0 -73 -3 -90
-15 -90 -12 0 -15 17 -15 90 l0 90 -30 0 c-20 0 -30 5 -30 15 0 12 15 15 75
15 60 0 75 -3 75 -15z m1344 -6 c14 -11 26 -25 26 -30 0 -15 -32 -10 -51 7
-45 40 -113 3 -113 -61 0 -64 68 -101 113 -61 9 9 28 16 42 16 24 -1 23 -1 -9
-30 -46 -42 -111 -43 -153 -1 -24 24 -29 38 -29 76 0 38 5 52 29 76 37 37 104
41 145 8z m486 2 c0 -12 8 -21 22 -23 32 -5 35 -28 4 -28 -25 0 -26 -3 -26
-50 0 -45 3 -52 25 -60 32 -12 32 -30 1 -30 -50 0 -56 8 -56 76 0 36 -4 64
-10 64 -5 0 -10 7 -10 15 0 8 5 15 10 15 6 0 10 9 10 20 0 11 7 20 15 20 8 0
15 -9 15 -19z m500 -1 c0 -13 7 -20 20 -20 11 0 20 -7 20 -15 0 -8 -9 -15 -20
-15 -18 0 -20 -7 -20 -55 0 -48 2 -55 20 -55 11 0 20 -7 20 -15 0 -18 -50 -21
-68 -3 -7 7 -12 38 -12 70 0 32 -4 58 -10 58 -5 0 -10 7 -10 15 0 8 5 15 10
15 6 0 10 9 10 20 0 13 7 20 20 20 13 0 20 -7 20 -20z m640 5 c0 -11 -12 -15
-45 -15 -43 0 -45 -1 -45 -30 0 -28 3 -30 35 -30 24 0 35 -5 35 -15 0 -10 -11
-15 -35 -15 -35 0 -35 0 -35 -45 0 -38 -3 -45 -20 -45 -19 0 -20 7 -20 105 l0
105 65 0 c51 0 65 -3 65 -15z m138 -12 c28 -70 62 -166 62 -174 0 -17 -29 -9
-40 11 -8 15 -21 20 -54 20 -35 0 -45 -4 -49 -20 -5 -20 -37 -29 -37 -11 0 5
14 47 30 93 17 46 33 89 35 96 8 23 42 13 53 -15z m251 11 c50 -36 61 -123 20
-160 -19 -17 -19 -18 8 -46 l27 -28 -26 0 c-14 0 -33 9 -43 20 -12 14 -31 20
-57 20 -59 0 -98 42 -98 105 0 65 39 105 102 105 24 0 54 -7 67 -16z m-17108
-43 c19 -20 29 -40 29 -60 l0 -31 -80 0 c-63 0 -80 -3 -80 -14 0 -43 79 -63
102 -26 15 23 48 27 48 5 0 -20 -38 -53 -70 -60 -60 -13 -130 44 -130 105 0
34 29 86 53 98 44 21 96 14 128 -17z m199 9 c24 -24 26 -50 5 -50 -8 0 -24 9
-35 20 -24 24 -43 25 -60 5 -17 -20 -7 -29 55 -52 47 -17 50 -21 53 -56 3 -35
1 -39 -32 -52 -53 -22 -126 2 -126 42 0 18 35 17 50 -3 18 -21 65 -14 65 10 0
12 -15 24 -49 37 -27 10 -53 24 -58 31 -26 41 12 88 72 88 27 0 47 -7 60 -20z
m110 -85 l0 -105 -25 0 -25 0 0 105 0 105 25 0 25 0 0 -105z m188 89 c20 -14
22 -14 22 0 0 9 9 16 20 16 19 0 20 -7 20 -126 0 -125 0 -126 -29 -155 -23
-22 -39 -29 -70 -29 -51 0 -86 16 -100 46 -9 21 -8 24 9 24 11 0 29 -9 40 -20
20 -20 56 -26 76 -12 15 9 34 47 34 66 0 13 -4 13 -36 0 -48 -20 -98 -4 -125
40 -23 38 -24 67 -3 111 24 52 95 72 142 39z m152 6 c0 -7 6 -7 19 0 34 18 80
12 106 -15 22 -22 25 -32 25 -105 0 -73 -2 -80 -20 -80 -18 0 -20 7 -20 70 0
57 -4 74 -20 90 -11 11 -27 20 -35 20 -8 0 -24 -9 -35 -20 -16 -16 -20 -33
-20 -90 0 -63 -2 -70 -20 -70 -19 0 -20 7 -20 105 0 98 1 105 20 105 11 0 20
-5 20 -10z m8925 -25 c33 -32 34 -89 3 -122 -32 -34 -99 -32 -127 3 -35 45
-24 116 22 134 40 16 77 11 102 -15z m180 11 c18 -12 24 -11 40 0 25 18 55 18
83 -2 19 -13 22 -24 22 -85 0 -54 -3 -69 -15 -69 -10 0 -15 16 -17 61 -3 69
-22 94 -55 73 -13 -8 -19 -27 -21 -73 -3 -52 -6 -61 -22 -61 -16 0 -19 9 -22
61 -3 69 -22 94 -55 73 -13 -8 -19 -27 -21 -73 -3 -53 -6 -61 -22 -61 -18 0
-20 7 -20 78 0 43 2 81 4 83 11 10 103 6 121 -5z m298 3 c25 -11 47 -47 47
-74 0 -12 -15 -15 -65 -15 -50 0 -65 -3 -65 -15 0 -8 9 -19 20 -25 22 -12 60
-5 60 11 0 5 9 9 20 9 24 0 25 -8 3 -32 -23 -26 -90 -24 -120 4 -32 30 -32 90
2 123 26 27 60 32 98 14z m1060 -9 c33 -26 43 -70 23 -108 -17 -34 -34 -42
-81 -42 -44 0 -74 27 -82 72 -5 32 -1 41 25 68 36 36 77 39 115 10z m95 -48
c2 -49 7 -64 22 -72 14 -8 26 -8 40 0 15 8 20 23 22 73 2 47 7 62 18 62 12 0
16 -17 18 -81 l3 -82 -65 -1 c-56 -1 -67 2 -81 21 -15 23 -22 128 -8 142 17
17 28 -5 31 -62z m1027 43 c14 -13 25 -36 25 -50 0 -24 -2 -25 -65 -25 -36 0
-65 -4 -65 -8 0 -5 9 -17 21 -27 19 -18 21 -18 54 -1 44 24 66 17 37 -12 -28
-28 -101 -31 -125 -4 -23 26 -31 69 -17 101 22 53 94 68 135 26z m85 13 c0 -9
3 -9 12 0 16 16 73 15 85 0 6 -7 18 -38 28 -68 l18 -55 25 68 c19 51 29 67 44
67 11 0 18 -4 16 -8 -1 -5 -16 -43 -33 -85 -24 -63 -34 -77 -51 -77 -17 0 -27
14 -50 74 -27 72 -29 74 -53 64 -35 -13 -41 -25 -41 -85 0 -40 -4 -53 -15 -53
-12 0 -15 16 -15 85 0 69 3 85 15 85 8 0 15 -5 15 -12z m280 -73 c0 -69 -3
-85 -15 -85 -12 0 -15 16 -15 85 0 69 3 85 15 85 12 0 15 -16 15 -85z m178 58
c24 -24 25 -28 9 -31 -10 -2 -26 3 -36 12 -38 35 -81 10 -81 -47 0 -32 32 -61
59 -52 12 3 21 11 21 16 0 5 9 9 20 9 24 0 25 -8 3 -32 -11 -12 -30 -18 -59
-18 -34 0 -47 5 -63 26 -30 38 -27 80 8 115 39 38 82 39 119 2z m177 2 c14
-13 25 -36 25 -50 0 -24 -2 -25 -65 -25 -36 0 -65 -4 -65 -8 0 -5 9 -17 21
-27 19 -18 21 -18 54 -1 44 24 66 17 37 -12 -28 -28 -101 -31 -125 -4 -23 26
-31 69 -17 101 22 53 94 68 135 26z m159 9 c9 -8 16 -22 16 -30 0 -19 -26 -18
-34 2 -7 19 -51 15 -51 -5 0 -8 15 -19 34 -26 48 -16 66 -44 45 -73 -18 -27
-84 -31 -108 -6 -22 21 -20 34 4 34 11 0 20 -4 20 -9 0 -13 27 -21 45 -15 28
11 15 33 -25 44 -28 8 -45 19 -53 37 -10 22 -8 28 12 44 28 23 74 25 95 3z
m790 -6 c14 -13 28 -35 32 -50 l6 -28 -71 0 c-68 0 -71 -1 -61 -19 14 -28 48
-36 69 -17 18 16 51 22 51 9 0 -22 -37 -43 -77 -43 -57 0 -83 25 -83 80 0 78
78 117 134 68z m166 12 c13 -7 21 -7 25 0 3 5 13 10 21 10 11 0 14 -18 14 -84
l0 -84 -57 -1 c-76 -1 -90 5 -109 40 -37 73 37 156 106 119z m130 -1 c0 -8 5
-8 15 1 9 8 27 10 47 6 40 -8 53 -8 99 0 56 9 79 -21 79 -103 0 -56 -2 -63
-20 -63 -17 0 -19 8 -22 68 -3 63 -5 67 -27 70 -35 5 -51 -22 -51 -85 0 -40
-4 -53 -15 -53 -11 0 -15 12 -15 44 0 65 -14 96 -44 96 -33 0 -46 -26 -46 -89
0 -39 -4 -51 -15 -51 -12 0 -15 16 -15 85 0 69 3 85 15 85 8 0 15 -5 15 -11z
m1095 -14 c31 -30 33 -82 4 -119 -16 -21 -29 -26 -63 -26 -57 0 -86 27 -86 81
0 53 34 89 85 89 25 0 44 -8 60 -25z m183 9 c19 -13 22 -23 22 -84 0 -56 -3
-70 -15 -70 -12 0 -15 13 -15 58 0 63 -11 82 -47 82 -29 0 -43 -32 -43 -96 0
-32 -4 -44 -15 -44 -12 0 -15 16 -15 83 l0 83 53 1 c30 1 62 -5 75 -13z m283
6 c13 -7 19 -7 19 0 0 5 7 10 15 10 12 0 15 -16 15 -83 l0 -83 -64 -2 c-59 -2
-66 0 -85 24 -59 75 18 177 100 134z m227 -17 c24 -24 25 -28 9 -31 -10 -2
-26 3 -36 12 -24 22 -58 20 -71 -3 -18 -34 -12 -69 15 -87 23 -15 27 -15 51 0
14 10 33 16 42 14 15 -3 14 -6 -6 -26 -28 -28 -90 -30 -123 -3 -35 28 -33 95
4 127 38 32 81 31 115 -3z m-16547 -142 l-26 -28 -27 28 -26 29 26 29 27 28
26 -28 27 -29 -27 -29z m1433 13 c27 -10 20 -44 -9 -44 -18 0 -25 5 -25 18 0
29 9 36 34 26z m8656 -2714 c67 -67 -48 -163 -117 -98 -50 47 -16 118 57 118
27 0 47 -7 60 -20z m-2370 -111 l0 -90 25 19 c60 47 164 35 226 -27 55 -54 74
-151 48 -244 -31 -114 -181 -174 -271 -107 -28 21 -28 21 -28 0 0 -18 -6 -20
-70 -20 l-70 0 0 280 0 280 70 0 70 0 0 -91z m829 40 c45 -26 71 -60 78 -104
l6 -35 -72 0 c-67 0 -72 2 -83 25 -22 48 -98 40 -98 -9 0 -31 10 -38 107 -75
100 -39 129 -61 144 -111 22 -73 -12 -149 -85 -187 -48 -26 -169 -23 -223 5
-47 24 -80 66 -89 111 l-6 31 76 0 c57 0 76 -3 76 -13 0 -45 81 -60 107 -21
13 20 12 24 -9 47 -13 14 -52 35 -91 47 -113 36 -168 104 -152 186 9 49 58
101 114 119 59 19 151 12 200 -16z m-2069 -154 c19 -96 36 -172 38 -170 3 2
23 80 46 172 l41 168 76 3 75 3 40 -171 c21 -93 41 -170 44 -170 3 0 21 77 39
170 l34 170 74 0 c73 0 75 -1 69 -22 -3 -13 -34 -132 -68 -266 l-63 -243 -84
3 -84 3 -36 147 c-20 81 -38 149 -41 152 -3 3 -23 -64 -44 -149 l-38 -155 -83
0 -82 0 -61 238 c-34 130 -64 249 -68 265 l-6 27 74 0 74 0 34 -175z m945 41
c61 -36 88 -84 89 -158 l1 -60 -142 2 c-125 1 -143 -1 -143 -15 0 -25 46 -65
75 -65 14 0 34 9 45 20 16 16 33 20 90 20 39 0 70 -3 70 -7 0 -23 -54 -92 -89
-111 -152 -86 -331 16 -331 188 0 173 183 274 335 186z m1590 0 c61 -36 88
-84 89 -158 l1 -60 -142 2 c-125 1 -143 -1 -143 -15 0 -25 46 -65 75 -65 14 0
34 9 45 20 16 16 33 20 90 20 39 0 70 -3 70 -7 0 -23 -54 -92 -89 -111 -152
-86 -331 16 -331 188 0 173 183 274 335 186z m423 -39 l3 -66 -47 -7 c-77 -11
-84 -25 -84 -164 l0 -120 -70 0 -70 0 0 210 0 210 70 0 c69 0 70 0 70 -27 l0
-26 23 20 c23 21 75 43 92 39 6 -1 11 -32 13 -69z m1040 45 c38 -20 89 -82 94
-117 3 -19 -2 -20 -67 -17 -51 3 -75 9 -91 23 -21 19 -60 25 -80 11 -20 -13
-34 -50 -34 -92 0 -42 14 -79 34 -92 23 -16 63 -7 86 17 20 22 32 25 86 25 35
0 65 -4 68 -8 9 -15 -36 -92 -68 -117 -104 -80 -276 -44 -327 69 -27 60 -26
160 4 216 26 49 56 75 113 96 49 18 132 12 182 -14z m411 18 c56 -16 100 -52
126 -104 27 -54 34 -136 13 -137 -7 0 -73 0 -145 1 -126 1 -133 0 -133 -19 0
-24 45 -61 75 -61 12 0 30 9 40 20 15 17 31 20 92 20 40 0 73 -2 73 -5 0 -18
-34 -66 -64 -93 -103 -90 -270 -59 -331 62 -31 61 -33 142 -6 201 21 47 80
102 119 111 15 3 32 7 37 9 21 7 71 5 104 -5z m435 -1 c52 -13 103 -61 112
-107 l7 -32 -61 0 c-50 0 -63 4 -71 19 -20 37 -91 37 -91 0 0 -21 17 -30 101
-53 100 -28 143 -87 119 -161 -33 -99 -217 -127 -311 -48 -26 22 -59 76 -59
98 0 3 29 5 65 5 55 0 68 -3 89 -25 29 -29 58 -32 81 -9 22 22 5 41 -49 54
-128 33 -166 64 -166 136 0 54 35 98 95 119 49 17 83 18 139 4z m-1694 -101
c17 -57 37 -121 44 -142 l12 -39 38 131 c21 71 42 135 46 142 4 7 32 10 77 8
l70 -3 -49 -135 c-26 -74 -60 -168 -74 -208 l-26 -73 -86 3 -85 3 -28 80 c-15
44 -47 137 -72 208 l-46 127 74 0 73 0 32 -102z m470 -108 l0 -210 -70 0 -70
0 0 210 0 210 70 0 70 0 0 -210z m-3655 -655 c0 -22 -31 -33 -48 -16 -7 7 -6
15 3 26 17 21 45 15 45 -10z m285 10 c15 -18 5 -35 -21 -35 -24 0 -37 29 -18
41 19 12 25 11 39 -6z m6340 -40 c0 -42 2 -45 19 -35 34 18 80 12 106 -15 22
-22 25 -32 25 -105 0 -73 -2 -80 -20 -80 -18 0 -20 7 -20 70 0 57 -4 74 -20
90 -11 11 -27 20 -35 20 -8 0 -24 -9 -35 -20 -16 -16 -20 -33 -20 -90 0 -63
-2 -70 -20 -70 -19 0 -20 7 -20 140 0 133 1 140 20 140 17 0 20 -7 20 -45z
m-9114 27 c6 -4 24 -32 39 -62 l28 -54 28 56 c31 62 42 73 65 64 13 -5 9 -19
-25 -82 -34 -62 -41 -85 -41 -130 0 -51 -1 -54 -25 -54 -23 0 -25 3 -25 51 0
41 -8 66 -40 124 -22 40 -40 78 -40 84 0 12 19 14 36 3z m822 -55 l3 -57 59 0
59 0 3 58 c3 49 6 57 23 57 19 0 20 -8 23 -132 l3 -133 -26 0 c-24 0 -25 3
-25 55 l0 55 -60 0 -60 0 0 -55 c0 -48 -2 -55 -20 -55 -19 0 -20 7 -20 128 0
71 3 132 7 136 17 16 28 -5 31 -57z m1389 51 c6 -7 25 -55 43 -106 18 -51 36
-89 40 -85 4 4 22 50 40 101 31 89 51 116 70 96 5 -5 -13 -65 -39 -134 -42
-113 -49 -125 -73 -128 -23 -3 -28 3 -46 50 -11 29 -32 84 -46 122 -14 37 -26
75 -26 82 0 17 24 18 37 2z m1289 4 c6 -4 21 -49 34 -101 13 -54 26 -88 30
-80 4 8 17 52 30 97 36 129 63 123 101 -21 13 -51 25 -83 29 -75 4 7 15 47 25
88 19 80 29 100 51 100 20 0 17 -22 -20 -150 -30 -106 -35 -115 -59 -118 -23
-3 -27 2 -42 55 -9 32 -21 76 -28 97 -13 44 -8 52 -47 -82 -20 -68 -23 -73
-47 -70 -24 3 -28 11 -59 123 -37 134 -37 163 2 137z m722 -55 l3 -57 59 0 59
0 3 58 c3 49 6 57 23 57 19 0 20 -8 23 -132 l3 -133 -26 0 c-24 0 -25 3 -25
55 l0 55 -60 0 -60 0 0 -55 c0 -48 -2 -55 -20 -55 -19 0 -20 7 -20 128 0 71 3
132 7 136 17 16 28 -5 31 -57z m1537 43 c0 -10 -12 -16 -37 -18 l-38 -3 0
-115 c0 -107 -1 -114 -20 -114 -19 0 -20 7 -20 115 l0 115 -35 0 c-22 0 -35 5
-35 13 0 25 13 28 100 25 68 -2 85 -6 85 -18z m1173 -2 c3 -15 -4 -18 -32 -18
l-36 0 0 -115 0 -115 -25 0 -25 0 0 115 0 115 -35 0 c-22 0 -35 5 -35 13 0 25
13 28 99 25 72 -3 86 -6 89 -20z m556 8 c31 -13 66 -49 66 -68 0 -17 -41 -6
-64 17 -27 27 -64 32 -99 13 -35 -18 -46 -40 -47 -86 0 -35 6 -49 30 -74 27
-26 36 -30 68 -25 37 6 72 37 72 63 0 10 -14 14 -50 14 -38 0 -50 4 -50 15 0
12 15 15 75 15 l75 0 0 -30 c0 -39 -51 -97 -98 -110 -75 -20 -153 28 -168 105
-8 44 0 74 27 110 40 50 103 66 163 41z m631 -48 c17 -32 32 -58 35 -58 3 0
18 25 33 55 26 53 50 75 64 61 4 -4 -12 -45 -35 -92 -30 -61 -42 -97 -42 -129
0 -38 -3 -45 -20 -45 -17 0 -20 7 -20 48 -1 36 -11 66 -44 129 -24 46 -41 85
-38 88 16 15 40 -6 67 -57z m920 42 c0 -10 -12 -16 -37 -18 l-38 -3 0 -115 c0
-107 -1 -114 -20 -114 -19 0 -20 7 -20 115 l0 115 -35 0 c-22 0 -35 5 -35 13
0 25 13 28 100 25 68 -2 85 -6 85 -18z m-7029 -115 c24 -66 44 -123 44 -127 0
-20 -42 -6 -52 17 -10 22 -17 25 -63 25 -46 0 -53 -3 -63 -25 -11 -23 -52 -36
-52 -16 0 4 18 57 40 117 23 60 43 115 45 122 3 8 16 12 31 10 24 -3 30 -14
70 -123z m3400 0 c24 -66 44 -123 44 -127 0 -20 -42 -6 -52 17 -10 22 -17 25
-63 25 -46 0 -53 -3 -63 -25 -11 -23 -52 -36 -52 -16 0 4 18 57 40 117 23 60
43 115 45 122 3 8 16 12 31 10 24 -3 30 -14 70 -123z m2474 100 c0 -20 5 -25
26 -25 33 0 30 -33 -4 -38 -22 -3 -23 -7 -20 -70 3 -61 5 -67 26 -70 37 -5 27
-32 -12 -32 -48 0 -66 28 -66 102 0 32 -6 68 -12 79 -10 17 -10 23 0 26 6 3
12 16 12 29 0 19 5 24 25 24 20 0 25 -5 25 -25z m-7503 -59 c30 -36 31 -103 2
-139 -30 -39 -85 -53 -132 -33 -74 30 -85 135 -19 186 39 31 116 24 149 -14z
m103 -40 c0 -81 13 -106 54 -106 36 0 45 19 48 100 3 69 5 75 26 78 22 3 22 2
22 -102 l0 -106 -38 2 c-22 0 -44 -2 -51 -6 -6 -4 -27 -2 -47 4 -45 15 -64 56
-64 138 0 64 4 72 32 72 16 0 18 -9 18 -74z m699 62 c11 -10 14 -10 18 0 3 6
13 12 24 12 18 0 19 -8 19 -105 0 -98 -1 -105 -20 -105 -11 0 -20 5 -20 10 0
6 -14 3 -32 -6 -26 -13 -38 -14 -70 -5 -49 15 -73 52 -72 110 1 37 7 49 33 73
34 31 96 39 120 16z m160 -65 c14 -40 28 -73 32 -73 3 0 17 33 31 73 20 56 30
73 47 75 11 2 21 -1 21 -6 0 -5 -16 -53 -36 -106 -34 -89 -39 -96 -64 -96 -25
0 -30 7 -64 96 -20 53 -36 101 -36 106 0 5 10 8 22 6 16 -2 27 -19 47 -75z
m310 62 c16 -8 34 -28 40 -46 20 -58 19 -59 -74 -59 -47 0 -85 -3 -85 -8 0 -4
7 -18 16 -30 19 -28 65 -29 89 -2 20 23 55 27 55 7 0 -21 -41 -54 -76 -61 -69
-15 -124 33 -124 107 0 40 5 53 29 78 34 33 83 39 130 14z m831 -90 c0 -98 -1
-105 -20 -105 -19 0 -20 7 -20 105 0 98 1 105 20 105 19 0 20 -7 20 -105z
m189 79 c27 -35 26 -44 -4 -44 -15 0 -25 6 -25 14 0 18 -27 28 -52 20 -31 -9
-16 -37 28 -54 23 -8 49 -21 58 -29 34 -28 12 -79 -42 -96 -42 -12 -112 24
-112 59 0 13 48 5 54 -9 7 -19 50 -20 65 -1 14 17 1 29 -52 46 -94 30 -76 119
25 120 28 0 41 -6 57 -26z m101 -79 c0 -98 -1 -105 -20 -105 -19 0 -20 7 -20
105 0 98 1 105 20 105 19 0 20 -7 20 -105z m221 76 c59 -59 26 -170 -55 -185
-72 -14 -126 32 -126 107 0 40 5 53 29 78 24 24 38 29 76 29 38 0 52 -5 76
-29z m109 19 c0 -7 6 -7 19 0 31 16 76 12 105 -11 24 -19 26 -26 26 -105 0
-77 -2 -84 -20 -84 -18 0 -20 7 -20 70 0 57 -4 74 -20 90 -24 24 -39 25 -65 6
-16 -11 -20 -30 -23 -90 -4 -67 -7 -76 -23 -76 -17 0 -19 9 -19 105 0 98 1
105 20 105 11 0 20 -5 20 -10z m911 -19 c19 -20 29 -40 29 -60 l0 -31 -80 0
c-84 0 -95 -7 -63 -42 22 -24 69 -23 85 2 12 19 38 26 51 14 12 -12 -25 -53
-59 -64 -40 -13 -91 -1 -118 29 -23 26 -31 85 -16 121 27 64 120 81 171 31z
m568 17 c11 -10 14 -10 18 0 3 6 13 12 24 12 18 0 19 -8 19 -105 0 -98 -1
-105 -20 -105 -11 0 -20 5 -20 10 0 6 -14 3 -32 -6 -26 -13 -38 -14 -70 -5
-49 15 -73 52 -72 110 1 37 7 49 33 73 34 31 96 39 120 16z m160 -65 c14 -40
28 -73 32 -73 3 0 17 33 31 73 20 56 30 73 47 75 11 2 21 -1 21 -6 0 -5 -16
-53 -36 -106 -34 -89 -39 -96 -64 -96 -25 0 -30 7 -64 96 -20 53 -36 101 -36
106 0 5 10 8 22 6 16 -2 27 -19 47 -75z m310 62 c16 -8 34 -28 40 -46 20 -58
19 -59 -74 -59 -47 0 -85 -3 -85 -8 0 -4 7 -18 16 -30 19 -28 65 -29 89 -2 20
23 55 27 55 7 0 -21 -41 -54 -76 -61 -69 -15 -124 33 -124 107 0 40 5 53 29
78 34 33 83 39 130 14z m890 0 c16 -8 34 -28 40 -46 20 -58 19 -59 -74 -59
-47 0 -85 -3 -85 -8 0 -4 7 -18 16 -30 19 -28 65 -29 89 -2 20 23 55 27 55 7
0 -21 -41 -54 -76 -61 -69 -15 -124 33 -124 107 0 40 5 53 29 78 34 33 83 39
130 14z m222 5 c13 -7 19 -7 19 0 0 5 11 10 25 10 l25 0 0 -105 0 -105 -25 0
c-14 0 -25 4 -25 9 0 5 -14 3 -30 -6 -41 -20 -83 -9 -116 30 -23 27 -26 38
-21 81 3 38 11 55 31 73 29 25 83 31 117 13z m273 -5 c18 -12 24 -12 40 1 30
21 81 17 111 -9 24 -20 27 -32 32 -105 l6 -82 -27 0 c-26 0 -26 1 -26 75 0 68
-2 76 -25 91 -23 15 -27 15 -50 0 -23 -15 -25 -23 -25 -91 0 -73 -1 -75 -25
-75 -24 0 -25 2 -25 75 0 68 -2 76 -25 91 -23 15 -27 15 -50 0 -23 -15 -25
-23 -25 -91 0 -73 -1 -75 -25 -75 l-25 0 0 104 0 104 71 0 c45 1 79 -4 93 -13z
m679 4 c54 -24 72 -99 38 -155 -36 -59 -129 -66 -176 -14 -41 45 -24 143 29
169 28 13 80 13 109 0z m648 -18 c19 -20 29 -40 29 -60 l0 -31 -80 0 c-84 0
-95 -7 -63 -42 22 -24 69 -23 85 2 12 19 38 26 51 14 12 -12 -25 -53 -59 -64
-40 -13 -91 -1 -118 29 -23 26 -31 85 -16 121 27 64 120 81 171 31z m672 18
c54 -24 72 -99 38 -155 -36 -59 -129 -66 -176 -14 -41 45 -24 143 29 169 28
13 80 13 109 0z m135 -69 c3 -81 12 -100 48 -100 41 0 54 25 54 106 0 72 1 74
25 74 l25 0 0 -105 0 -105 -42 -1 c-24 0 -58 -1 -76 -1 -57 -2 -76 28 -81 128
-3 85 -3 86 20 82 22 -3 24 -8 27 -78z m902 53 c17 -17 30 -40 32 -58 l3 -30
-82 -3 c-46 -2 -83 -6 -83 -10 0 -4 7 -18 16 -30 19 -28 65 -29 89 -2 18 19
55 28 55 12 0 -21 -35 -53 -68 -63 -81 -24 -152 43 -136 127 15 79 114 111
174 57z m110 17 c0 -7 6 -7 19 0 31 16 51 12 51 -10 0 -13 -7 -20 -19 -20 -33
0 -51 -38 -51 -107 0 -56 -2 -63 -20 -63 -19 0 -20 7 -20 105 0 98 1 105 20
105 11 0 20 -5 20 -10z m249 -5 c16 -8 34 -28 40 -46 20 -58 19 -59 -74 -59
-47 0 -85 -3 -85 -8 0 -4 7 -18 16 -30 19 -28 65 -29 89 -2 20 23 55 27 55 7
0 -21 -41 -54 -76 -61 -69 -15 -124 33 -124 107 0 40 5 53 29 78 34 33 83 39
130 14z m-6491 -169 c4 -21 -14 -37 -35 -29 -14 5 -18 35 -6 47 12 12 38 1 41
-18z m2932 -626 l0 -300 -1350 0 -1350 0 0 300 0 300 1350 0 1350 0 0 -300z"/>
<path d="M636 8078 c-22 -29 -24 -35 -11 -48 13 -13 19 -11 45 16 30 30 30 31
12 48 -19 16 -21 16 -46 -16z"/>
<path d="M890 7960 l0 -100 35 0 c42 0 90 22 99 45 3 9 6 37 6 61 0 62 -32 94
-95 94 l-45 0 0 -100z"/>
<path d="M12110 7985 c-34 -41 6 -113 53 -96 12 5 26 20 31 34 19 53 -50 103
-84 62z"/>
<path d="M11926 7986 c-3 -13 -9 -31 -12 -40 -5 -13 1 -16 26 -16 25 0 31 3
26 16 -3 9 -9 27 -12 40 -8 31 -20 31 -28 0z"/>
<path d="M18096 7986 c-3 -13 -9 -31 -12 -40 -5 -13 1 -16 26 -16 25 0 31 3
26 16 -3 9 -9 27 -12 40 -8 31 -20 31 -28 0z"/>
<path d="M18299 8036 c-63 -31 -58 -122 8 -147 42 -16 93 26 93 76 0 53 -57
93 -101 71z"/>
<path d="M1172 7994 c-41 -28 -28 -44 37 -44 53 0 59 2 54 19 -4 16 -41 41
-61 41 -4 0 -18 -7 -30 -16z"/>
<path d="M1710 8003 c-42 -15 -56 -96 -22 -126 44 -40 106 -5 106 59 0 48 -42
82 -84 67z"/>
<path d="M10762 7988 c-13 -13 -16 -67 -4 -84 22 -32 76 -19 86 21 13 53 -46
99 -82 63z"/>
<path d="M11262 7988 c-21 -21 -13 -28 33 -28 25 0 45 4 45 8 0 15 -24 32 -45
32 -12 0 -26 -5 -33 -12z"/>
<path d="M12306 7984 c-24 -23 -20 -70 6 -88 29 -20 34 -20 58 4 36 36 17 100
-30 100 -10 0 -26 -7 -34 -16z"/>
<path d="M13422 7988 c-21 -21 -13 -28 33 -28 25 0 45 4 45 8 0 15 -24 32 -45
32 -12 0 -26 -5 -33 -12z"/>
<path d="M14142 7988 c-21 -21 -13 -28 33 -28 25 0 45 4 45 8 0 15 -24 32 -45
32 -12 0 -26 -5 -33 -12z"/>
<path d="M15102 7988 c-21 -21 -13 -28 33 -28 43 0 45 1 35 20 -12 22 -49 27
-68 8z"/>
<path d="M15286 7984 c-22 -21 -20 -60 4 -84 24 -24 29 -24 58 -4 41 28 21
104 -28 104 -10 0 -26 -7 -34 -16z"/>
<path d="M16475 7977 c-33 -51 12 -114 59 -83 29 18 37 47 22 78 -17 33 -60
36 -81 5z"/>
<path d="M16972 7988 c-7 -7 -12 -27 -12 -44 0 -63 73 -79 94 -21 18 51 -46
101 -82 65z"/>
<path d="M8484 4878 c-42 -20 -57 -94 -29 -147 27 -52 90 -57 129 -10 68 81
-9 202 -100 157z"/>
<path d="M7975 4875 c-39 -38 -32 -45 50 -45 84 0 96 12 49 49 -35 28 -69 26
-99 -4z"/>
<path d="M9565 4875 c-39 -38 -32 -45 50 -45 84 0 96 12 49 49 -35 28 -69 26
-99 -4z"/>
<path d="M11496 4879 c-47 -37 -35 -49 49 -49 82 0 89 7 50 45 -30 30 -64 32
-99 4z"/>
<path d="M6597 4025 c-22 -65 -22 -65 18 -65 40 0 42 6 16 69 l-18 44 -16 -48z"/>
<path d="M9997 4025 c-22 -65 -22 -65 18 -65 40 0 42 6 16 69 l-18 44 -16 -48z"/>
<path d="M4937 4029 c-51 -39 -25 -129 37 -129 36 0 69 46 62 85 -12 56 -58
77 -99 44z"/>
<path d="M5775 4026 c-31 -31 -33 -78 -5 -106 28 -28 64 -25 89 6 26 33 27 65
4 92 -30 34 -59 37 -88 8z"/>
<path d="M6248 4039 c-10 -5 -22 -19 -28 -29 -10 -19 -7 -20 50 -20 64 0 72 8
40 40 -22 22 -37 24 -62 9z"/>
<path d="M7555 4026 c-55 -55 -9 -144 63 -122 20 7 42 45 42 75 0 24 -29 58
-57 66 -17 4 -30 -1 -48 -19z"/>
<path d="M8582 4034 c-40 -28 -28 -44 33 -44 41 0 55 4 55 14 0 16 -37 46 -55
46 -6 0 -21 -7 -33 -16z"/>
<path d="M9175 4026 c-31 -31 -33 -78 -5 -106 28 -28 64 -25 89 6 26 33 27 65
4 92 -30 34 -59 37 -88 8z"/>
<path d="M9648 4039 c-10 -5 -22 -19 -28 -29 -10 -19 -7 -20 50 -20 64 0 72 8
40 40 -22 22 -37 24 -62 9z"/>
<path d="M10538 4039 c-10 -5 -22 -19 -28 -29 -10 -19 -7 -20 50 -20 64 0 72
8 40 40 -22 22 -37 24 -62 9z"/>
<path d="M10780 4043 c-26 -9 -40 -35 -40 -73 0 -63 58 -92 100 -50 20 20 27
74 12 96 -7 10 -47 35 -54 33 -2 0 -10 -3 -18 -6z"/>
<path d="M11720 4043 c-63 -22 -49 -143 16 -143 38 0 64 28 64 69 0 55 -37 89
-80 74z"/>
<path d="M12332 4034 c-41 -29 -28 -44 38 -44 57 0 60 1 50 20 -10 19 -40 40
-57 40 -5 0 -19 -7 -31 -16z"/>
<path d="M13040 4043 c-63 -22 -49 -143 16 -143 38 0 64 28 64 69 0 55 -37 89
-80 74z"/>
<path d="M14041 4031 c-33 -33 -25 -41 39 -41 62 0 69 5 48 33 -22 28 -63 32
-87 8z"/>
<path d="M14428 4039 c-10 -5 -22 -19 -28 -29 -10 -19 -7 -20 50 -20 64 0 72
8 40 40 -22 22 -37 24 -62 9z"/>
<path d="M10400 3349 c0 -36 -2 -40 -15 -29 -22 18 -73 15 -96 -6 -27 -24 -26
-97 1 -124 22 -22 60 -26 91 -10 13 7 19 7 19 0 0 -5 7 -10 15 -10 12 0 15 19
15 110 0 91 -3 110 -15 110 -11 0 -15 -11 -15 -41z m-12 -52 c17 -13 15 -73
-4 -91 -34 -34 -94 -6 -94 44 0 57 52 83 98 47z"/>
<path d="M8798 3352 c-27 -25 -31 -36 -31 -77 0 -41 4 -52 31 -77 43 -38 91
-38 131 0 17 15 33 39 37 55 6 27 6 27 -50 27 -31 0 -56 -4 -56 -10 0 -5 18
-10 40 -10 48 0 53 -18 14 -49 -35 -28 -69 -26 -99 4 -49 48 -17 145 48 145
13 0 36 -9 50 -20 33 -26 51 -27 35 -1 -30 48 -103 54 -150 13z"/>
<path d="M9396 3367 c-12 -9 -17 -23 -14 -47 3 -31 8 -36 48 -51 24 -9 49 -23
54 -32 22 -35 -46 -65 -74 -32 -16 19 -30 19 -30 0 0 -19 31 -35 68 -35 37 0
64 30 60 66 -2 24 -11 31 -48 45 -53 20 -70 40 -51 63 17 20 45 20 65 1 16
-17 36 -20 36 -6 0 16 -43 41 -70 41 -15 0 -34 -6 -44 -13z"/>
<path d="M9192 3342 c-8 -17 -9 -28 -2 -30 5 -2 10 -32 10 -67 0 -64 7 -75 46
-75 21 0 17 17 -6 23 -17 4 -20 14 -20 61 0 49 2 56 20 56 11 0 20 5 20 10 0
6 -9 10 -20 10 -13 0 -20 7 -20 20 0 28 -13 25 -28 -8z"/>
<path d="M9560 3350 c0 -11 -5 -20 -11 -20 -8 0 -8 -4 -1 -12 5 -7 12 -39 14
-71 5 -59 16 -77 51 -77 23 0 22 16 -3 23 -17 4 -20 14 -20 61 0 49 2 56 20
56 11 0 20 5 20 10 0 6 -9 10 -20 10 -13 0 -20 7 -20 20 0 11 -7 20 -15 20 -8
0 -15 -9 -15 -20z"/>
<path d="M9982 3342 c-8 -17 -9 -28 -2 -30 5 -2 10 -32 10 -67 0 -64 7 -75 46
-75 21 0 17 17 -6 23 -17 4 -20 14 -20 61 0 49 2 56 20 56 11 0 20 5 20 10 0
6 -9 10 -20 10 -13 0 -20 7 -20 20 0 28 -13 25 -28 -8z"/>
<path d="M9055 3332 c-37 -7 -55 -33 -55 -79 0 -54 26 -83 73 -83 23 0 41 8
57 25 18 19 20 25 8 25 -9 0 -21 -7 -28 -15 -16 -20 -54 -19 -74 1 -28 27 -18
34 49 34 61 0 65 1 65 23 0 48 -43 79 -95 69z m63 -40 c21 -27 14 -32 -43 -32
-61 0 -73 16 -33 44 25 18 56 13 76 -12z"/>
<path d="M9715 3332 c-37 -8 -55 -33 -55 -79 0 -69 53 -104 111 -73 13 7 19 7
19 0 0 -5 7 -10 15 -10 12 0 15 16 15 80 0 64 -3 80 -15 80 -8 0 -15 -5 -15
-11 0 -8 -4 -8 -12 -2 -19 15 -41 20 -63 15z m63 -35 c17 -13 15 -73 -4 -91
-34 -34 -94 -6 -94 44 0 57 52 83 98 47z"/>
<path d="M9870 3250 c0 -47 4 -80 10 -80 6 0 10 23 10 51 0 56 13 89 35 89 8
0 15 5 15 10 0 14 -23 13 -38 -2 -9 -9 -12 -9 -12 0 0 7 -4 12 -10 12 -6 0
-10 -33 -10 -80z"/>
<path d="M10114 3322 c-18 -11 -34 -49 -34 -77 0 -35 42 -75 77 -75 30 0 73
24 73 41 0 15 -27 10 -34 -6 -9 -24 -62 -19 -81 8 l-16 22 68 5 c65 5 68 6 65
29 -4 39 -31 61 -71 61 -20 0 -41 -4 -47 -8z m74 -18 c39 -27 28 -44 -28 -44
-42 0 -50 3 -50 18 0 11 10 24 23 30 30 14 29 14 55 -4z"/>
<path d="M18691 1326 c-8 -9 -11 -50 -9 -117 3 -93 5 -104 22 -107 13 -3 17 0
14 9 -21 57 -21 57 22 56 35 -1 44 3 58 25 9 15 14 30 11 33 -10 9 -39 -6 -39
-21 0 -8 -4 -14 -10 -14 -5 0 -10 7 -10 15 0 8 -7 15 -15 15 -8 0 -15 7 -15
16 0 8 5 12 11 9 17 -11 59 4 59 21 0 8 -10 28 -22 44 -23 32 -58 39 -77 16z
m49 -36 c27 -27 25 -30 -11 -30 -24 0 -30 3 -25 16 3 9 6 20 6 25 0 14 8 11
30 -11z"/>
<path d="M18625 1320 c3 -5 10 -10 16 -10 5 0 9 5 9 10 0 6 -7 10 -16 10 -8 0
-12 -4 -9 -10z"/>
<path d="M18611 1276 c-7 -8 -20 -12 -29 -9 -11 2 -26 -7 -40 -26 -22 -30 -22
-31 -4 -63 40 -74 54 -89 80 -86 30 4 43 28 15 28 -29 0 -60 26 -47 40 8 8 14
7 24 -5 7 -8 21 -15 31 -15 14 0 19 7 19 29 0 29 -2 30 -50 33 -67 4 -69 22
-2 26 50 3 52 4 52 33 0 22 -5 29 -19 29 -10 0 -24 -6 -30 -14z"/>
</g>
</svg>
