<?xml version="1.0" standalone="no"?>
<!DOCTYPE svg PUBLIC "-//W3C//DTD SVG 20010904//EN"
 "http://www.w3.org/TR/2001/REC-SVG-20010904/DTD/svg10.dtd">
<svg version="1.0" xmlns="http://www.w3.org/2000/svg"
 width="1920.000000pt" height="1477.000000pt" viewBox="0 0 1920.000000 1477.000000"
 preserveAspectRatio="xMidYMid meet">

<g transform="translate(0.000000,1477.000000) scale(0.100000,-0.100000)"
fill="#000000" stroke="none">
<path d="M15231 14156 c-47 -26 -50 -46 -51 -284 0 -243 5 -267 55 -290 20 -9
292 -12 1116 -12 1184 0 1131 -3 1157 55 8 18 12 96 12 245 0 237 -4 261 -51
286 -40 20 -2201 21 -2238 0z m1879 -253 c0 -41 2 -45 13 -29 8 11 22 16 36
14 l23 -3 -22 -28 c-20 -25 -21 -30 -7 -45 15 -16 70 -22 83 -9 4 4 -5 11 -20
17 -57 21 -40 70 25 70 29 0 39 -4 39 -16 0 -11 -6 -15 -20 -11 -31 8 -35 -11
-5 -25 20 -9 25 -18 23 -37 -3 -25 -6 -26 -72 -29 -56 -2 -70 0 -82 15 -13 17
-13 17 -14 1 0 -21 -50 -26 -50 -6 0 9 -3 9 -12 0 -19 -19 -88 -16 -88 4 0 11
6 15 20 11 31 -8 35 11 5 25 -20 9 -25 18 -23 37 3 23 8 26 46 29 34 3 42 0
42 -14 0 -11 -6 -15 -20 -11 -33 8 -33 -10 0 -26 l30 -15 0 64 c0 62 1 64 25
64 23 0 25 -4 25 -47z m-1570 22 c0 -10 -11 -15 -35 -15 -44 0 -47 -23 -5 -40
17 -7 34 -19 39 -27 6 -12 12 -13 29 -4 11 6 31 11 44 11 18 0 20 2 9 9 -9 6
-22 6 -34 -1 -22 -11 -32 -5 -24 17 8 18 77 21 95 3 7 -7 12 -34 12 -60 l0
-48 -54 0 c-40 0 -55 4 -60 16 -5 14 -7 14 -22 0 -9 -10 -33 -16 -60 -16 -37
0 -44 3 -44 19 0 17 5 19 35 14 28 -5 35 -2 35 11 0 9 -8 19 -17 23 -47 16
-68 64 -41 91 18 18 98 16 98 -3z m595 -10 c17 -16 25 -35 25 -60 0 -56 -35
-85 -105 -85 l-55 0 0 85 0 85 55 0 c46 0 60 -4 80 -25z m182 3 c31 -29 32
-92 1 -125 -29 -31 -99 -32 -128 -3 -28 28 -27 96 2 127 29 31 92 32 125 1z
m120 -25 l28 -48 3 48 c3 42 5 47 28 47 24 0 24 -2 24 -85 l0 -85 -27 0 c-23
1 -34 11 -60 53 l-32 52 -1 -52 c0 -46 -3 -53 -20 -53 -18 0 -20 7 -20 85 0
83 1 85 24 85 18 0 31 -12 53 -47z m213 32 c0 -10 -11 -15 -35 -15 -28 0 -35
-4 -35 -20 0 -16 7 -20 30 -20 20 0 30 -5 30 -15 0 -10 -10 -15 -30 -15 -23 0
-30 -4 -30 -20 0 -16 7 -20 35 -20 24 0 35 -5 35 -15 0 -12 -13 -15 -55 -15
l-55 0 0 85 0 85 55 0 c42 0 55 -3 55 -15z m200 0 c0 -8 -9 -15 -20 -15 -18 0
-20 -7 -20 -70 0 -68 -1 -70 -25 -70 -24 0 -25 2 -25 70 0 63 -2 70 -20 70
-11 0 -20 7 -20 15 0 12 14 15 65 15 51 0 65 -3 65 -15z m-1125 -72 l8 -38 12
35 c8 23 19 36 33 38 27 4 27 5 1 -63 -17 -45 -25 -55 -43 -55 -19 0 -27 11
-45 56 -26 68 -26 64 3 64 20 0 25 -7 31 -37z m183 25 c7 -7 12 -22 12 -35 0
-20 -5 -23 -41 -23 -24 0 -38 -4 -34 -10 3 -5 19 -10 36 -10 19 0 29 -5 29
-15 0 -19 -80 -21 -98 -3 -17 17 -15 74 4 92 18 19 75 21 92 4z m1032 -7 c5
-11 10 -38 10 -61 l0 -41 -57 3 c-57 3 -58 3 -58 33 0 25 5 32 33 41 18 5 30
13 26 17 -4 3 -15 2 -26 -4 -23 -12 -33 -6 -25 16 10 23 83 20 97 -4z"/>
<path d="M15604 13815 c-17 -13 -17 -14 -2 -15 9 0 20 5 23 11 11 17 0 20 -21
4z"/>
<path d="M16050 13854 c0 -52 1 -55 22 -52 13 2 29 15 36 31 12 24 11 31 -2
53 -9 13 -25 24 -36 24 -18 0 -20 -7 -20 -56z"/>
<path d="M16218 13885 c-18 -41 0 -80 37 -80 23 0 32 6 39 27 14 39 -6 78 -39
78 -18 0 -29 -8 -37 -25z"/>
<path d="M15850 13855 c-10 -13 -9 -15 9 -15 11 0 21 4 21 9 0 18 -18 21 -30
6z"/>
<path d="M16870 13810 c0 -5 7 -10 15 -10 8 0 15 5 15 10 0 6 -7 10 -15 10 -8
0 -15 -4 -15 -10z"/>
<path d="M7142 13948 c-7 -7 -12 -30 -12 -52 l0 -40 -29 28 c-23 22 -36 27
-55 22 -21 -5 -26 -13 -26 -36 0 -19 7 -34 20 -42 29 -19 25 -28 -14 -28 -39
0 -59 -19 -54 -52 2 -19 10 -23 46 -26 47 -4 51 -11 22 -37 -25 -22 -23 -63 2
-79 14 -8 23 -5 46 17 15 15 31 27 35 27 4 0 7 -18 7 -40 0 -29 5 -42 20 -50
34 -18 60 4 60 50 0 43 13 52 30 21 5 -11 19 -23 30 -26 46 -14 68 46 30 80
-29 26 -25 33 23 37 35 3 43 7 45 26 5 33 -15 52 -54 52 -39 0 -43 9 -14 35
23 20 26 45 8 63 -19 19 -39 14 -70 -15 l-28 -27 0 40 c0 42 -14 64 -40 64 -9
0 -21 -5 -28 -12z m38 -48 c0 -16 -4 -30 -10 -30 -5 0 -10 14 -10 30 0 17 5
30 10 30 6 0 10 -13 10 -30z m-96 -43 c6 -9 7 -19 3 -23 -9 -9 -37 15 -37 33
0 18 20 12 34 -10z m206 10 c0 -14 -20 -37 -32 -37 -12 0 -10 24 4 38 16 16
28 15 28 -1z m-68 -41 c24 -18 39 -63 32 -92 -3 -13 -18 -33 -31 -44 -73 -57
-172 26 -129 108 9 17 21 32 28 35 25 10 83 6 100 -7z m-172 -71 c0 -16 -45
-21 -54 -6 -8 12 4 21 31 21 14 0 23 -6 23 -15z m291 0 c0 -5 -7 -12 -16 -13
-23 -5 -47 6 -40 19 8 13 56 8 56 -6z m-251 -89 c0 -19 -27 -39 -40 -31 -8 5
-6 13 6 26 20 22 34 25 34 5z m194 -9 c6 -9 7 -19 3 -23 -9 -9 -37 15 -37 33
0 18 20 12 34 -10z m-104 -47 c0 -16 -4 -30 -10 -30 -5 0 -10 14 -10 30 0 17
5 30 10 30 6 0 10 -13 10 -30z"/>
<path d="M7127 13802 c-35 -38 -6 -112 43 -112 29 0 60 35 60 68 0 55 -68 83
-103 44z"/>
<path d="M12490 13755 l0 -205 205 0 205 0 0 205 0 205 -205 0 -205 0 0 -205z
m380 0 l0 -175 -175 0 -175 0 0 175 0 175 175 0 175 0 0 -175z"/>
<path d="M5040 13760 c0 -123 1 -130 20 -130 19 0 20 7 20 130 0 123 -1 130
-20 130 -19 0 -20 -7 -20 -130z"/>
<path d="M5450 13760 c0 -122 1 -130 19 -130 17 0 20 8 23 48 l3 47 43 6 c52
7 71 24 79 71 4 30 1 41 -20 62 -22 22 -35 26 -87 26 l-60 0 0 -130z m94 90
c20 -7 26 -17 26 -39 0 -32 -22 -51 -59 -51 -18 0 -21 6 -21 43 0 59 7 65 54
47z"/>
<path d="M11390 13760 l0 -130 55 0 c100 0 155 47 155 134 0 88 -46 126 -150
126 l-60 0 0 -130z m130 80 c22 -12 41 -70 33 -102 -10 -42 -43 -68 -85 -68
l-38 0 0 90 0 90 36 0 c19 0 44 -5 54 -10z"/>
<path d="M11688 13874 c-80 -43 -77 -188 4 -230 44 -23 113 -14 146 20 21 21
27 37 30 91 4 63 3 66 -31 100 -29 29 -42 35 -78 35 -24 -1 -56 -7 -71 -16z
m117 -44 c13 -14 19 -37 19 -71 1 -42 -3 -54 -23 -70 -31 -25 -75 -24 -101 3
-28 31 -28 104 2 135 27 29 78 31 103 3z"/>
<path d="M11920 13761 c0 -124 1 -131 20 -131 18 0 20 8 22 98 l3 97 60 -97
c52 -85 64 -98 88 -98 l27 0 0 130 0 130 -25 0 c-24 0 -24 -2 -27 -91 l-3 -92
-55 89 c-45 73 -61 90 -83 92 l-27 3 0 -130z"/>
<path d="M12190 13760 l0 -130 75 0 c68 0 75 2 75 20 0 17 -7 20 -50 20 l-50
0 0 34 c0 34 1 35 42 38 31 2 44 8 46 21 3 14 -4 17 -42 17 -46 0 -46 0 -46
35 0 35 0 35 45 35 38 0 45 3 45 20 0 18 -7 20 -70 20 l-70 0 0 -130z"/>
<path d="M5140 13720 c0 -83 1 -90 20 -90 18 0 20 7 20 65 0 53 3 66 19 75 42
22 61 -7 61 -92 0 -41 3 -48 20 -48 18 0 20 7 20 70 0 57 -4 74 -20 90 -22 22
-51 26 -81 10 -13 -7 -19 -7 -19 0 0 5 -9 10 -20 10 -19 0 -20 -7 -20 -90z"/>
<path d="M5650 13720 c0 -89 0 -90 25 -90 24 0 25 3 25 58 0 60 11 82 42 82
11 0 18 7 18 20 0 23 -29 27 -48 8 -9 -9 -12 -9 -12 0 0 7 -11 12 -25 12 -25
0 -25 -1 -25 -90z"/>
<path d="M5799 13781 c-20 -20 -29 -39 -29 -61 0 -46 47 -90 95 -90 69 0 115
74 83 133 -18 34 -40 46 -81 47 -29 0 -45 -7 -68 -29z m96 -15 c37 -27 15
-106 -30 -106 -26 0 -48 28 -47 61 1 50 39 73 77 45z"/>
<path d="M6015 13785 c-19 -18 -25 -35 -25 -68 0 -69 55 -107 111 -77 30 17
25 -26 -7 -46 -20 -14 -32 -15 -60 -6 -30 9 -34 8 -34 -8 0 -39 98 -43 135 -5
23 23 25 31 25 130 0 98 -1 105 -20 105 -11 0 -20 -5 -20 -12 0 -9 -3 -9 -12
0 -20 20 -67 14 -93 -13z m86 -15 c36 -20 17 -110 -23 -110 -22 0 -48 33 -48
61 0 17 8 34 22 43 27 19 24 19 49 6z"/>
<path d="M6220 13720 c0 -83 1 -90 20 -90 17 0 20 7 20 51 0 60 13 89 40 89
13 0 20 7 20 20 0 23 -29 27 -48 8 -9 -9 -12 -9 -12 0 0 7 -9 12 -20 12 -19 0
-20 -7 -20 -90z"/>
<path d="M6363 13786 c-22 -19 -28 -32 -28 -66 0 -34 6 -47 28 -66 41 -35 127
-30 127 7 0 16 -4 17 -31 7 -36 -12 -79 2 -79 27 0 12 13 15 60 15 56 0 60 1
60 24 0 68 -82 99 -137 52z m85 -18 c21 -21 13 -28 -28 -28 -22 0 -40 4 -40 8
0 14 23 32 40 32 9 0 21 -5 28 -12z"/>
<path d="M6553 13795 c-14 -10 -23 -27 -23 -41 0 -20 8 -29 40 -42 22 -9 40
-23 40 -30 0 -19 -28 -26 -56 -13 -23 10 -25 9 -22 -11 6 -42 100 -36 120 7
14 30 -1 52 -50 72 -43 18 -36 38 12 37 29 -1 36 2 34 15 -4 22 -67 26 -95 6z"/>
<path d="M6700 13790 c-34 -34 -21 -61 43 -88 51 -22 19 -55 -34 -35 -25 10
-29 9 -29 -7 0 -32 69 -42 108 -14 36 25 29 60 -19 84 -46 24 -47 45 -1 45 24
0 32 4 32 17 0 27 -73 25 -100 -2z"/>
<path d="M5660 12945 c0 -69 3 -85 15 -85 12 0 15 16 15 85 0 69 -3 85 -15 85
-12 0 -15 -16 -15 -85z"/>
<path d="M5870 12945 c0 -69 3 -85 15 -85 10 0 15 10 15 30 0 25 4 30 24 30
31 0 56 25 56 55 0 35 -26 55 -71 55 l-39 0 0 -85z m68 56 c22 -13 11 -56 -15
-59 -20 -3 -23 1 -23 32 0 36 11 44 38 27z"/>
<path d="M5730 12920 c0 -68 17 -82 22 -19 2 27 9 46 21 53 23 15 37 -6 37
-56 0 -21 5 -38 11 -38 6 0 9 20 7 51 -3 60 -24 82 -58 61 -12 -7 -20 -8 -20
-2 0 5 -4 10 -10 10 -6 0 -10 -27 -10 -60z"/>
<path d="M6010 12918 c0 -67 17 -79 22 -15 2 32 8 44 26 52 32 14 27 23 -13
22 l-35 -1 0 -58z"/>
<path d="M6106 12964 c-23 -22 -21 -81 3 -94 44 -23 101 5 101 50 0 48 -71 78
-104 44z m58 -10 c24 -9 21 -61 -4 -69 -39 -12 -66 35 -38 63 14 14 20 14 42
6z"/>
<path d="M6246 12961 c-44 -49 16 -135 62 -89 9 9 12 7 12 -9 0 -28 -25 -46
-55 -40 -16 3 -24 0 -22 -7 5 -14 32 -19 62 -12 28 7 45 55 45 127 l0 46 -44
1 c-30 0 -50 -5 -60 -17z m58 -7 c20 -8 21 -48 1 -64 -22 -19 -45 -5 -45 28 0
40 11 49 44 36z"/>
<path d="M6380 12919 c0 -46 3 -59 15 -59 11 0 15 12 15 46 0 37 4 47 20 51
32 8 23 21 -15 21 l-35 0 0 -59z"/>
<path d="M6477 12962 c-39 -42 -9 -106 46 -100 41 4 45 23 5 23 -17 0 -33 6
-35 13 -3 8 8 12 36 12 45 0 51 11 25 48 -18 27 -55 29 -77 4z m61 -19 c2 -8
-6 -13 -22 -13 -25 0 -33 10 -19 24 10 10 36 3 41 -11z"/>
<path d="M6603 12973 c-7 -2 -13 -15 -13 -29 0 -17 7 -25 25 -30 14 -3 25 -12
25 -20 0 -8 -10 -14 -25 -14 -14 0 -25 -4 -25 -10 0 -16 56 -12 70 5 17 20 6
43 -25 55 -29 11 -25 30 6 30 10 0 19 5 19 10 0 10 -35 12 -57 3z"/>
<path d="M6702 12968 c-20 -20 -14 -37 18 -53 39 -20 39 -39 0 -33 -19 3 -29
1 -27 -6 6 -18 53 -18 70 -1 20 19 13 39 -19 53 -32 15 -31 36 1 30 17 -4 25
-1 25 8 0 17 -51 19 -68 2z"/>
<path d="M11840 12765 l0 -85 35 0 c42 0 90 22 99 45 26 69 -14 125 -90 125
l-44 0 0 -85z m88 49 c46 -32 17 -114 -40 -114 -15 0 -18 9 -18 65 0 71 12 82
58 49z"/>
<path d="M12030 12832 c-13 -10 -23 -33 -27 -59 -5 -35 -2 -45 20 -67 53 -53
137 -17 137 59 0 70 -77 110 -130 67z m78 -18 c32 -22 30 -78 -3 -100 -23 -15
-27 -15 -50 0 -33 22 -35 78 -3 100 12 9 25 16 28 16 3 0 16 -7 28 -16z"/>
<path d="M12190 12765 c0 -68 3 -85 15 -85 10 0 15 16 17 63 l3 62 40 -62 c24
-38 47 -63 58 -63 15 0 17 11 17 85 0 68 -3 85 -15 85 -10 0 -15 -16 -17 -62
l-3 -63 -39 63 c-25 40 -45 62 -57 62 -17 0 -19 -9 -19 -85z"/>
<path d="M12380 12765 l0 -85 45 0 c25 0 45 5 45 10 0 6 -13 10 -30 10 -27 0
-30 3 -30 30 0 25 4 30 25 30 14 0 25 5 25 10 0 6 -11 10 -25 10 -20 0 -25 5
-25 25 0 21 5 25 30 25 17 0 30 5 30 10 0 6 -20 10 -45 10 l-45 0 0 -85z"/>
<path d="M5780 12590 c0 -53 4 -90 10 -90 6 0 10 14 10 31 0 37 16 69 34 69
17 0 26 -22 26 -66 0 -19 5 -34 10 -34 6 0 10 24 10 54 0 46 -3 56 -20 61 -10
3 -28 1 -40 -5 -19 -10 -20 -8 -20 30 0 22 -4 40 -10 40 -6 0 -10 -37 -10 -90z"/>
<path d="M5300 12585 c0 -69 3 -85 15 -85 10 0 15 10 15 30 0 25 4 30 24 30
33 0 56 25 56 60 0 35 -23 50 -74 50 l-36 0 0 -85z m68 56 c22 -13 11 -56 -15
-59 -20 -3 -23 1 -23 32 0 36 11 44 38 27z"/>
<path d="M7083 12643 c-4 -10 -11 -21 -17 -25 -8 -6 -7 -10 1 -16 6 -4 13 -28
15 -52 2 -38 7 -46 26 -48 12 -2 22 1 22 7 0 6 -4 11 -10 11 -15 0 -12 77 3
84 10 5 10 7 0 12 -7 3 -13 14 -13 25 0 24 -18 25 -27 2z"/>
<path d="M5440 12571 c0 -57 12 -70 63 -68 l37 1 0 58 c0 66 -17 79 -22 17 -2
-27 -9 -46 -21 -53 -23 -15 -37 6 -37 57 0 20 -4 37 -10 37 -5 0 -10 -22 -10
-49z"/>
<path d="M5580 12558 c0 -32 4 -58 10 -58 6 0 10 14 10 31 0 38 16 69 35 69 8
0 15 4 15 9 0 5 -16 9 -35 8 l-35 -1 0 -58z"/>
<path d="M5682 12604 c-28 -19 -29 -64 -3 -88 22 -20 62 -18 69 3 3 8 0 11 -7
7 -23 -15 -51 4 -51 34 0 29 28 49 50 35 5 -3 10 1 10 9 0 21 -39 21 -68 0z"/>
<path d="M5933 12613 c-25 -10 -12 -22 17 -16 40 8 40 -13 -1 -22 -63 -14 -48
-69 20 -72 l41 -2 0 48 c0 26 -5 52 -12 59 -12 12 -43 15 -65 5z m45 -70 c-5
-26 -38 -29 -38 -4 0 15 6 21 21 21 14 0 19 -5 17 -17z"/>
<path d="M6053 12613 c-7 -2 -13 -15 -13 -29 0 -17 7 -25 25 -30 14 -3 25 -12
25 -20 0 -8 -10 -14 -25 -14 -14 0 -25 -4 -25 -10 0 -16 56 -12 70 5 17 20 6
43 -25 55 -29 11 -25 30 6 30 10 0 19 5 19 10 0 10 -35 12 -57 3z"/>
<path d="M6160 12600 c-41 -41 -11 -105 46 -98 39 4 41 23 2 23 -17 0 -33 6
-35 13 -3 8 8 12 36 12 34 0 41 3 41 19 0 25 -26 51 -51 51 -10 0 -28 -9 -39
-20z m58 -17 c2 -8 -6 -13 -22 -13 -25 0 -33 10 -19 24 10 10 36 3 41 -11z"/>
<path d="M6340 12530 c0 -73 3 -90 15 -90 10 0 15 11 15 35 0 33 1 34 29 29
24 -5 32 -1 47 21 31 47 -12 115 -56 87 -12 -7 -20 -8 -20 -2 0 5 -7 10 -15
10 -12 0 -15 -17 -15 -90z m88 39 c3 -29 -20 -54 -43 -45 -15 5 -21 57 -8 70
16 16 48 1 51 -25z"/>
<path d="M6490 12558 c0 -67 17 -79 22 -15 2 32 8 44 26 52 32 14 27 23 -13
22 l-35 -1 0 -58z"/>
<path d="M6586 12604 c-9 -8 -16 -31 -16 -50 0 -40 31 -61 74 -50 35 9 33 24
-2 18 -18 -2 -33 2 -41 12 -12 14 -9 16 28 16 36 0 41 3 41 23 0 45 -52 64
-84 31z m62 -21 c2 -9 -7 -13 -28 -13 -28 0 -31 2 -20 15 15 18 41 16 48 -2z"/>
<path d="M6706 12605 c-19 -20 -12 -39 20 -53 33 -16 30 -32 -7 -32 -17 0 -28
-4 -24 -10 9 -14 58 -13 73 2 20 20 14 37 -18 53 -37 19 -39 35 -5 35 14 0 25
5 25 10 0 16 -47 12 -64 -5z"/>
<path d="M6816 12604 c-9 -8 -16 -31 -16 -50 0 -40 31 -61 74 -50 35 9 33 24
-2 18 -18 -2 -33 2 -41 12 -12 14 -9 16 28 16 36 0 41 3 41 23 0 45 -52 64
-84 31z m62 -21 c2 -9 -7 -13 -28 -13 -28 0 -31 2 -20 15 15 18 41 16 48 -2z"/>
<path d="M6930 12560 c0 -46 3 -60 14 -60 11 0 16 14 18 48 3 39 6 47 23 47
17 0 20 -8 23 -47 2 -34 7 -48 18 -48 17 0 20 71 4 101 -12 21 -40 25 -58 7
-9 -9 -12 -9 -12 0 0 7 -7 12 -15 12 -12 0 -15 -13 -15 -60z"/>
<path d="M11010 12405 c0 -69 3 -85 15 -85 11 0 15 11 15 40 l0 40 40 0 40 0
0 -40 c0 -22 5 -40 10 -40 6 0 10 35 10 85 0 50 -4 85 -10 85 -5 0 -10 -16
-10 -35 0 -34 -1 -35 -40 -35 -39 0 -40 1 -40 35 0 24 -5 35 -15 35 -12 0 -15
-16 -15 -85z"/>
<path d="M11870 12405 c0 -69 3 -85 15 -85 12 0 15 16 15 85 0 69 -3 85 -15
85 -12 0 -15 -16 -15 -85z"/>
<path d="M12770 12405 c0 -85 16 -119 22 -47 3 32 7 37 31 40 37 4 34 22 -4
22 -26 0 -30 3 -27 23 2 17 11 23 36 25 48 5 39 22 -13 22 l-45 0 0 -85z"/>
<path d="M12095 12465 c-5 -11 -13 -23 -19 -27 -8 -6 -7 -10 1 -16 6 -4 13
-28 15 -52 2 -38 7 -46 26 -48 25 -4 30 13 7 22 -9 3 -15 19 -15 41 0 24 4 35
15 35 8 0 15 5 15 10 0 6 -6 10 -14 10 -8 0 -16 10 -19 23 -3 21 -4 21 -12 2z"/>
<path d="M12623 12463 c-4 -10 -11 -21 -17 -25 -8 -6 -7 -10 1 -16 6 -4 13
-28 15 -52 2 -38 7 -46 26 -48 12 -2 22 1 22 7 0 6 -4 11 -10 11 -15 0 -12 77
3 84 10 5 10 7 0 12 -7 3 -13 14 -13 25 0 24 -18 25 -27 2z"/>
<path d="M11182 12389 c6 -58 16 -68 70 -67 l38 0 0 59 c0 45 -3 59 -14 59
-11 0 -16 -14 -18 -47 -3 -40 -6 -48 -23 -48 -17 0 -20 8 -23 48 -2 35 -7 47
-19 47 -13 0 -15 -9 -11 -51z"/>
<path d="M11330 12380 c0 -33 4 -60 10 -60 6 0 10 17 10 39 0 39 20 68 40 56
5 -3 10 -26 10 -51 0 -32 4 -44 14 -44 11 0 16 14 18 48 3 39 6 47 23 47 17 0
20 -8 23 -47 2 -36 7 -48 19 -48 13 0 15 9 10 52 -8 64 -18 76 -55 62 -20 -8
-33 -7 -45 0 -12 8 -22 7 -37 -2 -12 -7 -20 -8 -20 -2 0 5 -4 10 -10 10 -6 0
-10 -27 -10 -60z"/>
<path d="M11553 12433 c-25 -10 -12 -22 17 -16 40 8 40 -13 -1 -22 -63 -14
-48 -69 20 -72 l41 -2 0 48 c0 26 -5 52 -12 59 -12 12 -43 15 -65 5z m45 -70
c-5 -26 -38 -29 -38 -4 0 15 6 21 21 21 14 0 19 -5 17 -17z"/>
<path d="M11660 12380 c0 -46 3 -60 14 -60 11 0 16 14 18 48 3 39 6 47 23 47
17 0 20 -8 23 -47 2 -35 7 -48 18 -48 12 0 14 11 12 51 -3 60 -24 82 -58 61
-12 -7 -20 -8 -20 -2 0 5 -7 10 -15 10 -12 0 -15 -13 -15 -60z"/>
<path d="M11940 12380 c0 -33 4 -60 10 -60 6 0 10 14 10 31 0 37 16 69 34 69
17 0 26 -22 26 -66 0 -19 5 -34 10 -34 6 0 10 25 10 55 0 50 -2 55 -25 61 -15
4 -32 1 -40 -6 -10 -9 -15 -9 -15 -1 0 6 -4 11 -10 11 -6 0 -10 -27 -10 -60z"/>
<path d="M12176 12424 c-9 -8 -16 -31 -16 -50 0 -40 31 -61 74 -50 35 9 33 24
-2 18 -18 -2 -33 2 -41 12 -12 14 -9 16 28 16 36 0 41 3 41 23 0 45 -52 64
-84 31z m62 -21 c2 -9 -7 -13 -28 -13 -28 0 -31 2 -20 15 15 18 41 16 48 -2z"/>
<path d="M12290 12379 c0 -46 3 -59 15 -59 11 0 15 12 15 46 0 37 4 47 20 51
32 8 23 21 -15 21 l-35 0 0 -59z"/>
<path d="M12386 12418 c-34 -47 -5 -103 50 -96 39 4 41 23 2 23 -17 0 -33 6
-35 13 -3 8 8 12 36 12 34 0 41 3 41 19 0 48 -67 68 -94 29z m62 -15 c2 -8 -6
-13 -22 -13 -25 0 -33 10 -19 24 10 10 36 3 41 -11z"/>
<path d="M12511 12426 c-18 -21 -7 -44 24 -56 32 -12 23 -34 -11 -27 -16 3
-24 0 -24 -9 0 -14 36 -19 64 -8 26 10 20 53 -9 60 -34 8 -34 38 0 31 16 -3
24 0 22 7 -6 17 -52 19 -66 2z"/>
<path d="M12896 12424 c-23 -22 -21 -81 3 -94 44 -23 101 5 101 50 0 48 -71
78 -104 44z m58 -10 c24 -9 21 -61 -4 -69 -39 -12 -66 35 -38 63 14 14 20 14
42 6z"/>
<path d="M13030 12378 c0 -67 17 -79 22 -15 2 32 8 44 26 52 32 14 27 23 -13
22 l-35 -1 0 -58z"/>
<path d="M13120 12380 c0 -33 4 -60 10 -60 6 0 10 17 10 39 0 39 20 68 40 56
5 -3 10 -26 10 -51 0 -32 4 -44 14 -44 11 0 16 14 18 48 3 39 6 47 23 47 17 0
20 -8 23 -47 2 -36 7 -48 19 -48 13 0 15 9 10 52 -8 64 -18 76 -55 62 -20 -8
-33 -7 -45 0 -12 8 -22 7 -37 -2 -12 -7 -20 -8 -20 -2 0 5 -4 10 -10 10 -6 0
-10 -27 -10 -60z"/>
<path d="M6170 12305 c0 -8 7 -15 15 -15 8 0 15 7 15 15 0 8 -7 15 -15 15 -8
0 -15 -7 -15 -15z"/>
<path d="M7232 12308 c6 -18 28 -21 28 -4 0 9 -7 16 -16 16 -9 0 -14 -5 -12
-12z"/>
<path d="M7323 12313 c-7 -2 -13 -16 -13 -29 0 -15 -6 -24 -15 -24 -8 0 -15
-4 -15 -10 0 -5 7 -10 15 -10 11 0 15 -12 15 -50 0 -27 5 -50 10 -50 6 0 10
23 10 50 0 38 4 50 15 50 8 0 15 5 15 10 0 6 -7 10 -15 10 -8 0 -15 7 -15 15
0 9 7 18 15 21 8 4 15 10 15 15 0 10 -17 11 -37 2z"/>
<path d="M5009 12281 c-69 -69 2 -171 95 -135 11 4 16 19 16 45 0 37 -2 39
-30 39 -34 0 -40 -15 -10 -23 26 -7 26 -34 0 -42 -31 -10 -70 20 -70 53 0 46
22 67 69 66 41 -1 54 9 25 20 -34 13 -67 5 -95 -23z"/>
<path d="M5293 12283 c-4 -10 -11 -22 -17 -26 -8 -6 -7 -10 2 -14 7 -3 12 -23
12 -49 0 -47 15 -63 48 -49 16 8 16 8 0 12 -24 6 -26 83 -3 83 8 0 15 5 15 10
0 6 -7 10 -15 10 -8 0 -15 9 -15 20 0 25 -18 26 -27 3z"/>
<path d="M7393 12283 c-4 -10 -11 -21 -17 -25 -8 -6 -7 -10 1 -16 6 -4 13 -28
15 -52 2 -38 7 -46 26 -48 12 -2 22 1 22 7 0 6 -4 11 -10 11 -15 0 -12 77 3
84 10 5 10 7 0 12 -7 3 -13 14 -13 25 0 24 -18 25 -27 2z"/>
<path d="M5167 12242 c-39 -42 -9 -106 46 -100 41 4 45 23 5 23 -17 0 -33 6
-35 13 -3 8 8 12 36 12 45 0 51 11 25 48 -18 27 -55 29 -77 4z m61 -19 c2 -8
-6 -13 -22 -13 -25 0 -33 10 -19 24 10 10 36 3 41 -11z"/>
<path d="M5447 12253 c-14 -14 -6 -19 23 -15 40 6 38 -13 -2 -24 -26 -8 -34
-16 -36 -37 -2 -15 0 -28 5 -28 4 -1 27 -3 51 -4 l42 -3 0 47 c0 26 -5 52 -12
59 -13 13 -60 16 -71 5z m53 -68 c0 -9 -7 -18 -16 -22 -18 -7 -39 11 -30 26
11 17 46 13 46 -4z"/>
<path d="M5560 12200 c0 -46 3 -60 14 -60 11 0 16 14 18 48 3 39 6 47 23 47
17 0 20 -8 23 -47 2 -34 7 -48 18 -48 17 0 20 71 4 101 -12 21 -40 25 -58 7
-9 -9 -12 -9 -12 0 0 7 -7 12 -15 12 -12 0 -15 -13 -15 -60z"/>
<path d="M5777 12253 c-14 -14 -6 -19 23 -15 40 6 38 -13 -2 -24 -26 -8 -34
-16 -36 -37 -2 -15 0 -28 5 -28 4 -1 27 -3 51 -4 l42 -3 0 47 c0 26 -5 52 -12
59 -13 13 -60 16 -71 5z m53 -68 c0 -9 -7 -18 -16 -22 -18 -7 -39 11 -30 26
11 17 46 13 46 -4z"/>
<path d="M5890 12200 c0 -46 3 -60 14 -60 11 0 16 14 18 48 3 39 6 47 23 47
17 0 20 -8 23 -47 2 -34 7 -48 18 -48 17 0 20 71 4 101 -12 21 -40 25 -58 7
-9 -9 -12 -9 -12 0 0 7 -7 12 -15 12 -12 0 -15 -13 -15 -60z"/>
<path d="M6030 12200 c0 -46 3 -60 14 -60 11 0 16 14 18 48 3 39 6 47 23 47
17 0 20 -8 23 -47 2 -34 7 -48 18 -48 17 0 20 71 4 101 -12 21 -40 25 -58 7
-9 -9 -12 -9 -12 0 0 7 -7 12 -15 12 -12 0 -15 -13 -15 -60z"/>
<path d="M6170 12200 c0 -47 3 -60 15 -60 12 0 15 13 15 60 0 47 -3 60 -15 60
-12 0 -15 -13 -15 -60z"/>
<path d="M6242 12200 c20 -54 39 -73 52 -52 2 4 14 31 25 60 17 43 18 52 6 52
-8 0 -19 -17 -26 -40 -7 -22 -15 -40 -19 -40 -4 0 -12 18 -19 40 -6 22 -18 40
-26 40 -11 0 -10 -12 7 -60z"/>
<path d="M6366 12244 c-9 -8 -16 -31 -16 -50 0 -40 31 -61 74 -50 35 9 33 24
-2 18 -18 -2 -33 2 -41 12 -12 14 -9 16 28 16 36 0 41 3 41 23 0 45 -52 64
-84 31z m62 -21 c2 -9 -7 -13 -28 -13 -28 0 -31 2 -20 15 15 18 41 16 48 -2z"/>
<path d="M6480 12199 c0 -46 3 -59 15 -59 11 0 15 12 15 46 0 37 4 47 20 51
32 8 23 21 -15 21 l-35 0 0 -59z"/>
<path d="M6583 12253 c-7 -2 -13 -15 -13 -29 0 -17 7 -25 25 -30 14 -3 25 -12
25 -20 0 -8 -10 -14 -25 -14 -14 0 -25 -4 -25 -10 0 -16 56 -12 70 5 17 20 6
43 -25 55 -29 11 -25 30 6 30 10 0 19 5 19 10 0 10 -35 12 -57 3z"/>
<path d="M6687 12253 c-14 -14 -6 -19 23 -15 40 6 38 -13 -2 -24 -26 -8 -34
-16 -36 -37 -2 -15 0 -28 5 -28 4 -1 27 -3 51 -4 l42 -3 0 47 c0 26 -5 52 -12
59 -13 13 -60 16 -71 5z m53 -68 c0 -9 -7 -18 -16 -22 -18 -7 -39 11 -30 26
11 17 46 13 46 -4z"/>
<path d="M6800 12199 c0 -46 3 -59 15 -59 11 0 15 12 15 46 0 37 4 47 20 51
32 8 23 21 -15 21 l-35 0 0 -59z"/>
<path d="M6906 12200 c25 -62 22 -92 -8 -103 -7 -2 -9 -8 -5 -13 16 -17 43 15
74 87 37 86 37 89 19 89 -7 0 -19 -20 -26 -46 -14 -50 -22 -48 -40 9 -6 20
-18 37 -25 37 -10 0 -7 -15 11 -60z"/>
<path d="M7095 12237 c-8 -12 -15 -31 -15 -44 0 -42 50 -69 78 -41 9 9 12 7
12 -9 0 -28 -25 -46 -55 -40 -16 3 -24 0 -22 -7 5 -17 60 -19 82 -2 16 11 20
29 23 88 l4 75 -46 0 c-36 1 -49 -3 -61 -20z m73 -34 c2 -24 -1 -33 -17 -38
-29 -9 -41 1 -41 34 0 34 8 43 35 39 14 -2 21 -12 23 -35z"/>
<path d="M7230 12200 c0 -47 3 -60 15 -60 12 0 15 13 15 60 0 47 -3 60 -15 60
-12 0 -15 -13 -15 -60z"/>
<path d="M10100 12125 c0 -9 5 -15 11 -13 6 2 11 8 11 13 0 5 -5 11 -11 13 -6
2 -11 -4 -11 -13z"/>
<path d="M10160 12050 c0 -73 3 -90 15 -90 12 0 15 17 15 90 0 73 -3 90 -15
90 -12 0 -15 -17 -15 -90z"/>
<path d="M10220 12050 c0 -73 3 -90 15 -90 12 0 15 17 15 90 0 73 -3 90 -15
90 -12 0 -15 -17 -15 -90z"/>
<path d="M10790 12050 c0 -53 4 -90 10 -90 6 0 10 14 10 31 0 37 16 69 34 69
17 0 26 -22 26 -66 0 -19 5 -34 10 -34 6 0 10 25 10 55 0 50 -2 55 -25 61 -15
4 -32 1 -40 -6 -13 -11 -15 -7 -15 29 0 22 -4 41 -10 41 -6 0 -10 -37 -10 -90z"/>
<path d="M11612 12128 c6 -18 28 -21 28 -4 0 9 -7 16 -16 16 -9 0 -14 -5 -12
-12z"/>
<path d="M12580 12106 c0 -32 -2 -34 -32 -32 -39 1 -65 -35 -54 -77 7 -31 48
-46 71 -27 10 9 15 9 15 1 0 -6 7 -11 15 -11 12 0 15 17 15 90 0 73 -3 90 -15
90 -10 0 -15 -10 -15 -34z m-2 -83 c2 -24 -1 -33 -17 -38 -29 -9 -41 1 -41 34
0 34 8 43 35 39 14 -2 21 -12 23 -35z"/>
<path d="M12642 12128 c6 -18 28 -21 28 -4 0 9 -7 16 -16 16 -9 0 -14 -5 -12
-12z"/>
<path d="M12987 12134 c-8 -8 1 -24 14 -24 5 0 9 7 9 15 0 15 -12 20 -23 9z"/>
<path d="M13050 12051 l0 -89 45 2 c51 2 65 14 65 62 0 43 -23 61 -61 47 -29
-11 -29 -11 -29 28 0 21 -4 39 -10 39 -6 0 -10 -36 -10 -89z m80 -6 c28 -34
-16 -84 -47 -53 -14 14 -15 22 -5 43 13 28 33 32 52 10z"/>
<path d="M13420 12125 c0 -9 5 -15 11 -13 6 2 11 8 11 13 0 5 -5 11 -11 13 -6
2 -11 -4 -11 -13z"/>
<path d="M13852 12128 c-7 -7 -12 -20 -12 -29 0 -10 -6 -20 -12 -23 -10 -5
-10 -7 0 -12 7 -3 12 -25 12 -55 0 -37 4 -49 15 -49 11 0 15 12 15 49 0 30 5
52 13 55 10 5 10 7 0 12 -18 8 -16 44 2 44 8 0 15 5 15 10 0 14 -33 13 -48 -2z"/>
<path d="M9980 12045 c0 -69 3 -85 15 -85 11 0 15 11 15 40 0 38 2 40 30 40
17 0 30 5 30 10 0 6 -13 10 -30 10 -25 0 -30 4 -30 25 0 21 5 25 30 25 17 0
30 5 30 10 0 6 -20 10 -45 10 l-45 0 0 -85z"/>
<path d="M10653 12113 c-7 -3 -13 -11 -13 -18 0 -7 -6 -16 -12 -19 -10 -5 -10
-7 0 -12 6 -3 12 -22 12 -43 0 -20 5 -42 12 -49 15 -15 48 -16 48 -2 0 6 -7
10 -15 10 -11 0 -15 11 -15 40 0 29 4 40 15 40 8 0 15 5 15 10 0 6 -6 10 -14
10 -8 0 -16 8 -18 18 -2 11 -9 17 -15 15z"/>
<path d="M11833 12113 c-7 -3 -13 -11 -13 -18 0 -7 -6 -16 -12 -19 -10 -5 -10
-7 0 -12 6 -3 12 -22 12 -43 0 -20 5 -42 12 -49 15 -15 48 -16 48 -2 0 6 -7
10 -15 10 -11 0 -15 11 -15 40 0 29 4 40 15 40 8 0 15 5 15 10 0 6 -6 10 -14
10 -8 0 -16 8 -18 18 -2 11 -9 17 -15 15z"/>
<path d="M12363 12113 c-7 -3 -13 -11 -13 -18 0 -7 -6 -16 -12 -19 -10 -5 -10
-7 0 -12 6 -3 12 -22 12 -43 0 -20 5 -42 12 -49 15 -15 48 -16 48 -2 0 6 -7
10 -15 10 -11 0 -15 11 -15 40 0 29 4 40 15 40 8 0 15 5 15 10 0 6 -6 10 -14
10 -8 0 -16 8 -18 18 -2 11 -9 17 -15 15z"/>
<path d="M12825 12105 c-5 -11 -13 -23 -19 -27 -8 -6 -7 -10 1 -16 6 -4 13
-28 15 -52 2 -38 7 -46 26 -48 25 -4 30 13 7 22 -9 3 -15 19 -15 41 0 24 4 35
15 35 8 0 15 5 15 10 0 6 -6 10 -14 10 -8 0 -16 10 -19 23 -3 21 -4 21 -12 2z"/>
<path d="M13343 12103 c-4 -10 -11 -22 -17 -26 -8 -6 -7 -10 2 -14 7 -3 12
-23 12 -49 0 -47 15 -63 48 -49 16 8 16 8 0 12 -24 6 -26 83 -3 83 8 0 15 5
15 10 0 6 -7 10 -15 10 -8 0 -15 9 -15 20 0 25 -18 26 -27 3z"/>
<path d="M10100 12020 c0 -33 4 -60 10 -60 6 0 10 27 10 60 0 33 -4 60 -10 60
-6 0 -10 -27 -10 -60z"/>
<path d="M10366 12064 c-23 -22 -21 -81 3 -94 44 -23 101 5 101 50 0 48 -71
78 -104 44z m58 -10 c24 -9 21 -61 -4 -69 -39 -12 -66 35 -38 63 14 14 20 14
42 6z"/>
<path d="M10492 12029 c6 -58 16 -68 70 -67 l38 0 0 59 c0 45 -3 59 -14 59
-11 0 -16 -14 -18 -47 -3 -40 -6 -48 -23 -48 -17 0 -20 8 -23 48 -2 35 -7 47
-19 47 -13 0 -15 -9 -11 -51z"/>
<path d="M10930 12031 c0 -57 12 -70 63 -68 l37 1 0 58 c0 66 -17 79 -22 17
-2 -27 -9 -46 -21 -53 -23 -15 -37 6 -37 57 0 20 -4 37 -10 37 -5 0 -10 -22
-10 -49z"/>
<path d="M11070 12018 c0 -32 4 -58 10 -58 6 0 10 15 10 33 0 38 22 73 38 63
7 -4 12 -27 12 -52 0 -32 4 -44 15 -44 11 0 15 11 15 39 0 39 20 68 40 56 5
-3 10 -26 10 -51 0 -32 4 -44 15 -44 18 0 21 70 5 101 -12 21 -40 25 -58 7 -8
-8 -15 -8 -24 0 -7 5 -30 10 -50 9 l-38 -1 0 -58z"/>
<path d="M11293 12073 c-25 -9 -13 -22 16 -17 16 4 32 1 35 -5 4 -7 -1 -11
-12 -11 -30 0 -67 -34 -59 -54 9 -23 36 -31 58 -17 12 7 19 7 19 1 0 -5 5 -10
10 -10 6 0 10 24 10 54 0 40 -4 55 -16 60 -18 7 -43 7 -61 -1z m55 -65 c-6
-16 -36 -34 -44 -26 -3 4 -4 14 -1 23 7 17 51 21 45 3z"/>
<path d="M11410 12020 c0 -68 17 -82 22 -19 2 27 9 46 21 53 23 15 37 -6 37
-56 0 -21 5 -38 11 -38 6 0 9 20 7 51 -3 60 -24 82 -58 61 -12 -7 -20 -8 -20
-2 0 5 -4 10 -10 10 -6 0 -10 -27 -10 -60z"/>
<path d="M11610 12020 c0 -47 3 -60 15 -60 12 0 15 13 15 60 0 47 -3 60 -15
60 -12 0 -15 -13 -15 -60z"/>
<path d="M11680 12020 c0 -68 17 -82 22 -19 2 27 9 46 21 53 23 15 37 -6 37
-56 0 -21 5 -38 11 -38 6 0 9 20 7 51 -3 60 -24 82 -58 61 -12 -7 -20 -8 -20
-2 0 5 -4 10 -10 10 -6 0 -10 -27 -10 -60z"/>
<path d="M11915 12066 c-25 -18 -25 -74 1 -93 23 -17 66 -13 72 6 3 9 0 11 -7
6 -15 -9 -61 2 -61 15 0 6 18 10 40 10 35 0 40 3 40 23 0 44 -46 62 -85 33z
m59 -21 c4 -11 -2 -15 -24 -15 -29 0 -38 9 -23 23 12 12 41 7 47 -8z"/>
<path d="M12030 12018 c0 -32 4 -58 10 -58 6 0 10 14 10 31 0 38 16 69 35 69
8 0 15 4 15 9 0 5 -16 9 -35 8 l-35 -1 0 -58z"/>
<path d="M12127 12062 c-39 -42 -9 -106 46 -100 41 4 45 23 5 23 -17 0 -33 6
-35 13 -3 8 8 12 36 12 45 0 51 11 25 48 -18 27 -55 29 -77 4z m61 -19 c2 -8
-6 -13 -22 -13 -25 0 -33 10 -19 24 10 10 36 3 41 -11z"/>
<path d="M12253 12073 c-7 -2 -13 -15 -13 -29 0 -17 7 -25 25 -30 14 -3 25
-12 25 -20 0 -8 -10 -14 -25 -14 -14 0 -25 -4 -25 -10 0 -16 56 -12 70 5 17
20 6 43 -25 55 -29 11 -25 30 6 30 10 0 19 5 19 10 0 10 -35 12 -57 3z"/>
<path d="M12640 12020 c0 -47 3 -60 15 -60 12 0 15 13 15 60 0 47 -3 60 -15
60 -12 0 -15 -13 -15 -60z"/>
<path d="M12711 12066 c-18 -21 -7 -44 24 -56 32 -12 23 -34 -11 -27 -16 3
-24 0 -24 -9 0 -14 36 -19 64 -8 26 10 20 53 -9 60 -34 8 -34 38 0 31 16 -3
24 0 22 7 -6 17 -52 19 -66 2z"/>
<path d="M12900 12018 c0 -67 17 -79 22 -15 2 32 8 44 26 52 32 14 27 23 -13
22 l-35 -1 0 -58z"/>
<path d="M12990 12020 c0 -33 4 -60 10 -60 6 0 10 27 10 60 0 33 -4 60 -10 60
-6 0 -10 -27 -10 -60z"/>
<path d="M13190 12031 c0 -58 11 -69 68 -68 l42 0 0 58 c0 46 -3 59 -15 59
-11 0 -15 -11 -15 -37 0 -46 -13 -68 -34 -60 -11 5 -16 19 -16 52 0 33 -4 45
-15 45 -11 0 -15 -12 -15 -49z"/>
<path d="M13420 12020 c0 -33 4 -60 10 -60 6 0 10 27 10 60 0 33 -4 60 -10 60
-6 0 -10 -27 -10 -60z"/>
<path d="M13495 12066 c-42 -30 -14 -106 40 -106 35 0 58 24 58 60 0 36 -23
60 -58 60 -12 0 -30 -6 -40 -14z m63 -18 c17 -17 15 -43 -4 -59 -31 -26 -70
25 -44 56 15 18 32 19 48 3z"/>
<path d="M13630 12020 c0 -68 17 -82 22 -19 2 27 9 46 21 53 23 15 37 -6 37
-56 0 -21 5 -38 11 -38 6 0 9 20 7 51 -3 60 -24 82 -58 61 -12 -7 -20 -8 -20
-2 0 5 -4 10 -10 10 -6 0 -10 -27 -10 -60z"/>
<path d="M13926 12064 c-23 -22 -21 -81 3 -94 44 -23 101 5 101 50 0 48 -71
78 -104 44z m58 -10 c24 -9 21 -61 -4 -69 -39 -12 -66 35 -38 63 14 14 20 14
42 6z"/>
<path d="M14060 12018 c0 -67 17 -79 22 -15 2 32 8 44 26 52 32 14 27 23 -13
22 l-35 -1 0 -58z"/>
<path d="M14150 12020 c0 -33 4 -60 10 -60 6 0 10 17 10 39 0 39 20 68 40 56
5 -3 10 -26 10 -51 0 -32 4 -44 14 -44 11 0 16 14 18 48 3 39 6 47 23 47 17 0
20 -8 23 -47 2 -36 7 -48 19 -48 13 0 15 9 10 52 -8 64 -18 76 -55 62 -20 -8
-33 -7 -45 0 -12 8 -22 7 -37 -2 -12 -7 -20 -8 -20 -2 0 5 -4 10 -10 10 -6 0
-10 -27 -10 -60z"/>
<path d="M7569 11977 c-75 -50 -86 -137 -26 -203 39 -43 94 -54 150 -31 100
42 103 194 4 240 -48 23 -88 21 -128 -6z m113 -64 c22 -20 23 -70 1 -95 -36
-40 -113 -8 -113 47 0 54 71 85 112 48z"/>
<path d="M5650 11945 c0 -9 5 -15 11 -13 6 2 11 8 11 13 0 5 -5 11 -11 13 -6
2 -11 -4 -11 -13z"/>
<path d="M5710 11870 c0 -73 3 -90 15 -90 12 0 15 17 15 90 0 73 -3 90 -15 90
-12 0 -15 -17 -15 -90z"/>
<path d="M5770 11870 c0 -73 3 -90 15 -90 10 0 15 10 15 28 l1 27 24 -27 c13
-16 32 -28 41 -28 14 0 12 6 -10 29 l-28 30 21 28 c31 38 6 45 -25 7 l-23 -29
-1 58 c0 44 -3 57 -15 57 -12 0 -15 -17 -15 -90z"/>
<path d="M5993 11953 c-7 -2 -13 -16 -13 -29 0 -15 -6 -24 -15 -24 -8 0 -15
-4 -15 -10 0 -5 7 -10 15 -10 11 0 15 -12 15 -50 0 -27 5 -50 10 -50 6 0 10
23 10 50 0 38 4 50 15 50 8 0 15 5 15 10 0 6 -7 10 -15 10 -8 0 -15 7 -15 15
0 9 7 18 15 21 8 4 15 10 15 15 0 10 -17 11 -37 2z"/>
<path d="M6050 11945 c0 -9 5 -15 11 -13 6 2 11 8 11 13 0 5 -5 11 -11 13 -6
2 -11 -4 -11 -13z"/>
<path d="M6380 11870 c0 -53 4 -90 10 -90 6 0 10 37 10 90 0 53 -4 90 -10 90
-6 0 -10 -37 -10 -90z"/>
<path d="M6440 11870 c0 -53 4 -90 10 -90 6 0 10 37 10 90 0 53 -4 90 -10 90
-6 0 -10 -37 -10 -90z"/>
<path d="M6690 11945 c0 -9 5 -15 11 -13 6 2 11 8 11 13 0 5 -5 11 -11 13 -6
2 -11 -4 -11 -13z"/>
<path d="M6942 11948 c-7 -7 -12 -20 -12 -29 0 -10 -6 -20 -12 -23 -10 -5 -10
-7 0 -12 7 -3 12 -25 12 -55 0 -37 4 -49 15 -49 11 0 15 12 15 49 0 30 5 52
13 55 10 5 10 7 0 12 -18 8 -16 44 2 44 8 0 15 5 15 10 0 14 -33 13 -48 -2z"/>
<path d="M4640 11865 l0 -85 36 0 c19 0 44 5 55 10 23 13 25 53 4 70 -11 9
-13 16 -5 24 15 15 12 53 -6 60 -9 3 -31 6 -50 6 l-34 0 0 -85z m68 57 c18
-12 4 -42 -19 -42 -14 0 -19 7 -19 25 0 25 14 31 38 17z m7 -92 c0 -18 -6 -26
-22 -28 -20 -3 -23 1 -23 28 0 27 3 31 23 28 16 -2 22 -10 22 -28z"/>
<path d="M5123 11943 c-22 -8 -14 -25 7 -18 20 6 50 -9 50 -26 0 -4 -18 -26
-40 -48 -57 -56 -54 -71 15 -71 30 0 55 5 55 10 0 6 -18 10 -40 10 -22 0 -40
3 -40 8 0 4 16 20 35 35 66 52 33 131 -42 100z"/>
<path d="M5250 11865 l0 -85 45 0 c25 0 45 5 45 10 0 6 -16 10 -35 10 l-35 0
0 75 c0 43 -4 75 -10 75 -6 0 -10 -35 -10 -85z"/>
<path d="M5430 11865 c0 -69 3 -85 15 -85 12 0 15 14 16 63 l0 62 23 -60 c13
-32 28 -61 34 -63 5 -1 21 25 35 60 l26 63 1 -62 c0 -49 3 -63 15 -63 12 0 15
16 15 85 0 76 -2 85 -19 85 -14 0 -25 -16 -41 -60 -12 -33 -25 -60 -29 -60 -3
0 -17 27 -29 60 -18 44 -29 60 -43 60 -17 0 -19 -8 -19 -85z"/>
<path d="M7350 11890 c0 -33 4 -60 9 -60 14 0 21 27 21 76 0 32 -4 44 -15 44
-12 0 -15 -13 -15 -60z"/>
<path d="M7420 11913 c0 -21 3 -48 6 -60 12 -43 24 -23 24 37 0 47 -3 60 -15
60 -11 0 -15 -11 -15 -37z"/>
<path d="M4780 11851 c0 -58 11 -69 68 -68 l42 0 0 58 c0 46 -3 59 -15 59 -11
0 -15 -11 -15 -37 0 -46 -13 -68 -34 -60 -11 5 -16 19 -16 52 0 33 -4 45 -15
45 -11 0 -15 -12 -15 -49z"/>
<path d="M4913 11883 c3 -10 13 -40 23 -66 l19 -49 -23 -18 c-12 -10 -22 -21
-22 -24 0 -13 28 -5 43 12 19 21 70 152 62 160 -9 9 -22 -10 -35 -53 -14 -43
-14 -42 -40 28 -10 29 -36 38 -27 10z"/>
<path d="M5650 11840 c0 -33 4 -60 10 -60 6 0 10 27 10 60 0 33 -4 60 -10 60
-6 0 -10 -27 -10 -60z"/>
<path d="M6050 11840 c0 -33 4 -60 10 -60 6 0 10 27 10 60 0 33 -4 60 -10 60
-6 0 -10 -27 -10 -60z"/>
<path d="M6110 11840 c0 -46 3 -60 14 -60 11 0 16 14 18 48 3 39 6 47 23 47
17 0 20 -8 23 -47 2 -34 7 -48 18 -48 17 0 20 71 4 101 -12 21 -40 25 -58 7
-9 -9 -12 -9 -12 0 0 7 -7 12 -15 12 -12 0 -15 -13 -15 -60z"/>
<path d="M6263 11893 c-25 -9 -13 -22 16 -17 16 4 32 1 35 -5 4 -7 -1 -11 -12
-11 -30 0 -67 -34 -59 -54 9 -23 36 -31 58 -17 12 7 19 7 19 1 0 -5 5 -10 10
-10 6 0 10 24 10 54 0 40 -4 55 -16 60 -18 7 -43 7 -61 -1z m55 -65 c-6 -16
-36 -34 -44 -26 -3 4 -4 14 -1 23 7 17 51 21 45 3z"/>
<path d="M6493 11883 c3 -10 13 -40 23 -66 l19 -49 -23 -18 c-12 -10 -22 -21
-22 -24 0 -13 28 -5 43 12 19 21 70 152 62 160 -9 9 -22 -10 -35 -53 -14 -43
-14 -42 -40 28 -10 29 -36 38 -27 10z"/>
<path d="M6690 11840 c0 -33 4 -60 10 -60 6 0 10 27 10 60 0 33 -4 60 -10 60
-6 0 -10 -27 -10 -60z"/>
<path d="M6756 11885 c-19 -20 -12 -39 20 -53 33 -16 30 -32 -7 -32 -17 0 -28
-4 -24 -10 9 -14 58 -13 73 2 20 20 14 37 -18 53 -37 19 -39 35 -5 35 14 0 25
5 25 10 0 16 -47 12 -64 -5z"/>
<path d="M7000 11839 c0 -46 3 -59 15 -59 11 0 15 12 15 46 0 37 4 47 20 51
31 8 23 19 -15 20 l-35 1 0 -59z"/>
<path d="M7105 11886 c-25 -18 -25 -74 1 -93 23 -17 66 -13 72 6 3 9 0 11 -7
6 -15 -9 -61 2 -61 15 0 6 18 10 40 10 36 0 40 3 40 25 0 39 -49 58 -85 31z
m59 -21 c4 -11 -2 -15 -24 -15 -29 0 -38 9 -23 23 12 12 41 7 47 -8z"/>
<path d="M7230 11880 c-41 -41 -11 -105 46 -98 39 4 41 23 2 23 -17 0 -33 6
-35 13 -3 8 8 12 36 12 34 0 41 3 41 19 0 25 -26 51 -51 51 -10 0 -28 -9 -39
-20z m58 -17 c2 -8 -6 -13 -22 -13 -25 0 -33 10 -19 24 10 10 36 3 41 -11z"/>
<path d="M13509 11797 c-75 -50 -86 -137 -26 -203 39 -43 94 -54 150 -31 100
42 103 194 4 240 -48 23 -88 21 -128 -6z m113 -64 c22 -20 23 -70 1 -95 -36
-40 -113 -8 -113 47 0 54 71 85 112 48z"/>
<path d="M7350 11795 c0 -8 7 -15 15 -15 8 0 15 7 15 15 0 8 -7 15 -15 15 -8
0 -15 -7 -15 -15z"/>
<path d="M7427 11804 c-8 -8 1 -24 14 -24 5 0 9 7 9 15 0 15 -12 20 -23 9z"/>
<path d="M11590 11765 c0 -9 5 -15 11 -13 6 2 11 8 11 13 0 5 -5 11 -11 13 -6
2 -11 -4 -11 -13z"/>
<path d="M11650 11690 c0 -73 3 -90 15 -90 12 0 15 17 15 90 0 73 -3 90 -15
90 -12 0 -15 -17 -15 -90z"/>
<path d="M11710 11690 c0 -73 3 -90 15 -90 10 0 15 10 15 28 l1 27 24 -27 c13
-16 32 -28 41 -28 14 0 12 6 -10 29 l-28 30 21 28 c31 38 6 45 -25 7 l-23 -29
-1 58 c0 44 -3 57 -15 57 -12 0 -15 -17 -15 -90z"/>
<path d="M11933 11773 c-7 -2 -13 -16 -13 -29 0 -15 -6 -24 -15 -24 -8 0 -15
-4 -15 -10 0 -5 7 -10 15 -10 11 0 15 -12 15 -50 0 -27 5 -50 10 -50 6 0 10
23 10 50 0 38 4 50 15 50 8 0 15 5 15 10 0 6 -7 10 -15 10 -8 0 -15 7 -15 15
0 9 7 18 15 21 8 4 15 10 15 15 0 10 -17 11 -37 2z"/>
<path d="M11990 11765 c0 -9 5 -15 11 -13 6 2 11 8 11 13 0 5 -5 11 -11 13 -6
2 -11 -4 -11 -13z"/>
<path d="M12320 11690 c0 -53 4 -90 10 -90 6 0 10 37 10 90 0 53 -4 90 -10 90
-6 0 -10 -37 -10 -90z"/>
<path d="M12380 11690 c0 -53 4 -90 10 -90 6 0 10 37 10 90 0 53 -4 90 -10 90
-6 0 -10 -37 -10 -90z"/>
<path d="M12630 11765 c0 -9 5 -15 11 -13 6 2 11 8 11 13 0 5 -5 11 -11 13 -6
2 -11 -4 -11 -13z"/>
<path d="M12882 11768 c-7 -7 -12 -20 -12 -29 0 -10 -6 -20 -12 -23 -10 -5
-10 -7 0 -12 7 -3 12 -25 12 -55 0 -37 4 -49 15 -49 11 0 15 12 15 49 0 30 5
52 13 55 10 5 10 7 0 12 -18 8 -16 44 2 44 8 0 15 5 15 10 0 14 -33 13 -48 -2z"/>
<path d="M10580 11685 l0 -85 36 0 c19 0 44 5 55 10 23 13 25 53 4 70 -11 9
-13 16 -5 24 15 15 12 53 -6 60 -9 3 -31 6 -50 6 l-34 0 0 -85z m67 54 c16
-16 5 -39 -18 -39 -14 0 -19 7 -19 25 0 26 18 33 37 14z m8 -89 c0 -18 -6 -26
-22 -28 -20 -3 -23 1 -23 28 0 27 3 31 23 28 16 -2 22 -10 22 -28z"/>
<path d="M11063 11763 c-22 -8 -14 -25 7 -18 20 6 50 -9 50 -26 0 -4 -18 -26
-40 -48 -57 -56 -54 -71 15 -71 30 0 55 5 55 10 0 6 -18 10 -40 10 -22 0 -40
3 -40 8 0 4 16 20 35 35 66 52 33 131 -42 100z"/>
<path d="M11190 11685 l0 -85 45 0 c52 0 61 17 13 22 l-33 3 -3 73 c-4 101
-22 91 -22 -13z"/>
<path d="M11370 11685 c0 -69 3 -85 15 -85 12 0 15 14 16 63 l0 62 23 -60 c13
-32 28 -61 34 -63 5 -1 21 25 35 60 l26 63 1 -62 c0 -49 3 -63 15 -63 12 0 15
16 15 85 0 76 -2 85 -19 85 -14 0 -25 -16 -41 -60 -12 -33 -25 -60 -29 -60 -3
0 -17 27 -29 60 -18 44 -29 60 -43 60 -17 0 -19 -8 -19 -85z"/>
<path d="M13290 11710 c0 -33 4 -60 9 -60 14 0 21 27 21 76 0 32 -4 44 -15 44
-12 0 -15 -13 -15 -60z"/>
<path d="M13360 11733 c0 -21 3 -48 6 -60 12 -43 24 -23 24 37 0 47 -3 60 -15
60 -11 0 -15 -11 -15 -37z"/>
<path d="M10720 11671 c0 -58 11 -69 68 -68 l42 0 0 58 c0 46 -3 59 -15 59
-11 0 -15 -11 -15 -37 0 -46 -13 -68 -34 -60 -11 5 -16 19 -16 52 0 33 -4 45
-15 45 -11 0 -15 -12 -15 -49z"/>
<path d="M10853 11703 c3 -10 13 -40 23 -66 l19 -49 -23 -18 c-12 -10 -22 -21
-22 -24 0 -13 28 -5 43 12 19 21 70 152 62 160 -9 9 -22 -10 -35 -53 -14 -43
-14 -42 -40 28 -10 29 -36 38 -27 10z"/>
<path d="M11590 11660 c0 -33 4 -60 10 -60 6 0 10 27 10 60 0 33 -4 60 -10 60
-6 0 -10 -27 -10 -60z"/>
<path d="M11990 11660 c0 -33 4 -60 10 -60 6 0 10 27 10 60 0 33 -4 60 -10 60
-6 0 -10 -27 -10 -60z"/>
<path d="M12050 11660 c0 -46 3 -60 14 -60 11 0 16 14 18 48 3 39 6 47 23 47
17 0 20 -8 23 -47 2 -34 7 -48 18 -48 17 0 20 71 4 101 -12 21 -40 25 -58 7
-9 -9 -12 -9 -12 0 0 7 -7 12 -15 12 -12 0 -15 -13 -15 -60z"/>
<path d="M12203 11713 c-25 -9 -13 -22 16 -17 16 4 32 1 35 -5 4 -7 -1 -11
-12 -11 -30 0 -67 -34 -59 -54 9 -23 36 -31 58 -17 12 7 19 7 19 1 0 -5 5 -10
10 -10 6 0 10 24 10 54 0 40 -4 55 -16 60 -18 7 -43 7 -61 -1z m55 -65 c-6
-16 -36 -34 -44 -26 -3 4 -4 14 -1 23 7 17 51 21 45 3z"/>
<path d="M12433 11703 c3 -10 13 -40 23 -66 l19 -49 -23 -18 c-12 -10 -22 -21
-22 -24 0 -13 28 -5 43 12 19 21 70 152 62 160 -9 9 -22 -10 -35 -53 -14 -43
-14 -42 -40 28 -10 29 -36 38 -27 10z"/>
<path d="M12630 11660 c0 -33 4 -60 10 -60 6 0 10 27 10 60 0 33 -4 60 -10 60
-6 0 -10 -27 -10 -60z"/>
<path d="M12696 11705 c-19 -20 -12 -39 20 -53 33 -16 30 -32 -7 -32 -17 0
-28 -4 -24 -10 9 -14 58 -13 73 2 20 20 14 37 -18 53 -37 19 -39 35 -5 35 14
0 25 5 25 10 0 16 -47 12 -64 -5z"/>
<path d="M12940 11659 c0 -46 3 -59 15 -59 11 0 15 12 15 46 0 37 4 47 20 51
31 8 23 19 -15 20 l-35 1 0 -59z"/>
<path d="M13045 11706 c-25 -18 -25 -74 1 -93 23 -17 66 -13 72 6 3 9 0 11 -7
6 -15 -9 -61 2 -61 15 0 6 18 10 40 10 35 0 40 3 40 23 0 44 -46 62 -85 33z
m59 -21 c4 -11 -2 -15 -24 -15 -29 0 -38 9 -23 23 12 12 41 7 47 -8z"/>
<path d="M13166 11698 c-34 -47 -5 -103 50 -96 39 4 41 23 2 23 -17 0 -33 6
-35 13 -3 8 8 12 36 12 34 0 41 3 41 19 0 48 -67 68 -94 29z m62 -15 c2 -8 -6
-13 -22 -13 -25 0 -33 10 -19 24 10 10 36 3 41 -11z"/>
<path d="M5354 11686 c-20 -9 -35 -25 -43 -46 -15 -43 -15 -317 0 -360 20 -56
44 -60 354 -60 310 0 334 4 354 60 6 19 11 97 11 182 0 173 -10 209 -60 227
-50 17 -575 14 -616 -3z m356 -226 l0 -80 -48 0 c-53 0 -72 12 -72 48 0 40 18
62 50 62 25 0 30 4 30 25 0 18 5 25 20 25 18 0 20 -7 20 -80z m50 65 c0 -8 -9
-15 -20 -15 -11 0 -20 7 -20 15 0 8 9 15 20 15 11 0 20 -7 20 -15z m-170 -5
c0 -5 -13 -10 -30 -10 -23 0 -30 -4 -30 -20 0 -15 7 -20 25 -20 14 0 25 -4 25
-10 0 -5 -11 -10 -25 -10 -20 0 -25 -5 -25 -25 0 -21 5 -25 30 -25 17 0 30 -4
30 -10 0 -5 -22 -10 -50 -10 l-50 0 0 75 0 75 50 0 c28 0 50 -4 50 -10z m230
-15 c0 -8 7 -15 15 -15 8 0 15 -4 15 -10 0 -5 -7 -10 -15 -10 -10 0 -15 -10
-15 -30 0 -18 6 -33 15 -36 25 -10 17 -24 -15 -24 -23 0 -31 5 -35 23 -5 26
-9 74 -7 100 2 21 42 23 42 2z m-60 -70 c0 -48 -2 -55 -20 -55 -18 0 -20 7
-20 55 0 48 2 55 20 55 18 0 20 -7 20 -55z"/>
<path d="M5636 11463 c-8 -8 -8 -48 1 -56 10 -10 33 13 33 33 0 18 -23 34 -34
23z"/>
<path d="M6201 11686 c-45 -25 -50 -50 -51 -224 0 -178 7 -208 55 -230 19 -9
138 -12 430 -12 434 0 445 1 471 51 18 36 20 335 2 374 -24 54 -32 55 -475 55
-319 -1 -413 -4 -432 -14z m439 -198 c0 -49 1 -51 13 -28 10 20 21 25 52 27
22 1 46 2 53 2 6 1 12 8 12 16 0 8 9 15 20 15 11 0 20 -6 20 -14 0 -8 6 -17
13 -20 10 -5 10 -7 0 -12 -15 -7 -18 -74 -3 -74 6 0 10 -5 10 -11 0 -6 -12 -9
-27 -7 -25 3 -28 7 -31 46 -2 23 -7 42 -12 42 -4 0 -6 -9 -3 -20 5 -18 0 -20
-37 -20 -36 0 -41 -2 -30 -15 8 -10 21 -13 37 -8 19 4 24 2 21 -8 -3 -9 -19
-14 -44 -14 -31 0 -41 5 -51 25 l-13 25 0 -27 c0 -21 -5 -28 -20 -28 -18 0
-20 7 -20 80 0 73 2 80 20 80 17 0 20 -7 20 -52z m-188 25 c25 -23 24 -87 -2
-113 -14 -14 -33 -20 -65 -20 l-45 0 0 75 0 75 47 0 c29 0 53 -6 65 -17z m126
-35 c7 -7 12 -20 12 -30 0 -14 -8 -18 -36 -18 -24 0 -34 -4 -31 -12 2 -7 16
-12 31 -11 17 1 26 -3 26 -13 0 -23 -77 -19 -90 5 -14 28 -12 57 6 75 18 19
65 21 82 4z m350 0 c7 -7 12 -20 12 -30 0 -14 -8 -18 -36 -18 -24 0 -34 -4
-31 -12 2 -8 18 -12 36 -10 23 2 32 -2 29 -10 -3 -7 -22 -14 -43 -16 -42 -4
-65 14 -65 52 0 44 67 75 98 44z"/>
<path d="M6685 11460 c-3 -5 3 -10 15 -10 12 0 18 5 15 10 -3 6 -10 10 -15 10
-5 0 -12 -4 -15 -10z"/>
<path d="M6370 11455 c0 -30 2 -55 4 -55 3 0 16 4 30 10 21 8 26 16 26 45 0
29 -5 37 -26 45 -14 6 -27 10 -30 10 -2 0 -4 -25 -4 -55z"/>
<path d="M6525 11460 c-3 -5 1 -10 9 -10 9 0 16 5 16 10 0 6 -4 10 -9 10 -6 0
-13 -4 -16 -10z"/>
<path d="M6875 11460 c-3 -5 1 -10 9 -10 9 0 16 5 16 10 0 6 -4 10 -9 10 -6 0
-13 -4 -16 -10z"/>
<path d="M13290 11615 c0 -8 7 -15 15 -15 8 0 15 7 15 15 0 8 -7 15 -15 15 -8
0 -15 -7 -15 -15z"/>
<path d="M13360 11615 c0 -8 7 -15 15 -15 8 0 15 7 15 15 0 8 -7 15 -15 15 -8
0 -15 -7 -15 -15z"/>
<path d="M11294 11506 c-20 -9 -35 -25 -43 -46 -15 -43 -15 -317 0 -360 20
-56 44 -60 354 -60 310 0 334 4 354 60 6 19 11 97 11 182 0 173 -10 209 -60
227 -50 17 -575 14 -616 -3z m356 -226 l0 -80 -48 0 c-53 0 -72 12 -72 48 0
40 18 62 50 62 25 0 30 4 30 25 0 18 5 25 20 25 18 0 20 -7 20 -80z m50 65 c0
-8 -9 -15 -20 -15 -11 0 -20 7 -20 15 0 8 9 15 20 15 11 0 20 -7 20 -15z
m-170 -5 c0 -5 -13 -10 -30 -10 -23 0 -30 -4 -30 -20 0 -15 7 -20 25 -20 14 0
25 -4 25 -10 0 -5 -11 -10 -25 -10 -20 0 -25 -5 -25 -25 0 -21 5 -25 30 -25
17 0 30 -4 30 -10 0 -5 -22 -10 -50 -10 l-50 0 0 75 0 75 50 0 c28 0 50 -4 50
-10z m230 -15 c0 -8 7 -15 15 -15 8 0 15 -4 15 -10 0 -5 -7 -10 -15 -10 -10 0
-15 -10 -15 -30 0 -18 6 -33 15 -36 25 -10 17 -24 -15 -24 -23 0 -31 5 -35 23
-5 26 -9 74 -7 100 2 21 42 23 42 2z m-60 -70 c0 -48 -2 -55 -20 -55 -18 0
-20 7 -20 55 0 48 2 55 20 55 18 0 20 -7 20 -55z"/>
<path d="M11576 11283 c-8 -8 -8 -48 1 -56 10 -10 33 13 33 33 0 18 -23 34
-34 23z"/>
<path d="M12141 11506 c-45 -25 -50 -50 -51 -224 0 -178 7 -208 55 -230 19 -9
138 -12 430 -12 434 0 445 1 471 51 18 36 20 335 2 374 -24 54 -32 55 -475 55
-319 -1 -413 -4 -432 -14z m439 -198 c0 -49 1 -51 13 -28 10 20 21 25 52 27
22 1 46 2 53 2 6 1 12 8 12 16 0 8 9 15 20 15 11 0 20 -6 20 -14 0 -8 6 -17
13 -20 10 -5 10 -7 0 -12 -15 -7 -18 -74 -3 -74 6 0 10 -5 10 -11 0 -6 -12 -9
-27 -7 -25 3 -28 7 -31 46 -2 23 -7 42 -12 42 -4 0 -6 -9 -3 -20 5 -18 0 -20
-37 -20 -36 0 -41 -2 -30 -15 8 -10 21 -13 37 -8 19 4 24 2 21 -8 -3 -9 -19
-14 -44 -14 -31 0 -41 5 -51 25 l-13 25 0 -27 c0 -21 -5 -28 -20 -28 -18 0
-20 7 -20 80 0 73 2 80 20 80 17 0 20 -7 20 -52z m-188 25 c25 -23 24 -87 -2
-113 -14 -14 -33 -20 -65 -20 l-45 0 0 75 0 75 47 0 c29 0 53 -6 65 -17z m126
-35 c7 -7 12 -20 12 -30 0 -14 -8 -18 -36 -18 -24 0 -34 -4 -31 -12 2 -7 16
-12 31 -11 17 1 26 -3 26 -13 0 -23 -77 -19 -90 5 -14 28 -12 57 6 75 18 19
65 21 82 4z m350 0 c7 -7 12 -20 12 -30 0 -14 -8 -18 -36 -18 -24 0 -34 -4
-31 -12 2 -8 18 -12 36 -10 23 2 32 -2 29 -10 -3 -7 -22 -14 -43 -16 -42 -4
-65 14 -65 52 0 44 67 75 98 44z"/>
<path d="M12625 11280 c-3 -5 3 -10 15 -10 12 0 18 5 15 10 -3 6 -10 10 -15
10 -5 0 -12 -4 -15 -10z"/>
<path d="M12310 11275 c0 -30 2 -55 4 -55 3 0 16 4 30 10 21 8 26 16 26 45 0
29 -5 37 -26 45 -14 6 -27 10 -30 10 -2 0 -4 -25 -4 -55z"/>
<path d="M12465 11280 c-3 -5 1 -10 9 -10 9 0 16 5 16 10 0 6 -4 10 -9 10 -6
0 -13 -4 -16 -10z"/>
<path d="M12815 11280 c-3 -5 1 -10 9 -10 9 0 16 5 16 10 0 6 -4 10 -9 10 -6
0 -13 -4 -16 -10z"/>
<path d="M5660 10605 c0 -69 3 -85 15 -85 12 0 15 16 15 85 0 69 -3 85 -15 85
-12 0 -15 -16 -15 -85z"/>
<path d="M5870 10605 c0 -69 3 -85 15 -85 10 0 15 10 15 30 0 25 4 30 24 30
31 0 56 25 56 55 0 35 -26 55 -71 55 l-39 0 0 -85z m68 56 c22 -13 11 -56 -15
-59 -20 -3 -23 1 -23 32 0 36 11 44 38 27z"/>
<path d="M5730 10580 c0 -68 17 -82 22 -19 2 27 9 46 21 53 23 15 37 -6 37
-56 0 -21 5 -38 11 -38 6 0 9 20 7 51 -3 60 -24 82 -58 61 -12 -7 -20 -8 -20
-2 0 5 -4 10 -10 10 -6 0 -10 -27 -10 -60z"/>
<path d="M6010 10578 c0 -67 17 -79 22 -15 2 32 8 44 26 52 32 14 27 23 -13
22 l-35 -1 0 -58z"/>
<path d="M6106 10624 c-23 -22 -21 -81 3 -94 44 -23 101 5 101 50 0 48 -71 78
-104 44z m58 -10 c24 -9 21 -61 -4 -69 -39 -12 -66 35 -38 63 14 14 20 14 42
6z"/>
<path d="M6246 10621 c-44 -49 16 -135 62 -89 9 9 12 7 12 -9 0 -28 -25 -46
-55 -40 -16 3 -24 0 -22 -7 5 -14 32 -19 62 -12 28 7 45 55 45 127 l0 46 -44
1 c-30 0 -50 -5 -60 -17z m58 -7 c20 -8 21 -48 1 -64 -22 -19 -45 -5 -45 28 0
40 11 49 44 36z"/>
<path d="M6380 10579 c0 -46 3 -59 15 -59 11 0 15 12 15 46 0 37 4 47 20 51
32 8 23 21 -15 21 l-35 0 0 -59z"/>
<path d="M6477 10622 c-39 -42 -9 -106 46 -100 41 4 45 23 5 23 -17 0 -33 6
-35 13 -3 8 8 12 36 12 45 0 51 11 25 48 -18 27 -55 29 -77 4z m61 -19 c2 -8
-6 -13 -22 -13 -25 0 -33 10 -19 24 10 10 36 3 41 -11z"/>
<path d="M6603 10633 c-7 -2 -13 -15 -13 -29 0 -17 7 -25 25 -30 14 -3 25 -12
25 -20 0 -8 -10 -14 -25 -14 -14 0 -25 -4 -25 -10 0 -16 56 -12 70 5 17 20 6
43 -25 55 -29 11 -25 30 6 30 10 0 19 5 19 10 0 10 -35 12 -57 3z"/>
<path d="M6702 10628 c-20 -20 -14 -37 18 -53 39 -20 39 -39 0 -33 -19 3 -29
1 -27 -6 6 -18 53 -18 70 -1 20 19 13 39 -19 53 -32 15 -31 36 1 30 17 -4 25
-1 25 8 0 17 -51 19 -68 2z"/>
<path d="M5797 10334 c-8 -8 1 -24 14 -24 5 0 9 7 9 15 0 15 -12 20 -23 9z"/>
<path d="M6062 10328 c6 -18 28 -21 28 -4 0 9 -7 16 -16 16 -9 0 -14 -5 -12
-12z"/>
<path d="M5080 10245 c0 -69 3 -85 15 -85 12 0 15 16 15 85 0 69 -3 85 -15 85
-12 0 -15 -16 -15 -85z"/>
<path d="M5653 10303 c-4 -10 -11 -22 -17 -26 -8 -6 -7 -10 2 -14 7 -3 12 -23
12 -49 0 -47 15 -63 48 -49 16 8 16 8 0 12 -24 6 -26 83 -3 83 8 0 15 5 15 10
0 6 -7 10 -15 10 -8 0 -15 9 -15 20 0 25 -18 26 -27 3z"/>
<path d="M6635 10305 c-5 -11 -13 -23 -19 -27 -8 -6 -7 -10 1 -16 6 -4 13 -28
15 -52 2 -38 7 -46 26 -48 25 -4 30 13 7 22 -9 3 -15 19 -15 41 0 24 4 35 15
35 8 0 15 5 15 10 0 6 -6 10 -14 10 -8 0 -16 10 -19 23 -3 21 -4 21 -12 2z"/>
<path d="M7193 10303 c-4 -10 -11 -22 -17 -26 -8 -6 -7 -10 2 -14 7 -3 12 -23
12 -49 0 -47 15 -63 48 -49 16 8 16 8 0 12 -24 6 -26 83 -3 83 8 0 15 5 15 10
0 6 -7 10 -15 10 -8 0 -15 9 -15 20 0 25 -18 26 -27 3z"/>
<path d="M5150 10220 c0 -46 3 -60 14 -60 11 0 16 14 18 48 3 39 6 47 23 47
17 0 20 -8 23 -47 2 -34 7 -48 18 -48 17 0 20 71 4 101 -12 21 -40 25 -58 7
-9 -9 -12 -9 -12 0 0 7 -7 12 -15 12 -12 0 -15 -13 -15 -60z"/>
<path d="M5280 10273 c0 -24 40 -108 52 -111 10 -2 22 17 37 54 12 31 19 59
16 62 -9 9 -22 -10 -35 -53 -14 -43 -14 -42 -40 28 -8 24 -30 38 -30 20z"/>
<path d="M5425 10266 c-25 -18 -25 -74 1 -93 23 -17 66 -13 72 6 3 9 0 11 -7
6 -15 -9 -61 2 -61 15 0 6 18 10 40 10 36 0 40 3 40 25 0 39 -49 58 -85 31z
m59 -21 c4 -11 -2 -15 -24 -15 -29 0 -38 9 -23 23 12 12 41 7 47 -8z"/>
<path d="M5542 10268 c-20 -20 -14 -37 18 -53 39 -20 39 -39 0 -33 -19 3 -29
1 -27 -6 6 -18 53 -18 70 -1 20 19 13 39 -19 53 -32 15 -31 36 1 30 17 -4 25
-1 25 8 0 17 -51 19 -68 2z"/>
<path d="M5800 10220 c0 -33 4 -60 10 -60 6 0 10 27 10 60 0 33 -4 60 -10 60
-6 0 -10 -27 -10 -60z"/>
<path d="M5860 10220 c0 -33 4 -60 10 -60 6 0 10 15 10 33 0 41 21 73 44 64
11 -5 16 -19 16 -52 0 -25 5 -45 10 -45 6 0 10 24 10 54 0 46 -3 56 -20 61
-10 3 -28 1 -40 -5 -13 -7 -20 -7 -20 0 0 5 -4 10 -10 10 -6 0 -10 -27 -10
-60z"/>
<path d="M6060 10220 c0 -47 3 -60 15 -60 12 0 15 13 15 60 0 47 -3 60 -15 60
-12 0 -15 -13 -15 -60z"/>
<path d="M6130 10220 c0 -68 17 -82 22 -19 2 27 9 46 21 53 23 15 37 -6 37
-56 0 -21 5 -38 11 -38 6 0 9 20 7 51 -3 60 -24 82 -58 61 -12 -7 -20 -8 -20
-2 0 5 -4 10 -10 10 -6 0 -10 -27 -10 -60z"/>
<path d="M6272 10220 c20 -54 39 -73 52 -52 2 4 14 31 25 60 17 43 18 52 6 52
-8 0 -19 -17 -26 -40 -7 -22 -15 -40 -19 -40 -4 0 -12 18 -19 40 -6 22 -18 40
-26 40 -11 0 -10 -12 7 -60z"/>
<path d="M6397 10262 c-39 -42 -9 -106 46 -100 41 4 45 23 5 23 -17 0 -33 6
-35 13 -3 8 8 12 36 12 45 0 51 11 25 48 -18 27 -55 29 -77 4z m61 -19 c2 -8
-6 -13 -22 -13 -25 0 -33 10 -19 24 10 10 36 3 41 -11z"/>
<path d="M6523 10273 c-7 -2 -13 -15 -13 -29 0 -17 7 -25 25 -30 14 -3 25 -12
25 -20 0 -8 -10 -14 -25 -14 -14 0 -25 -4 -25 -10 0 -16 56 -12 70 5 17 20 6
43 -25 55 -29 11 -25 30 6 30 10 0 19 5 19 10 0 10 -35 12 -57 3z"/>
<path d="M6700 10218 c0 -44 3 -58 14 -58 11 0 16 14 18 48 3 39 6 47 23 47
17 0 20 -8 23 -47 2 -34 7 -48 18 -48 10 0 14 12 14 44 0 25 5 48 10 51 20 12
40 -17 40 -56 0 -22 5 -39 11 -39 6 0 9 20 7 51 -3 60 -24 82 -58 62 -10 -7
-22 -9 -25 -4 -3 5 -25 9 -50 9 l-45 -1 0 -59z"/>
<path d="M6927 10262 c-39 -42 -9 -106 46 -100 41 4 45 23 5 23 -17 0 -33 6
-35 13 -3 8 8 12 36 12 45 0 51 11 25 48 -18 27 -55 29 -77 4z m61 -19 c2 -8
-6 -13 -22 -13 -25 0 -33 10 -19 24 10 10 36 3 41 -11z"/>
<path d="M7040 10220 c0 -46 3 -60 14 -60 11 0 16 14 18 48 3 39 6 47 23 47
17 0 20 -8 23 -47 2 -35 7 -48 18 -48 12 0 14 11 12 51 -3 60 -24 82 -58 61
-12 -7 -20 -8 -20 -2 0 5 -7 10 -15 10 -12 0 -15 -13 -15 -60z"/>
<path d="M7276 10265 c-19 -20 -12 -39 20 -53 33 -16 30 -32 -7 -32 -17 0 -28
-4 -24 -10 9 -14 58 -13 73 2 20 20 14 37 -18 53 -37 19 -39 35 -5 35 14 0 25
5 25 10 0 16 -47 12 -64 -5z"/>
<path d="M4370 9890 c0 -73 3 -90 15 -90 12 0 15 17 15 90 0 73 -3 90 -15 90
-12 0 -15 -17 -15 -90z"/>
<path d="M4430 9890 c0 -73 3 -90 15 -90 12 0 15 17 15 90 0 73 -3 90 -15 90
-12 0 -15 -17 -15 -90z"/>
<path d="M4650 9890 c0 -53 4 -90 10 -90 6 0 10 14 10 31 0 37 16 69 34 69 17
0 26 -22 26 -66 0 -19 5 -34 10 -34 6 0 10 24 10 54 0 46 -3 56 -20 61 -10 3
-28 1 -40 -5 -19 -10 -20 -8 -20 30 0 22 -4 40 -10 40 -6 0 -10 -37 -10 -90z"/>
<path d="M4980 9891 l0 -89 47 2 c40 1 50 5 62 27 20 35 8 77 -24 85 -15 4
-32 1 -40 -6 -13 -11 -15 -7 -15 29 0 30 -4 41 -15 41 -12 0 -15 -17 -15 -89z
m85 -31 c0 -31 -3 -35 -25 -35 -29 0 -40 36 -19 61 21 26 44 12 44 -26z"/>
<path d="M5390 9890 c0 -73 3 -90 15 -90 10 0 15 10 15 28 l1 27 22 -27 c13
-16 31 -28 42 -28 16 0 15 4 -10 30 l-29 30 22 30 c17 23 19 30 8 30 -8 0 -24
-12 -35 -27 l-20 -28 -1 58 c0 44 -3 57 -15 57 -12 0 -15 -17 -15 -90z"/>
<path d="M6090 9890 c0 -53 4 -90 10 -90 6 0 10 37 10 90 0 53 -4 90 -10 90
-6 0 -10 -37 -10 -90z"/>
<path d="M6150 9890 c0 -73 3 -90 15 -90 10 0 15 10 15 28 l1 27 22 -27 c13
-16 31 -28 42 -28 16 0 15 4 -10 30 l-29 30 22 30 c17 23 19 30 8 30 -8 0 -24
-12 -35 -27 l-20 -28 -1 58 c0 44 -3 57 -15 57 -12 0 -15 -17 -15 -90z"/>
<path d="M6470 9891 l0 -89 45 2 c51 2 65 14 65 62 0 43 -23 61 -61 47 -29
-11 -29 -11 -29 28 0 21 -4 39 -10 39 -6 0 -10 -36 -10 -89z m80 -6 c28 -34
-16 -84 -47 -53 -14 14 -15 22 -5 43 13 28 33 32 52 10z"/>
<path d="M7050 9965 c0 -9 5 -15 11 -13 6 2 11 8 11 13 0 5 -5 11 -11 13 -6 2
-11 -4 -11 -13z"/>
<path d="M4134 9959 c-25 -13 -44 -49 -44 -85 0 -50 63 -87 114 -68 27 10 18
27 -10 20 -37 -10 -74 17 -74 52 0 43 22 66 64 66 21 0 35 4 33 11 -5 14 -57
16 -83 4z"/>
<path d="M4573 9943 c-4 -10 -11 -22 -17 -26 -8 -6 -7 -10 2 -14 7 -3 12 -23
12 -49 0 -47 15 -63 48 -49 16 8 16 8 0 12 -24 6 -26 83 -3 83 8 0 15 5 15 10
0 6 -7 10 -15 10 -8 0 -15 9 -15 20 0 25 -18 26 -27 3z"/>
<path d="M5593 9943 c-4 -10 -11 -21 -17 -25 -8 -6 -7 -10 1 -16 6 -4 13 -28
15 -52 2 -38 7 -46 26 -48 12 -2 22 1 22 7 0 6 -4 11 -10 11 -15 0 -12 77 3
84 10 5 10 7 0 12 -7 3 -13 14 -13 25 0 24 -18 25 -27 2z"/>
<path d="M5893 9953 c-7 -3 -13 -11 -13 -18 0 -7 -6 -16 -12 -19 -10 -5 -10
-7 0 -12 6 -3 12 -22 12 -43 0 -20 5 -42 12 -49 15 -15 48 -16 48 -2 0 6 -7
10 -15 10 -11 0 -15 11 -15 40 0 29 4 40 15 40 8 0 15 5 15 10 0 6 -6 10 -14
10 -8 0 -16 8 -18 18 -2 11 -9 17 -15 15z"/>
<path d="M6913 9953 c-7 -3 -13 -11 -13 -18 0 -7 -6 -16 -12 -19 -10 -5 -10
-7 0 -12 6 -3 12 -22 12 -43 0 -20 5 -42 12 -49 15 -15 48 -16 48 -2 0 6 -7
10 -15 10 -11 0 -15 11 -15 40 0 29 4 40 15 40 8 0 15 5 15 10 0 6 -6 10 -14
10 -8 0 -16 8 -18 18 -2 11 -9 17 -15 15z"/>
<path d="M7613 9943 c-4 -10 -11 -22 -17 -26 -8 -6 -7 -10 2 -14 7 -3 12 -23
12 -49 0 -47 15 -63 48 -49 16 8 16 8 0 12 -24 6 -26 83 -3 83 8 0 15 5 15 10
0 6 -7 10 -15 10 -8 0 -15 9 -15 20 0 25 -18 26 -27 3z"/>
<path d="M8185 9945 c-5 -11 -13 -23 -19 -27 -8 -6 -7 -10 1 -16 6 -4 13 -28
15 -52 2 -38 7 -46 26 -48 25 -4 30 13 7 22 -9 3 -15 19 -15 41 0 24 4 35 15
35 8 0 15 5 15 10 0 6 -6 10 -14 10 -8 0 -16 10 -19 23 -3 21 -4 21 -12 2z"/>
<path d="M4257 9913 c-14 -14 -6 -19 23 -15 40 6 38 -13 -2 -24 -26 -8 -34
-16 -36 -37 -2 -15 0 -28 5 -28 4 -1 27 -3 51 -4 l42 -3 0 47 c0 26 -5 52 -12
59 -13 13 -60 16 -71 5z m53 -68 c0 -9 -7 -18 -16 -22 -18 -7 -39 11 -30 26
11 17 46 13 46 -4z"/>
<path d="M4800 9900 c-41 -41 -11 -105 46 -98 39 4 41 23 2 23 -17 0 -33 6
-35 13 -3 8 8 12 36 12 34 0 41 3 41 19 0 25 -26 51 -51 51 -10 0 -28 -9 -39
-20z m58 -17 c2 -8 -6 -13 -22 -13 -25 0 -33 10 -19 24 10 10 36 3 41 -11z"/>
<path d="M5137 9913 c-14 -13 -6 -20 17 -16 35 7 41 -14 6 -22 -35 -8 -52 -32
-39 -56 6 -13 21 -17 55 -16 l46 0 -5 50 c-2 27 -11 53 -18 58 -17 10 -53 12
-62 2z m53 -68 c0 -9 -7 -18 -16 -22 -18 -7 -39 11 -30 26 11 17 46 13 46 -4z"/>
<path d="M5250 9860 c0 -46 3 -60 14 -60 11 0 16 14 18 48 3 39 6 47 23 47 17
0 20 -8 23 -47 2 -34 7 -48 18 -48 17 0 20 71 4 101 -12 21 -40 25 -58 7 -9
-9 -12 -9 -12 0 0 7 -7 12 -15 12 -12 0 -15 -13 -15 -60z"/>
<path d="M5682 9904 c-45 -31 -17 -104 40 -104 51 0 78 69 40 103 -23 21 -51
22 -80 1z m63 -44 c0 -31 -3 -35 -25 -35 -19 0 -26 6 -28 23 -5 36 5 54 30 50
19 -2 23 -9 23 -38z"/>
<path d="M5977 9913 c-14 -13 -6 -20 17 -16 35 7 41 -14 6 -22 -35 -8 -52 -32
-39 -56 6 -13 21 -17 55 -16 l46 0 -5 50 c-2 27 -11 53 -18 58 -17 10 -53 12
-62 2z m53 -68 c0 -9 -7 -18 -16 -22 -18 -7 -39 11 -30 26 11 17 46 13 46 -4z"/>
<path d="M6357 9913 c-14 -13 -6 -20 17 -16 35 7 41 -14 6 -22 -35 -8 -52 -32
-39 -56 6 -13 21 -17 55 -16 l46 0 -5 50 c-2 27 -11 53 -18 58 -17 10 -53 12
-62 2z m53 -68 c0 -9 -7 -18 -16 -22 -18 -7 -39 11 -30 26 11 17 46 13 46 -4z"/>
<path d="M6626 9904 c-23 -22 -21 -81 3 -94 44 -23 101 5 101 50 0 48 -71 78
-104 44z m58 -10 c24 -9 21 -61 -4 -69 -39 -12 -66 35 -38 63 14 14 20 14 42
6z"/>
<path d="M6752 9869 c6 -58 16 -68 70 -67 l38 0 0 59 c0 45 -3 59 -14 59 -11
0 -16 -14 -18 -47 -3 -40 -6 -48 -23 -48 -17 0 -20 8 -23 48 -2 35 -7 47 -19
47 -13 0 -15 -9 -11 -51z"/>
<path d="M7050 9860 c0 -33 4 -60 10 -60 6 0 10 27 10 60 0 33 -4 60 -10 60
-6 0 -10 -27 -10 -60z"/>
<path d="M7110 9860 c0 -46 3 -60 14 -60 11 0 16 14 18 48 3 39 6 47 23 47 17
0 20 -8 23 -47 2 -34 7 -48 18 -48 17 0 20 71 4 101 -12 21 -40 25 -58 7 -9
-9 -12 -9 -12 0 0 7 -7 12 -15 12 -12 0 -15 -13 -15 -60z"/>
<path d="M7240 9913 c0 -24 40 -108 52 -111 10 -2 22 17 37 54 12 31 19 59 16
62 -9 9 -22 -10 -35 -53 -14 -43 -14 -42 -40 28 -8 24 -30 38 -30 20z"/>
<path d="M7385 9906 c-25 -18 -25 -74 1 -93 23 -17 66 -13 72 6 3 9 0 11 -7 6
-15 -9 -61 2 -61 15 0 6 18 10 40 10 36 0 40 3 40 25 0 39 -49 58 -85 31z m59
-21 c4 -11 -2 -15 -24 -15 -29 0 -38 9 -23 23 12 12 41 7 47 -8z"/>
<path d="M7502 9908 c-20 -20 -14 -37 18 -53 39 -20 39 -39 0 -33 -19 3 -29 1
-27 -6 6 -18 53 -18 70 -1 20 19 13 39 -19 53 -32 15 -31 36 1 30 17 -4 25 -1
25 8 0 17 -51 19 -68 2z"/>
<path d="M7690 9858 c0 -32 4 -58 10 -58 6 0 10 15 10 33 0 38 22 73 38 63 7
-4 12 -27 12 -52 0 -32 4 -44 15 -44 11 0 15 11 15 39 0 39 20 68 40 56 5 -3
10 -26 10 -51 0 -32 4 -44 15 -44 18 0 21 70 5 101 -12 21 -40 25 -58 7 -8 -8
-15 -8 -24 0 -7 5 -30 10 -50 9 l-38 -1 0 -58z"/>
<path d="M7915 9906 c-25 -18 -25 -74 1 -93 23 -17 66 -13 72 6 3 9 0 11 -7 6
-15 -9 -61 2 -61 15 0 6 18 10 40 10 36 0 40 3 40 25 0 39 -49 58 -85 31z m59
-21 c4 -11 -2 -15 -24 -15 -29 0 -38 9 -23 23 12 12 41 7 47 -8z"/>
<path d="M8030 9860 c0 -33 4 -60 10 -60 6 0 10 15 10 33 0 41 21 73 44 64 11
-5 16 -19 16 -52 0 -25 5 -45 10 -45 6 0 10 24 10 54 0 46 -3 56 -20 61 -10 3
-28 1 -40 -5 -13 -7 -20 -7 -20 0 0 5 -4 10 -10 10 -6 0 -10 -27 -10 -60z"/>
<path d="M8261 9906 c-18 -21 -7 -44 24 -56 32 -12 23 -34 -11 -27 -16 3 -24
0 -24 -9 0 -14 36 -19 64 -8 26 10 20 53 -9 60 -34 8 -34 38 0 31 16 -3 24 0
22 7 -6 17 -52 19 -66 2z"/>
<path d="M7569 9637 c-75 -50 -86 -137 -26 -203 39 -43 94 -54 150 -31 100 42
103 194 4 240 -48 23 -88 21 -128 -6z m113 -64 c22 -20 23 -70 1 -95 -36 -40
-113 -8 -113 47 0 54 71 85 112 48z"/>
<path d="M5650 9605 c0 -9 5 -15 11 -13 6 2 11 8 11 13 0 5 -5 11 -11 13 -6 2
-11 -4 -11 -13z"/>
<path d="M5710 9530 c0 -73 3 -90 15 -90 12 0 15 17 15 90 0 73 -3 90 -15 90
-12 0 -15 -17 -15 -90z"/>
<path d="M5770 9530 c0 -73 3 -90 15 -90 10 0 15 10 15 28 l1 27 24 -27 c13
-16 32 -28 41 -28 14 0 12 6 -10 29 l-28 30 21 28 c31 38 6 45 -25 7 l-23 -29
-1 58 c0 44 -3 57 -15 57 -12 0 -15 -17 -15 -90z"/>
<path d="M5993 9613 c-7 -2 -13 -16 -13 -29 0 -15 -6 -24 -15 -24 -8 0 -15 -4
-15 -10 0 -5 7 -10 15 -10 11 0 15 -12 15 -50 0 -27 5 -50 10 -50 6 0 10 23
10 50 0 38 4 50 15 50 8 0 15 5 15 10 0 6 -7 10 -15 10 -8 0 -15 7 -15 15 0 9
7 18 15 21 8 4 15 10 15 15 0 10 -17 11 -37 2z"/>
<path d="M6050 9605 c0 -9 5 -15 11 -13 6 2 11 8 11 13 0 5 -5 11 -11 13 -6 2
-11 -4 -11 -13z"/>
<path d="M6380 9530 c0 -53 4 -90 10 -90 6 0 10 37 10 90 0 53 -4 90 -10 90
-6 0 -10 -37 -10 -90z"/>
<path d="M6440 9530 c0 -53 4 -90 10 -90 6 0 10 37 10 90 0 53 -4 90 -10 90
-6 0 -10 -37 -10 -90z"/>
<path d="M6690 9605 c0 -9 5 -15 11 -13 6 2 11 8 11 13 0 5 -5 11 -11 13 -6 2
-11 -4 -11 -13z"/>
<path d="M6942 9608 c-7 -7 -12 -20 -12 -29 0 -10 -6 -20 -12 -23 -10 -5 -10
-7 0 -12 7 -3 12 -25 12 -55 0 -37 4 -49 15 -49 11 0 15 12 15 49 0 30 5 52
13 55 10 5 10 7 0 12 -18 8 -16 44 2 44 8 0 15 5 15 10 0 14 -33 13 -48 -2z"/>
<path d="M4640 9525 l0 -85 36 0 c19 0 44 5 55 10 23 13 25 53 4 70 -11 9 -13
16 -5 24 15 15 12 53 -6 60 -9 3 -31 6 -50 6 l-34 0 0 -85z m68 57 c18 -12 4
-42 -19 -42 -14 0 -19 7 -19 25 0 25 14 31 38 17z m7 -92 c0 -18 -6 -26 -22
-28 -20 -3 -23 1 -23 28 0 27 3 31 23 28 16 -2 22 -10 22 -28z"/>
<path d="M5123 9603 c-22 -8 -14 -25 7 -18 20 6 50 -9 50 -26 0 -4 -18 -26
-40 -48 -57 -56 -54 -71 15 -71 30 0 55 5 55 10 0 6 -18 10 -40 10 -22 0 -40
3 -40 8 0 4 16 20 35 35 66 52 33 131 -42 100z"/>
<path d="M5250 9525 l0 -85 45 0 c25 0 45 5 45 10 0 6 -16 10 -35 10 l-35 0 0
75 c0 43 -4 75 -10 75 -6 0 -10 -35 -10 -85z"/>
<path d="M5430 9525 c0 -69 3 -85 15 -85 12 0 15 14 16 63 l0 62 23 -60 c13
-32 28 -61 34 -63 5 -1 21 25 35 60 l26 63 1 -62 c0 -49 3 -63 15 -63 12 0 15
16 15 85 0 76 -2 85 -19 85 -14 0 -25 -16 -41 -60 -12 -33 -25 -60 -29 -60 -3
0 -17 27 -29 60 -18 44 -29 60 -43 60 -17 0 -19 -8 -19 -85z"/>
<path d="M7350 9550 c0 -33 4 -60 9 -60 14 0 21 27 21 76 0 32 -4 44 -15 44
-12 0 -15 -13 -15 -60z"/>
<path d="M7420 9573 c0 -21 3 -48 6 -60 12 -43 24 -23 24 37 0 47 -3 60 -15
60 -11 0 -15 -11 -15 -37z"/>
<path d="M4780 9511 c0 -58 11 -69 68 -68 l42 0 0 58 c0 46 -3 59 -15 59 -11
0 -15 -11 -15 -37 0 -46 -13 -68 -34 -60 -11 5 -16 19 -16 52 0 33 -4 45 -15
45 -11 0 -15 -12 -15 -49z"/>
<path d="M4913 9543 c3 -10 13 -40 23 -66 l19 -49 -23 -18 c-12 -10 -22 -21
-22 -24 0 -13 28 -5 43 12 19 21 70 152 62 160 -9 9 -22 -10 -35 -53 -14 -43
-14 -42 -40 28 -10 29 -36 38 -27 10z"/>
<path d="M5650 9500 c0 -33 4 -60 10 -60 6 0 10 27 10 60 0 33 -4 60 -10 60
-6 0 -10 -27 -10 -60z"/>
<path d="M6050 9500 c0 -33 4 -60 10 -60 6 0 10 27 10 60 0 33 -4 60 -10 60
-6 0 -10 -27 -10 -60z"/>
<path d="M6110 9500 c0 -46 3 -60 14 -60 11 0 16 14 18 48 3 39 6 47 23 47 17
0 20 -8 23 -47 2 -34 7 -48 18 -48 17 0 20 71 4 101 -12 21 -40 25 -58 7 -9
-9 -12 -9 -12 0 0 7 -7 12 -15 12 -12 0 -15 -13 -15 -60z"/>
<path d="M6263 9553 c-25 -9 -13 -22 16 -17 16 4 32 1 35 -5 4 -7 -1 -11 -12
-11 -30 0 -67 -34 -59 -54 9 -23 36 -31 58 -17 12 7 19 7 19 1 0 -5 5 -10 10
-10 6 0 10 24 10 54 0 40 -4 55 -16 60 -18 7 -43 7 -61 -1z m55 -65 c-6 -16
-36 -34 -44 -26 -3 4 -4 14 -1 23 7 17 51 21 45 3z"/>
<path d="M6493 9543 c3 -10 13 -40 23 -66 l19 -49 -23 -18 c-12 -10 -22 -21
-22 -24 0 -13 28 -5 43 12 19 21 70 152 62 160 -9 9 -22 -10 -35 -53 -14 -43
-14 -42 -40 28 -10 29 -36 38 -27 10z"/>
<path d="M6690 9500 c0 -33 4 -60 10 -60 6 0 10 27 10 60 0 33 -4 60 -10 60
-6 0 -10 -27 -10 -60z"/>
<path d="M6756 9545 c-19 -20 -12 -39 20 -53 33 -16 30 -32 -7 -32 -17 0 -28
-4 -24 -10 9 -14 58 -13 73 2 20 20 14 37 -18 53 -37 19 -39 35 -5 35 14 0 25
5 25 10 0 16 -47 12 -64 -5z"/>
<path d="M7000 9499 c0 -46 3 -59 15 -59 11 0 15 12 15 46 0 37 4 47 20 51 31
8 23 19 -15 20 l-35 1 0 -59z"/>
<path d="M7105 9546 c-25 -18 -25 -74 1 -93 23 -17 66 -13 72 6 3 9 0 11 -7 6
-15 -9 -61 2 -61 15 0 6 18 10 40 10 36 0 40 3 40 25 0 39 -49 58 -85 31z m59
-21 c4 -11 -2 -15 -24 -15 -29 0 -38 9 -23 23 12 12 41 7 47 -8z"/>
<path d="M7230 9540 c-41 -41 -11 -105 46 -98 39 4 41 23 2 23 -17 0 -33 6
-35 13 -3 8 8 12 36 12 34 0 41 3 41 19 0 11 -7 27 -16 35 -21 22 -50 20 -74
-4z m58 -17 c2 -8 -6 -13 -22 -13 -25 0 -33 10 -19 24 10 10 36 3 41 -11z"/>
<path d="M7350 9455 c0 -8 7 -15 15 -15 8 0 15 7 15 15 0 8 -7 15 -15 15 -8 0
-15 -7 -15 -15z"/>
<path d="M7427 9464 c-8 -8 1 -24 14 -24 5 0 9 7 9 15 0 15 -12 20 -23 9z"/>
<path d="M5354 9346 c-45 -20 -54 -57 -54 -226 0 -172 9 -206 56 -226 48 -20
570 -20 618 0 48 20 56 54 56 228 0 173 -10 209 -60 227 -50 17 -575 14 -616
-3z m356 -226 l0 -80 -48 0 c-53 0 -72 12 -72 48 0 40 18 62 50 62 25 0 30 4
30 25 0 18 5 25 20 25 18 0 20 -7 20 -80z m50 65 c0 -8 -9 -15 -20 -15 -11 0
-20 7 -20 15 0 8 9 15 20 15 11 0 20 -7 20 -15z m-170 -5 c0 -5 -13 -10 -30
-10 -23 0 -30 -4 -30 -20 0 -15 7 -20 25 -20 14 0 25 -4 25 -10 0 -5 -11 -10
-25 -10 -20 0 -25 -5 -25 -25 0 -21 5 -25 30 -25 17 0 30 -4 30 -10 0 -5 -22
-10 -50 -10 l-50 0 0 75 0 75 50 0 c28 0 50 -4 50 -10z m230 -15 c0 -8 7 -15
15 -15 8 0 15 -4 15 -10 0 -5 -7 -10 -15 -10 -10 0 -15 -10 -15 -30 0 -18 6
-33 15 -36 25 -10 17 -24 -15 -24 -23 0 -31 5 -35 23 -5 26 -9 74 -7 100 2 21
42 23 42 2z m-60 -70 c0 -48 -2 -55 -20 -55 -18 0 -20 7 -20 55 0 48 2 55 20
55 18 0 20 -7 20 -55z"/>
<path d="M5636 9123 c-8 -8 -8 -48 1 -56 10 -10 33 13 33 33 0 18 -23 34 -34
23z"/>
<path d="M6201 9346 c-45 -25 -50 -50 -51 -224 0 -178 7 -208 55 -230 19 -9
138 -12 430 -12 434 0 445 1 471 51 18 36 20 335 2 374 -24 54 -32 55 -475 55
-319 -1 -413 -4 -432 -14z m439 -198 c0 -49 1 -51 13 -28 10 20 21 25 52 27
22 1 46 2 53 2 6 1 12 8 12 16 0 8 9 15 20 15 11 0 20 -6 20 -14 0 -8 6 -17
13 -20 10 -5 10 -7 0 -12 -15 -7 -18 -74 -3 -74 6 0 10 -5 10 -11 0 -6 -12 -9
-27 -7 -25 3 -28 7 -31 46 -2 23 -7 42 -12 42 -4 0 -6 -9 -3 -20 5 -18 0 -20
-37 -20 -36 0 -41 -2 -30 -15 8 -10 21 -13 37 -8 19 4 24 2 21 -8 -3 -9 -19
-14 -44 -14 -31 0 -41 5 -51 25 l-13 25 0 -27 c0 -21 -5 -28 -20 -28 -18 0
-20 7 -20 80 0 73 2 80 20 80 17 0 20 -7 20 -52z m-188 25 c25 -23 24 -87 -2
-113 -14 -14 -33 -20 -65 -20 l-45 0 0 75 0 75 47 0 c29 0 53 -6 65 -17z m126
-35 c7 -7 12 -20 12 -30 0 -14 -8 -18 -36 -18 -24 0 -34 -4 -31 -12 2 -7 16
-12 31 -11 17 1 26 -3 26 -13 0 -23 -77 -19 -90 5 -14 28 -12 57 6 75 18 19
65 21 82 4z m350 0 c7 -7 12 -20 12 -30 0 -14 -8 -18 -36 -18 -24 0 -34 -4
-31 -12 2 -8 18 -12 36 -10 23 2 32 -2 29 -10 -3 -7 -22 -14 -43 -16 -42 -4
-65 14 -65 52 0 44 67 75 98 44z"/>
<path d="M6685 9120 c-3 -5 3 -10 15 -10 12 0 18 5 15 10 -3 6 -10 10 -15 10
-5 0 -12 -4 -15 -10z"/>
<path d="M6370 9115 c0 -30 2 -55 4 -55 3 0 16 4 30 10 21 8 26 16 26 45 0 29
-5 37 -26 45 -14 6 -27 10 -30 10 -2 0 -4 -25 -4 -55z"/>
<path d="M6525 9120 c-3 -5 1 -10 9 -10 9 0 16 5 16 10 0 6 -4 10 -9 10 -6 0
-13 -4 -16 -10z"/>
<path d="M6875 9120 c-3 -5 1 -10 9 -10 9 0 16 5 16 10 0 6 -4 10 -9 10 -6 0
-13 -4 -16 -10z"/>
<path d="M5660 8265 c0 -69 3 -85 15 -85 12 0 15 16 15 85 0 69 -3 85 -15 85
-12 0 -15 -16 -15 -85z"/>
<path d="M5870 8265 c0 -69 3 -85 15 -85 10 0 15 10 15 30 0 25 4 30 24 30 31
0 56 25 56 55 0 35 -26 55 -71 55 l-39 0 0 -85z m68 56 c22 -13 11 -56 -15
-59 -20 -3 -23 1 -23 32 0 36 11 44 38 27z"/>
<path d="M5730 8240 c0 -68 17 -82 22 -19 2 27 9 46 21 53 23 15 37 -6 37 -56
0 -21 5 -38 11 -38 6 0 9 20 7 51 -3 60 -24 82 -58 61 -12 -7 -20 -8 -20 -2 0
5 -4 10 -10 10 -6 0 -10 -27 -10 -60z"/>
<path d="M6010 8238 c0 -67 17 -79 22 -15 2 32 8 44 26 52 32 14 27 23 -13 22
l-35 -1 0 -58z"/>
<path d="M6106 8284 c-23 -22 -21 -81 3 -94 44 -23 101 5 101 50 0 48 -71 78
-104 44z m58 -10 c24 -9 21 -61 -4 -69 -39 -12 -66 35 -38 63 14 14 20 14 42
6z"/>
<path d="M6246 8281 c-44 -49 16 -135 62 -89 9 9 12 7 12 -9 0 -28 -25 -46
-55 -40 -16 3 -24 0 -22 -7 5 -14 32 -19 62 -12 28 7 45 55 45 127 l0 46 -44
1 c-30 0 -50 -5 -60 -17z m58 -7 c20 -8 21 -48 1 -64 -22 -19 -45 -5 -45 28 0
40 11 49 44 36z"/>
<path d="M6380 8239 c0 -46 3 -59 15 -59 11 0 15 12 15 46 0 37 4 47 20 51 32
8 23 21 -15 21 l-35 0 0 -59z"/>
<path d="M6477 8282 c-39 -42 -9 -106 46 -100 41 4 45 23 5 23 -17 0 -33 6
-35 13 -3 8 8 12 36 12 45 0 51 11 25 48 -18 27 -55 29 -77 4z m61 -19 c2 -8
-6 -13 -22 -13 -25 0 -33 10 -19 24 10 10 36 3 41 -11z"/>
<path d="M6603 8293 c-7 -2 -13 -15 -13 -29 0 -17 7 -25 25 -30 14 -3 25 -12
25 -20 0 -8 -10 -14 -25 -14 -14 0 -25 -4 -25 -10 0 -16 56 -12 70 5 17 20 6
43 -25 55 -29 11 -25 30 6 30 10 0 19 5 19 10 0 10 -35 12 -57 3z"/>
<path d="M6702 8288 c-20 -20 -14 -37 18 -53 39 -20 39 -39 0 -33 -19 3 -29 1
-27 -6 6 -18 53 -18 70 -1 20 19 13 39 -19 53 -32 15 -31 36 1 30 17 -4 25 -1
25 8 0 17 -51 19 -68 2z"/>
<path d="M5802 7988 c6 -18 28 -21 28 -4 0 9 -7 16 -16 16 -9 0 -14 -5 -12
-12z"/>
<path d="M5870 7910 c0 -53 4 -90 10 -90 6 0 10 37 10 90 0 53 -4 90 -10 90
-6 0 -10 -37 -10 -90z"/>
<path d="M6540 7966 c0 -32 -2 -34 -32 -32 -39 1 -65 -35 -54 -77 7 -31 48
-46 71 -27 10 9 15 9 15 1 0 -6 7 -11 15 -11 12 0 15 17 15 90 0 73 -3 90 -15
90 -10 0 -15 -10 -15 -34z m-2 -83 c2 -24 -1 -33 -17 -38 -29 -9 -41 1 -41 34
0 34 8 43 35 39 14 -2 21 -12 23 -35z"/>
<path d="M6600 7985 c0 -8 7 -15 15 -15 8 0 15 7 15 15 0 8 -7 15 -15 15 -8 0
-15 -7 -15 -15z"/>
<path d="M5510 7905 l0 -85 35 0 c42 0 90 22 99 45 26 69 -14 125 -90 125
l-44 0 0 -85z m88 49 c46 -32 17 -114 -40 -114 -15 0 -18 9 -18 65 0 71 12 82
58 49z"/>
<path d="M5693 7933 c-25 -10 -12 -22 17 -16 40 8 40 -13 -1 -22 -63 -14 -48
-69 20 -72 l41 -2 0 48 c0 26 -5 52 -12 59 -12 12 -43 15 -65 5z m45 -70 c-5
-26 -38 -29 -38 -4 0 15 6 21 21 21 14 0 19 -5 17 -17z"/>
<path d="M5800 7880 c0 -47 3 -60 15 -60 12 0 15 13 15 60 0 47 -3 60 -15 60
-12 0 -15 -13 -15 -60z"/>
<path d="M5923 7923 c3 -10 13 -40 23 -66 l19 -49 -23 -18 c-12 -10 -22 -21
-22 -24 0 -13 28 -5 43 12 19 21 70 152 62 160 -9 9 -22 -10 -35 -53 -14 -43
-14 -42 -40 28 -10 29 -36 38 -27 10z"/>
<path d="M6120 7878 c0 -32 4 -58 10 -58 6 0 10 14 10 31 0 38 16 69 35 69 8
0 15 4 15 9 0 5 -16 9 -35 8 l-35 -1 0 -58z"/>
<path d="M6217 7922 c-39 -42 -9 -106 46 -100 41 4 45 23 5 23 -17 0 -33 6
-35 13 -3 8 8 12 36 12 45 0 51 11 25 48 -18 27 -55 29 -77 4z m61 -19 c2 -8
-6 -13 -22 -13 -25 0 -33 10 -19 24 10 10 36 3 41 -11z"/>
<path d="M6347 7933 c-14 -13 -6 -20 17 -16 35 7 41 -14 6 -22 -35 -8 -52 -32
-39 -56 6 -13 21 -17 55 -16 l46 0 -5 50 c-2 27 -11 53 -18 58 -17 10 -53 12
-62 2z m53 -68 c0 -9 -7 -18 -16 -22 -18 -7 -39 11 -30 26 11 17 46 13 46 -4z"/>
<path d="M6600 7880 c0 -47 3 -60 15 -60 12 0 15 13 15 60 0 47 -3 60 -15 60
-12 0 -15 -13 -15 -60z"/>
<path d="M6670 7880 c0 -68 17 -82 22 -19 2 27 9 46 21 53 23 15 37 -6 37 -56
0 -21 5 -38 11 -38 6 0 9 20 7 51 -3 60 -24 82 -58 61 -12 -7 -20 -8 -20 -2 0
5 -4 10 -10 10 -6 0 -10 -27 -10 -60z"/>
<path d="M6816 7921 c-44 -49 16 -135 62 -89 9 9 12 7 12 -9 0 -28 -25 -46
-55 -40 -16 3 -24 0 -22 -7 5 -14 32 -19 62 -12 28 7 45 55 45 127 l0 46 -44
1 c-30 0 -50 -5 -60 -17z m58 -7 c20 -8 21 -48 1 -64 -22 -19 -45 -5 -45 28 0
40 11 49 44 36z"/>
<path d="M18921 7706 c-8 -9 -11 -50 -9 -117 3 -93 5 -104 22 -107 13 -3 17 0
14 9 -21 57 -21 57 22 56 35 -1 44 3 58 25 9 15 14 30 11 33 -10 9 -39 -6 -39
-21 0 -8 -4 -14 -10 -14 -5 0 -10 7 -10 15 0 8 -7 15 -15 15 -8 0 -15 7 -15
16 0 8 5 12 11 9 17 -11 59 4 59 21 0 8 -10 28 -22 44 -23 32 -58 39 -77 16z
m49 -36 c27 -27 25 -30 -11 -30 -24 0 -30 3 -25 16 3 9 6 20 6 25 0 14 8 11
30 -11z"/>
<path d="M18855 7700 c3 -5 10 -10 16 -10 5 0 9 5 9 10 0 6 -7 10 -16 10 -8 0
-12 -4 -9 -10z"/>
<path d="M18841 7656 c-7 -8 -20 -12 -29 -9 -11 2 -26 -7 -40 -26 -22 -30 -22
-31 -4 -63 40 -74 54 -89 80 -86 30 4 43 28 15 28 -29 0 -60 26 -47 40 8 8 14
7 24 -5 7 -8 21 -15 31 -15 14 0 19 7 19 29 0 29 -2 30 -50 33 -67 4 -69 22
-2 26 50 3 52 4 52 33 0 22 -5 29 -19 29 -10 0 -24 -6 -30 -14z"/>
<path d="M4780 7625 c0 -8 7 -15 15 -15 8 0 15 7 15 15 0 8 -7 15 -15 15 -8 0
-15 -7 -15 -15z"/>
<path d="M4982 7628 c6 -18 28 -21 28 -4 0 9 -7 16 -16 16 -9 0 -14 -5 -12
-12z"/>
<path d="M5150 7550 c0 -71 3 -90 14 -90 10 0 15 15 18 48 5 79 -1 132 -18
132 -11 0 -14 -18 -14 -90z"/>
<path d="M5780 7605 c0 -33 -2 -35 -25 -29 -33 8 -65 -20 -65 -57 0 -47 48
-77 78 -47 9 9 12 9 12 0 0 -7 7 -12 15 -12 12 0 15 17 15 90 0 73 -3 90 -15
90 -10 0 -15 -11 -15 -35z m-16 -51 c20 -8 21 -48 1 -64 -22 -19 -45 -5 -45
28 0 40 11 49 44 36z"/>
<path d="M5840 7625 c0 -8 7 -15 15 -15 8 0 15 7 15 15 0 8 -7 15 -15 15 -8 0
-15 -7 -15 -15z"/>
<path d="M4660 7545 c0 -69 3 -85 15 -85 11 0 15 11 15 40 0 38 2 40 30 40 17
0 30 5 30 10 0 6 -13 10 -30 10 -25 0 -30 4 -30 25 0 21 5 25 30 25 17 0 30 5
30 10 0 6 -20 10 -45 10 l-45 0 0 -85z"/>
<path d="M6260 7545 c0 -50 4 -85 10 -85 6 0 10 35 10 85 0 50 -4 85 -10 85
-6 0 -10 -35 -10 -85z"/>
<path d="M7142 7559 c4 -78 19 -99 68 -99 44 0 60 28 60 103 0 38 -4 67 -10
67 -6 0 -10 -26 -10 -59 0 -41 -5 -65 -16 -75 -18 -19 -20 -19 -45 -6 -16 9
-19 22 -19 75 0 53 -3 65 -16 65 -14 0 -16 -11 -12 -71z"/>
<path d="M7310 7545 c0 -69 3 -85 15 -85 12 0 15 16 15 85 0 69 -3 85 -15 85
-12 0 -15 -16 -15 -85z"/>
<path d="M7419 7583 c-42 -98 -60 -146 -54 -151 8 -9 20 9 40 58 9 25 26 66
36 93 10 26 14 47 8 47 -5 0 -19 -21 -30 -47z"/>
<path d="M7480 7562 c0 -77 16 -102 63 -102 47 0 67 31 67 105 0 51 -3 65 -15
65 -12 0 -15 -14 -15 -64 0 -71 -17 -99 -48 -79 -13 7 -18 28 -20 77 -2 50 -6
66 -17 66 -12 0 -15 -15 -15 -68z"/>
<path d="M7663 7588 l25 -43 -24 -35 c-27 -41 -29 -50 -11 -50 7 0 21 16 31
35 l20 36 20 -36 c11 -19 26 -35 33 -35 18 0 17 5 -11 49 l-25 38 25 36 c28
42 29 47 10 47 -8 0 -17 -9 -21 -19 -3 -11 -12 -24 -20 -31 -11 -9 -17 -5 -30
19 -8 17 -23 31 -31 31 -13 0 -11 -8 9 -42z"/>
<path d="M6473 7603 c-4 -10 -11 -22 -17 -26 -8 -6 -7 -10 2 -14 7 -3 12 -23
12 -49 0 -47 15 -63 48 -49 16 8 16 8 0 12 -24 6 -26 83 -3 83 8 0 15 5 15 10
0 6 -7 10 -15 10 -8 0 -15 9 -15 20 0 25 -18 26 -27 3z"/>
<path d="M6863 7613 c-7 -3 -13 -11 -13 -18 0 -7 -6 -16 -12 -19 -10 -5 -10
-7 0 -12 6 -3 12 -22 12 -43 0 -20 5 -42 12 -49 15 -15 48 -16 48 -2 0 6 -7
10 -15 10 -11 0 -15 11 -15 40 0 29 4 40 15 40 8 0 15 5 15 10 0 6 -6 10 -14
10 -8 0 -16 8 -18 18 -2 11 -9 17 -15 15z"/>
<path d="M4780 7520 c0 -47 3 -60 15 -60 12 0 15 13 15 60 0 47 -3 60 -15 60
-12 0 -15 -13 -15 -60z"/>
<path d="M4840 7520 c0 -46 3 -60 14 -60 11 0 16 14 18 48 3 39 6 47 23 47 17
0 20 -8 23 -47 2 -35 7 -48 18 -48 12 0 14 11 12 51 -3 60 -24 82 -58 61 -12
-7 -20 -8 -20 -2 0 5 -7 10 -15 10 -12 0 -15 -13 -15 -60z"/>
<path d="M4980 7520 c0 -47 3 -60 15 -60 12 0 15 13 15 60 0 47 -3 60 -15 60
-12 0 -15 -13 -15 -60z"/>
<path d="M5051 7566 c-18 -21 -7 -44 24 -56 32 -12 23 -34 -11 -27 -16 3 -24
0 -24 -9 0 -14 36 -19 64 -8 26 10 20 53 -9 60 -34 8 -34 38 0 31 16 -3 24 0
22 7 -6 17 -52 19 -66 2z"/>
<path d="M5196 7571 c-3 -5 3 -11 14 -14 16 -4 20 -14 20 -51 0 -34 4 -46 15
-46 18 0 21 70 5 101 -11 19 -44 26 -54 10z"/>
<path d="M5360 7518 c0 -67 17 -79 22 -15 2 32 8 44 26 52 32 14 27 23 -13 22
l-35 -1 0 -58z"/>
<path d="M5456 7564 c-9 -8 -16 -31 -16 -50 0 -40 31 -61 74 -50 35 9 33 24
-2 18 -18 -2 -33 2 -41 12 -12 14 -9 16 28 16 36 0 41 3 41 23 0 45 -52 64
-84 31z m62 -21 c2 -9 -7 -13 -28 -13 -28 0 -31 2 -20 15 15 18 41 16 48 -2z"/>
<path d="M5583 7573 c-25 -9 -13 -22 16 -17 16 4 32 1 35 -5 4 -7 -1 -11 -12
-11 -30 0 -67 -34 -59 -54 9 -23 36 -31 58 -17 12 7 19 7 19 1 0 -5 5 -10 10
-10 6 0 10 24 10 54 0 40 -4 55 -16 60 -18 7 -43 7 -61 -1z m55 -65 c-6 -16
-36 -34 -44 -26 -3 4 -4 14 -1 23 7 17 51 21 45 3z"/>
<path d="M5840 7520 c0 -47 3 -60 15 -60 12 0 15 13 15 60 0 47 -3 60 -15 60
-12 0 -15 -13 -15 -60z"/>
<path d="M5900 7520 c0 -46 3 -60 14 -60 11 0 16 14 18 48 3 39 6 47 23 47 17
0 20 -8 23 -47 2 -35 7 -48 18 -48 12 0 14 11 12 51 -3 60 -24 82 -58 61 -12
-7 -20 -8 -20 -2 0 5 -7 10 -15 10 -12 0 -15 -13 -15 -60z"/>
<path d="M6058 7569 c-23 -13 -24 -81 -2 -100 12 -10 22 -10 45 -2 28 11 30
10 23 -10 -9 -29 -24 -38 -51 -34 -15 3 -23 -1 -23 -9 0 -21 64 -18 83 4 13
14 17 37 17 88 l0 70 -37 1 c-21 1 -46 -3 -55 -8z m62 -24 c15 -19 -1 -65 -23
-65 -18 0 -37 21 -37 40 0 36 38 51 60 25z"/>
<path d="M6320 7520 c0 -46 3 -60 14 -60 11 0 16 14 18 48 3 39 6 47 23 47 17
0 20 -8 23 -47 2 -35 7 -48 18 -48 12 0 14 11 12 51 -3 60 -24 82 -58 61 -12
-7 -20 -8 -20 -2 0 5 -7 10 -15 10 -12 0 -15 -13 -15 -60z"/>
<path d="M6550 7519 c0 -46 3 -59 15 -59 11 0 15 12 15 46 0 37 4 47 20 51 32
8 23 21 -15 21 l-35 0 0 -59z"/>
<path d="M6652 7564 c-45 -31 -17 -104 40 -104 51 0 78 69 40 103 -23 21 -51
22 -80 1z m63 -44 c0 -31 -3 -35 -25 -35 -19 0 -26 6 -28 23 -5 36 5 54 30 50
19 -2 23 -9 23 -38z"/>
<path d="M6945 7566 c-42 -30 -14 -106 40 -106 35 0 58 24 58 60 0 36 -23 60
-58 60 -12 0 -30 -6 -40 -14z m63 -18 c17 -17 15 -43 -4 -59 -31 -26 -70 25
-44 56 15 18 32 19 48 3z"/>
<path d="M7569 7297 c-75 -50 -86 -137 -26 -203 39 -43 94 -54 150 -31 100 42
103 194 4 240 -48 23 -88 21 -128 -6z m113 -64 c22 -20 23 -70 1 -95 -36 -40
-113 -8 -113 47 0 54 71 85 112 48z"/>
<path d="M5650 7265 c0 -9 5 -15 11 -13 6 2 11 8 11 13 0 5 -5 11 -11 13 -6 2
-11 -4 -11 -13z"/>
<path d="M5710 7190 c0 -73 3 -90 15 -90 12 0 15 17 15 90 0 73 -3 90 -15 90
-12 0 -15 -17 -15 -90z"/>
<path d="M5770 7190 c0 -73 3 -90 15 -90 10 0 15 10 15 28 l1 27 24 -27 c13
-16 32 -28 41 -28 14 0 12 6 -10 29 l-28 30 21 28 c31 38 6 45 -25 7 l-23 -29
-1 58 c0 44 -3 57 -15 57 -12 0 -15 -17 -15 -90z"/>
<path d="M5993 7273 c-7 -2 -13 -16 -13 -29 0 -15 -6 -24 -15 -24 -8 0 -15 -4
-15 -10 0 -5 7 -10 15 -10 11 0 15 -12 15 -50 0 -27 5 -50 10 -50 6 0 10 23
10 50 0 38 4 50 15 50 8 0 15 5 15 10 0 6 -7 10 -15 10 -8 0 -15 7 -15 15 0 9
7 18 15 21 8 4 15 10 15 15 0 10 -17 11 -37 2z"/>
<path d="M6050 7265 c0 -9 5 -15 11 -13 6 2 11 8 11 13 0 5 -5 11 -11 13 -6 2
-11 -4 -11 -13z"/>
<path d="M6380 7190 c0 -53 4 -90 10 -90 6 0 10 37 10 90 0 53 -4 90 -10 90
-6 0 -10 -37 -10 -90z"/>
<path d="M6440 7190 c0 -53 4 -90 10 -90 6 0 10 37 10 90 0 53 -4 90 -10 90
-6 0 -10 -37 -10 -90z"/>
<path d="M6690 7265 c0 -9 5 -15 11 -13 6 2 11 8 11 13 0 5 -5 11 -11 13 -6 2
-11 -4 -11 -13z"/>
<path d="M6942 7268 c-7 -7 -12 -20 -12 -29 0 -10 -6 -20 -12 -23 -10 -5 -10
-7 0 -12 7 -3 12 -25 12 -55 0 -37 4 -49 15 -49 11 0 15 12 15 49 0 30 5 52
13 55 10 5 10 7 0 12 -18 8 -16 44 2 44 8 0 15 5 15 10 0 14 -33 13 -48 -2z"/>
<path d="M4640 7185 l0 -85 36 0 c19 0 44 5 55 10 23 13 25 53 4 70 -11 9 -13
16 -5 24 15 15 12 53 -6 60 -9 3 -31 6 -50 6 l-34 0 0 -85z m68 57 c18 -12 4
-42 -19 -42 -14 0 -19 7 -19 25 0 25 14 31 38 17z m7 -92 c0 -18 -6 -26 -22
-28 -20 -3 -23 1 -23 28 0 27 3 31 23 28 16 -2 22 -10 22 -28z"/>
<path d="M5123 7263 c-22 -8 -14 -25 7 -18 20 6 50 -9 50 -26 0 -4 -18 -26
-40 -48 -57 -56 -54 -71 15 -71 30 0 55 5 55 10 0 6 -18 10 -40 10 -22 0 -40
3 -40 8 0 4 16 20 35 35 66 52 33 131 -42 100z"/>
<path d="M5250 7185 l0 -85 45 0 c25 0 45 5 45 10 0 6 -16 10 -35 10 l-35 0 0
75 c0 43 -4 75 -10 75 -6 0 -10 -35 -10 -85z"/>
<path d="M5430 7185 c0 -69 3 -85 15 -85 12 0 15 14 16 63 l0 62 23 -60 c13
-32 28 -61 34 -63 5 -1 21 25 35 60 l26 63 1 -62 c0 -49 3 -63 15 -63 12 0 15
16 15 85 0 76 -2 85 -19 85 -14 0 -25 -16 -41 -60 -12 -33 -25 -60 -29 -60 -3
0 -17 27 -29 60 -18 44 -29 60 -43 60 -17 0 -19 -8 -19 -85z"/>
<path d="M7350 7210 c0 -33 4 -60 9 -60 14 0 21 27 21 76 0 32 -4 44 -15 44
-12 0 -15 -13 -15 -60z"/>
<path d="M7420 7233 c0 -21 3 -48 6 -60 12 -43 24 -23 24 37 0 47 -3 60 -15
60 -11 0 -15 -11 -15 -37z"/>
<path d="M4780 7171 c0 -58 11 -69 68 -68 l42 0 0 58 c0 46 -3 59 -15 59 -11
0 -15 -11 -15 -37 0 -46 -13 -68 -34 -60 -11 5 -16 19 -16 52 0 33 -4 45 -15
45 -11 0 -15 -12 -15 -49z"/>
<path d="M4913 7203 c3 -10 13 -40 23 -66 l19 -49 -23 -18 c-12 -10 -22 -21
-22 -24 0 -13 28 -5 43 12 19 21 70 152 62 160 -9 9 -22 -10 -35 -53 -14 -43
-14 -42 -40 28 -10 29 -36 38 -27 10z"/>
<path d="M5650 7160 c0 -33 4 -60 10 -60 6 0 10 27 10 60 0 33 -4 60 -10 60
-6 0 -10 -27 -10 -60z"/>
<path d="M6050 7160 c0 -33 4 -60 10 -60 6 0 10 27 10 60 0 33 -4 60 -10 60
-6 0 -10 -27 -10 -60z"/>
<path d="M6110 7160 c0 -46 3 -60 14 -60 11 0 16 14 18 48 3 39 6 47 23 47 17
0 20 -8 23 -47 2 -34 7 -48 18 -48 17 0 20 71 4 101 -12 21 -40 25 -58 7 -9
-9 -12 -9 -12 0 0 7 -7 12 -15 12 -12 0 -15 -13 -15 -60z"/>
<path d="M6263 7213 c-25 -9 -13 -22 16 -17 16 4 32 1 35 -5 4 -7 -1 -11 -12
-11 -30 0 -67 -34 -59 -54 9 -23 36 -31 58 -17 12 7 19 7 19 1 0 -5 5 -10 10
-10 6 0 10 24 10 54 0 40 -4 55 -16 60 -18 7 -43 7 -61 -1z m55 -65 c-6 -16
-36 -34 -44 -26 -3 4 -4 14 -1 23 7 17 51 21 45 3z"/>
<path d="M6493 7203 c3 -10 13 -40 23 -66 l19 -49 -23 -18 c-12 -10 -22 -21
-22 -24 0 -13 28 -5 43 12 19 21 70 152 62 160 -9 9 -22 -10 -35 -53 -14 -43
-14 -42 -40 28 -10 29 -36 38 -27 10z"/>
<path d="M6690 7160 c0 -33 4 -60 10 -60 6 0 10 27 10 60 0 33 -4 60 -10 60
-6 0 -10 -27 -10 -60z"/>
<path d="M6756 7205 c-19 -20 -12 -39 20 -53 33 -16 30 -32 -7 -32 -17 0 -28
-4 -24 -10 9 -14 58 -13 73 2 20 20 14 37 -18 53 -37 19 -39 35 -5 35 14 0 25
5 25 10 0 16 -47 12 -64 -5z"/>
<path d="M7000 7159 c0 -46 3 -59 15 -59 11 0 15 12 15 46 0 37 4 47 20 51 31
8 23 19 -15 20 l-35 1 0 -59z"/>
<path d="M7105 7206 c-25 -18 -25 -74 1 -93 23 -17 66 -13 72 6 3 9 0 11 -7 6
-15 -9 -61 2 -61 15 0 6 18 10 40 10 36 0 40 3 40 25 0 39 -49 58 -85 31z m59
-21 c4 -11 -2 -15 -24 -15 -29 0 -38 9 -23 23 12 12 41 7 47 -8z"/>
<path d="M7230 7200 c-41 -41 -11 -105 46 -98 39 4 41 23 2 23 -17 0 -33 6
-35 13 -3 8 8 12 36 12 34 0 41 3 41 19 0 11 -7 27 -16 35 -21 22 -50 20 -74
-4z m58 -17 c2 -8 -6 -13 -22 -13 -25 0 -33 10 -19 24 10 10 36 3 41 -11z"/>
<path d="M7350 7115 c0 -8 7 -15 15 -15 8 0 15 7 15 15 0 8 -7 15 -15 15 -8 0
-15 -7 -15 -15z"/>
<path d="M7427 7124 c-8 -8 1 -24 14 -24 5 0 9 7 9 15 0 15 -12 20 -23 9z"/>
<path d="M5354 7006 c-45 -20 -54 -57 -54 -226 0 -172 9 -206 56 -226 48 -20
570 -20 618 0 48 20 56 54 56 228 0 173 -10 209 -60 227 -50 17 -575 14 -616
-3z m356 -226 l0 -80 -48 0 c-53 0 -72 12 -72 48 0 40 18 62 50 62 25 0 30 4
30 25 0 18 5 25 20 25 18 0 20 -7 20 -80z m50 65 c0 -8 -9 -15 -20 -15 -11 0
-20 7 -20 15 0 8 9 15 20 15 11 0 20 -7 20 -15z m-170 -5 c0 -5 -13 -10 -30
-10 -23 0 -30 -4 -30 -20 0 -15 7 -20 25 -20 14 0 25 -4 25 -10 0 -5 -11 -10
-25 -10 -20 0 -25 -5 -25 -25 0 -21 5 -25 30 -25 17 0 30 -4 30 -10 0 -5 -22
-10 -50 -10 l-50 0 0 75 0 75 50 0 c28 0 50 -4 50 -10z m230 -15 c0 -8 7 -15
15 -15 8 0 15 -4 15 -10 0 -5 -7 -10 -15 -10 -10 0 -15 -10 -15 -30 0 -18 6
-33 15 -36 25 -10 17 -24 -15 -24 -23 0 -31 5 -35 23 -5 26 -9 74 -7 100 2 21
42 23 42 2z m-60 -70 c0 -48 -2 -55 -20 -55 -18 0 -20 7 -20 55 0 48 2 55 20
55 18 0 20 -7 20 -55z"/>
<path d="M5636 6783 c-8 -8 -8 -48 1 -56 10 -10 33 13 33 33 0 18 -23 34 -34
23z"/>
<path d="M6201 7006 c-45 -25 -50 -50 -51 -224 0 -178 7 -208 55 -230 19 -9
138 -12 430 -12 434 0 445 1 471 51 18 36 20 335 2 374 -24 54 -32 55 -475 55
-319 -1 -413 -4 -432 -14z m439 -198 c0 -49 1 -51 13 -28 10 20 21 25 52 27
22 1 46 2 53 2 6 1 12 8 12 16 0 8 9 15 20 15 11 0 20 -6 20 -14 0 -8 6 -17
13 -20 10 -5 10 -7 0 -12 -15 -7 -18 -74 -3 -74 6 0 10 -5 10 -11 0 -6 -12 -9
-27 -7 -25 3 -28 7 -31 46 -2 23 -7 42 -12 42 -4 0 -6 -9 -3 -20 5 -18 0 -20
-37 -20 -36 0 -41 -2 -30 -15 8 -10 21 -13 37 -8 19 4 24 2 21 -8 -3 -9 -19
-14 -44 -14 -31 0 -41 5 -51 25 l-13 25 0 -27 c0 -21 -5 -28 -20 -28 -18 0
-20 7 -20 80 0 73 2 80 20 80 17 0 20 -7 20 -52z m-188 25 c25 -23 24 -87 -2
-113 -14 -14 -33 -20 -65 -20 l-45 0 0 75 0 75 47 0 c29 0 53 -6 65 -17z m126
-35 c7 -7 12 -20 12 -30 0 -14 -8 -18 -36 -18 -24 0 -34 -4 -31 -12 2 -7 16
-12 31 -11 17 1 26 -3 26 -13 0 -23 -77 -19 -90 5 -14 28 -12 57 6 75 18 19
65 21 82 4z m350 0 c7 -7 12 -20 12 -30 0 -14 -8 -18 -36 -18 -24 0 -34 -4
-31 -12 2 -8 18 -12 36 -10 23 2 32 -2 29 -10 -3 -7 -22 -14 -43 -16 -42 -4
-65 14 -65 52 0 44 67 75 98 44z"/>
<path d="M6685 6780 c-3 -5 3 -10 15 -10 12 0 18 5 15 10 -3 6 -10 10 -15 10
-5 0 -12 -4 -15 -10z"/>
<path d="M6370 6775 c0 -30 2 -55 4 -55 3 0 16 4 30 10 21 8 26 16 26 45 0 29
-5 37 -26 45 -14 6 -27 10 -30 10 -2 0 -4 -25 -4 -55z"/>
<path d="M6525 6780 c-3 -5 1 -10 9 -10 9 0 16 5 16 10 0 6 -4 10 -9 10 -6 0
-13 -4 -16 -10z"/>
<path d="M6875 6780 c-3 -5 1 -10 9 -10 9 0 16 5 16 10 0 6 -4 10 -9 10 -6 0
-13 -4 -16 -10z"/>
<path d="M4040 2826 c0 -47 3 -56 21 -61 11 -4 31 -4 45 -1 22 6 24 12 24 61
0 70 -18 72 -22 3 -3 -45 -6 -53 -23 -53 -17 0 -20 8 -23 53 -4 69 -22 67 -22
-2z"/>
<path d="M4180 2820 c0 -68 17 -82 22 -18 l3 42 28 -42 c40 -61 57 -56 57 18
0 47 -3 60 -15 60 -11 0 -15 -11 -15 -42 l0 -43 -26 43 c-37 61 -54 56 -54
-18z"/>
<path d="M4330 2820 c0 -33 4 -60 10 -60 6 0 10 27 10 60 0 33 -4 60 -10 60
-6 0 -10 -27 -10 -60z"/>
<path d="M4407 2862 c-35 -39 -11 -102 38 -102 13 0 27 -4 30 -10 3 -5 13 -10
22 -10 12 0 13 3 4 13 -8 10 -7 22 1 44 10 26 9 35 -5 57 -21 31 -66 35 -90 8z
m61 -4 c26 -26 8 -88 -25 -88 -23 0 -38 46 -25 75 13 27 31 32 50 13z"/>
<path d="M4540 2832 c0 -53 12 -72 46 -72 35 0 54 26 54 76 0 32 -4 44 -15 44
-11 0 -15 -12 -15 -50 0 -37 -4 -52 -16 -57 -22 -8 -34 14 -34 65 0 23 -4 42
-10 42 -5 0 -10 -22 -10 -48z"/>
<path d="M4680 2820 l0 -60 38 1 c30 2 32 3 10 6 -36 6 -40 49 -5 56 l22 4
-22 2 c-16 1 -23 7 -23 20 0 12 8 21 23 24 16 3 13 5 -10 6 l-33 1 0 -60z"/>
<path d="M4840 2820 c0 -33 4 -60 10 -60 6 0 10 27 10 60 0 33 -4 60 -10 60
-6 0 -10 -27 -10 -60z"/>
<path d="M4910 2820 l0 -60 34 0 c44 0 66 22 66 65 0 39 -20 55 -69 55 l-31 0
0 -60z m72 25 c15 -33 -3 -75 -32 -75 -17 0 -20 6 -20 50 0 44 3 50 20 50 12
0 25 -10 32 -25z"/>
<path d="M5050 2820 l0 -60 38 1 c32 1 33 2 12 8 -16 4 -25 14 -25 26 0 12 9
21 25 26 l25 6 -25 4 c-14 2 -25 11 -25 19 0 8 11 17 25 21 21 6 20 7 -12 8
l-38 1 0 -60z"/>
<path d="M5160 2820 c0 -68 17 -82 22 -17 l3 42 25 -42 c14 -25 33 -43 43 -43
14 0 17 9 17 60 0 47 -3 60 -15 60 -11 0 -15 -11 -15 -42 l0 -43 -28 42 c-38
60 -52 56 -52 -17z"/>
<path d="M5308 2873 c20 -4 22 -10 22 -59 0 -30 5 -54 10 -54 6 0 10 23 10 50
0 43 3 52 23 60 17 7 9 9 -33 8 -30 0 -45 -3 -32 -5z"/>
<path d="M5420 2820 c0 -33 4 -60 10 -60 6 0 10 27 10 60 0 33 -4 60 -10 60
-6 0 -10 -27 -10 -60z"/>
<path d="M5490 2820 c0 -33 4 -60 10 -60 6 0 10 11 10 24 0 18 7 26 23 29 l22
4 -22 2 c-17 1 -23 7 -23 25 0 19 6 26 28 29 22 3 20 4 -10 6 l-38 1 0 -60z"/>
<path d="M5590 2820 c0 -33 4 -60 10 -60 6 0 10 27 10 60 0 33 -4 60 -10 60
-6 0 -10 -27 -10 -60z"/>
<path d="M5660 2820 l0 -60 38 1 c30 2 32 3 10 6 -36 6 -40 49 -5 56 l22 4
-22 2 c-16 1 -23 7 -23 20 0 12 8 21 23 24 16 3 13 5 -10 6 l-33 1 0 -60z"/>
<path d="M5760 2820 c0 -33 4 -60 10 -60 6 0 10 9 10 19 0 31 18 34 36 6 9
-14 23 -25 30 -25 12 0 11 5 -3 26 -14 21 -14 29 -4 46 17 27 -2 48 -45 48
l-34 0 0 -60z m57 34 c8 -21 -13 -42 -28 -27 -13 13 -5 43 11 43 6 0 13 -7 17
-16z"/>
<path d="M11130 2874 c0 -3 7 -30 16 -60 21 -74 44 -73 68 2 10 31 15 58 12
61 -8 8 -26 -7 -26 -22 0 -8 -5 -26 -11 -42 l-11 -28 -14 48 c-8 26 -19 47
-24 47 -6 0 -10 -3 -10 -6z"/>
<path d="M11266 2824 c-17 -55 -14 -86 5 -51 12 21 48 22 55 2 4 -8 12 -15 19
-15 11 0 9 14 -7 60 -26 80 -48 81 -72 4z m53 -16 c1 -5 -6 -8 -14 -8 -15 0
-21 31 -8 44 7 6 20 -17 22 -36z"/>
<path d="M11390 2820 l0 -60 38 1 c32 1 33 2 12 8 -22 6 -25 13 -28 59 -4 72
-22 66 -22 -8z"/>
<path d="M11490 2826 c0 -47 3 -56 21 -61 11 -4 31 -4 45 -1 22 6 24 12 24 61
0 70 -18 72 -22 3 -3 -45 -6 -53 -23 -53 -17 0 -20 8 -23 53 -4 69 -22 67 -22
-2z"/>
<path d="M11630 2820 l0 -60 38 1 c30 2 32 3 10 6 -36 6 -40 49 -5 56 l22 4
-22 2 c-16 1 -23 7 -23 20 0 12 8 21 23 24 16 3 13 5 -10 6 l-33 1 0 -60z"/>
<path d="M11737 2873 c-15 -14 -6 -43 18 -59 30 -20 28 -36 -6 -45 -22 -7 -22
-7 7 -8 57 -2 72 39 23 64 -34 18 -34 36 2 46 22 6 22 7 -7 8 -17 1 -34 -2
-37 -6z"/>
</g>
</svg>
